<?xml version="1.0" encoding="utf-8"?>
<!-- Generator: Adobe Illustrator 22.1.0, SVG Export Plug-In . SVG Version: 6.00 Build 0)  -->
<svg version="1.1" id="Capa_1" xmlns="http://www.w3.org/2000/svg" xmlns:xlink="http://www.w3.org/1999/xlink" x="0px" y="0px"
	 viewBox="0 0 750 1624" style="enable-background:new 0 0 750 1624;" xml:space="preserve">
<style type="text/css">
	.st0{fill:#6228cf;}
	.st1{fill:#FF7C00;}
	.st2{fill:#FBE5CA;}
	.st3{fill:#FAC907;}
	.st4{fill:#F4A1A1;}
	.st5{fill:#1CB7C0;}
	.st6{fill:#F23253;}
	.st7{fill:#F29F9F;}
	.st8{fill:#8B2979;}
	.st9{fill:#01637F;}
	.st10{fill:#E4F2FB;}
	.st11{fill:#FFFFFF;}
	.st12{fill:#C9E0E8;}
</style>
<rect x="0.1" y="0.1" class="st0" width="749.9" height="1623.7"/>
<g style="transform: translateY(-90px);">
	<path class="st1" d="M508.5,518c0,0,9.1-13.3-0.6-33.4c-9.7-20-39.4-26.7-57-19.4c-17.6,7.3-27.3,11.5-35.8,12.7
		c-3.7,0.5-7.5,2.6-10.7,4.9c-0.2,0.4-0.4,0.7-0.6,1.1c-3.3,2.2-6.6,5.7-9,11c-6.9,15.6-17.3,59,11.3,74.6
		c28.6,15.6,76.7-39.4,76.7-39.4s16.6-2.8,26.2-12C508.8,517.9,508.6,518,508.5,518z"/>
	<g>
		<g>
			<g>
				<path class="st1" d="M629.2,809.3c-0.3-19.4-10.9-36.2-26.4-45c11.8-7.9,19.5-21.5,19.3-36.9c-0.3-17.7-10.9-32.7-26-39.1
					c11.1-12.6,17.8-29.3,17.5-47.5c-0.6-38.3-31.5-68.7-69.1-68c-0.2,0-0.5,0-0.7,0c1.1-3.9,1.7-8.1,1.6-12.4
					c-0.4-23.9-19.7-42.9-43.1-42.4c-3.9,0.1-7.7,0.7-11.2,1.8c0-0.4,0-0.9,0-1.3c-0.3-23.2-15.4-42.6-36-49.2
					c-0.5,1.1-1.4,2-2.9,2.3c-8.4,1.9-16.8,3.1-25.1,5.4c-7,2-17.3,5.1-20.3,12.6c-2,5-9.5,3.4-9.2-1.1c-0.1,0.1-0.2,0.3-0.3,0.4
					c-11.9-21.2-34.5-35.3-60.2-34.8c-25.1,0.5-46.8,14.7-58.3,35.4c-9.7-5.2-20.8-8-32.6-7.8c-37.6,0.7-67.7,32.3-67.1,70.5
					c0.1,5.5,0.8,10.9,2.1,16c-1.3-0.1-2.7-0.1-4.1-0.1c-28.6,0.5-51.4,24.5-50.9,53.6c0.1,8.2,2.1,15.9,5.4,22.7
					c-25.6,7.1-44.3,31.1-43.9,59.4c0.3,18,8.3,34,20.7,44.9c-22.6,11.6-38,35.7-37.6,63.1c0.4,29.1,18.4,53.6,43.5,63.5
					c-16.9,6-28.9,22.4-28.6,41.6c0.4,23.9,19.7,42.9,43.1,42.4c3.1-0.1,6.2-0.5,9.1-1.2c-4.7,8.8-7.3,19-7.2,29.7
					c0.5,33.4,27.5,59.9,60.3,59.3c23.4-0.4,43.5-14.6,52.8-34.9c1.8,27.8,24.7,49.5,52.4,49c17.7-0.3,33.1-9.6,42.2-23.5
					c11.9,22.1,35.1,36.9,61.6,36.5c38.1-0.7,68.5-32.7,67.9-71.4c-0.1-5.3-0.8-10.5-1.9-15.4c8.3,5.4,18.2,8.5,28.8,8.3
					c28.6-0.5,51.4-24.5,50.9-53.6c-0.1-4.1-0.6-8.1-1.5-11.9c4.7,1.7,9.8,2.6,15,2.5c23.5-0.4,42.2-20.1,41.9-44
					c-0.2-10.6-4.1-20.3-10.4-27.7C613.3,854.9,629.6,833.9,629.2,809.3z"/>
			</g>
		</g>
	</g>
	<polygon class="st2" points="467.3,738.6 456.4,720.7 485.4,704.5 488.2,710.3 	"/>
	<path class="st3" d="M432.7,629.1c0,0,16.6,4.9,24.4,13.7c7.8,8.8,29.8,61.2,29.8,61.2l-30.8,16.8l-11.9-21l-14.6,47.1l-67.1-2.1
		L344,695.2c-0.5-1.4-2.6-1.5-3.1,0l-9.1,22.5L298.5,704c0,0,14.2-46,27.8-62.8c13.6-16.8,31.3-23.4,63.9-23.7L432.7,629.1z"/>
	<path class="st4" d="M573.1,657.5c0,0-2.8-12.3-5.6-17.8c-2.8-5.5-5,7.9-5,7.9L573.1,657.5z"/>
	<path class="st4" d="M454,643.2c0,0,2.7-1.2,6.6-2c3.9-0.8,14.8-3,15.5-3.2c0.7-0.2,0.8,2.2-1.2,3.5c-2,1.3-9.3,3.9-9.3,3.9
		L454,643.2z"/>
	<path class="st2" d="M453.6,520.5c0.2-0.7,0.2-1.5,0-2.3c-1.5-5.3-6.9-14.4-13.6-9.9c-2.7,1.8-3,4.1-2.2,6.5
		c-2.2,0-4.2,0.5-5.9,1.3c-1.5-0.6-3.4-0.3-4.7,0.6c-1.6,0.7-2.9,2.1-2.8,4.1c0,1.2,0.1,2.3,0.1,3.5c-2.2,4.7-3,10.5-3.2,15.4
		c-0.2,4,5.1,6,7.8,3.2c0.7-0.7,1.3-1.5,1.8-2.3c1.3-0.3,2.4-1.2,2.9-2.5c1-0.6,1.7-1.5,1.9-2.6c0.2-1.2,0.3-2.4,0.4-3.6
		c0.5,0,1-0.1,1.5-0.2c3-0.5,6-1.8,8.3-3.9c0.4-0.4,0.9-0.9,1.3-1.3C450.7,529.3,455.5,524.5,453.6,520.5z"/>
	<g>
		<g>
			<path class="st2" d="M437.4,508.5c-3.6,32-9.8,30.9-17.1,29.7c-7.4-1.2-5-6.4-11.2-15.4c-6.2-9-14.8-0.7-16.8,6.2
				c-2,6.9,2.7,11.7,7.1,15.2c1.3,1,2.3,2.1,3,3.1c1.7,1.7,3.4,4,4,6.8c1.3,6.3-10.1,53.5-11,58c-0.4,1.8-1.3,3-2.5,3.9
				c0.4,0.2,0.9,0.6,1.3,1c6.9,7.6,13.6,15.8,24.1,18.1c0.2-0.1,0.3-0.3,0.5-0.4c0,0,0,0,0.1,0c0.8-0.7,1.6-1.1,2.4-1.2
				c3.5-1.9,6.7-4.5,10.3-5.9c-0.3-1.4,1.5-5.8,1.7-6.9c1.3-6.5,5.6-28.8,7.2-32.5c1.8-4.4,3.4-7.6,9.8-6.7c8,1,19.3,1.5,23.8-13.9
				c4.1-14.1,8-33.9,8.7-37.6C472.7,529,451.6,523.3,437.4,508.5z"/>
		</g>
	</g>
	<g>
		<g>
			<path class="st5" d="M472.4,545.2c-0.4,1.4,0.2,2.8,1.3,3.1c1.1,0.3,2.3-0.5,2.7-1.9c0.4-1.4-0.2-2.8-1.3-3.1
				C474,543,472.8,543.8,472.4,545.2z"/>
		</g>
	</g>
	<g>
		<g>
			<path class="st6" d="M458.7,557.4c-0.4,1.4,0.2,2.8,1.3,3.1c1.1,0.3,2.3-0.5,2.7-1.9c0.4-1.4-0.2-2.8-1.3-3.1
				C460.3,555.1,459.1,556,458.7,557.4z"/>
		</g>
	</g>
	<g>
		<g>
			<path class="st1" d="M457.1,536C457.1,536,457.1,536,457.1,536c-0.3-0.3-1.1-1.9-2.3-2.3c-1.2-0.4-2.7-0.1-3.8,0.4
				c0,0-0.4,0.2-0.5-0.1c0-0.1,0.1-0.2,0.2-0.4c2.3-2.7,6.5-1.8,7.4,1.6C458.4,535.9,457.6,536.2,457.1,536z"/>
		</g>
	</g>
	<g>
		<g>
			<path class="st1" d="M478.8,538.3c0.1,0.2,0.1,0.3,0.2,0.5c0.5,1.5-0.1,1.8-0.5,1.2c0-0.1-0.1-0.3-0.2-0.4
				c-0.1-0.5-0.2-1-1.5-1.6c-0.3-0.2-0.6-0.2-0.8-0.2c-1,0-1.4,0.8-2.1,0.7c-0.1,0-0.2,0-0.3,0c-0.4-0.3-0.6-0.9-0.1-1.3
				c1.1-0.7,2.2-1.3,3.5-0.7C477.9,537,478.4,537.6,478.8,538.3z"/>
		</g>
	</g>
	<g>
		<g>
			<path class="st7" d="M471.7,555.1c1.2-2.4,3.5-4.2,6.3-3.4c-1.1,3.9-1.6,7.8-2.9,11.5c-0.5,0.1-1,0.1-1.6,0
				c-0.8,0-1.7-0.3-2.4-1.3c-0.2-0.2-0.3-0.5-0.4-0.8C470,558.9,470.9,556.6,471.7,555.1z"/>
		</g>
	</g>
	<g>
		<g>
			<path class="st7" d="M446.5,543.8c0.2,0,0.3,0,0.5,0.1c0.6,0,1.2,0.1,1.7,0.4c2.6,1,4.8,3.6,5.2,6.4c0.4,2.7-1.1,5.5-3.8,6.4
				c-0.5,0.2-1,0.3-1.6,0.3c-0.2,0-0.4,0-0.6,0c0,0-2,0.1-4.1-1.1c-2.2-1.2-3.2-3.5-3.5-5.3C440.1,549,441,543.2,446.5,543.8z"/>
		</g>
	</g>
	<g>
		<g>
			<path class="st1" d="M476.2,561.2c0,0-5,11.6-11.8,14.6c-10.5,4.7-17.3,0.6-20.5,4.9c-3.5,4.8-6.3,13.8,1,12
				c5.9-1.4,33.2-0.9,33.2-0.9S485.3,557.6,476.2,561.2z"/>
		</g>
	</g>
	<g>
		<g>
			<g>
				<path class="st7" d="M463.2,552.5c0.1,0,0.2,0,0.2,0c1.1-0.3,2.4-1.2,2.5-1.2c0.1-0.1,0.2-0.2,0.3-0.4c0-0.2,0-0.3-0.2-0.5
					c-1.2-1.3-0.9-4.4-0.6-5.4c0.1-0.3-0.1-0.6-0.4-0.7c-0.3-0.1-0.6,0.1-0.7,0.4c0,0.2-0.8,3.8,0.5,5.9c-0.4,0.3-1.1,0.6-1.6,0.8
					c-0.3,0.1-0.5,0.4-0.4,0.7C462.8,552.3,463,552.5,463.2,552.5z"/>
			</g>
		</g>
	</g>
	<g>
		<g>
			<g>
				<path class="st7" d="M406.8,540.1c0.3,0,0.6-0.2,0.6-0.5c0-0.1,1.5-10.5-6.4-15.9c-0.3-0.2-0.6-0.1-0.8,0.1
					c-0.2,0.3-0.1,0.6,0.1,0.8c7.3,5,5.9,14.7,5.9,14.8C406.2,539.8,406.5,540.1,406.8,540.1C406.8,540.1,406.8,540.1,406.8,540.1z"
					/>
			</g>
		</g>
	</g>
	<g>
		<g>
			<g>
				<path class="st7" d="M406.5,535.1c0.1,0,0.2,0,0.4-0.1c0.3-0.2,0.4-0.5,0.2-0.8c-2-3.7-6.9-4.3-7.1-4.4c-0.3,0-0.6,0.2-0.6,0.5
					c0,0.3,0.2,0.6,0.5,0.6c0,0,4.5,0.6,6.2,3.8C406.2,534.9,406.3,535,406.5,535.1z"/>
			</g>
		</g>
	</g>
	<path class="st8" d="M426.3,760.7c2-9.9,7.4-29.7,18.8-42.5c5.9-6.6,8.8-13.6,10.3-18.9c0.2-1.7,0.2-2.6,0.2-2.6
		c6.1-31.3-1.4-52.9-4.1-59.4c-0.5-1.3-1.5-2.3-2.8-2.8l-9.8-4.2c-0.5-0.2-1,0.3-0.8,0.8c10.9,21.9,2.7,50.9,2.7,50.9l-47.8-7.4
		c0.8-36.5-9.4-53.1-12.5-57.4c-0.5-0.7-1.4-1.1-2.3-1l-8.4,0.7c-0.6,0.1-0.9,0.7-0.7,1.2c2.7,5.3,13.8,28.7,9.8,55.4
		c-4.6,30.3-30.9,37.9-30.9,37.9c13.8,42.3,13.8,41.4,1.8,61.6c-12,20.2-25.7,54.2-25.7,54.2s-6.6,18.8-15.5,67.1l62.7,26.6
		l7.3-29.6l6.7-22.7c0,0,4.4-14.5,9.4-2.1l12.5,51.2l1.3,1.3c0.4,2.1,1.1,0,1.5,2.2l49.5-18.8c-3-18.2-6.1-37.5-9.4-55.2
		C437.6,799.8,424.4,770.3,426.3,760.7z"/>
	<path class="st3" d="M395.5,687.3l47.2,5.6c1,0.1,1.5,1.4,0.8,2.1c-6,7-28.8,29.2-49.4-5.8C393.7,688.3,394.4,687.2,395.5,687.3z"
		/>
	<g>
		<g>
			<path class="st2" d="M311.4,747c0,0-0.4,13.5,11.5,19.7c11.9,6.1,12.4,12.8,61.8-29.9c30.1-26,61.1-57.8,61.1-57.8l-5.9-17.4
				c0,0-77,54-101.4,68.5C313.7,744.7,311.4,747,311.4,747z"/>
		</g>
	</g>
	<g>
		<path class="st9" d="M450.8,541.4c0.9,0.2,1.7,0.3,2.5,0.7c0.8,0.4,1.5,1,2.3,1.3c0.5,0.2,1-0.2,0.7-0.7c-0.4-0.9-1.7-1.5-2.7-2
			c-1-0.4-2.3-0.9-3.2-0.7C449.7,540.3,450,541.2,450.8,541.4L450.8,541.4z"/>
	</g>
	<path class="st6" d="M518.8,553.5l0.1-0.1l-15.9-7c-10.9-4.8-25.9,5.3-33.5,22.6c-7.1,16.2-5.2,33,4.1,38.9l0,0.2l16,7
		c10.9,4.8,25.9-5.3,33.5-22.6C530.2,576.2,528.2,559.4,518.8,553.5z"/>
	
		<ellipse transform="matrix(0.4024 -0.9154 0.9154 0.4024 -234.8685 802.3554)" class="st5" cx="497.2" cy="581.1" rx="32.4" ry="20.5"/>
	<path class="st6" d="M480.7,610.1l-33.9,78.6c0,0,1.5,4.5,6.6,2.6l31.5-79L480.7,610.1z"/>
	<g>
		<g>
			<g>
				<path class="st10" d="M548.2,683.1l-15.8,33.4c0,0-4.1,9.4-11.5,6.2c-7.4-3.2-54.5-23.7-54.5-23.7l-1.5-0.6
					c-6.5-2.8-9.4-10.4-6.5-16.9l44.4-97.1c2.9-6.4,10.5-9.2,16.9-6.2l52,24.5c6.3,3,9,10.5,6.1,16.8L548.2,683.1z"/>
			</g>
		</g>
		<g>
			<g>
				<path class="st11" d="M528.5,710.4l42.9-90.6c1.9-4,0.2-8.7-3.8-10.6l-47.9-22.6c-4-1.9-8.7-0.2-10.6,3.8l-42.9,92
					c-1.9,4-0.1,8.9,4,10.7l47.9,21.2C522.1,716,526.7,714.3,528.5,710.4z"/>
			</g>
		</g>
		<g>
			<g>
				<g>
					<g>
						<path class="st12" d="M526.1,644c0,0-1.3-1.7,0.3-4.1c0,0,2.2,0.8,2,2.7S526.1,644,526.1,644z"/>
					</g>
				</g>
			</g>
			<g>
				<g>
					<g>
						<path class="st12" d="M531.3,646.8c0,0-2.5-2.3-5.5-1.7c0,0-0.9-1.5-2.8-2.4c-1.9-0.8-4.2,0.6-4.6,3.3
							c-0.5,2.7-0.3,3.7,0.4,5.6c0.7,1.9,3.3,1.8,3.3,1.8s0.8,1.2,2.1,1.6c1.2,0.4,4-1.6,4-1.6s-1.3,0.1-1.7-2.1
							c-0.4-2.1,2-4,4.4-2.9C530.9,648.4,532.4,647.9,531.3,646.8z"/>
					</g>
				</g>
			</g>
		</g>
	</g>
	<path class="st2" d="M467.3,738.6c0,0,18.8,29.8,29.2,38c10.4,8.2,24.8,12.8,41.1-20.4c16.2-33.2,33.9-87.4,35.8-94.2
		c1.9-6.9-4.8-12.6-11.5-18.3l-14.6,17c0,0,3.6,6.3,8.9,6.6L508,744.7l-20.7-36.1L467.3,738.6z"/>
	<path class="st2" d="M556.7,664c-0.9,0-9.4-3.4-9.4-3.4s-8.6-3.7-12.2-4.5c0,0-1.7-2.2,1.3-2c3,0.1,13.2,2.1,13.2,2.1
		s-9.6-4-12.2-5c-2.6-1-1.9-3.1,3.9-1.6c5.9,1.5,12.3,3,12.3,3l-15.4-6.1c0,0-1.4-2.1,3.9-1c5.3,1.1,15,3.4,15,3.4l1.6-2.6
		c0,0-8.6-5.7-11.5-8c-2.9-2.2-0.7-3.9,13.7,5.1l5.1,4.4L556.7,664z"/>
	<g>
		<g>
			<path class="st4" d="M563,647.7c-0.1-0.1-0.3-0.1-0.5,0c-0.2,0.1-0.3,0.4-0.2,0.5c0.4,0.7,0.4,1.5,0.2,2.3
				c-0.3,0.8-0.8,1.5-1.5,1.8c-0.1,0-0.2,0.1-0.2,0.2c0,0.1,0,0.2,0,0.3c0.7,1.3,0.1,3.2-1.2,3.9c-0.2,0.1-0.3,0.3-0.2,0.5
				c0.6,1.1,0.2,2.6-0.9,3.3c-0.2,0.1-0.2,0.3-0.2,0.5c0.5,1.1,0,2.6-1.1,3.2c-0.2,0.1-0.3,0.4-0.1,0.5c0.1,0.2,0.4,0.3,0.5,0.1
				c1.3-0.8,1.9-2.4,1.5-3.8c1.1-0.9,1.5-2.5,1-3.8c1.3-1,1.9-2.9,1.3-4.4c0.7-0.5,1.3-1.2,1.6-2.1c0.3-1,0.2-2.1-0.3-3
				C563.1,647.7,563,647.7,563,647.7z"/>
		</g>
	</g>
	<path class="st10" d="M514.5,720.1l7.5,3.2c0,0,6.7,1.6,10.6-7.8l22.4-46.4l-10,6.9l-16.8,35.8l-5.5,6.8L514.5,720.1z"/>
	<g>
		<g>
			<path class="st2" d="M465.1,660.4c-2.1-1.1-2.8-1.7-2.8-1.7s1.3,0.3,3,0.7c0.4-1.6,0.7-3.3,1-4.9c-1.1-0.4-1.8-0.6-1.8-0.6
				s0.7,0.2,1.8,0.4c0.2-1.4,0.4-2.9,0.6-4.3c-0.5-0.1-0.7-0.2-0.7-0.2s0.3,0,0.8,0c0.2-1.8,0.4-3.5,0.6-5.3
				c-4.3-0.9-8.9-1.9-11.3-2.1c-4.4-0.3-8.2,6.4-15.7,15.9c-7.5,9.5-4.6,16.4-2,18c0,0,4,4.7,9.6,2.2s11.6-15.4,11.6-15.4
				s1.5,0.6,3.9,1.4C464.2,663.2,464.7,661.8,465.1,660.4z"/>
		</g>
	</g>
	<g>
		<g>
			<path class="st4" d="M456.8,660.7c0.1,0.1,0.3,0,0.4-0.1c0.2-0.2,0.2-0.4,0-0.6c-0.5-0.5-0.8-1.3-0.8-2.2c0-0.9,0.4-1.6,0.9-2.1
				c0.1-0.1,0.1-0.2,0.1-0.3c0-0.1,0-0.2-0.1-0.3c-1-1.1-1-3,0.1-4.1c0.1-0.2,0.2-0.4,0-0.5c-0.8-0.9-0.9-2.4,0-3.4
				c0.1-0.1,0.1-0.4,0-0.5c-0.7-0.9-0.6-2.5,0.2-3.3c0.2-0.2,0.1-0.4,0-0.6c-0.2-0.2-0.4-0.2-0.6,0c-1,1.1-1.2,2.9-0.4,4.1
				c-0.8,1.1-0.8,2.8,0,3.9c-1,1.3-1.1,3.3-0.1,4.6c-0.6,0.6-0.9,1.5-0.9,2.4c0,1.1,0.3,2.1,1,2.8
				C456.7,660.7,456.8,660.7,456.8,660.7z"/>
		</g>
	</g>
	<path class="st2" d="M454,665.7l5.8-2.5l3.9,1.4l-1,3c0,0,1.4,0.3,2.3-0.9c0.9-1.2,1.7-4,1.4-5.3s-4.1-2.8-4.1-2.8s3.6,1.5,4.9,0.8
		c1.3-0.7,2.3-3.1-0.7-4c0,0,2.2,1,3-1.2c0.8-2.2-2.4-3.5-2.4-3.5s1.2,0.1,2.6-1.1c1.3-1.1,2.7-3.6-2-5.2c-4.7-1.6-7.1,2.4-7.1,2.4
		l-0.5,12.2L454,665.7z"/>
	<path class="st1" d="M411.6,494.1l2.6,37.8c0,0,3.9,10.4,9.1,9.8c4.9-0.6,9.3-7.6,5.4-19.9c-0.1-0.5,0.4-0.8,0.7-0.5
		c2.6,2.8,8.1,7.6,12.8,4.7c4.8-2.9,3.3-11.2,2.1-15.6c-0.1-0.4,0.4-0.6,0.6-0.3c3.9,6.2,16.2,21.9,37.7,19.8l5.9-26.1L411.6,494.1z
		"/>
	<g>
		<path class="st3" d="M430.8,632l0.9-0.7l2.9-13.3c0,0-10.7,1.6-17.5,17.2C421.7,635.9,426.4,635.1,430.8,632z"/>
		<path class="st3" d="M417.1,635.3c3.7-21.2-22.2-31.2-22.2-31.2l-5.2,13.3l1.9,2.1C395.8,623.9,406.1,633.7,417.1,635.3z"/>
	</g>
	<path class="st2" d="M331.9,716.7l-8.1,23.6l34.8,17.9c0,0-23.3,18.6-37.8,20.9c-14.5,2.4-35.1-4.1-30-34.1l8.8-40.5
		C299.5,704.5,325.4,711,331.9,716.7z"/>
	<path class="st2" d="M342.2,906.1c-10.7-5.3-21.9-9.5-33.1-13.7c-3.7,20.3-7.9,45.9-12.1,77.7c-14,105.3-33.8,359.1-40.1,373.1
		c0,0,3.1,16.6-12.4,20c-17.8,3.9-34.6,16.8-16.8,16.8c17.8,0,49.3-22.6,49.3-22.6l69.4-334l25.3-103.9
		C361.5,916.1,351.9,910.9,342.2,906.1z"/>
	<path class="st2" d="M521.3,1359.7l-16.6-22.3c0,0-0.4-67.3-6.9-142.5c-5.1-59.7-16.4-127.7-18.1-147.4
		c-2.2-25.9-10.9-89.4-20.6-147.1c-16.1,7.5-33.3,17.6-50.4,22c9.2,52.4,22.8,107.3,22.8,107.3l31.2,174.8l33.8,153.1
		c0,0,17.1,9,38.7,15.3C556.7,1379.3,537.8,1372.4,521.3,1359.7z"/>
	<g>
		<g>
			<g>
				<path class="st3" d="M411.7,931.4l49.1-18.7c1.3-0.5,2.2-1.8,2.2-3.2l-1.2-10.3c0-2.4-2.4-4-4.6-3.2l-50.7,20.2
					c-1.4,0.6-1.6,2.9-1.5,4.5l2.2,7.9C407.3,930.8,409.6,932.2,411.7,931.4z"/>
			</g>
		</g>
	</g>
	<g>
		<g>
			<g>
				<path class="st3" d="M368.5,929.6l-64.4-20.1c-1.6-0.4-2.8-1.8-2.8-3.4l1.6-11c-0.1-2.7,2.7-4.6,5.4-3.8l64.1,21
					c1.7,0.5,2.8,2,2.7,3.7l-1.3,10.2C373.7,928.6,371.1,930.3,368.5,929.6z"/>
			</g>
		</g>
	</g>
	<path class="st11" d="M299.6,1253.6l9.8-52.1c0,0-15.3,2.9-35.6-7.5l-5.5,53C268.3,1247,285.4,1273.1,299.6,1253.6z"/>
	<path class="st11" d="M272.1,1360.5l1.6,5.6l-1.4,3.8c0,0-45.1,23.1-57.1,12c0,0-0.3-3.1,0.4-5.3
		C216.3,1374.4,272.1,1360.5,272.1,1360.5z"/>
	<path class="st6" d="M294.9,1256c-1.2,0.5-2.4-0.6-2.1-1.8c0.9-3.6,1.3-9.6-5-11.5c-0.1,0-0.1,0-0.2-0.1
		c-10.9-0.6-18.9-5.8-18.9-5.8l-13,110.5c-0.2,1.8-1.2,3.4-2.6,4.4c-3.8,2.6-12,8.1-23.5,14c-16.1,8.4-14.1,10.9-14.1,10.9
		s-3.5,7.7,17.5,4.2c21-3.5,40.6-14.7,40.6-14.7s3.5-5.6,4.9-11.2c1.1-4.4,15-72,21-101.3C298.1,1254.5,296.5,1255.3,294.9,1256z"/>
	<g>
		<g>
			<g>
				<path class="st6" d="M290.5,1205.7c-6.1-1.4-11.6-3.1-17.2-5.8c-0.3,2.3-0.5,4.5-0.8,6.8c5.8,2.6,11.4,4.4,17.5,5.7
					c5.4,1.1,11.2,2.3,17,1.9c0.5-2.3,0.8-4.5,1.3-6.8C302.4,1208.6,296.1,1207,290.5,1205.7z"/>
			</g>
		</g>
	</g>
	<g>
		<g>
			<g>
				<path class="st6" d="M287.7,1220.1c-5.7-1.3-10.7-2.9-16-5.3c-0.3,2.3-0.4,4.5-0.6,6.8c5.5,2.4,10.4,4,16.2,5.2
					c5.2,1.1,11.5,2.2,17.2,1.9c0.5-2.3,0.7-4.4,1.2-6.7C299.7,1222.9,293.1,1221.4,287.7,1220.1z"/>
			</g>
		</g>
	</g>
	<path class="st11" d="M471.8,1253.6l-9.8-52.1c0,0,15.3,2.9,35.6-7.5l5.5,53C503.1,1247,486.1,1273.1,471.8,1253.6z"/>
	<path class="st11" d="M499.4,1360.5l-1.6,5.6l1.4,3.8c0,0,45.1,23.1,57.1,12c0,0,0.3-3.1-0.4-5.3
		C555.2,1374.4,499.4,1360.5,499.4,1360.5z"/>
	<path class="st6" d="M476.5,1256c1.2,0.5,2.4-0.6,2.1-1.8c-0.9-3.6-1.3-9.6,5-11.5c0.1,0,0.1,0,0.2-0.1c10.9-0.6,18.9-5.8,18.9-5.8
		l13,110.5c0.2,1.8,1.2,3.4,2.6,4.4c3.8,2.6,12,8.1,23.5,14c16.1,8.4,14.1,10.9,14.1,10.9s3.5,7.7-17.5,4.2
		c-21-3.5-40.6-14.7-40.6-14.7s-3.5-5.6-4.9-11.2c-1.1-4.4-15-72-21-101.3C473.3,1254.5,474.9,1255.3,476.5,1256z"/>
	<g>
		<g>
			<g>
				<path class="st6" d="M481,1205.7c6.1-1.4,11.6-3.1,17.2-5.8c0.3,2.3,0.5,4.5,0.8,6.8c-5.8,2.6-11.4,4.4-17.5,5.7
					c-5.4,1.1-11.2,2.3-17,1.9c-0.5-2.3-0.8-4.5-1.3-6.8C469.1,1208.6,475.3,1207,481,1205.7z"/>
			</g>
		</g>
	</g>
	<g>
		<g>
			<g>
				<path class="st6" d="M483.8,1220.1c5.7-1.3,10.7-2.9,16-5.3c0.3,2.3,0.4,4.5,0.6,6.8c-5.5,2.4-10.4,4-16.2,5.2
					c-5.2,1.1-11.5,2.2-17.2,1.9c-0.5-2.3-0.7-4.4-1.2-6.7C471.8,1222.9,478.3,1221.4,483.8,1220.1z"/>
			</g>
		</g>
	</g>
	<path class="st1" d="M386.5,539.5l10.7,2.9c0,0,4.8,4.1,7,5.9c2.2,1.8,4.1,4.1,0.4,19.2C400.9,582.6,358.5,570.5,386.5,539.5z"/>
	<path class="st7" d="M290.7,761.6c0,0,19.8-1.4,26.6,18C317.3,779.6,294.7,782.3,290.7,761.6z"/>
	<path class="st7" d="M501.6,780c0,0,6.3-9.2,22.5-3.9c0,0-5.3,5.8-11.4,6.5C506.6,783.2,501.6,780,501.6,780z"/>
	<g>
		<path class="st7" d="M507.7,744c-0.1-0.2-0.1-0.3-0.2-0.5c-1,1.8-7.2,13.1-8.7,16.4l0.8,0.4c1.4-3,6.8-13,8.4-15.8
			C507.9,744.4,507.8,744.2,507.7,744z"/>
	</g>
	<circle class="st11" cx="504.5" cy="561.2" r="8.5"/>
	<circle class="st11" cx="512.9" cy="571.4" r="3.2"/>
	<path class="st1" d="M429.7,473.6c0,0-5.2,2.2-14.6,4.3c-9.4,2.1-16,7.6-18.4,11.8c-2.4,4.2,13.5,2.1,13.5,2.1
		S436.3,477.9,429.7,473.6z"/>
	<path class="st3" d="M422.9,475.9c0,0-14.3,9.1-13.3,37.8c0,0.5-0.7,0.7-0.9,0.2c-2.2-5.9-6.3-21.5,5.2-35.9
		C413.9,477.9,416.7,474.8,422.9,475.9z"/>
</g>
</svg>
