<?xml version="1.0" encoding="utf-8"?>
<!-- Generator: Adobe Illustrator 22.0.1, SVG Export Plug-In . SVG Version: 6.00 Build 0)  -->
<svg version="1.1" id="Capa_1" xmlns="http://www.w3.org/2000/svg" xmlns:xlink="http://www.w3.org/1999/xlink" x="0px" y="0px"
	 viewBox="0 0 750 1624" style="enable-background:new 0 0 750 1624;" xml:space="preserve">
<style type="text/css">
	.st0{fill:#6228cf00;}
	.st1{fill:#01637F;}
	.st2{fill:#FAC907;}
	.st3{fill:#1CB7C0;}
	.st4{fill:#FBE5CA;}
	.st5{fill:#8A2979;}
	.st6{fill:#F23253;}
	.st7{fill:#E4F2FB;}
	.st8{fill:#FFFFFF;}
	.st9{fill:#F29F9F;}
	.st10{fill:#C9E0E8;}
	.st11{fill:#F03253;}
	.st12{fill:#F4A1A1;}
</style>
<rect x="0.1" y="0.1" class="st0" width="749.9" height="1623.7"/>
<g style="transform: translateY(-80px)">
	<g>
		<g>
			<g>
				<g>
					<path class="st1" d="M596.6,1034.9l4.8-3.2c0.4-0.3,1-0.4,1.5-0.2l5.1,1.5c0.3,0.1,0.6,0.3,0.8,0.6l0.8,0.9
						c0.7,0.8,0.5,2-0.3,2.6l-6.8,5.1c-0.7,0.6-1.8,0.4-2.4-0.2l-3.8-4.3C595.5,1036.8,595.7,1035.5,596.6,1034.9z"/>
				</g>
			</g>
			<g>
				<g>
					<path class="st2" d="M608.4,1033.3l-10,7.5l2.7,2.2l8.2-6c0,0,1.2-0.8,0.6-2.1L608.4,1033.3z"/>
				</g>
			</g>
			<g>
				<g>
					<path class="st1" d="M611.1,1052.6l4.8-3.2c0.4-0.3,1-0.4,1.5-0.2l5.1,1.5c0.3,0.1,0.6,0.3,0.8,0.6l0.8,0.9
						c0.7,0.8,0.5,2-0.3,2.6l-6.8,5.1c-0.7,0.6-1.8,0.4-2.4-0.2l-3.8-4.3C610,1054.4,610.2,1053.2,611.1,1052.6z"/>
				</g>
			</g>
			<g>
				<g>
					<path class="st2" d="M622.9,1050.9l-10,7.5l2.7,2.2l8.2-6c0,0,1.2-0.8,0.6-2.1L622.9,1050.9z"/>
				</g>
			</g>
			<g>
				<g>
					<path class="st3" d="M613.5,1070.4l2.4,2.2c0.8,0.7,1.9,0.9,2.9,0.4l3.7-1.9c1.5-0.8,1.8-2.7,0.7-3.9l-32.6-36.9
						c-0.8-1-2.3-1.1-3.3-0.4l-4.7,3.3c-1.3,0.9-1.4,2.7-0.4,3.8l31.1,33.4C613.4,1070.3,613.4,1070.3,613.5,1070.4z"/>
				</g>
			</g>
			<g>
				<g>
					<path class="st2" d="M611.2,1071.6l2.4,2.2c0.8,0.7,1.9,0.9,2.9,0.4l3.7-1.9c1.5-0.8,1.8-2.7,0.7-3.9l-32.6-36.9
						c-0.8-1-2.3-1.1-3.3-0.4l-4.7,3.3c-1.3,0.9-1.4,2.7-0.4,3.8l31.1,33.4C611.1,1071.5,611.1,1071.6,611.2,1071.6z"/>
				</g>
			</g>
			<g>
				<g>
					<path class="st1" d="M186.9,1297.9c0,0-0.9-1.1-4.7-0.9s-7.6,1.2-8.6,4.4c-0.9,3.2,10.1,1.6,10.7-0.1
						C184.9,1299.7,186.9,1297.9,186.9,1297.9z"/>
				</g>
			</g>
			<g>
				<g>
					<path class="st2" d="M443.6,824.3l60.5,74.5c2.1,2.6,5.8,3.4,8.7,1.8l44.7-23c4.9-2.5,5.2-9.4,0.5-12.3
						c-20.4-12.5-67.7-39.2-115.9-49.6C377.9,802,443.6,824.3,443.6,824.3z"/>
				</g>
			</g>
			<g>
				<g>
					<path class="st4" d="M323.6,1106.2c0,0-82.4,224.5-88,228.6l-17.3-10.6l50.8-226.4L323.6,1106.2z"/>
				</g>
			</g>
			<g>
				<g>
					<path class="st4" d="M414.3,1078.4c0,0,18.7,47.3,28.1,58.3s34.5,5.4,58.4-12.6c24-18.1,79.3-67,79.3-67s5.7-5.8,14.8,2.9
						c9.1,8.7,16.4,12,20.6,12.4c4.3,0.4-1.6-10.1-17.8-26.8s-15.9-9.3-30.5-0.5c-13.6,8.2-83.5,35.9-100.1,45.5l-11.1-37.2
						L414.3,1078.4z"/>
				</g>
			</g>
			<g>
				<g>
					<polyline class="st3" points="406.2,639.1 393.2,630.8 350.1,639.7 339.1,649.6 356.2,807.2 403.9,800.2 426.7,657.5 
						408.9,642.4 406.2,639.1 					"/>
				</g>
			</g>
			<g>
				<g>
					<path class="st5" d="M409.2,793.6l-55.2,3.2l-82.9,236.8l-12.8,63.1c-1.2,5.8,3,11.4,8.9,11.9c33.9,2.9,137.8,7.6,204.8-34
						c3.6-2.2,5.3-6.5,4.4-10.6l-12.7-58.2L409.2,793.6z"/>
				</g>
			</g>
			<g>
				<g>
					<path class="st5" d="M425.8,650.7l-17.4-11.9c-0.7-0.5-1.6-0.2-1.9,0.5l-29.7,57.2c-1.1,2.1-4.1,2.2-5.3,0.1L342.6,647
						c-0.5-0.8-1.6-0.9-2.2-0.2c-3.4,4.2-12.9,16.1-16.4,20c-4.3,4.7,26.9,79.8,26.9,79.8l55.1-2.3L425.8,650.7z"/>
				</g>
			</g>
			<g>
				<g>
					<path class="st1" d="M362.3,603c-2.3,0.4-19.6,1.6-30,8.6c-10.4,6.9-28.3,4.7-43.8-6.7c-12.1-9-13.4-30-6.7-48.3s10-29,10-29
						s-13.8-1.8-18.7-10.3c-4.9-8.5-9-32.4,11.8-46.3s53.2-8.1,71.4-0.6s25.2,2.3,44.7,6.9c19.5,4.5,35.1,33.7,41.6,67.2
						c6.5,33.6,4.8,42.9-10.8,53.7S376.7,600.5,362.3,603z"/>
				</g>
			</g>
			<g>
				<g>
					<path class="st4" d="M395.3,630.9c-0.3-4.8-5.8-55.5-3.5-61.9c1-2.9,3.1-5,5.1-6.5c0.9-1,2-1.9,3.5-2.9
						c5-3.1,10.6-7.4,9.5-14.9s-9-17.2-16.7-8.7c-7.6,8.5-5.9,14.3-13.8,14.5s-14.4,0.5-13.8-33.3c-16.8,13.4-40.1,14.2-50.5,13.8
						c0.3,4,2,27.4,4.4,42.6c2.6,16.7,14.4,17.8,22.9,17.8c6.8,0,8,3.5,9.3,8.3c1.1,4.1,2.6,27.9,3,34.9c0.1,1.3-0.4,2.5-1.2,3.4
						c-1,1-2.2,2.2-3.6,3.4c-0.4,0.4-0.9,0.8-1.3,1.2l23.5,32.1c0.8,1.1,2.4,1,3.1,0l24.8-36.2c0,0-0.1-0.5-0.2-1.3
						C397.5,635.6,395.5,634,395.3,630.9z"/>
				</g>
			</g>
			<g>
				<g>
					<path class="st1" d="M372.4,477.3c0,0-8.5-25.3,13.1-34.4s41.5,17.2,26,37.3C395.9,500.4,372.4,477.3,372.4,477.3z"/>
				</g>
			</g>
			<g>
				<g>
					
						<ellipse transform="matrix(0.9032 -0.4292 0.4292 0.9032 -204.9654 191.7645)" class="st1" cx="322.7" cy="550.3" rx="1.9" ry="2.8"/>
				</g>
			</g>
			<g>
				<g>
					
						<ellipse transform="matrix(0.4587 -0.8886 0.8886 0.4587 -298.9183 605.2315)" class="st1" cx="347.3" cy="548" rx="3" ry="2.1"/>
				</g>
			</g>
			<g>
				<g>
					<path class="st2" d="M309.6,530.6"/>
				</g>
			</g>
			<g>
				<g>
					<polygon class="st2" points="291.9,527.5 309.6,530.6 309.3,532.9 291.6,529.2 					"/>
				</g>
			</g>
			<g>
				<g>
					<path class="st2" d="M410.6,481.3c0,0-12.8-6.1-27.3-5.2c0,0,8.2-3.4,28,4.3L410.6,481.3z"/>
				</g>
			</g>
			<g>
				<path class="st6" d="M460.8,1067.4c-0.2,0-0.3-0.1-0.4-0.3l-7.3-29.9c-0.1-0.2,0.1-0.4,0.3-0.5c0.2-0.1,0.4,0.1,0.5,0.3
					l7.3,29.9C461.2,1067.2,461.1,1067.4,460.8,1067.4L460.8,1067.4z"/>
			</g>
			<g>
				<g>
					<path class="st2" d="M422.7,644.4l38.9,23c0,0,5.2,0.1,2.1,11.4s-30.2,82.4-34.8,95.4c-4.6,12.9,4,29.2,13.1,41.6
						c9.1,12.5,29.9,46.2,44.4,91.3c11,34.3,36.4,80.9,41.7,102.8c1.6,6.5-1.9,13.1-8,15.6c-13.8,5.5-53.3,18.2-88.3,24.2
						c-7.5,1.3-14.6-3.9-15.6-11.5c-4.4-32.7-15.5-118.2-22.2-185c-8.1-80.6,12.1-182.9,24.2-207.5
						C419.1,644.1,421.1,643.5,422.7,644.4z"/>
				</g>
			</g>
			<g>
				<g>
					<path class="st2" d="M326.4,655.9c1.4-1.5,3.9-1,4.7,0.9c6,14.1,25.8,64.9,29.9,124.4c4.2,61.4,0.7,227.6-0.2,268.3
						c-0.1,4.7-4.5,8-9,6.8l-91.7-23.5c-4.1-1.1-6.4-5.4-5-9.4c13.7-38.7,75.9-215.2,78.2-226.4c2.6-12.6,5.3-34.3-7.2-58.9
						c-9.3-18.4-21.7-37.6-27.4-46.2c-1.8-2.7-1.4-6.3,0.8-8.6L326.4,655.9z"/>
				</g>
			</g>
			<g>
				<g>
					<path class="st2" d="M326.7,727c-2.6-24.3-20.1-11.2-75.3,8.2c-1.6,0.6,8.8,0.4,7.4,1.3l-0.2,0.5l-8.6,15.7l-5-13.8
						c-32.8,27,1.3,155.4,1.3,155.4S260,893.7,270,878s37.7-62.6,43.9-78.1C320,784.4,329.2,751.3,326.7,727z"/>
				</g>
			</g>
			<g>
				<g>
					<path class="st2" d="M420.2,670.7c11.3-17,44.6-11.1,50.9,8.4c0.2,0.5,1.8,6.6,1.9,7.2c6,22.9-26.4,156.2-43.3,184.1
						c-16.9,27.9-42.2,22.9-48.8-12s-11.4-76.9,1.4-108.6C391.7,726.3,406.7,691,420.2,670.7z"/>
				</g>
			</g>
			<g>
				<g>
					<path class="st6" d="M415.1,782.6c0,0,9.8,14.1,17.1,42.7c7.3,28.6-2.5,55.4-17.2,60.9c-18.4,6.9-31.4-4.4-37.1-35
						s-5-75.9-5-75.9L415.1,782.6z"/>
				</g>
			</g>
			<g>
				<path class="st6" d="M369.2,736.4c-0.1,0-0.1,0-0.2,0c-0.2-0.1-0.3-0.3-0.2-0.5l46.4-92.2c0.1-0.2,0.3-0.3,0.5-0.2
					s0.3,0.3,0.2,0.5l-46.4,92.2C369.4,736.3,369.3,736.4,369.2,736.4z"/>
			</g>
			<g>
				<g>
					<path class="st4" d="M415.1,782.6c0,0-8.1,21.5-21.1,23c-13,1.6-30.7-12.8-46.3-48.3c-15.6-35.5-36.2-73.5-36.2-73.5l11.3-13.9
						c0,0,41,64.6,61.9,82.8C405.6,770.9,415.1,782.6,415.1,782.6z"/>
				</g>
			</g>
			<g>
				<g>
					<path class="st7" d="M230.2,691.7l2.7,35.9c0,0,0.4,10,8.3,9.6c7.9-0.3,57.8-2.5,57.8-2.5l1.6-0.1c6.9-0.3,12.2-6.2,11.8-13.1
						l-6.5-103.9c-0.4-6.9-6.4-12-13.2-11.5l-55.9,4.1c-6.8,0.5-11.9,6.4-11.4,13.2L230.2,691.7z"/>
				</g>
			</g>
			<g>
				<g>
					<path class="st8" d="M238.5,723.3l-7.4-97.4c-0.3-4.3,2.9-8,7.2-8.3l51.4-3.8c4.3-0.3,8,2.9,8.3,7.2l6.9,98.7
						c0.3,4.3-3,8.1-7.4,8.3l-51,2.5C242.5,730.7,238.9,727.5,238.5,723.3z"/>
				</g>
			</g>
			<g>
				<g>
					<path class="st4" d="M317.5,684.4c0,0-5.5,2.6-9.4-1.9s-4-18.4-4-18.4s-5.7-0.4-12-1.4s-2.1-3.2,3.8-3.1s7.7-0.5,7.7-0.5
						s-11.2-2.4-13.2-2.9s-3.7-2.8,0.9-3s12.3,0.8,12.3,0.8s-10.6-2.2-12.9-2.4s-2.7-3.2,3.7-2.9c5.9,0.2,9.4,1,9.4,1
						s-7.1-3.3-10.7-4.2c-3.7-0.8-3.8-4.9,2.8-3.1c4.3,1.2,15.7,3.3,19.7,4.8s4.7,9,7.5,20.5C325.9,679.1,320.5,684,317.5,684.4z"/>
				</g>
			</g>
			<g>
				<g>
					<path class="st6" d="M263.7,786.8c0,0,3,69.2-2.3,89.2c-5.2,20-15.8,21.2-23.7,14.7s-14.7-75.5-10.9-111.5
						C230.6,743.3,263.7,786.8,263.7,786.8z"/>
				</g>
			</g>
			<g>
				<g>
					<path class="st4" d="M261.8,759.1c-1.9-5.2-4.6-11.1-6.9-15.6l-5,9l-5.5-15l0.1,0.1c-0.1-0.3-0.2-0.4-0.2-0.4H243
						c-9.2,0.4-9.9-5.6-10.3-11l-2.7-34.5c0,0,3-2.6,12.8-6.8s10.3-6.7-1.5-4.3l-6.8,0.9c0,0,11.7-3.6,16.6-6.3
						c4.9-2.7-7-2.8-16.9,0.1c0,0,8.6-4.1,15.4-6.3s-0.8-3.4-16.8,0.4c0,0,1.1-4.1,3.5-6c1.7-1.4,4.6-3.3,6.1-4.3
						c0.8-0.6,1.4-1.4,1.6-2.4c0.2-1.3-0.9-1.3-5.3,0.3c-7.4,2.8-14.2,7.5-19.6,12.1c-5.4,4.6-2.1,23.8-2.2,35.1
						c-0.1,11.3,10.1,74.6,10.7,89.6c0.6,15,21.3,29.1,30.8,18.1C268,800.7,265.4,768.9,261.8,759.1z"/>
				</g>
			</g>
			<g>
				<g>
					<path class="st9" d="M244.5,737.5"/>
				</g>
			</g>
			<g>
				<g>
					<path class="st2" d="M272,754.6l-13.4-17.7l-8.5,15.5c4,10.8,8.9,24.1,10.2,27.9c3.2,9,3.8,17.4,3.8,17.4l6.5-10.4L272,754.6z"
						/>
				</g>
			</g>
			<g>
				<g>
					<path class="st6" d="M275.5,827.3c-1.7-32.3-8.4-52.5-21.1-63.5c0.1,0.4,0.2,0.9,0.4,1.3c12,11,18.3,30.9,20,62.2
						c1.9,35.8-5,50.4-5.1,50.5c-0.1,0.2,0,0.4,0.2,0.5c0.1,0,0.1,0,0.2,0s0.3-0.1,0.3-0.2C270.4,878,277.4,863.3,275.5,827.3z"/>
				</g>
			</g>
			<g>
				<g>
					<path class="st4" d="M248.9,1304.4c0,0-10.7,28.9-14.3,33.9s-9.9,3.7-21.1-2.1c-11.2-5.7-32.5-26.1-36.1-32.6
						c-3.6-6.6,9.1-6.4,14.8-3.4c11.4,5.9,32.8,17,32.8,17l5.2-27.9L248.9,1304.4z"/>
				</g>
			</g>
			<g>
				<g>
					<path class="st1" d="M181.8,1299.8c0,0,1.3-2.6,5.3-2.8c4-0.2,12.3,2.6,15.6,7.9c0,0,2.2,2.3,2.2,5.8l-2.8,1.9l-5.2-4.7
						c0,0,0.3-4-1.4-6s-5.8-3.4-7.7-3s-3.4,2.4-3.4,2.4L181.8,1299.8z"/>
				</g>
			</g>
			<g>
				<g>
					<path class="st2" d="M167.1,1302.7c0,0,17.9-3.2,19.3-3.3c1.3-0.2,3.1-0.2,9,4.3c6.9,5.4,42.8,33.6,42.8,33.6s2.3,2.6-2.1,3.8
						c-5.3,1.4-15,4.9-16.6,5.3s-3.1-0.6-8.4-4.5c-5.3-3.9-44-35.5-44-35.5S164.6,1304.2,167.1,1302.7z"/>
				</g>
			</g>
			<g>
				<g>
					<path class="st3" d="M166.7,1306.3c0,0,18.3-3.1,19.7-3.4c1.4-0.2,4.5,1.4,9,5s41.4,32.9,41.4,32.9l-14.2,4.2l-19.4-9.4
						L166.7,1306.3z"/>
				</g>
			</g>
			<g>
				<g>
					<polygon class="st1" points="183.1,1314.1 197.4,1309.6 202.1,1313.6 201.5,1328.4 181.5,1334.9 176.4,1331.7 177.9,1315.2 
											"/>
				</g>
			</g>
			<g>
				<g>
					<polygon class="st2" points="176.4,1331.7 197.1,1325.1 197.4,1309.6 177.9,1315.2 					"/>
				</g>
			</g>
			<g>
				<g>
					<polygon class="st1" points="207.5,1333.5 221.8,1329 226.5,1333 225.9,1347.8 205.9,1354.3 200.8,1351.1 202.3,1334.7 					
						"/>
				</g>
			</g>
			<g>
				<g>
					<polygon class="st2" points="200.8,1351.1 221.5,1344.5 221.8,1329 202.3,1334.7 					"/>
				</g>
			</g>
			<g>
				<g>
					<path class="st1" d="M617,1072.1c0,0-5.7-3.5-5.7-6.9c0.1-3.4,2.4-4.6,2.4-4.6l-2.6-3c0,0-2.9,4.2-2.6,7
						c0.4,2.8,3.8,7.5,7.1,8.6L617,1072.1z"/>
				</g>
			</g>
			<g>
				<g>
					<path class="st1" d="M613.3,1070.3c0,0-8.7-1.4-9.7-1.9s-2.6-2-2.6-2l9.7,1.4L613.3,1070.3z"/>
				</g>
			</g>
			<g>
				<g>
					<g>
						<g>
							<path class="st10" d="M263.9,662.4c0,0-1.9-0.8-1.8-3.6c0,0,2.3-0.4,3,1.3C265.9,661.8,263.9,662.4,263.9,662.4z"/>
						</g>
					</g>
				</g>
				<g>
					<g>
						<g>
							<path class="st10" d="M269.7,662.3c0,0-3.3-0.8-5.5,1.2c0,0-1.5-0.9-3.5-0.6c-2,0.2-3.2,2.5-2.3,5c0.9,2.5,1.5,3.3,3,4.6
								s3.7-0.1,3.7-0.1s1.3,0.6,2.5,0.3c1.3-0.2,2.7-3.3,2.7-3.3s-1.1,0.7-2.4-0.9c-1.3-1.6-0.3-4.3,2.3-4.6
								C270.1,663.9,271.2,662.8,269.7,662.3z"/>
						</g>
					</g>
				</g>
			</g>
			<g>
				<g>
					<g>
						<path class="st11" d="M334.3,568.8c-3.5-0.2-4.8-3.2-5.1-4.8c0-0.3,0.2-0.6,0.5-0.6s0.6,0.2,0.6,0.5c0,0.2,0.6,3.8,4.1,3.9
							c3.5,0.1,4.1-4.8,4.2-4.9c0-0.3,0.3-0.5,0.6-0.5c0.3,0,0.5,0.3,0.5,0.6c-0.2,2.1-1.6,6-5.3,5.9
							C334.4,568.8,334.4,568.8,334.3,568.8z"/>
					</g>
				</g>
			</g>
			<g>
				<g>
					<path class="st1" d="M344.7,541.9L344.7,541.9c0.4-0.2,1.7-1.6,3-1.7c1.3-0.1,2.8,0.7,3.7,1.6c0,0,0.3,0.3,0.5,0
						c0-0.1,0-0.3-0.1-0.4c-1.5-3.4-6-3.7-8-0.6C343.5,541.5,344.1,542,344.7,541.9z"/>
				</g>
			</g>
			<g>
				<g>
					<path class="st1" d="M318.4,542.5c-0.1,0.2-0.2,0.3-0.3,0.5c-0.8,1.5-0.2,1.9,0.3,1.3c0.1-0.1,0.1-0.3,0.2-0.4
						c0.2-0.5,0.4-1.1,1.7-1.4c0.3-0.1,0.6-0.1,0.9-0.1c1,0.1,1.3,1,2.1,1.1c0.1,0,0.2,0,0.3,0c0.4-0.2,0.7-0.9,0.2-1.3
						c-1-0.9-2.2-1.6-3.5-1.2C319.5,541.3,318.9,541.8,318.4,542.5z"/>
				</g>
			</g>
			<g>
				<g>
					<path class="st9" d="M323.4,560.9c-0.9-2.7-3.1-4.9-6.1-4.4c0.6,4.2,0.6,8.3,1.4,12.4c0.5,0.2,1.1,0.2,1.6,0.2
						c0.8,0.1,1.8-0.1,2.6-1.1c0.2-0.2,0.4-0.5,0.5-0.7C324.7,565.2,324.1,562.6,323.4,560.9z"/>
				</g>
			</g>
			<g>
				<g>
					<path class="st9" d="M355.8,553.6c-0.2,0-0.3,0-0.5,0c-0.6-0.1-1.2,0-1.9,0.2c-2.9,0.7-5.5,3.1-6.3,5.9
						c-0.8,2.8,0.4,5.9,3.1,7.2c0.5,0.2,1.1,0.4,1.6,0.5c0.2,0.1,0.4,0.1,0.6,0.1c0,0,2,0.4,4.5-0.6c2.4-1,3.8-3.2,4.4-5.1
						S361.7,553.7,355.8,553.6z"/>
				</g>
			</g>
			<g>
				<g>
					<path class="st1" d="M317.9,566.7c0,0,3.6,12.7,10.3,16.8c10.3,6.4,18,3,20.7,7.9c3,5.5,4.7,15.2-2.7,12.4
						c-6-2.3-34.5-5.4-34.5-5.4S309,561.7,317.9,566.7z"/>
				</g>
			</g>
		</g>
		<g>
			<g>
				<g>
					<path class="st9" d="M332.7,559.4c-0.1,0-0.2,0-0.2-0.1c-1.1-0.5-2.3-1.6-2.4-1.6c-0.1-0.1-0.2-0.3-0.2-0.5s0.1-0.3,0.2-0.5
						c1.5-1.2,1.5-4.4,1.4-5.6c0-0.3,0.2-0.6,0.5-0.7c0.3,0,0.6,0.2,0.7,0.5c0,0.2,0.4,4-1.3,6.1c0.4,0.3,1,0.8,1.6,1
						c0.3,0.1,0.4,0.5,0.3,0.8C333.2,559.3,332.9,559.4,332.7,559.4z"/>
				</g>
			</g>
		</g>
		<g>
			<g>
				<g>
					<path class="st9" d="M393.1,554.2c-0.3,0-0.6-0.3-0.6-0.6c0-0.1-0.1-11.1,8.8-15.7c0.3-0.2,0.7,0,0.8,0.3
						c0.2,0.3,0,0.7-0.3,0.8c-8.3,4.2-8.2,14.5-8.2,14.6C393.8,553.9,393.5,554.2,393.1,554.2C393.2,554.2,393.2,554.2,393.1,554.2z
						"/>
				</g>
			</g>
		</g>
		<g>
			<g>
				<g>
					<path class="st9" d="M394.1,549c-0.1,0-0.3,0-0.4-0.1c-0.3-0.2-0.3-0.6-0.1-0.8c2.6-3.5,7.8-3.6,8-3.6c0.3,0,0.6,0.3,0.6,0.6
						s-0.3,0.6-0.6,0.6c0,0-4.8,0-7,3.1C394.5,548.9,394.3,549,394.1,549z"/>
				</g>
			</g>
		</g>
	</g>
	<g>
		<g>
			<path class="st12" d="M477.4,1119.8c-0.2,0-0.3-0.1-0.4-0.3c-0.8-4.1-10.1-28.5-10.2-28.8c-0.1-0.2,0-0.4,0.2-0.5s0.4,0,0.5,0.2
				c0.4,1,9.4,24.7,10.2,28.9C477.8,1119.5,477.7,1119.7,477.4,1119.8L477.4,1119.8z"/>
		</g>
	</g>
	<g>
		<g>
			<path class="st12" d="M307.7,663.1c-0.2,0-0.3-0.1-0.4-0.3s0-0.4,0.2-0.5c0.7-0.3,1.3-0.8,1.6-1.6c0.3-0.8,0.3-1.6,0-2.3
				c0-0.1,0-0.2,0-0.3s0.1-0.2,0.2-0.2c1.3-0.6,2.1-2.3,1.6-3.6c-0.1-0.2,0-0.4,0.2-0.5c1.1-0.5,1.7-1.8,1.4-3
				c-0.1-0.2,0-0.4,0.2-0.5c1-0.5,1.6-1.9,1.2-3c-0.1-0.2,0-0.4,0.2-0.5s0.4,0,0.5,0.2c0.5,1.4-0.1,3-1.3,3.8
				c0.2,1.3-0.4,2.8-1.6,3.5c0.4,1.6-0.4,3.3-1.8,4.1c0.2,0.8,0.2,1.7-0.2,2.5c-0.4,1-1.2,1.7-2.1,2
				C307.8,663.1,307.8,663.1,307.7,663.1z"/>
		</g>
	</g>
	<g>
		<path class="st6" d="M415.1,886.6l-0.1-0.8c0.2,0,17.4-4.2,34.4-68.7l0.3-1.1l11.6,29.6l-0.7,0.3l-10.7-27.4
			C432.7,882.6,415.8,886.5,415.1,886.6z"/>
	</g>
	<g>
		<path class="st6" d="M375.6,723c-0.1,0-0.3-0.1-0.3-0.2l-38.8-70.5c-0.1-0.2,0-0.4,0.2-0.5s0.4,0,0.5,0.2l38.8,70.5
			c0.1,0.2,0,0.4-0.2,0.5C375.7,722.9,375.7,723,375.6,723z"/>
	</g>
	<g>
		<path class="st6" d="M308.5,1100.7c-39.6,0-49.9-3.5-50.3-3.7c-0.2-0.1-0.3-0.3-0.2-0.5c0.1-0.2,0.3-0.3,0.5-0.2
			c0.1,0,12.4,4.2,60.2,3.6c64.5-0.9,130-21.9,155.9-41.8c0.2-0.1,0.4-0.1,0.5,0.1s0.1,0.4-0.1,0.5c-19.8,15.2-50.5,24.9-72.7,30.5
			c-27.9,6.9-58.4,11.1-83.6,11.5C315.1,1100.7,311.7,1100.7,308.5,1100.7z"/>
	</g>
	<g>
		<path class="st6" d="M440.8,846.2L440.8,846.2c-0.3,0-0.4-0.2-0.4-0.4s2.8-18.7-2.8-40.5c-5.1-20.1-18.5-47.1-53.2-61.8
			c-0.2-0.1-0.3-0.3-0.2-0.5c0.1-0.2,0.3-0.3,0.5-0.2c35,14.9,48.5,42.1,53.7,62.4c5.6,21.9,2.8,40.6,2.8,40.8
			C441.2,846,441,846.2,440.8,846.2z"/>
	</g>
</g>
</svg>
