<?xml version="1.0" encoding="utf-8"?>
<!-- Generator: Adobe Illustrator 22.0.0, SVG Export Plug-In . SVG Version: 6.00 Build 0)  -->
<svg version="1.1" id="Capa_1" xmlns="http://www.w3.org/2000/svg" xmlns:xlink="http://www.w3.org/1999/xlink" x="0px" y="0px"
	 viewBox="0 0 750 1624" style="enable-background:new 0 0 750 1624;" xml:space="preserve">
<style type="text/css">
	.st0{fill:#6228cf;}
	.st1{fill:#4E21B1;}
	.st2{fill:#EB3760;}
	.st3{fill:#1AB2BB;}
	.st4{fill:#1A9FBB;}
	.st5{fill:#47D8E1;}
	.st6{fill:#FFFFFF;}
	.st7{fill:#005874;}
	.st8{fill:#F12B49;}
	.st9{fill:#FDC50C;}
	.st10{fill:#E3F4FD;}
	.st11{fill:#FEE5C6;}
	.st12{fill:#F49898;}
	.st13{fill:#F39898;}
	.st14{fill:#C5DFE8;}
</style>
<rect x="0.1" y="0.1" class="st0" width="749.9" height="1623.7"/>
<g>
	<g>
		<path class="st1" d="M576.4,1227.4c0,0-39.5-3.8-80.3-2.6c-40.7,1.2-85.4,2.6-103.2,2.6s-58.6-1.2-81.6,0
			c-23,1.2-57.4,20.4-8.9,34.4s173.4,15.3,229.5,14c56.1-1.2,81.6-5.1,105.8-16.5S661.8,1236.3,576.4,1227.4z"/>
	</g>
	<g>
		<path class="st2" d="M406.2,1220.1c0,0-3.4,10.1-7.9,13c-4.5,2.8-11.8,2.2-38.8-11.8c-27-14-30.4-30.9-9-25.9
			c21.3,5.1,27.6,6.2,27.6,6.2L406.2,1220.1z"/>
	</g>
	<g>
		<path class="st2" d="M630.2,1084c0,0,11.2,8.5,21.3,7.9c10.1-0.6,5.7-12.4,0-21.3c-5.7-9-16.3-26.4-33.7-29.2
			c0,0-7.9-0.6-11.8,8.5L630.2,1084z"/>
	</g>
	<g>
		<path class="st3" d="M395.5,1021.6c0,0-11.2,55.3-14.4,81.7c-3.2,26.4-9.6,82.6-9.6,82.6s5.6,3.2,14.4,5.6
			c8.8,2.4,22.4,6.4,28.8,14.4c0,0,4.8-10.4,10.4-20.9c5.6-10.4,27.2-78.5,31.2-86.5c4-8,12.8-40.8,36-38.4c0,0,24,41.7,34.5,54.5
			c10.4,12.8,29.6,21.6,52.1,18.5c22.4-3.2,39.3-24,48.9-46.5c0,0-4.8-17.6-13.6-22.4c-8.8-4.8-20-3.2-20-3.2s-10.4,28.1-14.4,0
			c-4-28.1-4-42.5-4-42.5L395.5,1021.6z"/>
	</g>
	<g>
		<path class="st4" d="M408.8,1190c0,0,12.3-28.7,18.1-60.7c5.8-32,18.1-65.6,32.9-76.3s32.7,7.1,32.7,7.1s-15.4-3.8-31,29.8
			c-15.7,33.6-32,87-38.5,99.4c-6.5,12.3-8.2,16.7-8.2,16.7S399.8,1208,408.8,1190z"/>
	</g>
	<g>
		<path class="st5" d="M411.8,1215.4c0,0,7.7-5.1,3.2-12.8c-4.5-7.7-17.3-8.9-27.5-12.8c-10.2-3.8-21.1-8.4-18.5,1.9
			c0,0-6.4,2.6-0.7,8.4c0,0,21.1,7,28.2,12.8C403.5,1218.7,407.4,1228.3,411.8,1215.4z"/>
	</g>
	<g>
		<path class="st4" d="M552.9,1019.6c0,0,4,57.5,15.7,70.3c11.6,12.8,25.6,23.3,49.9,12.8l6.3-11.1c0,0,0-15.7-2.3-20.3
			c-2.3-4.6-27.8-10.6-27.8-10.6s-3.6,12.3-10,11.7c-6.3-0.6-9.1-54-9.1-54L552.9,1019.6z"/>
	</g>
	<g>
		<path class="st5" d="M630,1089.4c0,0-1.2,3.8-4.5,3.8c0,0-1.2-15.4-7-22.4c-5.8-7-23.6-10.2-23.6-10.2s-0.7-4.5,4.5-6.4
			c5.1-1.9,0-5.1,7.7-5.1s17.9,4.5,22.4,8.9c4.5,4.5,5.8,16,5.8,21.1C635.1,1084.3,634.4,1089.4,630,1089.4z"/>
	</g>
	<g>
		<path class="st3" d="M369,1191.8c0,0,3.5,1.9,8.9,3.6c5.4,1.6,11.7,4.6,9.2,5.4c-2.5,0.9-8.4-1.6-11.7-3.7
			C372,1195,369,1191.8,369,1191.8z"/>
	</g>
	<g>
		<path class="st3" d="M411.8,1215.4c0,0-5.1-6.7-9.3-11.7c-4.1-5-13.7-8.7-18.8-11.2c-5-2.5,2.9,0.4,11.7,3.7
			c8.7,3.4,11.2,6.2,15,11.2C414.1,1212.5,411.8,1215.4,411.8,1215.4z"/>
	</g>
	<g>
		<path class="st3" d="M630,1089.4c0,0-0.3-7.3-2.3-14.8c-2.1-7.5-0.4-11.7,1.2-8.7c1.6,2.9,1.6,9.6,2.5,14.2
			C632.2,1084.7,632.3,1087.1,630,1089.4z"/>
	</g>
	<g>
		<path class="st3" d="M599.2,1054.3c0,0,8.7,1.6,14.1,4.1c5.4,2.5,10,4.6,8.4,2.1c-1.6-2.5-11.2-6.2-11.2-6.2
			S602.6,1053.1,599.2,1054.3z"/>
	</g>
	<g>
		<g>
			<path class="st5" d="M554.9,1044.3c-0.8,0-1.4-0.6-1.5-1.3c-0.4-3.1-0.5-4.9-0.5-5c-0.1-0.9,0.6-1.6,1.4-1.7
				c0.9-0.1,1.6,0.6,1.7,1.4c0,0,0.2,1.9,0.5,4.9c0.1,0.9-0.5,1.6-1.3,1.7C555,1044.3,555,1044.3,554.9,1044.3z"/>
		</g>
		<g>
			<path class="st5" d="M581.8,1096.8c-0.8,0-1.4-0.6-1.5-1.4c-0.1-0.9,0.6-1.6,1.4-1.7c2.6-0.2,5.1-1.2,7.9-2.9
				c0.8-0.5,1.7-0.3,2.1,0.5c0.5,0.8,0.3,1.7-0.5,2.1c-3.2,2-6.2,3.2-9.2,3.4C581.9,1096.8,581.9,1096.8,581.8,1096.8z M572.9,1095
				c-0.2,0-0.5-0.1-0.7-0.2c-0.8-0.4-1.5-0.8-2.2-1.2c-1.7-1.2-3.5-3-5-5.5c-0.5-0.8-0.2-1.7,0.5-2.1c0.8-0.5,1.7-0.2,2.1,0.5
				c1.3,2.1,2.7,3.7,4,4.5c0.7,0.4,1.3,0.8,2,1.2c0.8,0.4,1.1,1.3,0.7,2.1C574,1094.6,573.5,1095,572.9,1095z M597.6,1087.9
				c-0.4,0-0.9-0.2-1.2-0.5c-0.6-0.7-0.6-1.6,0.1-2.2c1.2-1.1,2.3-2.2,3.4-3.3c1.1-1.1,2.1-2.2,3.1-3.3c0.6-0.7,1.5-0.7,2.2-0.2
				c0.7,0.6,0.7,1.5,0.2,2.2c-1,1.2-2,2.2-3.2,3.4c-1.1,1.1-2.2,2.2-3.4,3.3C598.4,1087.7,598,1087.9,597.6,1087.9z M562.4,1080.4
				c-0.7,0-1.2-0.4-1.4-1.1c-1-2.7-1.8-5.7-2.7-8.9c-0.2-0.9,0.3-1.7,1.2-1.9c0.9-0.2,1.7,0.3,1.9,1.2c0.9,3.2,1.7,6.2,2.6,8.7
				c0.3,0.8-0.1,1.7-1,2C562.8,1080.4,562.6,1080.4,562.4,1080.4z M557.7,1062.5c-0.8,0-1.3-0.5-1.5-1.2c-0.6-2.9-1.1-6-1.5-9.1
				c-0.1-0.9,0.5-1.6,1.3-1.7c0.9-0.1,1.6,0.5,1.7,1.3c0.5,3.2,1,6.2,1.5,9c0.2,0.9-0.4,1.6-1.2,1.8
				C557.9,1062.5,557.8,1062.5,557.7,1062.5z"/>
		</g>
		<g>
			<path class="st5" d="M609.5,1073.9c-0.3,0-0.6-0.1-0.9-0.3c-0.8-0.5-1-1.4-0.5-2.1c1.2-1.8,2.1-3.2,3.7-4.1
				c0.8-0.5,1.7-0.2,2.1,0.6c0.5,0.8,0.2,1.7-0.6,2.1c-1.1,0.7-1.7,1.6-2.7,3.2C610.6,1073.6,610,1073.9,609.5,1073.9z"/>
		</g>
	</g>
	<g>
		<path class="st5" d="M407.7,1198.5c-0.2,0-0.4,0-0.7-0.1c-0.8-0.4-1.2-1.2-0.8-2c0,0,0.3-0.7,0.9-1.9c0.4-0.8,1.2-1.2,2-0.8
			s1.2,1.2,0.8,2c-0.6,1.2-0.9,1.9-0.9,1.9C408.8,1198.1,408.3,1198.5,407.7,1198.5z M412.2,1187.5c-0.2,0-0.4,0-0.6-0.1
			c-0.8-0.3-1.2-1.2-0.9-2c1.2-3.2,2.4-6.2,3.5-9.2c0.3-0.8,1.2-1.2,2-1c0.8,0.3,1.2,1.2,1,2c-1.1,2.9-2.2,6.1-3.6,9.3
			C413.4,1187.1,412.9,1187.5,412.2,1187.5z M418.8,1168.8c-0.2,0-0.3,0-0.5-0.1c-0.9-0.3-1.2-1.2-1.1-1.9c0.6-1.8,1-3.5,1.3-5
			c0.3-1.2,0.7-2.7,1.1-4.5c0.2-0.9,1.1-1.3,1.8-1.2c0.9,0.2,1.3,1.1,1.2,1.8c-0.4,1.7-0.8,3.3-1.1,4.5c-0.4,1.5-0.9,3.3-1.4,5.1
			C420.2,1168.4,419.5,1168.8,418.8,1168.8z M423.4,1149.6c-0.1,0-0.2,0-0.4,0c-0.9-0.2-1.3-1.1-1.2-1.8c0.7-3,1.4-6.2,2.2-9.6
			c0.2-0.9,1.1-1.3,1.8-1.2c0.9,0.2,1.3,1.1,1.2,1.8c-0.8,3.5-1.5,6.6-2.2,9.6C424.8,1149.1,424.1,1149.6,423.4,1149.6z
			 M427.9,1130.4c-0.1,0-0.2,0-0.4,0c-0.9-0.2-1.3-1.1-1.2-1.8c0.8-3.5,1.5-6.6,2.3-9.6c0.2-0.9,1.1-1.3,1.9-1.2
			c0.9,0.2,1.3,1.1,1.2,1.9c-0.8,3.1-1.4,6.2-2.3,9.6C429.2,1129.9,428.5,1130.4,427.9,1130.4z M432.5,1111.2c-0.1,0-0.3,0-0.4-0.1
			c-0.9-0.2-1.3-1.1-1.2-1.9c0.9-3.5,1.7-6.6,2.5-9.6c0.2-0.9,1.1-1.3,1.9-1.1c0.9,0.2,1.3,1.1,1.1,1.9c-0.8,2.9-1.6,6.2-2.5,9.5
			C433.8,1110.7,433.2,1111.2,432.5,1111.2z M437.8,1092.1c-0.2,0-0.3,0-0.5-0.1c-0.9-0.3-1.2-1.2-1.1-1.9c1.1-3.7,2.1-6.8,3.1-9.5
			c0.3-0.8,1.2-1.2,2-1c0.8,0.3,1.2,1.2,1,2c-1,2.6-2,5.7-3.1,9.3C439,1091.7,438.3,1092.1,437.8,1092.1z M444.9,1073.7
			c-0.3,0-0.5-0.1-0.8-0.2c-0.8-0.4-1.1-1.3-0.6-2.1c1.6-2.9,3.5-5.8,5.5-8.5c0.5-0.7,1.5-0.9,2.2-0.3c0.7,0.5,0.9,1.5,0.3,2.2
			c-1.9,2.6-3.7,5.4-5.3,8.1C445.9,1073.4,445.5,1073.7,444.9,1073.7z M456.7,1057.9c-0.4,0-0.8-0.2-1.1-0.5c-0.6-0.6-0.7-1.6,0-2.2
			c4.2-4.3,7.5-6.6,7.6-6.7c0.7-0.5,1.6-0.3,2.2,0.4c0.5,0.7,0.3,1.6-0.4,2.2c0,0-3.2,2.2-7.2,6.3
			C457.5,1057.8,457.1,1057.9,456.7,1057.9z"/>
	</g>
	<g>
		<path class="st6" d="M401.7,1229.1c0,0-2.2-7.9-27.6-18.5c-25.3-10.7-33.2-15.2-36.6-14.6c-3.4,0.6-3.4,11.8,19.7,23.6
			C380.3,1231.3,392.7,1242.1,401.7,1229.1z"/>
	</g>
	<g>
		<path class="st6" d="M651.5,1091.8c0,0,3.9-2.3-0.6-15.3c-4.5-13-19.7-34.9-40-33.7c0,0,3.4-3.9,12.4,0s15.2,8.5,26.4,25.3
			C661.1,1085,658.8,1091.8,651.5,1091.8z"/>
	</g>
	<g>
		<path class="st7" d="M241.4,643c0,0,5.1,9.3,19.4,22.8c14.3,13.6,16.9,43.9,10.1,65c-6.7,21.1-25.3,55.7,9.3,96.2
			c34.6,40.6,148.6,8.5,165.4-27c16.9-35.5-87-191.5-87-191.5L241.4,643z"/>
	</g>
	<g>
		<path class="st8" d="M533.8,805.2l-16.2-9.6l-76,5h-15.1l-1.2,6.2l-17,73.5l-23,106.5c0,0-4.7,23.6-5.4,26.8
			c-0.7,3.2,6.9,6.9,21.3,13.8c14.4,6.9,79.9,18.3,127.6,8.2c47.8-10.1,69.8-25.2,69.8-28.9c0-3.7-26.9-67.6-26.9-67.6l-3-13.2
			c0,0-3.4-11.1-3.4-17.4c0-6.2,0.1-16.3,0.1-16.3l-31.5-84.9"/>
	</g>
	<g>
		<path class="st3" d="M472.1,880.7c-1.1-2.8-4.2-3.4-6.4-2.2c-1.5,0.8-2.5,2.1-3.2,3.7c-0.8,1.7-1,3.6,0.4,5.1
			c1.1,1.2,2.8,1.6,4.4,1.3c1.3-0.3,2.3-1,2.9-1.9l0,0c0.9-0.8,1.6-1.7,2-2.9C472.5,882.8,472.5,881.7,472.1,880.7z"/>
	</g>
	<g>
		<path class="st3" d="M467,863.2c-2.2,0.6-3.6,2.7-3.7,4.8c0,1,0.3,2,0.8,2.9c0.6,0.9,1.3,1.4,2.5,1.5c0.7,0.1,1.3,0.1,2,0.1
			c0.6,0,1.1-0.2,1.5-0.5c0.3-0.1,0.5-0.2,0.8-0.4C475.3,869.1,471.8,862,467,863.2z"/>
	</g>
	<g>
		<path class="st9" d="M385.3,995.4l24.5-10c0.1,0,0.2-0.1,0.2-0.3c0-1-0.4-5.3-3.8-5.3c-3.7,0-19.9,6.5-21,6.9c0,0-0.1,0-0.1,0.1
			c-0.4,0.4-3.6,4-0.1,8.4C385.1,995.4,385.2,995.4,385.3,995.4z"/>
	</g>
	<g>
		<path class="st9" d="M414.9,887.8c1-7.6,8.9-72.8,13.7-82.9c0.1-0.2,0-0.4-0.2-0.4c-3.2,0-23.8-0.1-32.1,5.6
			c-8.6,5.9-14.5,23-15.1,24.5c0,0.1,0,0.2,0,0.2l33.2,53.1C414.6,888.1,414.9,888,414.9,887.8z"/>
	</g>
	<g>
		<path class="st9" d="M504.7,873.5c-0.1,0-0.2-0.2-0.2-0.3c0.8-3.5,10.4-43.9,17.3-54.1c6.5-9.6,10.9-13.3,11.6-13.9
			c0.1-0.1,0.2-0.1,0.3,0l39,18.4c0.1,0,0.1,0.1,0.1,0.1c0.5,1.2,6.1,14.1,3.8,30.2c-2.1,15.9-10.2,36.1-11.1,38.4
			c-0.1,0.1-0.2,0.2-0.3,0.2L504.7,873.5z"/>
	</g>
	<g>
		<path class="st9" d="M513,807.8c0.2,0,0.3,0.2,0.3,0.4c-1.6,3.9-16.2,39-19.4,42.2c-3.4,3.4-10.7,5.6-19,4.5
			c-8.4-1.2-21.8-3.9-26.3-4.5c-4.5-0.6-4.5-2.8-4.5-8.9c0-5.8,0.5-28.5,0.6-31.1c0-0.1,0.1-0.3,0.3-0.3L513,807.8z"/>
	</g>
	<g>
		<path class="st9" d="M531.8,947.2c4.2-1,36.5-7.1,39.7-7.7c0.1,0,0.2-0.2,0.2-0.3l-2.7-13c0-0.1-0.2-0.2-0.3-0.2l-33.2,5
			c-0.1,0-0.2,0.1-0.2,0.2l-3.7,15.7C531.4,947.1,531.6,947.3,531.8,947.2z"/>
	</g>
	<g>
		<path class="st9" d="M534.4,985c2.2,1.4,23.4,14.5,37.1,17.8c0.1,0,0.2,0.2,0.2,0.3l-1.1,6.8c0,0.1-0.2,0.3-0.3,0.2
			c-2.8-0.6-27.2-5.8-40.5-18.8c-0.1-0.1-0.1-0.2,0-0.3l4.2-5.8C534.1,985,534.3,985,534.4,985z"/>
	</g>
	<g>
		<path class="st10" d="M312,961.4l11.2,23.5c0,0-2,10.2,18.4,6.2c20.4-4,80.6-19.4,89.8-23.5c9.2-4,15.3-11.2,15.3-11.2l-32.7-71.4
			l-35.8-70.4c0,0-5.1-4-17.3-2c-12.2,2-99,21.4-99,21.4s-6.2,3.1,0,17.3c6.2,14.3,30.6,72.5,30.6,72.5L312,961.4z"/>
	</g>
	<g>
		<path class="st6" d="M367.3,830.8l-3.9-7.8c0,0-84.9,14.6-90.7,16.6c-5.9,1.9-3.9,1.9-1,9.7c2.9,7.8,55.6,124.8,55.6,124.8
			s4.9,6.8,14.6,5.9c9.7-1,73.1-10.8,80.9-16.6c7.8-5.9-1-20.5-1-20.5L367.3,830.8z"/>
	</g>
	<g>
		<path class="st11" d="M293.1,959.5c0,0,8.5,9.7,20.6,4.8c0,0,0.6-9.7,4.2-14.5c3.7-4.8,6.1-7.9,4.8-10.3s-9.7,3.7-9.7,3.7
			s6.1-5.5,6.1-10.9c0-5.4-10.3,3.7-10.3,3.7s2.4-7.9,5.5-12.7c3-4.8-1.2-6.1-4.8-3.7c-3.7,2.4-8.5,7.2-8.5,7.2s6.1-7.9,7.2-12.7
			c1.2-4.8-6.6-3-12.1,1.8c-5.5,4.8-9,6.1-10.9,18.2C283.4,946.1,293.1,959.5,293.1,959.5z"/>
	</g>
	<g>
		<path class="st11" d="M441.2,957.1l-15.1-36.2c0,0-13.9,3-16.9,3c-3,0-4.2-6.1,5.5-9.7c9.7-3.7,10.9-6.1,0-3.7
			c-10.9,2.4-15.1,0-1.8-6.6l5.5-3c0,0-9.7,1.2-15.1,1.2c-5.5,0-3.7-3,4.8-4.8c8.5-1.8,11.5-3.7,11.5-3.7s-13.9-1.2-20-3.7
			c-6.1-2.4-1.8-5.5,8.5-6.1c10.3-0.6,20-3.7,30.9,3c10.9,6.6,21.7,23.5,28.4,35.1c6.6,11.5,17.5,20.6,27.2,5.5
			c9.7-15.1,20-52,20-52l44.1,13.9c0,0-18.7,53.2-29,71.3c-10.3,18.2-24.8,29.6-47.8,27.2C458.7,985.5,441.2,957.1,441.2,957.1z"/>
	</g>
	<g>
		<path class="st12" d="M486.9,988.3c0,0,15.9,1.1,28.4-10.3c0,0-4.8,1.1-9.2,3.3C501.6,983.5,489.1,985.7,486.9,988.3z"/>
	</g>
	<g>
		<path class="st13" d="M432.4,914.8c-0.3,0-0.5-0.2-0.5-0.5c-0.2-1,0-2,0.4-2.9c0.1-0.3,0.4-0.4,0.7-0.3c0.3,0.1,0.4,0.4,0.3,0.7
			c-0.3,0.7-0.5,1.5-0.3,2.3C433,914.5,432.8,914.7,432.4,914.8L432.4,914.8z"/>
	</g>
	<g>
		<path class="st13" d="M433.1,907.4c-0.3,0-0.5-0.2-0.5-0.5v-3c0-0.3,0.2-0.5,0.5-0.5c0.3,0,0.5,0.2,0.5,0.5v3
			C433.6,907.2,433.3,907.4,433.1,907.4z"/>
	</g>
	<g>
		<path class="st13" d="M433.4,899.7c-0.3,0-0.5-0.2-0.5-0.4c-0.2-1-0.1-2,0.4-2.9c0.1-0.3,0.5-0.4,0.7-0.3c0.3,0.1,0.4,0.5,0.3,0.7
			c-0.4,0.7-0.5,1.5-0.3,2.2c0.1,0.3-0.1,0.6-0.4,0.6C433.5,899.7,433.5,899.7,433.4,899.7z"/>
	</g>
	<g>
		<path class="st13" d="M433.1,890.9c-0.2,0-0.4-0.1-0.5-0.3c-0.4-0.8-0.6-1.7-0.4-2.6c0.1-0.3,0.3-0.5,0.6-0.4s0.5,0.3,0.4,0.6
			c-0.1,0.7,0,1.3,0.3,1.8c0.1,0.3,0,0.6-0.2,0.7C433.2,890.9,433.2,890.9,433.1,890.9z"/>
	</g>
	<g>
		<path class="st13" d="M298.4,958.2C298.4,958.2,298.3,958.2,298.4,958.2c-1.5-0.1-2.5-1.3-3.4-2.4l-3.5-4.5
			c-0.7-0.9-1.3-1.7-1.8-2.8c-0.3-0.7-0.5-1.3-0.6-2.1c-0.1-0.6-0.3-1.1-0.4-1.5c-0.2-0.6-0.5-1.1-0.7-1.6c-0.6-1.2-1.2-2.6-1.1-4
			c0-0.3,0.1-0.5,0.1-0.8c0.1-0.4,0.2-0.7,0.1-1c0-0.4-0.2-0.9-0.5-1.2l-0.1-0.3c-1-2-1.2-4.2-0.8-6.4c0.1-0.3,0.3-0.5,0.6-0.4
			c0.3,0.1,0.5,0.3,0.4,0.6c-0.4,1.9-0.2,3.9,0.7,5.8l0.1,0.3c0.3,0.5,0.5,1.1,0.6,1.6c0,0.5-0.1,0.9-0.2,1.2c0,0.2-0.1,0.4-0.1,0.7
			c-0.1,1.2,0.4,2.3,1,3.5c0.3,0.6,0.6,1.2,0.8,1.7c0.2,0.6,0.3,1.2,0.5,1.6c0.2,0.7,0.3,1.3,0.6,1.9c0.4,1,1.1,1.7,1.6,2.6l3.5,4.5
			c0.8,1,1.5,1.9,2.6,2c0.3,0,0.5,0.3,0.5,0.6C298.9,958,298.6,958.2,298.4,958.2z"/>
	</g>
	<g>
		<path class="st14" d="M335.8,892.7c0,0-5.2-0.5-7.8-6.5c0,0,4.8-2.2,8.3,0.9C339.6,890.1,335.8,892.7,335.8,892.7z"/>
	</g>
	<g>
		<path class="st14" d="M348.9,888.8c0,0-8.3,0.5-11.3,6.1c0,0-4.3-0.9-8.7,0.9c-4.3,1.7-4.8,7.4,0,12.2c4.8,4.8,6.9,6.1,11.7,7.8
			c4.8,1.7,8.3-2.6,8.3-2.6s3.5,0.5,6.1-0.9c2.6-1.3,2.6-8.7,2.6-8.7s-1.7,2.2-6.5-0.5c-4.8-2.6-5.2-9.1,0.5-11.3
			C351.5,891.8,352.7,888.8,348.9,888.8z"/>
	</g>
	<g>
		<path class="st11" d="M292.8,648c0,0,7.6,64.1,30.4,95.3c22.8,31.2,49.8,38,86.1,41.3s32.9,20.3,37.1,32.1
			c4.2,11.8,19.4,12.7,39.7,9.3c20.3-3.4,31.2-17.7,38-34.6c6.7-16.9,90.3-69.2,90.3-69.2l40.6-35.5l-4.2-47.3l-24.5-27.9
			l-63.3-41.3c0,0-30.4-19.4-83.5-21.1c-53.1-1.7,66.7-48.2-39.7-1.7s-87,35.5-87,35.5L292.8,648z"/>
	</g>
	<g>
		<path class="st9" d="M229.6,619.4c0,0-1.7,36.3,64.1,34.6l-1.7-16.9L229.6,619.4z"/>
	</g>
	<g>
		<path class="st7" d="M291.2,481.7c0,0-45.6,31.2-60.7,89.5c-15.2,58.2,16.9,93.7,95.3,71.7c78.5-21.9,111.4-68.3,111.4-68.3
			s11,39.7,67.6-1.7c0,0-21.1,65.8,27.9,87c49,21.1,57.4-27,73.4-32.1s31.2,10.1,24.5,39.7c-6.7,29.5-34.6,38.8-60.7,48.2
			c-26.1,9.3-44.7,26.1-49.8,77.7c0,0,8.5,32.1,54,34.6c45.6,2.5,98.7-25.3,126.6-79.3c27.9-54-24.5-116.5-55.7-138.4
			c-31.2-21.9-25.3-60-46.4-102.2s-66.7-64.1-121.6-73.4C422,425.2,291.2,481.7,291.2,481.7z"/>
	</g>
	<g>
		<path class="st9" d="M291.2,490.2c0,0,82.7,14.3,201.7-38L463.4,394l-21.1,35.5l-39.7-37.1l-11.8,38.8l-60-46.4L308,448.1
			l-27-12.7L291.2,490.2z"/>
	</g>
	<g>
		<path class="st8" d="M362.6,442.9c-3.1-8.8-10.8-16.8-20.9-15.6c-9.2,1.2-13.6,10-13.6,18.5c-0.1,9.1,3.8,19.7,12.2,24.3
			c4.5,2.5,10.1,3.2,14.8,0.8c2.3-1.2,4.2-3,5.5-5.1C365.9,459.7,365.1,450.2,362.6,442.9z"/>
	</g>
	<g>
		<path class="st12" d="M507.6,697.2c3.3-8.4,3.3-18.1-2.3-25.5c-5.8-7.6-15.9-10.8-24.6-6.5c-8.8,4.3-16,13.7-16.6,23.6
			c-0.7,9.7,5.3,19,14.9,21.3c9,2.2,18.5-1.2,24.9-7.8c0.8,0,1.4-0.4,1.9-1.2c0.6-1.1,1.1-2,1.5-3.2l0,0
			C507.4,697.8,507.5,697.5,507.6,697.2z"/>
	</g>
	<g>
		<path class="st12" d="M353.7,721.6c2.4-14.9-11.1-35.6-27.7-28.9c-7.7,3.1-12,11.9-9.4,19.9c2.5,7.7,9.7,15.2,17.1,18.3
			c7.2,3.1,18,1.8,20.4-7C354.3,723,354.2,722.2,353.7,721.6z"/>
	</g>
	<g>
		<path class="st7" d="M355.5,683.5c1.1-3.4-2.1-8.1-4.9-9.8c-2.1-1.3-5-2-7.3-0.6c-2.5,1.5-3,5-2.3,7.7c1.6,6.1,8.1,8.4,13.6,6
			C356,686,356.1,684.5,355.5,683.5z"/>
	</g>
	<g>
		<path class="st7" d="M442.1,658c-3-2.2-7.3-2.2-9.7,0.8c-2.7,3.3-1.9,8.4,0.9,11.2c0.5,0.5,1.1,1,1.6,1.2c0.1,0.1,0.1,0.2,0.2,0.2
			c1.9,2.3,4.3,1.8,6.2,0.4c1.4-0.7,2.7-1.8,3.3-3.7c0.1-0.4,0.1-0.7,0.1-1C445.7,663.9,445,660.2,442.1,658z"/>
	</g>
	<g>
		<path class="st7" d="M343.1,637.5c-3.8-2.4-8.1-3.9-12.4-1.6c-4.1,2.2-6.1,6.7-7,11.1c-0.8,3.3,2.1,4.2,2.9,1
			c0.7-2.8,2.9-5.6,5.4-7.3c2.8-1.8,6.2-0.2,8.6,1.3C343.3,643.8,345.9,639.3,343.1,637.5z"/>
	</g>
	<g>
		<path class="st7" d="M449.5,615c-7.3-9.9-22.1-8-26.4,3.7c-1.1,2.7,2.6,3.9,4.3,2.5c2.3-1.8,2.7-2.8,5.1-4.4
			c0.9-0.6,3.7-1.6,3.7-2.4c3.4-0.6,8.4-0.3,10.7,2.9C448.7,619.8,451.4,617.6,449.5,615z"/>
	</g>
	<g>
		<path class="st12" d="M614.7,657.5c-4.8,1.2-9.3,3.4-13.3,6.2c2.2-6.9,4.4-13.9,11.6-17.4c3-1.4,2.4-4.9-0.6-3.5
			c-10.9,5.3-16.1,15.6-17.5,26.7c0,0,0,0-0.1,0.1c-0.3,1.1-0.1,2.2-0.3,3.2c-0.3,4.8,0,9.8,1,14.4c0.7,3.3,5.7,1.9,5-1.3
			c-0.7-3.4-1-6.9-1-10.5c0-2.1,1-4.1,2.4-5.7c3.7-3.8,7.7-7.5,13-8.8C618.2,659.9,617.9,656.7,614.7,657.5z"/>
	</g>
	<g>
		<path class="st8" d="M412.7,705.4c0,0-2.6,0-2.6,2s0.6,12.3-2.6,14.3c-3.2,2-8.3,3.7-13.2-3.5c-4.9-7.1-4.6-8.3-6.5-8.6
			c-2-0.3-2.9,4.3,2.3,9.7c5.2,5.5,8,8.8,16.1,6.2c8-2.6,7.4-10,8-14C414.7,707.6,413.8,705.7,412.7,705.4z"/>
	</g>
	<g>
		<path class="st8" d="M389.2,678.4c0,0-1.2-4.8-2.2-6.2c-1.2-1.4-2-0.6-1.8,2.4c0.2,3-0.8,6.6-1.6,10.4c-1,3.7-1.4,8.2,0.6,8.6
			c2,0.6,4.4-1.4,5.8-6C391.1,683.2,389.2,678.4,389.2,678.4z"/>
	</g>
	<g>
		<path class="st3" d="M251.9,822.7c0.6,1-0.5,2-1.4,1.4c-5-3.1-13.8-8.8-16-11.2c-3-3.5,1.2-6.9,8.2-1.2
			C246.8,815,250,819.6,251.9,822.7z"/>
	</g>
	<g>
		<path class="st3" d="M282.5,814c0,1.2-1.5,1.4-2,0.4c-2.2-5-5.7-13.2-6.8-16.9c-1.7-5.6,3-7.8,6.4-3.5
			C282.5,797,282.6,807.7,282.5,814z"/>
	</g>
	<g>
		<path class="st3" d="M317.4,801.6c-0.2,1.1-1.6,1.2-2,0.2c-1.8-5.2-5.1-14.1-6-17.8c-1.2-5.2,3.8-7.8,7.8-5.2
			C320,780.7,318.4,794.6,317.4,801.6z"/>
	</g>
	<g>
		<path class="st3" d="M353.5,797.8c-0.7,1-2.1,0.3-1.9-0.9c1.2-4.8,2.8-11.7,3.6-14.7c1.2-4.7,6.9-3.5,4.7,3.5
			C358.6,789.7,355.7,794.5,353.5,797.8z"/>
	</g>
	<g>
		<path class="st3" d="M379.2,807.7c-1,0.5-1.9-0.6-1.3-1.5c2.3-3.4,5.9-8.6,8.6-11c4.3-3.8,9-0.9,6.1,3.5
			C390.6,801.6,383.6,805.5,379.2,807.7z"/>
	</g>
	<g>
		<path class="st3" d="M242.1,846.5c1.1,0.2,1.2,1.7,0.1,2c-3.8,1.2-9.9,3-13.6,3.3c-5.8,0.4-7.6-5-2.6-6.4
			C229.4,844.3,237.3,845.5,242.1,846.5z"/>
	</g>
</g>
</svg>
