<?xml version="1.0" encoding="utf-8"?>
<!-- Generator: Adobe Illustrator 16.0.3, SVG Export Plug-In . SVG Version: 6.00 Build 0)  -->
<!DOCTYPE svg PUBLIC "-//W3C//DTD SVG 1.1//EN" "http://www.w3.org/Graphics/SVG/1.1/DTD/svg11.dtd">
<svg version="1.1" id="Capa_1" xmlns="http://www.w3.org/2000/svg" xmlns:xlink="http://www.w3.org/1999/xlink" x="0px" y="0px"
	 width="100%" height="100%" viewBox="0 0 750 1624" enable-background="new 0 0 750 1624" xml:space="preserve">
<g>
	<rect x="1" y="2" fill-rule="evenodd" clip-rule="evenodd" fill="#6228cf" width="100%" height="100%"/>
	<g>
		<path fill-rule="evenodd" clip-rule="evenodd" fill="#FE819E" d="M365.979,805.868c-16.282,7.533-34.863,3.993-46.065-8.774
			c-12.458-14.2-13.978-34.081-4.062-50.484c4.455-7.369,10.798-13.043,16.612-19.174c9.266-9.771,18.827-19.263,28.227-28.907
			c1.26-1.292,2.308-2.791,3.452-4.195c3.693,1.314,7.304,0.665,10.896-0.468c5.773,1.769,9.081,6.207,11.99,11.076
			c-5.033,8.543-10.122,17.053-15.084,25.636c-5.446,9.419-11.555,18.468-15.951,28.475c-0.963,1.129-1.894,2.287-2.898,3.378
			c-1.152,1.251-2.523,2.472-0.846,4.203c1.958,2.02,3.234,0.31,4.494-0.998c2.417-2.508,4.79-5.061,7.193-7.582
			c15.673-16.447,31.35-32.892,47.025-49.337c-0.333,1.101-0.529,2.266-1.018,3.291c-11.376,23.854-22.938,47.619-34.094,71.575
			C372.425,790.937,368.187,797.964,365.979,805.868z"/>
		<path fill-rule="evenodd" clip-rule="evenodd" fill="#AC193D" d="M544.862,1014.979c-4.619-21.439-9.398-42.846-13.827-64.323
			c-12.888-62.502-25.643-125.031-38.431-187.553c-2.659-12.998-5.238-26.012-6.826-39.376c1.32,3.531,2.67,7.051,3.957,10.594
			c8.923,24.544,17.842,49.09,26.729,73.647c0.618,1.708,0.979,3.509,1.458,5.259c-0.115,75.107,22.156,142.539,70.966,201.92
			c-15.574-1.742-29.309-1.712-43.01,0.224C545.541,1015.238,545.202,1015.108,544.862,1014.979z"/>
		<path fill-rule="evenodd" clip-rule="evenodd" fill="#FE2A65" d="M344.086,1236.999c0.063,5.529,2.063,10.732,2.89,16.627
			c-3.269,0.877-6.546,0.276-9.754,0.432c-2.108,0.102-2.255-1.613-2.712-2.979c-1.323-3.952-2.636-7.898-5.003-11.396
			c-4.002-5.912-8.081-6.271-12.879-0.895c-1.646,1.845-2.949,4.02-4.257,6.137c-3.724,6.026-9.085,9.11-16.159,9.145
			c-7.666,0.037-15.333,0.026-23,0.007c-7.95-0.02-9.724-2.243-8.075-10.049c0.391-0.345,0.781-0.689,1.17-1.033
			c4.588,3.851,9.639,1.018,14.234,0.455c11.81-1.445,22.64-6.009,32.981-11.971c8.206-4.729,16.882-8.214,26.339-2.763
			c0.439,0.254,1.205-0.061,1.934-0.119c-2.217-4.019-8.669-6.294-14.359-5.178c-8.604,1.688-16.152,5.997-23.826,9.9
			c-11.479,5.837-23.61,8.62-36.435,8.62c0.986-1.101,1.767-2.576,2.989-3.243c12.633-6.895,20.127-18.061,25.872-30.723
			c0.907,9.181,3.922,10.795,11.744,6.117c3.539-2.117,6.962-4.45,9.393-7.92c2.384-0.902,4.032-2.509,5.216-5.055
			c-7.762,0-15.076,0-22.391,0c-0.351-0.025-0.702-0.05-1.053-0.074c0.955-3.637,2.525-7.017,4.282-10.319
			c15.156,0.05,30.313,0.1,45.47,0.149C342.73,1205.806,341.469,1221.209,344.086,1236.999z"/>
		<path fill-rule="evenodd" clip-rule="evenodd" fill="#905CFE" d="M579.07,1140.939c5.628-0.009,11.256-0.018,16.884-0.026
			c6.305-0.362,11.601,1.425,15.076,7.084c-1.13,0.216-2.313,0.284-3.383,0.671c-16.834,6.077-33.625,12.276-50.748,17.522
			c-1.053,0.322-1.937,1.193-2.899,1.81c-3.458,0.466-6.588-0.405-9.486-2.287c-9.353-6.069-11.059-17.605-3.503-23.751
			c1.808-1.057,3.8-0.955,5.789-0.957C557.557,1140.996,568.313,1140.964,579.07,1140.939z"/>
		<path fill-rule="evenodd" clip-rule="evenodd" fill="#FEBC8F" d="M387.028,704.94c-2.909-4.868-6.217-9.307-11.992-11.074
			c1.664-0.956,3.33-1.913,4.996-2.87c1.544-0.008,3.126,0.051,3.732,1.814c1.777,5.168,5.665,5.623,10.325,4.608
			c-6.188,0.346-8.18-4.698-11.177-8.438c0.706-0.663,1.412-1.326,2.118-1.988c0.628,0.165,1.531,0.687,1.844,0.444
			c4.79-3.713,10.897-3.819,16.211-6.042c6.031-2.522,9.664-6.999,10.906-13.849c-2.84,0.878-1.492,4.464-5.075,4.984
			c0-3.384,0.221-6.638-0.056-9.849c-0.344-3.998-1.728-5.999-4.523-7.654c3.793,6.804,3.857,17.936-0.488,23.037
			c-0.685-4.021-1.241-7.491-1.871-10.947c-0.77-4.226-2.434-6.509-5.697-7.974c5.614,7.886,6.397,15.924,1.92,21.33
			c-2.294-2.713-2.055-6.254-3.24-9.266c-1.687-4.285-3.122-5.472-7.215-5.52c6.726,5.197,8.603,10.412,5.494,15.73
			c-4.266-2.558-3.414-10.673-11.419-9.945c4.535,1.574,1.01,3.728,1.25,5.576c-1.906,2.546-4.176,4.664-7.096,6.013
			c1.103-3.369,1.139-6.872,0.895-10.321c-0.293-4.166,1.42-7.062,4.884-9.023c7.345-4.162,14.755-8.142,21.295-13.64
			c3.829-3.22,6.671-0.197,9.033,2.864c0.716,2.064,1.433,4.13,2.149,6.194c0.073,3.099-0.188,6.009,3.082,8.279
			c2.489,1.728,2.173,5.007,1.158,7.845c-1.949,5.454-5.331,9.978-9.582,13.771c-6.705,5.982-13.053,12.31-19.187,18.863
			C388.812,706.911,387.92,705.926,387.028,704.94z"/>
		<path fill-rule="evenodd" clip-rule="evenodd" fill="#905BFE" d="M321.04,1141.006c12.667-0.017,25.335-0.033,38.003-0.05
			c4.651,0.009,9.304,0.017,13.956,0.024c1.897,1.129,2.675,2.937,3.034,4.999c-0.133,1.411-1.081,1.704-2.31,2.095
			c-14.481,4.6-28.916,9.349-43.398,13.945c-6.755,2.144-13.587,4.044-20.384,6.054c-3.865-0.998-5.06-3.676-5.04-7.433
			C304.951,1150.895,311.643,1142.653,321.04,1141.006z"/>
		<path fill-rule="evenodd" clip-rule="evenodd" fill="#8251E5" d="M309.94,1168.073c6.797-2.01,13.629-3.91,20.384-6.054
			c14.482-4.597,28.917-9.346,43.398-13.945c1.229-0.391,2.177-0.684,2.31-2.095c2.323,5.729,0.064,10.81-2.299,15.844
			c-2.865,6.103-9.161,6.169-14.413,8.058c-0.578-1.017-1.564-1.131-2.575-1.125c-14.908,0.081-29.815,0.171-44.723,0.26
			C311.328,1168.701,310.634,1168.388,309.94,1168.073z"/>
		<path fill-rule="evenodd" clip-rule="evenodd" fill="#FEBC8F" d="M593.234,996.893c3.557-11.013,7.096-22.03,10.689-33.031
			c0.556-1.703,0.771-3.58,2.13-4.95c12.707,7.726,13.711,19.835,11.786,32.696c-0.934,6.237-6.238,8.645-11.699,10.147
			C600.766,1003.234,596.346,1001.676,593.234,996.893z M606.136,981.137c-0.388,0.376-0.776,0.753-1.164,1.129
			c3.787,3.025,7.574,6.052,11.361,9.077c-0.132,0.143-0.265,0.285-0.397,0.428C612.669,988.227,609.402,984.682,606.136,981.137z
			 M599.853,989.479c1.897,3.805,4.418,7.036,9.182,9.913C606.387,994.567,603.551,991.627,599.853,989.479z M616.352,981.065
			c-1.584-4.295-3.271-6.127-7.292-8.115C610.481,976.559,612.968,978.856,616.352,981.065z"/>
		<path fill-rule="evenodd" clip-rule="evenodd" fill="#FECCAA" d="M348.697,1190.872c-15.157-0.049-30.314-0.099-45.47-0.148
			c2.881-6.685,5.763-13.368,8.644-20.051c13.41,4.291,26.82,8.581,40.23,12.872C350.966,1185.987,349.832,1188.43,348.697,1190.872
			z"/>
		<path fill-rule="evenodd" clip-rule="evenodd" fill="#C86B2B" d="M557.951,1168.965c3.998-1.543,8.16-0.677,12.224-0.654
			c12.055,0.064,24.107,0.431,36.162,0.679c3.322,7.261,6.644,14.521,9.966,21.781c-0.762,0.002-1.522,0.005-2.286,0.009
			c-6.419-3.951-13.783-5.496-20.763-7.963c-10.729-3.793-21.382-7.931-32.671-9.91
			C559.706,1171.592,558.828,1170.278,557.951,1168.965z"/>
		<path fill-rule="evenodd" clip-rule="evenodd" fill="#DFDFE0" d="M462.94,609.835c-3.705,0.103-6.715,2.319-10.123,3.332
			c-0.557-2.157,1.485-2.743,2.484-3.842c6.267-6.89,12.65-13.674,18.996-20.492c13.646-13.551,26.63-27.733,39.714-41.819
			c2.515-0.1,5.028-0.196,6.914,1.943c-14.008,14.759-28.015,29.519-42.022,44.277C473.583,598.768,468.262,604.301,462.94,609.835z
			"/>
		<path fill-rule="evenodd" clip-rule="evenodd" fill="#FEB401" d="M375.976,683.063c2.92-1.349,5.189-3.467,7.096-6.013
			c1.32-0.506,2.063-2.18,3.922-1.864c3.393,3.423,3.934,6.725-0.477,9.916c-0.624,0.451-0.997,1.251-1.485,1.891
			c-0.706,0.662-1.412,1.325-2.117,1.988c-0.961,0.672-1.921,1.343-2.882,2.015c-1.666,0.957-3.332,1.914-4.996,2.87
			c-3.589,1.132-7.201,1.781-10.894,0.467c-9.012-5.687-8.979-21.036,0.064-27.156c1.445-0.979,2.976-1.599,4.616-0.482
			c1.899,1.292,1.613,3.173,1.001,4.931c-0.924,2.653-2.154,5.201-3.065,7.859c-0.69,2.016-1.697,4.465,0.231,6.057
			c1.84,1.52,4.142,0.385,6.093-0.572C374.11,684.464,375.015,683.707,375.976,683.063z"/>
		<path fill-rule="evenodd" clip-rule="evenodd" fill="#7F51D6" d="M82.368,1049.94c42.712-42.704,85.425-85.408,128.137-128.111
			c-0.479-0.479-0.959-0.96-1.439-1.439c-42.743,42.737-85.486,85.474-128.229,128.21
			C81.348,1049.047,81.858,1049.493,82.368,1049.94z"/>
		<path fill-rule="evenodd" clip-rule="evenodd" fill="#7D4ED5" d="M391.834,557.02c-41.155,41.177-82.31,82.354-123.464,123.53
			c0.596,0.6,1.192,1.198,1.788,1.798c41.151-41.155,82.303-82.311,123.455-123.465C393.02,558.262,392.427,557.641,391.834,557.02z
			"/>
		<path fill-rule="evenodd" clip-rule="evenodd" fill="#FECBAA" d="M317.172,1206.172c-2.431,3.47-5.854,5.803-9.393,7.92
			c-7.821,4.678-10.837,3.063-11.744-6.117c0.584-2.474,1.516-4.8,2.91-6.933c0.351,0.025,0.702,0.05,1.052,0.074
			C305.521,1203.479,311.465,1204.424,317.172,1206.172z"/>
		<path fill-rule="evenodd" clip-rule="evenodd" fill="#FBFAFD" d="M414.231,659.138c-0.717-2.064-1.434-4.13-2.149-6.194
			c6.842-5.71,13.004-12.128,19.298-18.412c1.36-1.358,2.324-3.275,4.477-3.705c0.134,1.637,0.584,3.171,1.496,4.547
			c-0.129,1.008-0.503,1.855-1.249,2.621C429.028,645.266,422.146,652.734,414.231,659.138z"/>
		<path fill-rule="evenodd" clip-rule="evenodd" fill="#FCFCFD" d="M590.763,475.303c-1.855-1.05-3.375-2.461-4.543-4.246
			c5.695-6.007,11.376-12.029,17.101-18.009c1.02-1.064,2.128-2.106,3.372-2.874c1.147-0.708,2.585-0.908,3.66,0.251
			c1.104,1.189,0.695,2.583-0.169,3.62c-2.327,2.794-4.765,5.499-7.228,8.176C598.92,466.608,594.83,470.945,590.763,475.303z"/>
		<path fill-rule="evenodd" clip-rule="evenodd" fill="#5723B5" d="M689.976,718.318c-24.049,24.05-48.098,48.1-72.147,72.148
			c0.398,0.399,0.797,0.798,1.195,1.197c24.047-24.051,48.094-48.102,72.142-72.153
			C690.769,719.113,690.372,718.716,689.976,718.318z"/>
		<path fill-rule="evenodd" clip-rule="evenodd" fill="#5623B5" d="M244.379,1129.032c21.042-21.042,42.085-42.084,63.128-63.126
			c-0.417-0.418-0.833-0.836-1.25-1.254c-21.042,21.043-42.083,42.085-63.125,63.127
			C243.547,1128.197,243.963,1128.614,244.379,1129.032z"/>
		<path fill-rule="evenodd" clip-rule="evenodd" fill="#8457D7" d="M553.355,333.729c-19.01,19.041-38.021,38.082-57.03,57.123
			c0.399,0.404,0.799,0.81,1.199,1.214c19.061-19.014,38.122-38.028,57.183-57.042C554.257,334.592,553.807,334.16,553.355,333.729z
			"/>
		<path fill-rule="evenodd" clip-rule="evenodd" fill="#7F50D5" d="M95.961,775.763c10.103-10.249,20.205-20.498,30.308-30.747
			c-0.374-0.377-0.747-0.753-1.12-1.13c-10.167,10.194-20.334,20.388-30.501,30.582C95.086,774.899,95.523,775.331,95.961,775.763z"
			/>
		<path fill-rule="evenodd" clip-rule="evenodd" fill="#8051D6" d="M327.269,430.105c9.417-9.432,18.833-18.863,28.249-28.295
			c-0.478-0.478-0.955-0.956-1.433-1.434c-9.417,9.431-18.835,18.86-28.253,28.291C326.311,429.147,326.79,429.626,327.269,430.105z
			"/>
		<path fill-rule="evenodd" clip-rule="evenodd" fill="#8052D6" d="M643.695,911.514c9.382-9.154,18.765-18.31,28.146-27.464
			c-0.544-0.557-1.088-1.113-1.633-1.67c-9.248,9.28-18.496,18.56-27.743,27.84C642.875,910.651,643.285,911.083,643.695,911.514z"
			/>
		<path fill-rule="evenodd" clip-rule="evenodd" fill="#8457D7" d="M700.378,1162.841c-10.508,10.513-21.015,21.025-31.522,31.538
			c0.332,0.336,0.663,0.673,0.995,1.009c10.534-10.54,21.068-21.081,31.603-31.622
			C701.095,1163.457,700.736,1163.149,700.378,1162.841z"/>
		<path fill-rule="evenodd" clip-rule="evenodd" fill="#8355D7" d="M307.633,918.123c10.181-10.169,20.362-20.337,30.543-30.506
			c-0.328-0.332-0.656-0.664-0.983-0.996c-10.198,10.207-20.396,20.415-30.595,30.622
			C306.943,917.536,307.288,917.829,307.633,918.123z"/>
		<path fill-rule="evenodd" clip-rule="evenodd" fill="#8457D7" d="M709.723,570.015c-10.244,10.212-20.488,20.424-30.731,30.635
			c0.481,0.487,0.964,0.975,1.446,1.461c10.134-10.322,20.268-20.645,30.401-30.967
			C710.467,570.767,710.095,570.391,709.723,570.015z"/>
		<path fill-rule="evenodd" clip-rule="evenodd" fill="#5723B6" d="M708.043,985.398c-8.063,8.038-16.126,16.075-24.189,24.113
			c0.382,0.384,0.763,0.768,1.144,1.151c8.057-8.045,16.113-16.089,24.169-24.134C708.792,986.152,708.418,985.775,708.043,985.398z
			"/>
		<path fill-rule="evenodd" clip-rule="evenodd" fill="#FED674" d="M595.167,480.823c-0.383,2.407,1.761,3.458,2.822,5.036
			c11.429,16.99,17.848,35.852,20.997,55.928c2.161,13.776,3.652,27.68,2.871,41.589c-1.103,19.642-2.035,39.415-9.796,57.979
			c-0.318,0.762-0.438,1.606-1.961,2.146c1.685-5.592,3.518-10.751,4.784-16.045c5.098-21.314,6.239-43.056,4.891-64.773
			c-1.359-21.903-5.484-43.396-15.609-63.261c-2.719-5.333-5.918-10.386-9.484-15.194c-1.043-1.406-2.605-2.702,0.525-3.378
			C595.209,480.849,595.167,480.823,595.167,480.823z"/>
		<path fill-rule="evenodd" clip-rule="evenodd" fill="#FED675" d="M415.58,454.295c23.687-25.293,128.406-15.579,164.639,15.319
			c-1.923,0.792-3.225-0.598-4.555-1.352c-21.72-12.322-44.906-20.81-69.469-24.888c-30.186-5.011-59.848-3.441-87.908,10.465
			c-0.592,0.294-1.206,0.567-1.84,0.738C416.201,454.645,415.871,454.399,415.58,454.295z"/>
		<path fill-rule="evenodd" clip-rule="evenodd" fill="#FED674" d="M575.412,473.411c-39.023-4.702-76.569-0.358-111.794,18.212
			C478.146,475.731,552,463.678,575.412,473.411z"/>
		<path fill-rule="evenodd" clip-rule="evenodd" fill="#FED776" d="M588.363,482.916c9.35,20.694-2.738,90.537-18.24,106.217
			C587.98,555.739,592.721,520.127,588.363,482.916z"/>
		<path fill-rule="evenodd" clip-rule="evenodd" fill="#FED778" d="M515.436,541.075c19.578-24.744,42.624-45.818,68.47-63.893
			C559.317,496.593,535.963,517.311,515.436,541.075z"/>
		<path fill-rule="evenodd" clip-rule="evenodd" fill="#6328CE" d="M352.101,1183.545c2.406-4.555,4.812-9.108,7.219-13.663
			c5.252-1.89,11.548-1.956,14.414-8.059c2.363-5.034,4.622-10.115,2.299-15.844c-0.358-2.063-1.136-3.87-3.034-4.999
			c16.835-34.011,33.673-68.021,50.5-102.036c0.71-1.436,1.97-2.837,0.64-4.575c17.928,0.43,35.289-3.768,52.833-6.473
			c3.018,5.313,6.035,10.628,9.052,15.941c0.153,0.638,0.168,1.354,0.48,1.898c17.663,30.725,35.34,61.439,53.07,92.124
			c0.764,1.322,1.606,2.503,1.438,4.102c-7.556,6.146-5.85,17.682,3.503,23.751c2.898,1.882,6.028,2.753,9.486,2.287
			c1.317,0.321,2.635,0.644,3.951,0.965c0.877,1.313,1.755,2.627,2.633,3.941c3.416,5.721,6.829,11.439,10.243,17.158
			c1.521,3.631,3.462,7.012,5.961,10.063c1.654,3.086,3.31,6.172,4.964,9.258c0.143,4.113,0.591,8.243,0.361,12.336
			c-0.438,7.772-3.777,13.885-11.182,17.251c-5.382-2.144-11.214-1.392-16.685-1.631c-10.095-0.443-20.206-1.048-30.312-1.429
			c-45.883-1.73-91.781-0.984-137.662-0.643c-14.021,0.104-28.18-0.071-42.188,1.729c-2.617-15.79-1.355-31.193,4.611-46.126
			C349.832,1188.43,350.966,1185.987,352.101,1183.545z M456.962,1114.353c0.325,0.31,0.651,0.619,0.978,0.929
			c-10.564,10.556-21.128,21.111-31.691,31.666c-0.335-0.333-0.67-0.666-1.005-1
			C435.816,1135.416,446.389,1124.885,456.962,1114.353z"/>
		<path fill-rule="evenodd" clip-rule="evenodd" fill="#FE4D75" d="M472.871,895.796c12.835,8.72,24.9,16.946,37.012,25.104
			c1.392,0.937,2.088,1.999,2.104,3.658c0.09,9.307,1.791,18.445,2.754,27.658c0.764,7.305-2.179,14.226-9.14,17.512
			c-11.365,5.363-23.609,6.881-36.204,6.673c-11.665-0.192-13.398-6.62-13.105-18.407c0.175-7.024,1.895-14.143,3.823-20.962
			C463.944,923.487,468.399,910.12,472.871,895.796z"/>
		<path fill-rule="evenodd" clip-rule="evenodd" fill="#4C21A2" d="M424.138,1034.369c1.33,1.738,0.07,3.14-0.64,4.575
			c-16.826,34.016-33.664,68.025-50.5,102.036c-4.652-0.008-9.304-0.016-13.956-0.024c6.457-15.274,12.907-30.551,19.379-45.817
			c0.711-1.677,1.727-3.242,1.679-5.16c6.059-11.155,12.541-22.129,15.043-34.821c0.851-1.585,1.807-3.122,2.533-4.762
			c3.325-7.501,5.974-15.304,10.047-22.471C412.051,1032.989,418.07,1033.739,424.138,1034.369z"/>
		<path fill-rule="evenodd" clip-rule="evenodd" fill="#7735FE" d="M407.724,1027.925c-4.073,7.167-6.722,14.97-10.047,22.471
			c-0.727,1.64-1.683,3.177-2.534,4.761c0.612-4.741,1.662-9.475,1.755-14.226c0.253-12.923,0.913-25.808,2.048-38.684
			c1.643-18.62,6.461-36.456,12.917-53.903c6.979-18.862,16.168-36.677,25.921-54.217c0.582,2.71,3.062,2.439,4.926,3.137
			c-6.331,22.61-16.139,43.911-24.735,65.669c-5.923,14.989-11.477,30.085-13.472,46.227
			C403.687,1015.761,404.352,1022.064,407.724,1027.925z"/>
		<path fill-rule="evenodd" clip-rule="evenodd" fill="#D3D3D3" d="M450.172,731.091c-1.051,18.951,3.559,37.313,5.834,55.917
			c-0.023,1.65-0.046,3.301-0.069,4.95c-8.622-10.797-17.244-21.593-26.264-32.886c-1.581,4.596,0.494,9.023-1.512,12.894
			c0.218-12.36-0.31-24.573-4.799-36.371c-1.247-3.277-1.925-7.083-0.507-10.731c0.333,2.391,2.437,2.599,4.069,2.86
			C434.655,728.961,442.42,729.988,450.172,731.091z"/>
		<path fill-rule="evenodd" clip-rule="evenodd" fill="#300F63" d="M442.709,897.264c-1.864-0.697-4.344-0.427-4.925-3.139
			c1.908-3.482,4.769-6.575,4.842-10.843c-3.782,2.846-5.521,6.931-7.695,10.721c-10.192-2.835-19.675-7.592-29.664-10.975
			c0.898-2.694,1.795-5.387,2.691-8.08c12.466,2.412,24.901,0.83,37.345-0.281c0.942,0.131,1.881,0.262,3.135,0.437
			C446.946,882.738,445.067,890.06,442.709,897.264z"/>
		<path fill-rule="evenodd" clip-rule="evenodd" fill="#D4D2D2" d="M474.019,682.98c-2.315,3.361-4.631,6.724-6.946,10.086
			c-2.636-4.115-5.272-8.229-7.908-12.345c3.863,0.2,7.458-0.943,11.008-2.249c2.047-0.754,4.041-1.637,3.896-4.378
			c2.545,0.51,4.862,1.521,6.907,3.134C479.112,679.697,475.652,680.235,474.019,682.98z"/>
		<path fill-rule="evenodd" clip-rule="evenodd" fill="#FE2A53" d="M465.816,791.87c3.333,0.109,5.232,1.711,5.237,5.204
			c0.004,3.463-2.098,5.401-5.207,5.439c-3.344,0.042-5.721-2.018-5.654-5.6C460.256,793.529,462.496,791.994,465.816,791.87z
			 M465.514,794.51c-1.403,0.32-2.51,0.932-2.421,2.62c0.086,1.637,1.254,2.396,2.617,2.5c1.632,0.123,2.301-1.075,2.333-2.585
			C468.078,795.36,466.928,794.794,465.514,794.51z"/>
		<path fill-rule="evenodd" clip-rule="evenodd" fill="#FE2C54" d="M442.916,917.814c0.18-3.491,1.766-5.589,5.126-5.745
			c3.28-0.151,5.541,1.68,5.742,4.88c0.216,3.436-1.933,5.72-5.374,5.887C445.087,922.997,443.464,920.726,442.916,917.814z
			 M450.873,917.366c-0.217-1.508-1.147-2.273-2.614-2.335c-1.637-0.069-2.369,0.87-2.26,2.424c0.104,1.489,0.958,2.458,2.476,2.424
			C449.974,919.845,450.775,918.885,450.873,917.366z"/>
		<path fill-rule="evenodd" clip-rule="evenodd" fill="#FE2B53" d="M454.133,874.965c0.221-1.913,2.325-3.299,5.639-3.022
			c3.327,0.276,5.309,2.172,5.058,5.514c-0.269,3.559-2.829,5.437-6.145,5.056C455.622,882.16,453.711,879.991,454.133,874.965z
			 M459.437,874.541c-1.391,0.267-2.486,0.835-2.452,2.495c0.03,1.49,0.725,2.596,2.244,2.71c1.802,0.136,2.662-1.008,2.702-2.72
			C461.97,875.385,460.819,874.822,459.437,874.541z"/>
		<path fill-rule="evenodd" clip-rule="evenodd" fill="#FE2A52" d="M441.159,949.883c-0.231,3.609-2.072,5.224-5.462,5.148
			c-3.57-0.08-5.027-2.432-5.105-5.474c-0.085-3.268,1.989-5.398,5.228-5.335C439.281,944.29,441.039,946.584,441.159,949.883z
			 M438.675,949.7c-0.56-1.507-1.521-2.656-3.223-2.531c-1.488,0.11-2.427,1.095-2.209,2.681c0.212,1.537,1.304,2.219,2.802,2.191
			C437.554,952.014,438.519,951.301,438.675,949.7z"/>
		<path fill-rule="evenodd" clip-rule="evenodd" fill="#6227C6" d="M474.02,668.997c10.977-1.948,17.073,1.856,19.923,12.434
			c-1.602-1.52-3.205-3.042-4.81-4.563c-3.788-5.027-9.743-5.242-15.094-6.8C474.032,669.71,474.026,669.354,474.02,668.997z"/>
		<path fill-rule="evenodd" clip-rule="evenodd" fill="#FE2750" d="M470.111,839.971c-0.13,2.545-1.946,4.23-5.4,4.094
			c-3.253-0.129-4.777-1.951-4.843-5.117c-0.073-3.52,2.074-5.488,5.169-5.45C468.12,833.534,470.23,835.545,470.111,839.971z
			 M462.287,839.079c0.473,1.501,1.366,2.764,3.043,2.517c1.288-0.189,2.469-1.227,2.31-2.712c-0.17-1.594-1.296-2.758-2.969-2.535
			C463.345,836.524,462.438,837.573,462.287,839.079z"/>
		<path fill-rule="evenodd" clip-rule="evenodd" fill="#AD1D45" d="M474.039,670.068c5.351,1.557,11.306,1.771,15.094,6.799
			c-2.719,0.12-5.439,0.24-8.158,0.361c-2.044-1.612-4.361-2.624-6.907-3.134C474.058,672.752,474.049,671.41,474.039,670.068z"/>
		<path fill-rule="evenodd" clip-rule="evenodd" fill="#6628CB" d="M609.298,1241.995c6.152-7.48,12.171-6.827,18.438,2.002
			C621.575,1243.462,615.58,1241.411,609.298,1241.995z"/>
		<path fill-rule="evenodd" clip-rule="evenodd" fill="#6328CD" d="M535.942,648.331c-14.453,6.083-17.063,4.964-22.108-9.735
			c-1.252-3.649-2.978-7.021-5.064-10.236C520.524,631.345,528.939,638.878,535.942,648.331z"/>
		<path fill-rule="evenodd" clip-rule="evenodd" fill="#FEFEFE" d="M459.164,680.722c2.636,4.115,5.272,8.229,7.908,12.345
			c-4.128,7.768-9.158,15.036-12.45,23.278c-1.922,4.81-3.151,9.775-4.45,14.745c-7.752-1.102-15.517-2.129-23.247-3.366
			c-1.633-0.262-3.736-0.47-4.069-2.86c0.736-7.599,4.124-14.039,9.164-19.534c7.601-8.286,17.153-14.846,22.081-25.485
			c0.578-1.248,2.146-2.037,3.251-3.037C458.363,677.923,457.75,679.793,459.164,680.722z"/>
		<path fill-rule="evenodd" clip-rule="evenodd" fill="#FD9247" d="M459.164,680.722c-1.414-0.929-0.801-2.799-1.813-3.915
			c0.732-1.545,0.825-3.154,0.5-4.805c-0.025-0.925-0.05-1.851-0.074-2.777c3-1.199,5.069-3.64,7.611-5.89
			c2.658,1.335,5.436,2.494,8.388,0.79c0.081,1.624,0.162,3.248,0.243,4.872c0.007,0.356,0.013,0.713,0.02,1.07
			c0.01,1.343,0.019,2.685,0.028,4.027c0.146,2.741-1.849,3.624-3.896,4.378C466.622,679.778,463.027,680.922,459.164,680.722z"/>
		<path fill-rule="evenodd" clip-rule="evenodd" fill="#F7904E" d="M451.113,639.923c-4.835,2.203-10.232,3.052-14.712,6.111
			c0.215-2.936,1.694-5.427,2.831-8.04C443.037,639.597,447.043,639.959,451.113,639.923z"/>
		<path fill-rule="evenodd" clip-rule="evenodd" fill="#FE4D75" d="M389.703,707.896c5.107,13.419,5.859,8.563-3.773,19.364
			c-9.685,10.859-19.934,21.215-29.937,31.791c4.396-10.007,10.505-19.056,15.951-28.475c4.962-8.583,10.051-17.093,15.084-25.636
			C387.92,705.926,388.812,706.911,389.703,707.896z"/>
		<path fill-rule="evenodd" clip-rule="evenodd" fill="#CB692F" d="M317.172,1206.172c-5.707-1.748-11.65-2.692-17.175-5.056
			c7.315,0.001,14.629,0.001,22.391,0.001C321.204,1203.663,319.556,1205.27,317.172,1206.172z"/>
		<path fill-rule="evenodd" clip-rule="evenodd" fill="#FECBAA" d="M581.752,1209.385c-1.654-3.086-3.31-6.172-4.964-9.258
			c0.727-0.011,1.453-0.021,2.181-0.033c5.964,1.896,11.93,3.794,17.895,5.691c-0.564,2.57-0.842,5.248-1.759,7.685
			c-1.563,4.153-4.302,4.907-7.67,2.089C585.309,1213.778,583.631,1211.461,581.752,1209.385z"/>
		<path fill-rule="evenodd" clip-rule="evenodd" fill="#FE89B2" d="M631.759,1228.512c-0.739,0.147-1.368,0.481-1.632,0.296
			c-7.793-5.474-14.596-2.027-21.086,2.516c-10.263,7.183-21.249,12.306-33.943,13.174c-1.773,0.121-3.618,0.994-4.819-1.584
			c2.155-1.735,4.774-0.917,7.074-1.192c11.424-1.37,21.029-6.808,30.479-12.867c5.727-3.672,11.728-7.326,19.071-4.674
			C628.946,1224.918,631.332,1225.54,631.759,1228.512z"/>
		<path fill-rule="evenodd" clip-rule="evenodd" fill="#CE6833" d="M596.863,1205.785c-5.965-1.897-11.931-3.795-17.895-5.691
			c5.774,0,11.549,0,17.037,0C597.572,1202.182,596.906,1204.019,596.863,1205.785z"/>
		<path fill-rule="evenodd" clip-rule="evenodd" fill="#7735FE" d="M541.011,1141.962c0.169-1.599-0.674-2.779-1.438-4.102
			c-17.73-30.685-35.407-61.399-53.07-92.124c-0.313-0.545-0.327-1.261-0.48-1.898c13.733,4.576,27.454,9.193,41.22,13.67
			c1.559,0.507,3.151,2.219,5.035,0.622c2.809,4.53,5.076,9.306,6.753,14.384c6.717,20.345,10.954,41.363,16.851,61.932
			c0.514,1.793,0.717,3.526,2.895,4.019c1.329-1.64,0.135-2.984-0.207-4.309c-5.182-20.063-10.412-40.113-15.631-60.166
			c1.642,0.546,2.021,2.12,2.699,3.408c11.158,21.174,22.293,42.36,33.434,63.543c-10.757,0.023-21.514,0.056-32.271,0.064
			C544.811,1141.007,542.818,1140.905,541.011,1141.962z"/>
		<path fill-rule="evenodd" clip-rule="evenodd" fill="#9662FD" d="M542.938,1073.989c5.219,20.053,10.449,40.104,15.631,60.166
			c0.342,1.324,1.536,2.669,0.207,4.309c-2.178-0.492-2.381-2.226-2.895-4.019c-5.896-20.568-10.134-41.587-16.851-61.932
			c-1.677-5.078-3.944-9.854-6.753-14.384c-4.258-6.265-10.259-10.817-15.684-15.936c-4.094-3.863-7.039-8.357-8.035-13.992
			c-0.145-0.815-0.46-1.628,0.189-2.347c0.207-0.229,0.535-0.347,0.813-0.515c0.304,0.111,0.837,0.176,0.867,0.336
			c1.897,9.922,9.279,15.752,16.271,21.869c4.686,4.099,7.912,9.353,11.44,14.369
			C539.739,1065.939,541.338,1069.964,542.938,1073.989z"/>
		<path fill-rule="evenodd" clip-rule="evenodd" fill="#EDA361" d="M385.031,686.993c0.488-0.64,0.861-1.439,1.485-1.891
			c4.41-3.191,3.869-6.493,0.477-9.916c-1.858-0.315-2.602,1.358-3.922,1.864c-0.24-1.849,3.285-4.002-1.25-5.576
			c8.005-0.728,7.153,7.388,11.419,9.945c3.108-5.318,1.231-10.533-5.494-15.73c4.093,0.048,5.528,1.234,7.215,5.52
			c1.186,3.012,0.946,6.553,3.24,9.266c4.478-5.406,3.694-13.444-1.92-21.33c3.264,1.465,4.928,3.748,5.697,7.974
			c0.63,3.456,1.187,6.926,1.871,10.947c4.346-5.102,4.281-16.233,0.488-23.037c2.796,1.655,4.18,3.656,4.523,7.654
			c0.276,3.211,0.056,6.465,0.056,9.849c3.583-0.521,2.235-4.106,5.075-4.984c-1.242,6.85-4.875,11.326-10.906,13.849
			c-5.313,2.223-11.421,2.329-16.211,6.042C386.563,687.68,385.659,687.158,385.031,686.993z"/>
		<path fill-rule="evenodd" clip-rule="evenodd" fill="#EFA665" d="M380.032,690.996c0.961-0.672,1.921-1.343,2.882-2.015
			c2.996,3.739,4.988,8.783,11.176,8.438c-4.66,1.015-8.548,0.56-10.325-4.608C383.158,691.047,381.576,690.988,380.032,690.996z"/>
		<g>
			<path fill-rule="evenodd" clip-rule="evenodd" fill="#270A51" d="M526.25,715.782c-2.767-7.413-5.404-14.905-12.26-19.785
				c-3.274-3.687-7.649-5.786-11.799-8.219c-3.011-1.766-6.102-3.446-8.249-6.348c-2.85-10.577-8.946-14.382-19.923-12.434
				c-0.081-1.624-0.162-3.248-0.243-4.872c4.845-3.313,6.705-7.735,4.876-12.243c-1.943-4.789-5.77-5.452-10.309-4.308
				c-3.117,0.786-3.663-1.524-4.102-3.685c-0.764-3.76-3.011-5.405-6.758-4.975c-2.134,0.246-4.248,0.666-6.371,1.008
				c-4.07,0.036-8.076-0.326-11.88-1.93c-0.626-0.871-1.252-1.743-1.878-2.614c-0.915-1.382-1.365-2.916-1.5-4.555
				c0.219-11.548,2.886-14.324,16.962-17.657c3.408-1.013,6.418-3.229,10.123-3.332c8.814,0.593,14.97,5.435,19.606,12.504
				c4.058,6.186,6.816,7.187,13.955,4.605c4.178-0.305,8.396-0.963,12.268,1.415c2.087,3.216,3.813,6.587,5.064,10.236
				c5.045,14.699,7.655,15.818,22.108,9.735c1.469-0.288,2.938-0.568,4.405-0.865c12.551-2.536,22.357,2.873,27,14.89
				c0.536,1.388,1.104,2.764,1.658,4.144c0.511,25.926-12.736,42.218-39.388,48.441C528.491,715.204,527.373,715.501,526.25,715.782
				z"/>
			<path fill-rule="evenodd" clip-rule="evenodd" fill="#FEBC8E" d="M473.776,664.125c-2.952,1.704-5.729,0.545-8.388-0.79
				c-2.542,2.25-4.611,4.69-7.611,5.89c-15.551,3.672-24.321-5.843-21.376-23.19c4.479-3.06,9.877-3.908,14.712-6.111
				c2.123-0.342,4.237-0.762,6.371-1.008c3.747-0.431,5.994,1.215,6.758,4.975c0.438,2.16,0.984,4.471,4.102,3.685
				c4.539-1.145,8.365-0.481,10.309,4.308C480.481,656.39,478.621,660.813,473.776,664.125z"/>
			<g>
				<path fill-rule="evenodd" clip-rule="evenodd" fill="#FEC845" d="M595.167,480.823c12.059,11.75,20.929,25.778,28.239,40.752
					c20.738,42.477,27.385,87.543,23.913,134.364c-0.826,11.138-2.484,22.14-6.172,32.733c-1.181,3.39-2.076,7.012-5.168,9.381
					c0.223-3.669-0.215-7.273-0.987-10.855c-3.128-14.5-9.377-27.142-22.933-34.432c-4.497-2.419-6.652-4.797-7.853-9.933
					c-4.68-20.03-17.855-33.24-36.163-41.577c-2.993-1.362-4.842-2.614-5.566-6.027c-2.24-10.549-6.782-20.176-13.679-28.44
					c-7.347-8.805-16.218-15.588-27.873-17.832c-1.886-2.14-4.399-2.043-6.914-1.943c-2.486-1.585-2.76-4.4-3.814-6.795
					c-9.037-20.518-23.622-35.479-45.344-41.734c-6.938-1.998-10.463-4.076-13.119-11.233
					c-6.458-17.396-20.971-25.374-38.628-28.188c-2.136-0.341-3.723-0.888-4.963-2.728c-9.739-14.454-23.695-20.074-40.68-19.265
					c1.133-2.698,1.465-3.098,5.614-4.99c10.715-4.887,22.128-7.285,33.709-8.68c46.366-5.582,91.314-0.522,134.307,18.518
					c16.571,7.34,31.389,17.405,45.126,29.138c1.168,1.785,2.688,3.196,4.543,4.246c1.481,1.849,2.964,3.697,4.444,5.546
					c-3.131,0.676-1.568,1.972-0.525,3.378c3.566,4.809,6.766,9.861,9.484,15.194c10.125,19.864,14.25,41.357,15.609,63.261
					c1.349,21.718,0.207,43.459-4.891,64.773c-1.267,5.294-3.1,10.453-4.784,16.045c1.522-0.539,1.643-1.384,1.961-2.146
					c7.761-18.563,8.693-38.337,9.796-57.979c0.781-13.909-0.71-27.813-2.871-41.589c-3.149-20.076-9.568-38.938-20.997-55.928
					C596.928,484.281,594.784,483.23,595.167,480.823z M415.579,454.296c0.292,0.104,0.622,0.349,0.868,0.282
					c0.634-0.171,1.248-0.444,1.84-0.738c28.061-13.906,57.723-15.476,87.908-10.465c24.563,4.078,47.749,12.565,69.469,24.888
					c1.33,0.754,2.632,2.144,4.555,1.352C543.986,438.716,439.267,429.002,415.579,454.296z M575.412,473.411
					c-23.412-9.733-97.267,2.32-111.794,18.212C498.843,473.053,536.389,468.709,575.412,473.411z M588.363,482.916
					c4.357,37.211-0.383,72.823-18.24,106.217C585.625,573.453,597.713,503.61,588.363,482.916z M515.436,541.075
					c20.527-23.765,43.882-44.482,68.47-63.893C558.06,495.257,535.014,516.331,515.436,541.075z"/>
				<path fill-rule="evenodd" clip-rule="evenodd" fill="#FE819E" d="M566.875,948.407c-6.303-17.646-12.59-35.298-18.91-52.938
					c-9.404-26.248-18.826-52.491-28.271-78.725c-0.442-1.229-1.175-2.354-1.771-3.519c-0.479-1.75-0.84-3.551-1.458-5.259
					c-8.888-24.558-17.807-49.104-26.729-73.647c-1.287-3.543-2.637-7.063-3.957-10.594c1.588,13.364,4.167,26.378,6.826,39.376
					c12.788,62.521,25.543,125.051,38.431,187.553c4.429,21.478,9.208,42.884,13.827,64.323c-4.086,0.663-8.173,1.327-12.259,1.989
					c-18.666,3.023-37.255,6.436-55.633,10.929c-17.544,2.705-34.905,6.902-52.833,6.473c-6.067-0.63-12.087-1.38-16.414-6.444
					c-3.372-5.86-4.037-12.164-3.222-18.766c1.995-16.142,7.549-31.237,13.472-46.227c8.597-21.758,18.404-43.059,24.735-65.669
					c2.358-7.204,4.237-14.525,5.729-22.16c-1.254-0.175-2.192-0.306-3.131-0.437c2.941-0.3,4.002-2.239,4.493-4.881
					c4.782-25.729,7.015-51.655,6.137-77.828c0.023-1.649,0.046-3.3,0.069-4.95c2.604-6.61,5.099-13.266,7.834-19.82
					c6.003-14.389,10.533-28.517,1.784-43.815c-3.344-5.846-0.749-10.531,5.064-14.866c3.554-2.648,6.929-5.594,6.211-10.596
					c-0.72-5.011-1.901-9.956-2.881-14.93c1.634-2.745,5.094-3.283,6.956-5.752c2.719-0.121,5.439-0.241,8.159-0.362
					c1.604,1.522,3.207,3.045,4.811,4.567c2.146,2.898,5.236,4.579,8.247,6.345c4.149,2.433,8.524,4.532,11.799,8.219
					c0.103,1.156,0.082,2.339,0.326,3.464c6.502,29.955,13.133,59.883,19.528,89.861c9.264,43.427,18.432,86.874,27.472,130.349
					C563.302,929.218,566.089,938.624,566.875,948.407z M472.871,895.796c-4.472,14.324-8.927,27.691-12.757,41.236
					c-1.929,6.819-3.648,13.938-3.823,20.962c-0.293,11.787,1.44,18.215,13.105,18.407c12.595,0.208,24.839-1.31,36.204-6.673
					c6.961-3.286,9.903-10.207,9.14-17.512c-0.963-9.213-2.664-18.352-2.754-27.658c-0.016-1.659-0.712-2.722-2.104-3.658
					C497.771,912.742,485.706,904.516,472.871,895.796z M465.816,791.87c-3.32,0.124-5.561,1.659-5.624,5.044
					c-0.066,3.582,2.311,5.642,5.654,5.6c3.109-0.038,5.211-1.977,5.207-5.439C471.049,793.581,469.149,791.979,465.816,791.87z
					 M442.916,917.814c0.548,2.911,2.171,5.183,5.494,5.021c3.441-0.167,5.59-2.451,5.374-5.887c-0.201-3.2-2.462-5.031-5.742-4.88
					C444.682,912.226,443.096,914.323,442.916,917.814z M454.133,874.965c-0.422,5.026,1.489,7.195,4.552,7.547
					c3.315,0.381,5.876-1.497,6.145-5.056c0.251-3.342-1.73-5.237-5.058-5.514C456.458,871.666,454.354,873.052,454.133,874.965z
					 M441.159,949.883c-0.12-3.299-1.878-5.593-5.34-5.66c-3.238-0.063-5.313,2.067-5.228,5.335
					c0.078,3.042,1.535,5.394,5.105,5.474C439.087,955.106,440.928,953.492,441.159,949.883z M470.111,839.971
					c0.119-4.426-1.991-6.437-5.074-6.474c-3.095-0.038-5.242,1.931-5.169,5.45c0.065,3.166,1.59,4.988,4.843,5.117
					C468.165,844.201,469.981,842.516,470.111,839.971z"/>
				<path fill-rule="evenodd" clip-rule="evenodd" fill="#5924B9" d="M642.789,1247.053c6.794,0.001,12.992,2.351,19.104,4.952
					c1.54,0.655,3.056,1.72,2.918,3.66c-0.132,1.863-1.688,2.747-3.208,3.51c-7.826,3.93-16.34,5.479-24.855,6.741
					c-19.308,2.862-38.678,5.108-58.195,6.232c-11.246,0.647-22.494,1.3-33.735,1.998c-21.735,1.352-43.506,1.131-65.22,2.121
					c-20.476,0.933-40.936,1.009-61.353,0.451c-14.29-0.391-28.599-0.038-42.858-0.828c-14.742-0.817-29.519-1.032-44.229-2.042
					c-30.015-2.06-60.11-3.737-89.684-9.883c-4.697-0.977-9.439-2.018-13.755-4.203c-1.718-0.869-3.642-2.161-3.517-4.455
					c0.113-2.072,1.997-2.916,3.654-3.728c8.178-4.002,17.118-5.017,25.917-6.574c3.758-0.665,7.515-1.367,11.364-0.978
					c-1.648,7.806,0.125,10.029,8.075,10.049c7.667,0.02,15.333,0.03,23-0.007c7.074-0.034,12.435-3.118,16.159-9.145
					c1.308-2.117,2.611-4.292,4.257-6.137c4.798-5.376,8.877-5.018,12.879,0.895c2.367,3.497,3.681,7.443,5.003,11.396
					c0.457,1.365,0.604,3.08,2.712,2.979c3.208-0.155,6.485,0.445,9.754-0.432c-0.826-5.895-2.827-11.098-2.89-16.627
					c14.008-1.801,28.167-1.625,42.188-1.729c45.881-0.342,91.779-1.088,137.662,0.643c10.105,0.381,20.217,0.985,30.312,1.429
					c5.471,0.239,11.303-0.513,16.685,1.631c-0.637,0.753-1.284,1.497-1.908,2.26c-2.06,2.516-3.745,5.275-2.342,8.581
					c1.5,3.533,4.74,4.29,8.248,4.269c2.811-0.017,5.655-0.28,8.427,0.051c11.217,1.34,20.724-0.753,25.941-12.137
					c6.282-0.584,12.277,1.467,18.438,2.002c2.097,2.216,3.377,4.944,4.666,7.645c0.806,1.689,1.866,2.564,3.842,2.47
					c2.788-0.132,5.588-0.033,8.397-0.033C645.042,1251.146,643.012,1249.352,642.789,1247.053z"/>
				<path fill-rule="evenodd" clip-rule="evenodd" fill="#FEB400" d="M520.926,548.957c11.655,2.244,20.526,9.027,27.873,17.832
					c6.896,8.265,11.438,17.892,13.679,28.44c0.725,3.413,2.573,4.665,5.566,6.027c18.308,8.337,31.483,21.547,36.163,41.577
					c1.2,5.136,3.355,7.514,7.853,9.933c13.556,7.29,19.805,19.932,22.933,34.432c0.772,3.582,1.21,7.187,0.987,10.855
					c-8.756-6.426-18.301-10.77-29.322-11.487c-5.717-0.372-11.176,0.67-16.696,2.588c-4.486-10.034-11.37-17.618-20.955-22.655
					c-0.554-1.38-1.122-2.756-1.658-4.144c-4.643-12.017-14.449-17.426-27-14.89c-1.467,0.297-2.937,0.577-4.405,0.865
					c-7.003-9.453-15.418-16.986-27.175-19.973c-3.869-2.377-8.088-1.719-12.269-1.415c-0.971-1.008-1.217-2.292-1.556-3.599
					c-2.934-11.313-8.267-21.366-16.04-30.11C492.911,578.476,506.918,563.716,520.926,548.957z"/>
				<path fill-rule="evenodd" clip-rule="evenodd" fill="#FEB400" d="M367.464,437.071c16.984-0.81,30.94,4.811,40.68,19.265
					c1.24,1.84,2.827,2.387,4.963,2.728c17.657,2.813,32.17,10.791,38.628,28.188c2.656,7.157,6.181,9.235,13.119,11.233
					c21.722,6.255,36.307,21.217,45.344,41.734c1.055,2.395,1.328,5.21,3.814,6.795c-13.084,14.086-26.067,28.269-39.714,41.82
					c-8.11-7.498-14.839-10.518-30.289-13.494c-1.591-11.119-4.497-21.955-11.294-31.361c-6.832-9.454-16.07-15.225-27.519-17.686
					c1.032-23.972-8.194-41.797-30.431-52.663C378.435,460.461,378.746,447.552,367.464,437.071z"/>
				<path fill-rule="evenodd" clip-rule="evenodd" fill="#7735FE" d="M321.04,1141.006c10.054-31.052,20.096-62.107,30.168-93.153
					c5.524-17.025,11.1-34.033,16.653-51.049c0.428-1.26,0.867-2.516,1.282-3.779c12.043-36.665,24.083-73.331,36.124-109.996
					c9.989,3.383,19.472,8.14,29.664,10.975c-10.786,18.398-19.994,37.557-27.229,57.622c-8.808,24.426-12.892,49.634-12.888,75.637
					c0.002,9.044-0.621,18.177-2.419,27.178c-3.64,18.221-14.101,32.803-24.719,47.302c-6.861,9.368-14.558,18.122-20.779,27.961
					c-1.272,2.012-3.326,4.01-2.086,7.353c0.841-0.663,1.507-0.943,1.78-1.439c4.1-7.456,9.294-14.139,14.495-20.829
					c6.394-8.227,12.683-16.535,19.017-24.808c0.047,1.918-0.969,3.483-1.68,5.16c-6.472,15.267-12.922,30.543-19.379,45.817
					C346.375,1140.973,333.707,1140.989,321.04,1141.006z"/>
				<path fill-rule="evenodd" clip-rule="evenodd" fill="#AC193D" d="M405.268,883.027c-12.041,36.666-24.081,73.332-36.125,109.997
					c-0.415,1.264-0.854,2.52-1.282,3.779c-8.275,0.978-16.569,1.474-24.91,1.363c-15.2-0.2-22.796-9.42-20.557-24.741
					c2.432-16.642,9.718-31.381,17.627-45.875c13.489-24.721,29.985-47.626,43.884-72.084
					c12.672-22.302,23.943-45.334,31.434-69.994c2.491-8.203,3.392-16.609,1.462-25.125c-0.959-3.351-1.766-6.753-2.906-10.039
					c-6.152-17.74-2.871-33.559,9.026-47.988c5.316-6.448,11.835-11.679,17.158-18.074c5.302-4.984,10.837-9.629,17.772-12.244
					c0.325,1.65,0.232,3.26-0.496,4.803c-1.108,1.002-2.677,1.791-3.255,3.039c-4.928,10.64-14.48,17.199-22.081,25.485
					c-5.04,5.495-8.428,11.936-9.164,19.534c-1.418,3.648-0.74,7.454,0.507,10.731c4.489,11.798,5.017,24.011,4.8,36.37
					c-2.4,34.267-18.371,63.177-36.528,91.007c4.422,6.069,10.306,9.115,16.324,11.977
					C407.062,877.642,406.165,880.334,405.268,883.027z"/>
				<path fill-rule="evenodd" clip-rule="evenodd" fill="#FE4D75" d="M566.875,948.407c-0.786-9.783-3.573-19.189-5.559-28.736
					c-9.04-43.475-18.208-86.922-27.472-130.349c-6.396-29.979-13.026-59.906-19.528-89.861c-0.244-1.125-0.224-2.308-0.326-3.464
					c6.855,4.88,9.493,12.372,12.26,19.785c11.415,32.462,22.805,64.934,34.252,97.384c15.984,45.313,31.955,90.632,48.113,135.883
					c1.536,4.301,1.416,6.91-3.431,8.001c-9.296,1.689-18.615,3.199-28.11,2.729c-1.167-0.058-1.928-0.063-2.265,1.158
					C569.567,958.404,567.026,954.162,566.875,948.407z"/>
				<path fill-rule="evenodd" clip-rule="evenodd" fill="#FE2A65" d="M642.789,1247.053c0.223,2.299,2.253,4.094,1.852,7.025
					c-2.81,0-5.609-0.099-8.397,0.033c-1.976,0.095-3.036-0.78-3.842-2.47c-1.289-2.7-2.569-5.429-4.665-7.645
					c-6.268-8.829-12.286-9.482-18.438-2.002c-5.218,11.384-14.725,13.477-25.941,12.137c-2.771-0.331-5.616-0.067-8.427-0.051
					c-3.508,0.021-6.748-0.735-8.248-4.269c-1.403-3.306,0.282-6.065,2.342-8.581c0.624-0.763,1.271-1.507,1.908-2.26
					c7.404-3.366,10.744-9.479,11.182-17.251c0.229-4.093-0.219-8.223-0.361-12.336c1.879,2.076,3.557,4.394,5.683,6.174
					c3.368,2.818,6.107,2.064,7.67-2.089c0.917-2.437,1.194-5.114,1.759-7.685c0.043-1.767,0.709-3.604-0.857-5.691
					c-5.488,0-11.263,0-17.037,0c-0.728,0.012-1.454,0.022-2.182,0.034c-2.498-3.052-4.438-6.433-5.96-10.063
					c14.397,0.238,28.794,0.477,43.191,0.714c0.762-0.003,1.522-0.006,2.284-0.009c7.565,16.252,15.12,32.51,22.706,48.752
					C640.197,1242.065,641.525,1244.544,642.789,1247.053z M631.759,1228.512c-0.427-2.972-2.813-3.594-4.856-4.332
					c-7.344-2.652-13.345,1.002-19.071,4.674c-9.449,6.06-19.055,11.497-30.479,12.867c-2.3,0.275-4.919-0.543-7.074,1.192
					c1.201,2.578,3.046,1.705,4.819,1.584c12.694-0.868,23.681-5.991,33.943-13.174c6.49-4.543,13.293-7.989,21.086-2.516
					C630.391,1228.993,631.02,1228.659,631.759,1228.512z"/>
				<path fill-rule="evenodd" clip-rule="evenodd" fill="#300F63" d="M544.862,1014.979c0.34,0.13,0.679,0.26,1.017,0.392
					c6.032,15.177,12.064,30.353,18.101,45.527c1.34,3.368,2.688,6.733,4.033,10.101c-3.943,0.481-7.154-1.79-10.668-2.887
					c-6.42-2.004-12.504-5.055-19.205-6.196c-3.528-5.017-6.755-10.271-11.44-14.369c-6.992-6.117-14.374-11.947-16.271-21.869
					c-0.03-0.16-0.563-0.225-0.867-0.336c-0.277,0.168-0.605,0.286-0.813,0.515c-0.649,0.719-0.334,1.531-0.189,2.347
					c0.996,5.635,3.941,10.129,8.035,13.992c5.425,5.118,11.426,9.671,15.685,15.937c-1.885,1.596-3.478-0.116-5.036-0.623
					c-13.766-4.477-27.486-9.094-41.22-13.67c-3.017-5.313-6.034-10.628-9.051-15.941c18.377-4.493,36.966-7.905,55.632-10.929
					C536.689,1016.306,540.776,1015.642,544.862,1014.979z"/>
				<path fill-rule="evenodd" clip-rule="evenodd" fill="#FE4D75" d="M365.979,805.868c2.208-7.904,6.446-14.932,9.871-22.286
					c11.155-23.956,22.718-47.722,34.094-71.575c0.488-1.025,0.685-2.19,1.018-3.289c5.504-7.14,12.064-13.302,18.415-19.646
					c2.882-2.879,6.582-4.445,10.704-4.825c-5.324,6.395-11.843,11.625-17.159,18.073c-11.897,14.43-15.179,30.248-9.026,47.988
					c1.141,3.286,1.947,6.688,2.906,10.039c-9.985,10.2-19.988,20.382-29.948,30.605
					C380.784,797.183,374.313,802.822,365.979,805.868z"/>
				<path fill-rule="evenodd" clip-rule="evenodd" fill="#4C21A2" d="M538.141,1061.915c6.7,1.142,12.784,4.192,19.204,6.196
					c3.514,1.097,6.725,3.368,10.668,2.887c9.313,23.305,18.627,46.609,27.941,69.915c-5.628,0.009-11.256,0.018-16.884,0.027
					c-11.141-21.183-22.275-42.369-33.434-63.543c-0.679-1.288-1.058-2.862-2.699-3.408
					C541.338,1069.964,539.739,1065.939,538.141,1061.915z"/>
				<path fill-rule="evenodd" clip-rule="evenodd" fill="#FE9247" d="M574.81,960.937c0.337-1.221,1.098-1.216,2.265-1.158
					c9.495,0.471,18.814-1.039,28.11-2.729c0.29,0.621,0.579,1.241,0.869,1.861c-1.358,1.37-1.574,3.247-2.13,4.95
					c-3.594,11.001-7.133,22.019-10.689,33.031C585.221,985.866,575.876,975.521,574.81,960.937z"/>
				<path fill-rule="evenodd" clip-rule="evenodd" fill="#8251E5" d="M554,1168c0.963-0.616,1.847-1.487,2.899-1.81
					c17.123-5.246,33.914-11.445,50.748-17.522c1.069-0.387,2.253-0.455,3.383-0.671c6.555,7.119,4.615,15.794-4.693,20.992
					c-12.055-0.248-24.107-0.614-36.162-0.679c-4.063-0.022-8.226-0.889-12.224,0.654C556.635,1168.644,555.317,1168.321,554,1168z"
					/>
				<path fill-rule="evenodd" clip-rule="evenodd" fill="#C86B2B" d="M352.101,1183.545c-13.41-4.291-26.82-8.581-40.23-12.872
					c0.051-0.554,0.102-1.105,0.152-1.657c14.908-0.089,29.815-0.179,44.723-0.26c1.01-0.006,1.997,0.108,2.574,1.126
					C356.913,1174.437,354.507,1178.99,352.101,1183.545z"/>
				<path fill-rule="evenodd" clip-rule="evenodd" fill="#FE88B2" d="M267.175,1241.94c12.825,0,24.956-2.783,36.435-8.62
					c7.674-3.903,15.223-8.212,23.826-9.9c5.69-1.116,12.143,1.159,14.359,5.178c-0.729,0.059-1.495,0.373-1.934,0.119
					c-9.457-5.451-18.133-1.967-26.339,2.763c-10.341,5.962-21.171,10.525-32.981,11.971c-4.595,0.563-9.646,3.396-14.234-0.455
					C266.597,1242.644,266.886,1242.292,267.175,1241.94z"/>
				<path fill-rule="evenodd" clip-rule="evenodd" fill="#FEFEFE" d="M407.958,874.948c-6.019-2.861-11.902-5.907-16.324-11.977
					c18.157-27.83,34.128-56.74,36.527-91.006c2.006-3.87-0.069-8.298,1.512-12.894c9.02,11.293,17.642,22.089,26.264,32.886
					c0.878,26.173-1.354,52.099-6.137,77.828c-0.491,2.642-1.552,4.581-4.497,4.881C432.859,875.778,420.424,877.36,407.958,874.948
					z"/>
				<path fill-rule="evenodd" clip-rule="evenodd" fill="#FE2850" d="M474.019,682.98c0.979,4.974,2.161,9.919,2.881,14.93
					c0.718,5.002-2.657,7.947-6.211,10.596c-5.813,4.335-8.408,9.021-5.064,14.866c8.749,15.299,4.219,29.427-1.784,43.815
					c-2.735,6.555-5.23,13.21-7.834,19.82c-2.275-18.604-6.885-36.966-5.834-55.918c1.299-4.97,2.528-9.936,4.45-14.745
					c3.292-8.242,8.322-15.511,12.451-23.278C469.388,689.704,471.703,686.342,474.019,682.98z"/>
				<path fill-rule="evenodd" clip-rule="evenodd" fill="#6328CE" d="M462.94,609.835c5.321-5.534,10.643-11.067,15.963-16.601
					c7.773,8.744,13.106,18.797,16.04,30.11c0.339,1.307,0.585,2.591,1.556,3.599c-7.136,2.582-9.895,1.581-13.952-4.604
					C477.91,615.27,471.755,610.428,462.94,609.835z"/>
				<path fill-rule="evenodd" clip-rule="evenodd" fill="#9663FE" d="M434.931,894.003c2.175-3.79,3.913-7.875,7.695-10.721
					c-0.073,4.268-2.934,7.36-4.842,10.843c-9.754,17.542-18.942,35.356-25.922,54.219c-6.456,17.447-11.274,35.283-12.917,53.903
					c-1.135,12.876-1.795,25.761-2.048,38.684c-0.093,4.751-1.143,9.484-1.755,14.226c-2.501,12.693-8.983,23.667-15.042,34.822
					c-6.333,8.272-12.622,16.581-19.016,24.808c-5.201,6.69-10.395,13.373-14.495,20.829c-0.273,0.496-0.939,0.776-1.78,1.439
					c-1.24-3.343,0.813-5.341,2.086-7.353c6.221-9.839,13.918-18.593,20.779-27.961c10.618-14.499,21.079-29.081,24.719-47.302
					c1.798-9.001,2.421-18.134,2.419-27.178c-0.004-26.003,4.08-51.211,12.888-75.637
					C414.937,931.56,424.145,912.401,434.931,894.003z"/>
				<path fill-rule="evenodd" clip-rule="evenodd" fill="#6328CE" d="M414.231,659.138c7.914-6.403,14.797-13.872,21.872-21.144
					c0.746-0.766,1.12-1.613,1.249-2.621c0.629,0.877,1.255,1.749,1.88,2.621c-1.137,2.613-2.616,5.104-2.831,8.041
					c-2.945,17.347,5.825,26.861,21.376,23.19c0.024,0.926,0.049,1.852,0.073,2.776c-6.935,2.615-12.47,7.26-17.771,12.244
					c-4.121,0.381-7.821,1.947-10.703,4.826c-6.351,6.344-12.911,12.506-18.415,19.646c-15.675,16.443-31.352,32.888-47.025,49.335
					c-2.403,2.521-4.775,5.074-7.193,7.582c-1.26,1.308-2.536,3.018-4.494,0.998c-1.678-1.731-0.307-2.952,0.846-4.203
					c1.004-1.091,1.935-2.249,2.898-3.378c10.002-10.576,20.252-20.932,29.937-31.791c9.633-10.802,8.881-5.945,3.773-19.364
					c6.134-6.554,12.481-12.881,19.187-18.863c4.251-3.794,7.633-8.317,9.582-13.771c1.015-2.838,1.331-6.117-1.158-7.845
					C414.043,665.146,414.305,662.236,414.231,659.138z"/>
				<path fill-rule="evenodd" clip-rule="evenodd" fill="#FECBAA" d="M570.827,1190.064c-3.414-5.719-6.827-11.438-10.243-17.158
					c11.288,1.979,21.941,6.117,32.67,9.91c6.979,2.467,14.344,4.012,20.763,7.963
					C599.621,1190.541,585.225,1190.303,570.827,1190.064z"/>
				<path fill-rule="evenodd" clip-rule="evenodd" fill="#EDA362" d="M606.136,981.137c3.267,3.545,6.533,7.09,9.8,10.634
					c0.133-0.143,0.266-0.285,0.397-0.428c-3.787-3.025-7.574-6.052-11.361-9.077C605.359,981.89,605.748,981.513,606.136,981.137z"
					/>
			</g>
		</g>
		<path fill-rule="evenodd" clip-rule="evenodd" fill="#EEA565" d="M599.853,989.479c3.698,2.147,6.534,5.088,9.182,9.913
			C604.271,996.516,601.75,993.284,599.853,989.479z"/>
		<path fill-rule="evenodd" clip-rule="evenodd" fill="#EFA668" d="M616.352,981.065c-3.384-2.209-5.87-4.507-7.292-8.115
			C613.08,974.938,614.768,976.771,616.352,981.065z"/>
		<path fill-rule="evenodd" clip-rule="evenodd" fill="#8558D7" d="M456.962,1114.353c-10.573,10.532-21.146,21.063-31.719,31.595
			c0.335,0.334,0.67,0.667,1.005,1c10.563-10.555,21.127-21.11,31.691-31.666C457.613,1114.972,457.287,1114.662,456.962,1114.353z"
			/>
		<path fill-rule="evenodd" clip-rule="evenodd" fill="#FE7A99" d="M465.518,794.512c1.41,0.282,2.561,0.849,2.525,2.533
			c-0.032,1.51-0.701,2.708-2.333,2.585c-1.363-0.104-2.531-0.863-2.617-2.5C463.004,795.441,464.11,794.83,465.518,794.512z"/>
		<path fill-rule="evenodd" clip-rule="evenodd" fill="#FE7D9B" d="M450.873,917.373c-0.098,1.512-0.899,2.472-2.398,2.506
			c-1.518,0.034-2.372-0.935-2.476-2.424c-0.109-1.554,0.623-2.493,2.26-2.424C449.726,915.093,450.656,915.858,450.873,917.373z"/>
		<path fill-rule="evenodd" clip-rule="evenodd" fill="#FE7B99" d="M459.441,874.54c1.378,0.282,2.528,0.845,2.489,2.486
			c-0.04,1.712-0.9,2.855-2.702,2.72c-1.52-0.114-2.214-1.22-2.244-2.71C456.95,875.376,458.046,874.808,459.441,874.54z"/>
		<path fill-rule="evenodd" clip-rule="evenodd" fill="#FE7897" d="M438.675,949.7c-0.156,1.601-1.121,2.313-2.63,2.341
			c-1.498,0.027-2.59-0.654-2.802-2.191c-0.218-1.586,0.721-2.57,2.209-2.681C437.154,947.044,438.115,948.193,438.675,949.7z"/>
		<path fill-rule="evenodd" clip-rule="evenodd" fill="#FE7493" d="M462.287,839.079c0.151-1.506,1.058-2.555,2.384-2.73
			c1.673-0.223,2.799,0.941,2.969,2.535c0.159,1.485-1.021,2.522-2.31,2.712C463.653,841.843,462.76,840.58,462.287,839.079z"/>
	</g>
</g>
<g id="Capa_2" display="none">
</g>
</svg>
