<?xml version="1.0" encoding="utf-8"?>
<!-- Generator: Adobe Illustrator 16.0.3, SVG Export Plug-In . SVG Version: 6.00 Build 0)  -->
<!DOCTYPE svg PUBLIC "-//W3C//DTD SVG 1.1//EN" "http://www.w3.org/Graphics/SVG/1.1/DTD/svg11.dtd">
<svg version="1.1" id="Capa_1" xmlns="http://www.w3.org/2000/svg" xmlns:xlink="http://www.w3.org/1999/xlink" x="0px" y="0px"
	 width="750px" height="1624px" viewBox="0 0 750 1624" enable-background="new 0 0 750 1624" xml:space="preserve">
<g>
	<rect x="1" y="2" fill="#6228CF" width="750" height="1624"/>
	<g>
		<path fill="#7F51D6" d="M82.368,1049.939c42.712-42.703,85.425-85.407,128.137-128.11c-0.479-0.479-0.959-0.96-1.439-1.439
			c-42.743,42.737-85.486,85.475-128.229,128.21C81.348,1049.047,81.858,1049.493,82.368,1049.939z"/>
		<path fill="#7D4ED5" d="M391.834,557.02c-41.155,41.178-82.31,82.354-123.464,123.53c0.596,0.601,1.192,1.198,1.788,1.798
			c41.15-41.154,82.303-82.311,123.455-123.465C393.02,558.262,392.427,557.641,391.834,557.02z"/>
		<path fill="#5723B5" d="M689.976,718.318c-24.049,24.05-48.098,48.1-72.146,72.147c0.397,0.399,0.797,0.798,1.195,1.197
			c24.047-24.051,48.094-48.103,72.142-72.153C690.769,719.113,690.372,718.716,689.976,718.318z"/>
		<path fill="#5623B5" d="M244.379,1129.032c21.042-21.042,42.085-42.084,63.128-63.126c-0.417-0.418-0.833-0.836-1.25-1.254
			c-21.042,21.043-42.083,42.085-63.125,63.127C243.547,1128.197,243.963,1128.614,244.379,1129.032z"/>
		<path fill="#8457D7" d="M553.355,333.729c-19.011,19.041-38.021,38.082-57.03,57.123c0.398,0.404,0.799,0.81,1.199,1.214
			c19.061-19.014,38.122-38.028,57.183-57.042C554.257,334.592,553.807,334.16,553.355,333.729z"/>
		<path fill="#7F50D5" d="M95.961,775.763c10.103-10.249,20.205-20.498,30.308-30.747c-0.374-0.377-0.747-0.753-1.12-1.13
			c-10.167,10.194-20.334,20.389-30.501,30.582C95.086,774.899,95.523,775.331,95.961,775.763z"/>
		<path fill="#8051D6" d="M327.269,430.105c9.417-9.433,18.833-18.863,28.249-28.296c-0.478-0.478-0.954-0.956-1.433-1.434
			c-9.417,9.431-18.835,18.86-28.253,28.291C326.311,429.146,326.79,429.626,327.269,430.105z"/>
		<path fill="#8052D6" d="M643.695,911.514c9.382-9.153,18.765-18.31,28.146-27.464c-0.544-0.557-1.088-1.112-1.633-1.67
			c-9.248,9.28-18.496,18.561-27.743,27.84C642.875,910.651,643.285,911.083,643.695,911.514z"/>
		<path fill="#8457D7" d="M700.378,1162.841c-10.508,10.513-21.015,21.025-31.521,31.538c0.331,0.336,0.663,0.673,0.994,1.009
			c10.534-10.54,21.068-21.081,31.604-31.622C701.095,1163.457,700.736,1163.149,700.378,1162.841z"/>
		<path fill="#8355D7" d="M307.633,918.123c10.182-10.169,20.362-20.337,30.543-30.506c-0.328-0.332-0.656-0.664-0.982-0.996
			c-10.198,10.207-20.396,20.415-30.596,30.622C306.943,917.536,307.288,917.829,307.633,918.123z"/>
		<path fill="#8457D7" d="M709.723,570.015c-10.244,10.212-20.487,20.425-30.73,30.636c0.48,0.486,0.964,0.975,1.445,1.461
			c10.135-10.322,20.269-20.646,30.401-30.967C710.467,570.767,710.095,570.391,709.723,570.015z"/>
		<path fill="#5723B6" d="M708.043,985.398c-8.063,8.037-16.126,16.074-24.189,24.112c0.383,0.384,0.764,0.769,1.145,1.151
			c8.057-8.045,16.113-16.089,24.169-24.134C708.792,986.152,708.418,985.775,708.043,985.398z"/>
	</g>
</g>
<g id="Capa_2" display="none">
</g>
<g>
	<g>
		<path fill="#5924B9" d="M658.059,1258.504c0,9.586-99.775,17.352-222.853,17.352c-123.08,0-222.854-7.766-222.854-17.352
			c0-9.579,99.774-17.348,222.854-17.348C558.283,1241.156,658.059,1248.925,658.059,1258.504z"/>
		<g>
			<g>
				<path fill="#072155" d="M534.233,676.043l-25.127,11.157c8.146,14.901,17.664,30.631,25.809,45.532
					c3.51,6.418,7.154,12.999,12.736,17.578c5.284,4.331,12.766,6.421,18.889,3.707c-5.818-16.578-11.635-33.158-17.453-49.732
					C545.541,694.173,541.398,683.427,534.233,676.043z"/>
				<path fill="#072A6E" d="M584.187,684.349c2.575-9.042,2.174-21.45-3.178-29.076l-46.775,20.771
					c7.165,7.383,11.308,18.129,14.854,28.241c5.818,16.574,11.635,33.154,17.453,49.732c0.346-0.156,0.702-0.262,1.035-0.444
					c6.472-3.556,9.189-11.803,9.497-19.387c0.31-7.586-1.19-15.189-0.5-22.748C577.438,702.051,581.611,693.392,584.187,684.349z"
					/>
			</g>
			<g>
				<g>
					<path fill="#072155" d="M458.878,786.967l-10.366-33.221l-14.814,6.29l-4.132,23.519
						C438.706,787.684,449.089,788.914,458.878,786.967z"/>
					<path fill="#072A6E" d="M458.878,786.967c-9.789,1.947-20.172,0.717-29.313-3.412l-3.683,20.923
						c-1.547,8.805,2.816,17.586,10.632,21.398l0.947,0.46c8.466,4.13,18.571,1.273,23.846-6.734l0,0
						c3.318-5.037,4.201-11.386,2.39-17.194L458.878,786.967z"/>
				</g>
				<path fill="#D38C6C" d="M457.578,738.652l-15.01-11.542c-4.119-3.168-10.002-1.712-12.297,3.043l-12.44,25.784
					c-2.17,4.5-0.143,9.952,4.38,11.781l14.546,5.881c3.802,1.535,8.087-0.425,9.544-4.379L457.578,738.652z"/>
			</g>
			<g>
				<g>
					<polygon fill="#808285" points="534.406,434.993 529.374,433.459 452.244,704.728 457.275,706.267 					"/>
					<path fill="#58595B" d="M450.446,704.18l-23.434,82.404c-2.567,9.039-11.75,14.22-20.469,11.56
						c-8.717-2.661-13.722-12.174-11.151-21.208l0.846-2.98l-8.626-2.632l-0.846,2.981c-3.97,13.959,3.765,28.659,17.237,32.776
						c13.475,4.112,27.668-3.899,31.636-17.86l23.431-82.406L450.446,704.18z"/>
				</g>
				<g>
					<path fill="#008196" d="M534.994,423.305c-89.001-27.166-180.567-7.556-250.2,44.958l109.241,33.343
						C438.501,441.413,490.498,409.723,534.994,423.305z"/>
					<path fill="#008196" d="M534.994,423.305c44.494,13.582,71.607,69.417,77.473,144.974l109.241,33.343
						C690.676,518.384,623.994,450.471,534.994,423.305z"/>
					<path fill="#40AABE" d="M534.994,423.305c-44.496-13.582-96.493,18.108-140.959,78.301l218.432,66.673
						C606.602,492.722,579.488,436.887,534.994,423.305z"/>
				</g>
			</g>
			<g>
				<path fill="#BA7B62" d="M532.075,1049.966l1.202-15.477c-21.631-8.327-41.162-22.447-56.174-40.604l3.789,55.465
					c1.287,18.842,7.471,36.977,17.894,52.475l54.009,80.31l16.266-10.401l16.27-10.398L532.075,1049.966z"/>
				<path fill="#8D5C4C" d="M533.277,1034.489l10.288-132.439l-68.732,58.634l2.271,33.201
					C492.115,1012.042,511.646,1026.162,533.277,1034.489z"/>
				<polygon fill="#D3947F" points="580.473,1191.497 598.444,1180.006 587.998,1159.625 585.33,1161.334 585.33,1161.334 
					569.061,1171.732 550.122,1183.839 560.562,1204.218 567.291,1199.918 567.291,1199.918 				"/>
				<path fill="#FFBC07" d="M562.271,1222.545l-20.041,12.013c-5.69,3.417-10.613,7.973-14.599,13.325h89.105l-25.85-63.046
					l-10.414,6.66l-13.182,8.421l1.091,2.406C571.717,1209.688,569.064,1218.469,562.271,1222.545z"/>
				<path fill="#FFFFFF" d="M523.331,1254.591h96.156l-2.751-6.708h-89.105C526.051,1250.008,524.588,1252.222,523.331,1254.591z"/>
			</g>
			<g>
				<path fill="#8D5C4C" d="M549.881,841.916h-90.958l-17.635,28.388c9.995,29.568,24.631,57.425,43.206,82.137l65.387-55.779
					V841.916z"/>
				<path fill="#BA7B62" d="M367.547,989.044c-3.387,5.451-5.723,11.532-6.88,17.902l-29.329,161.437l19.911,5.03l19.911,5.03
					l45.651-168.263l67.683-57.74c-18.575-24.712-33.211-52.568-43.206-82.137L367.547,989.044z"/>
				<polygon fill="#D3947F" points="331.339,1168.383 328.182,1167.583 321.868,1191.691 341.54,1196.658 360.335,1201.41 
					360.335,1201.41 368.006,1203.354 374.318,1179.239 351.25,1173.413 331.339,1168.383 				"/>
				<path fill="#FFFFFF" d="M252.179,1243.354l95.915,15.849l1.374-6.49l-92.359-15.967
					C255.2,1238.689,253.521,1240.894,252.179,1243.354z"/>
				<path fill="#FFBC07" d="M326.063,1192.752l-4.215,7.615c-6.644,12.008-17.823,20.593-30.843,23.685l-20.008,4.758
					c-5.306,1.258-10.085,4.053-13.888,7.936l92.359,15.967l10.867-51.302l-18.795-4.752L326.063,1192.752z"/>
			</g>
			<path fill="#E3E7E8" d="M469.963,698.792c-12.684,25.85-13.097,105.263-17.999,134.574c-0.749,4.479,2.571,8.551,6.959,8.551
				h99.696l-47.595-161.675L469.963,698.792z"/>
			<g>
				<g>
					<path fill="#D38C6C" d="M502.382,663.771l-1.355-5.63l-3.275-11.556l-27.678,9.22l-7.17,9.088
						c3.618,6.227,6.401,12.945,8.454,19.893C483.593,681.646,494.76,674.164,502.382,663.771z"/>
					<path fill="#EDB698" d="M506.82,682.142l-4.438-18.371c-7.622,10.393-18.789,17.875-31.024,21.014
						c1.181,3.97,2.184,8.004,2.817,12.105L506.82,682.142z"/>
				</g>
				<g>
					<g>
						<path fill="#BA7B5F" d="M488.884,577.754c12.872,4.745,25.139,11.035,37.216,17.693l5.469-33.952
							c-12.606-8.909-25.671-17.709-40.42-21.75c-11.512-3.149-23.566-3.263-35.469-3.357l-14.471,33.435
							C457.333,568.765,473.613,572.129,488.884,577.754z"/>
						<path fill="#885747" d="M488.884,577.754c-15.271-5.625-31.551-8.989-47.675-7.932l-8.615,19.903l89.603,29.94l3.903-24.218
							C514.022,588.789,501.756,582.499,488.884,577.754z"/>
					</g>
					<path fill="#BA7B5F" d="M564.197,636.586c-1.942,6.557-42.049-0.391-89.584-15.51c-47.537-15.119-84.495-32.687-82.556-39.241
						c1.941-6.552,42.05,0.393,89.588,15.512C529.178,612.465,566.139,630.034,564.197,636.586z"/>
					<path fill="#051649" d="M474.608,608.69c0.328,1.901,0.438,3.868,0.365,5.788c-0.163,4.373-0.935,8.755-0.453,13.105
						c0.661,6.014,3.668,12.266,8.361,15.867c-1.434-3.888,0.229-8.646,3.579-10.95c3.347-2.296,8.017-2.125,11.38,0.157
						c3.362,2.278,5.36,6.436,5.407,10.602c0.049,3.591-1.34,7.255-3.967,9.607c-0.751,0.678-1.609,1.243-2.509,1.701
						c1.417,1.212,2.837,2.435,4.254,3.574c6.58-3.437,11.13-10.169,13.573-17.372c1.875-5.535,2.777-11.304,3.259-17.14
						C503.867,618.236,489.325,613.039,474.608,608.69z"/>
					<path fill="#EDB698" d="M503.248,643.259c-0.047-4.166-2.045-8.324-5.407-10.602c-3.363-2.282-8.033-2.453-11.38-0.157
						c-3.35,2.303-5.013,7.062-3.579,10.95c-4.693-3.602-7.7-9.854-8.361-15.867c-0.481-4.35,0.29-8.732,0.453-13.105
						c0.073-1.92-0.037-3.887-0.365-5.788c-12.363-3.66-24.822-6.655-37.162-8.632c-0.73,14.616-6.317,28.927-15.627,39.934
						c3.299,0.424,6.91,0.765,10.215,1.189c2.718,7.855,6.246,15.647,10.803,22.536c1.981,2.993,4.208,5.95,7.252,7.745
						c4.932,2.905,11.118,2.245,16.528,0.465c9.084-2.989,17.244-8.933,23.029-16.782c2.312,0.928,4.884,0.552,7.126-0.577
						c0.899-0.458,1.758-1.023,2.509-1.701C501.908,650.514,503.297,646.85,503.248,643.259z"/>
				</g>
			</g>
			<g>
				<path fill="#072A6E" d="M530.084,810.223l-27.702-84.629l42.469,6.979c-8.82-24.475-19.848-44.583-33.826-52.333l-41.062,18.551
					c-16.827,102.283-1.931,211.823,42.515,304.795l98.329-26.041l-80.723-77.866V810.223z"/>
				<path fill="#072155" d="M567.037,819.175c-5.355-27.015-12.422-59.486-22.187-86.602l-42.469-6.979l27.702,84.629v89.457
					l80.723,77.866l9.003-2.387C584.89,937.154,577.234,870.571,567.037,819.175z"/>
			</g>
			<g>
				<path fill="#072A6E" d="M501.114,722.984l41.642,85.456l-2.264,88.222h26.545l8.636-87.415c0.915-9.277-0.817-18.634-4.991-26.9
					l-38.326-75.993c-4.334-8.585-14.397-12.151-22.896-8.111l0,0C500.416,702.551,496.624,713.774,501.114,722.984z"/>
				<path fill="#EDB698" d="M543.565,896.661l14.393,34.215c1.232,2.932,4.289,4.561,7.308,3.9l14.909-3.269
					c3.005-0.66,5.155-3.407,5.155-6.594v-14.159l-6.311,2.012l-11.982-16.105H543.565z"/>
			</g>
		</g>
	</g>
</g>
</svg>
