<?xml version="1.0" encoding="utf-8"?>
<!-- Generator: Adobe Illustrator 22.0.1, SVG Export Plug-In . SVG Version: 6.00 Build 0)  -->
<svg version="1.1" id="Capa_1" xmlns="http://www.w3.org/2000/svg" xmlns:xlink="http://www.w3.org/1999/xlink" x="0px" y="0px"
	 viewBox="0 0 750 1624" style="enable-background:new 0 0 750 1624;" xml:space="preserve">
<style type="text/css">
	.st0{fill:#6228cf;}
	.st1{fill:#E6F4FC;}
	.st2{fill:#01637F;}
	.st3{fill:#1CB7C0;}
	.st4{fill:#8B2979;}
	.st5{fill:#FDE7CC;}
	.st6{fill:#FCCB07;}
	.st7{fill:#F4A1A1;}
	.st8{fill:#F29F9F;}
	.st9{fill:#FFFFFF;}
	.st10{fill:#CBE2EA;}
	.st11{fill:#1CB9C2;}
</style>
<rect x="0.1" y="0.1" class="st0" width="749.9" height="1623.7"/>
<g>
	<g>
		<polygon class="st1" points="591.9,1216.8 629.3,1244.4 638.3,1223.3 599.4,1190.5 		"/>
	</g>
	<g>
		<path class="st2" d="M631.2,1217.3c0,0,9.5,6.3,10.7,8.8s1.9,10.7-2.5,23.4c-4.4,12.6-17.7,43-26.5,44.9s0.6-25.9,3.8-38.5
			c3.2-12.6,1.9-15.8,1.9-15.8s-4.4,0-6.9-2.5c-2.5-2.5,2.5-8.2,6.3-10.1c3.8-1.9,6.3,0,10.1,2.5
			C631.8,1232.5,638.8,1227.6,631.2,1217.3z"/>
	</g>
	<g>
		<path class="st3" d="M297.8,829.7l66.2-7.3c7.4-0.8,12.7-7.5,11.9-14.8l-17.9-163.5c-0.8-7.4-7.5-12.7-14.8-11.9l-66.2,7.3
			c-7.4,0.8-12.7,7.5-11.9,14.8L283,817.8C283.8,825.2,290.5,830.5,297.8,829.7z"/>
	</g>
	<g>
		<path class="st1" d="M406.5,641.5l-59.7,0.6c0,0-69,22.7-76.3,27.6c-7.3,4.9-5.7,15.4-2.4,32.5c2.9,15.2,29.1,94.6,34.7,111.3
			c0.7,2,0.5,4.2-0.4,6v0c-1.9,3.8-0.5,8.4,3.2,10.5l5.5,3.1c1.6,0.9,3.4,1.2,5.2,0.9l104.9-17.5c2.8-0.5,5.3-2,6.9-4.4l5.2-7.5
			c3-4.3,2.4-10.1-1.5-13.7l-2-1.9c-2.2-2.1-3.4-5-3.3-8l3.9-114.9C430.8,652.5,420,641.3,406.5,641.5z"/>
	</g>
	<g>
		<polygon class="st1" points="254.4,1308.7 236.9,1369.2 217.8,1345.3 228.9,1303.9 		"/>
	</g>
	<g>
		<path class="st2" d="M241.6,1359.1l-6.1,24.5c0,0-52.6-13.5-72.2-31.8c-19.6-18.4,14.7-8.6,33-3.7l13.5,3.7v-11
			c0,0,8.6-3.7,14.7,0s2.4,11,4.9,18.4C231.9,1366.5,236.7,1370.1,241.6,1359.1z"/>
	</g>
	<g>
		<path class="st4" d="M311.1,833l5.2,50c0.3,3.2,0.2,6.5-0.5,9.7l-94.7,440.6l27.6,4.1l126.8-385.9c0.5-1.6,2.7-1.7,3.4-0.2
			l71.9,149.5c4.3,8.8,10.5,16.6,18.2,22.6l131.8,102.8l21.1-20.3l-110.8-113c-7.7-7.8-13.2-17.4-16-28
			c-13.4-49.6-53.4-197.5-58.1-206.2c-2.5-4.7-4.7-8.1-6.4-10.4c-2.3-3.2-3.9-6.7-4.7-10.5l-4.6-21.3L311.1,833z"/>
	</g>
	<g>
		<path class="st5" d="M299.4,540.2c0,0-5.4,0-8.2,5.1c-2.7,5.1-1.2,17.1,10.9,23c12.1,5.8,14.4,6.6,16,11.3
			c1.6,4.7,7.8,75.9,7.8,75.9l49.8-4.3l-7.7-57.4c-0.6-4.6,1.9-9.1,6.1-10.9c5.1-2.2,11.1-6.5,12.1-15c1.9-15.2-4.4-65.7-11-73
			c-6.6-7.4-62.3,22.2-62.3,22.2L299.4,540.2z"/>
	</g>
	<g>
		<path class="st6" d="M298.5,515.4c0,0-8.7-1.4-10.1-11.5c-1.4-10.1,1.4-13,10.6-18.7c9.1-5.8,20.2-11.1,29.3-20.7
			c9.1-9.6,17.8-6.2,12.5,1.4c0,0,11.1-5.8,14.9-9.1c3.8-3.4,13.9,2.4,6.7,10.1c0,0,12-2.4,15.4-6.2c3.4-3.8,18.7,0.5,5.3,15.9
			l-6.2,6.7c0,0,11.1,2.4,6.2,10.6l-3.8,3.8c0,0-18.7,8.7-32.2,8.2c0,0,6.7,0,6.2,5.3c-0.5,5.3-9.6,4.3-17.3,4.3
			S298.5,515.4,298.5,515.4z"/>
	</g>
	<g>
		<path class="st6" d="M333.2,513c0,0,3.5,9.7,0,16.7s-8.6,5.8-7.8,12.5c0.8,6.6,4.7,15.6,0.4,17.5s-7-4.3-10.1-11.7
			s-11.7-8.6-16.3-7.8l-5.4-29.2L333.2,513z"/>
	</g>
	<g>
		<path class="st7" d="M350.5,550c-0.5-1.3-1.5-2.4-2.4-3.4c-0.9-1-2.1-1.9-3.3-2.5c-1.5-0.7-2.9-1.1-4.6-0.9
			c-1.5,0.2-3.1,0.8-4.1,2c-0.8,0.9-1.5,2-1.8,3.2c-0.5,1.6-0.3,4.2,0.7,5.5c0.1,0.2,0.3,0.4,0.4,0.5c0.4,1,0.9,2,1.5,2.8
			c1.7,2.1,4.6,3.9,7.4,3.5c1.3,0,2.5-0.3,3.6-1c1.1-0.6,1.9-1.5,2.6-2.6c0.6-1.1,1-2.3,1-3.6C351.5,552.3,351.1,551.1,350.5,550z"
			/>
	</g>
	<g>
		<path class="st7" d="M386.2,557c-0.3-6.2-0.9-13.3-1.7-20.3c-5.2,4.8-5.8,13.7-0.4,18.8C384.7,556.2,385.4,556.7,386.2,557z"/>
	</g>
	<g>
		<g>
			<path class="st8" d="M298.8,554.7c0.2-0.1,4-2.1,8-1.5c-2.8-2.3-6.6-4.3-11.4-4.2c-0.4,0-0.7-0.3-0.8-0.7c0-0.4,0.3-0.7,0.7-0.8
				c12.3-0.1,18.5,11.9,18.6,12c0.2,0.4,0,0.8-0.3,1c0,0,0,0,0,0c-0.4,0.2-0.8,0-1-0.3c0-0.1-1.2-2.3-3.5-4.8c-0.1,0-0.2,0-0.2-0.1
				c-4.2-2-9.4,0.6-9.4,0.7c-0.4,0.2-0.8,0.1-1-0.3C298.3,555.3,298.4,554.9,298.8,554.7z"/>
		</g>
	</g>
	<g>
		<path class="st9" d="M375.6,552.9l-20-1.5c0,0-0.2,8.6,7.2,10.3C370.2,563.5,375.3,557.4,375.6,552.9z"/>
	</g>
	<g>
		<path class="st8" d="M369.5,547.1c-0.1,0-0.2,0-0.3-0.1c-0.3-0.2-0.4-0.6-0.2-0.9c0.6-0.9,1.6-3,1.1-3.9c-0.5-0.9-2.5-1.2-3.2-1.2
			c-0.3,0-0.5-0.2-0.6-0.5c0-0.2-1.2-3.9-1.2-9.3c0-0.3,0.3-0.6,0.6-0.6c0.3,0,0.6,0.3,0.6,0.6c0,4.1,0.7,7.3,1,8.5
			c1,0.1,3.1,0.4,3.9,1.8c0.9,1.8-1,4.8-1.2,5.2C369.9,547,369.7,547.1,369.5,547.1z"/>
	</g>
	<g>
		<g>
			<path class="st2" d="M351.8,535.7c0-0.2-0.1-0.4-0.2-0.6c-0.3-1-1.5-1.4-2.4-1.2c-0.8,0.2-1.5,1-1.6,1.9c0,0,0,0.1,0,0.1
				c0,0.2,0,0.4,0,0.6c0,0.3,0.1,0.6,0.2,1c0,0.2,0.1,0.5,0.1,0.7c0,0,0,0.1,0,0.1c0.2,1,1.1,2,2.2,1.8c1-0.1,1.9-1,1.8-2.1
				c0,0,0-0.1,0-0.1C352.2,537,352.1,536.3,351.8,535.7z"/>
		</g>
	</g>
	<g>
		<g>
			<path class="st2" d="M379.8,532.1c0-0.2-0.1-0.4-0.1-0.6c-0.2-1-1.3-1.6-2.2-1.4c-0.8,0.1-1.6,0.8-1.7,1.7c0,0,0,0.1,0,0.1
				c-0.1,0.2-0.1,0.4-0.1,0.6c0,0.3,0,0.7,0.1,1c0,0.2,0,0.5,0.1,0.7c0,0,0,0.1,0,0.1c0.1,1.1,0.9,2.1,2.1,2c1-0.1,2-0.8,2-1.9
				c0,0,0-0.1,0-0.1C380,533.5,380,532.8,379.8,532.1z"/>
		</g>
	</g>
	<g>
		<path class="st6" d="M344.9,527.1c-0.1,0-0.2,0-0.2,0c-0.4-0.1-0.7-0.6-0.6-1c0.5-1.6,1.8-3,3.4-3.5c1.6-0.5,3.5-0.2,4.8,0.9
			c0.4,0.3,0.4,0.8,0.1,1.2c-0.3,0.4-0.8,0.4-1.2,0.1c-0.9-0.7-2.1-1-3.2-0.6c-1.1,0.3-2,1.3-2.3,2.3
			C345.6,526.9,345.3,527.1,344.9,527.1z"/>
	</g>
	<g>
		<path class="st6" d="M372.2,521.7c0,0-0.1,0-0.1,0c-0.5-0.1-0.8-0.5-0.7-0.9c0.3-2.1,1.8-3.9,3.8-4.6c2-0.6,4.3-0.1,5.7,1.5
			c0.3,0.3,0.3,0.9,0,1.2c-0.3,0.3-0.9,0.3-1.2,0c-1-1.1-2.6-1.5-4-1c-1.4,0.4-2.4,1.8-2.6,3.2C373,521.4,372.6,521.7,372.2,521.7z"
			/>
	</g>
	<g>
		<polygon class="st1" points="342.5,630.1 324.1,651.8 324.9,661.5 385.8,656.6 372,641.2 		"/>
	</g>
	<g>
		<path class="st1" d="M373.4,612.1l4.2,30.2c0,0-10.3,14.2-18.2,13.5c-7.9-0.6-14.5-15.4-17-25.7L373.4,612.1z"/>
	</g>
	<g>
		<path class="st1" d="M320.7,619.8l21.8,10.3c0,0,4.2,23.8-6.7,25.7C324.9,657.8,322.5,656.5,320.7,619.8z"/>
	</g>
	<g>
		<path class="st2" d="M387.9,824.4c-0.3-0.9-33.7-87.2-4.5-184.5l4.8,1.5c-28.7,95.6,4,180.4,4.4,181.2L387.9,824.4z"/>
	</g>
	<g>
		<path class="st2" d="M328.4,833c-42.5-92.9-26-177-25.8-177.9l5,1c-0.2,0.8-16.3,83.4,25.5,174.8L328.4,833z"/>
	</g>
	<g>
		
			<rect x="368.9" y="687.3" transform="matrix(0.998 -6.298623e-02 6.298623e-02 0.998 -42.6523 25.0264)" class="st6" width="13.3" height="3.4"/>
	</g>
	<g>
		
			<rect x="295.3" y="695.8" transform="matrix(0.9965 -8.304548e-02 8.304548e-02 0.9965 -56.8789 27.4827)" class="st6" width="13.3" height="3.4"/>
	</g>
	<g>
		<path class="st10" d="M338.3,657.1L324,650l0.6-1.1l12.8,6.4l4.3-23.8c0.1-0.5,0.5-0.8,0.9-0.9c0.5,0,0.9,0.2,1.1,0.7l8.6,23.5
			l25.1-13l0.6,1.1l-26.4,13.7l-8.8-24L338.3,657.1z"/>
	</g>
	<g>
		<path class="st6" d="M363.7,831.7l-12.1,1.8c-2.5,0.4-4.2,2.7-3.8,5.1l0.4,2.9c0.4,2.5,2.7,4.2,5.1,3.8l12.1-1.8
			c2.5-0.4,4.2-2.7,3.8-5.1l-0.4-2.9C368.4,833,366.1,831.3,363.7,831.7z"/>
	</g>
	<g>
		<path class="st1" d="M410.5,642.5c0,0,20.9-5.6,33.8,18.5c12.9,24.2,49.1,86.2,49.1,86.2l-32.2,22.5l-54-74.1L410.5,642.5z"/>
	</g>
	<g>
		<path class="st10" d="M426.4,724.1c-0.1,0-0.3,0-0.4-0.1l-22.6-18.1c-0.3-0.2-0.3-0.6-0.1-0.9c0.2-0.3,0.6-0.3,0.9-0.1l18.6,14.9
			l-19.9-26.2c-0.2-0.3-0.2-0.7,0.1-0.9c0.3-0.2,0.7-0.2,0.9,0.1l23,30.3c0.2,0.3,0.2,0.6-0.1,0.8
			C426.7,724,426.6,724.1,426.4,724.1z"/>
	</g>
	<g>
		<path class="st10" d="M462.6,771.7l31.9-21.7c1.7-1.2,2.3-3.5,1.4-5.3l-7.1-14.2c-1.3-2.5-4.6-3.1-6.6-1.1l-30.8,29.5
			c-1.7,1.6-1.7,4.2-0.2,5.9l6,6.4C458.6,772.6,460.9,772.9,462.6,771.7z"/>
	</g>
	<g>
		<path class="st5" d="M463.6,770.5c0,0,17.7,23.4,25.8,27.4c8.1,4,23.4,6.4,31.4-16.1c8.1-22.5,29.8-142.5,29.8-142.5l-17.7-7.2
			l-43.5,118.4L463.6,770.5z"/>
	</g>
	<g>
		<path class="st7" d="M479.7,776c-0.1,0-0.1,0-0.2,0c-0.3-0.1-0.5-0.5-0.4-0.8l14.5-39.5c0.1-0.3,0.5-0.5,0.8-0.4
			c0.3,0.1,0.5,0.5,0.4,0.8l-14.5,39.5C480.2,775.8,480,776,479.7,776z"/>
	</g>
	<g>
		<path class="st5" d="M534.6,634.8c0,0-7.8-6.1-10.6-13.9c-2.8-7.8-3.9-21.7-4.4-27.2c-0.6-5.6,6.1-1.1,6.7,5.6l1.1,5.6
			c0,0,1.1-21.7,1.7-27.8c0.6-6.1,5.6-2.8,5,0.6c0,0-0.6-8.3,2.8-9.4c3.3-1.1,3.9,8.3,3.9,8.3s0.6-3.9,3.9-3.3
			c3.3,0.6,2.8,6.1,2.8,6.1s2.2-2.8,3.9,0s3.9,18.9,5,28.3c1.1,9.4,1.5,28.4-5.7,31.7C543.5,642.5,537.9,640.9,534.6,634.8z"/>
	</g>
	<g>
		<path class="st7" d="M543.5,623.7c-0.3,0-0.6-0.2-0.6-0.5c-2.1-11.2-12.8-14.5-12.9-14.5c-0.2-0.1-0.3-0.2-0.4-0.4l-2.8-6.7
			c-0.1-0.3,0-0.7,0.3-0.8c0.3-0.1,0.7,0,0.8,0.3l2.7,6.4c1.8,0.6,11.4,4.6,13.5,15.4c0.1,0.3-0.2,0.7-0.5,0.7
			C543.5,623.7,543.5,623.7,543.5,623.7z"/>
	</g>
	<g>
		<path class="st7" d="M552.7,602.6C552.6,602.6,552.6,602.6,552.7,602.6l-19.4-1.4c-0.3,0-0.6-0.3-0.6-0.7c0-0.4,0.3-0.6,0.7-0.6
			l19.3,1.4c0.3,0,0.6,0.3,0.6,0.7C553.3,602.4,553,602.6,552.7,602.6z"/>
	</g>
	<g>
		<path class="st7" d="M536.6,601c-0.3,0-0.6-0.2-0.6-0.6l-2.5-24.8c0-0.3,0.2-0.7,0.6-0.7c0.3,0,0.7,0.2,0.7,0.6l2.5,24.8
			C537.3,600.6,537.1,600.9,536.6,601C536.7,601,536.7,601,536.6,601z"/>
	</g>
	<g>
		<path class="st7" d="M543.8,601.5c-0.3,0-0.6-0.2-0.6-0.6l-3.6-27.3c0-0.3,0.2-0.7,0.5-0.7c0.3,0,0.7,0.2,0.7,0.5l3.6,27.3
			C544.5,601.1,544.2,601.5,543.8,601.5C543.9,601.5,543.8,601.5,543.8,601.5z"/>
	</g>
	<g>
		<path class="st7" d="M548.8,602.1c-0.3,0-0.6-0.3-0.6-0.6l-1.4-22.2c0-0.3,0.2-0.7,0.6-0.7c0.3-0.1,0.6,0.2,0.7,0.6l1.4,22.2
			C549.4,601.7,549.2,602,548.8,602.1C548.8,602.1,548.8,602.1,548.8,602.1z"/>
	</g>
	<g>
		<path class="st1" d="M231,761.9c0,0,22.7-64.9,25.2-73c2.4-8.1,7.3-21.9,28.4-25.2v59.2l-24.3,54.4L231,761.9z"/>
	</g>
	<g>
		<path class="st10" d="M224.5,796.7c0,0-5.7-0.8-3.2-11.4c2.4-10.5,4.1-23.5,8.9-26.8c4.9-3.2,15.4,1.6,24.3,4.1s20.3,0.8,19.5,8.9
			c-0.5,4.9-2.4,14.1-3.9,20.7c-1,4.4-5.1,7.5-9.6,7.1L224.5,796.7z"/>
	</g>
	<g>
		<path class="st5" d="M269.6,722.6c0,0,4.6-8.4,11.5-12.3s22.3-6.1,26.9-5.4c4.6,0.8,0.8,6.9,0.8,6.9s5.4,2.3,4.6,6.1
			c-0.8,3.8-3.1,6.1-3.1,6.1s6.9,5.4,1.5,9.2c0,0,3.1,4.6-0.8,6.9c-3.8,2.3-14.6,3.8-23.8,4.6C278,745.6,264.2,743.3,269.6,722.6z"
			/>
	</g>
	<g>
		<path class="st5" d="M289.5,720.3l-20,2.3c0,0-22.3,36.1-29.2,45.3c-6.9,9.2-23,38.4-28.4,47.6c-5.4,9.2-3.1,26.9,6.9,33
			s22.3,0.8,31.5-20.7c9.2-21.5,24.6-80.6,30.7-85.2C287.2,737.9,298.8,724.9,289.5,720.3z"/>
	</g>
	<g>
		<path class="st7" d="M305.2,739.9c-0.1,0-0.2,0-0.3-0.1c-0.3-0.2-0.4-0.5-0.3-0.9c0.6-1.1,0.7-2.4,0.3-3.6
			c-0.1-0.2-0.1-0.4-0.2-0.6c-0.2-0.4-0.4-0.9-0.4-1.4c-0.1-0.9,0.2-1.7,0.5-2.5c0.3-0.7,0.5-1.3,0.4-2c-0.1-0.6-0.4-1.2-0.8-1.9
			c-0.3-0.5-0.6-1-0.8-1.5c-0.5-1.4-0.3-2.9,0-4.4c0.3-1.5,0.5-3-0.2-4.1c-0.1-0.2-0.3-0.4-0.4-0.6c-0.3-0.4-0.6-0.8-0.8-1.3
			c-0.3-0.8-0.1-1.7,0-2.4c0.1-0.3,0.1-0.6,0.1-0.9c0.1-1.8-1.3-3.7-3.2-3.9c-0.3,0-0.6-0.4-0.5-0.7c0-0.3,0.4-0.6,0.7-0.5
			c2.5,0.3,4.4,2.8,4.2,5.3c0,0.3-0.1,0.7-0.2,1c-0.1,0.6-0.2,1.2,0,1.8c0.1,0.3,0.4,0.6,0.6,0.9c0.2,0.2,0.4,0.5,0.5,0.7
			c1,1.5,0.7,3.3,0.4,5c-0.2,1.4-0.4,2.6,0,3.8c0.2,0.4,0.4,0.9,0.7,1.3c0.5,0.7,0.9,1.5,1,2.4c0.1,0.9-0.2,1.7-0.5,2.5
			c-0.3,0.7-0.5,1.3-0.4,2c0,0.4,0.2,0.7,0.3,1.1c0.1,0.2,0.2,0.4,0.2,0.6c0.5,1.5,0.4,3.2-0.4,4.6
			C305.7,739.7,305.4,739.9,305.2,739.9z"/>
	</g>
	<g>
		<path class="st11" d="M304.1,704.7l11.8-52.6c0,0,0.4-3.6-5.1-2.3s-15,4.1-15,4.1s-2.7,0.7-4.8,8.2c-2,7.5-10,48.2-10,48.2
			S292.9,704.7,304.1,704.7z"/>
	</g>
	<g>
		<path class="st11" d="M296.7,743.2c0,0-1.6,45.7,3.7,61.7c0,0-4.3,0.5-6.4,0.5c-2.1,0-8.5-4.8-11.2-14.9
			c-2.7-10.1-2.1-46.2-2.1-46.2S293,744.3,296.7,743.2z"/>
	</g>
	<g>
		<polygon class="st6" points="601.8,1229.9 625.2,1207.3 615.1,1197.7 590,1220.3 		"/>
	</g>
	<g>
		<polygon class="st6" points="218.8,1334.9 250.2,1340 256.1,1324.5 222.2,1320.7 		"/>
	</g>
	<g>
		<path class="st6" d="M611.4,1205.2l-120.8-119.7l0-0.1l-53.8-198c-3.1,0.6-22.5,3-32.4-23l0.8-0.3c10.5,27.4,31.6,22.4,31.8,22.4
			l0.4-0.1l0.1,0.4l53.9,198.2L612,1204.6L611.4,1205.2z"/>
	</g>
	<g>
		<polygon class="st6" points="242.3,1331.2 241.5,1330.9 314.8,1115.3 315.6,1115.6 		"/>
	</g>
</g>
</svg>
