<?xml version="1.0" encoding="utf-8"?>
<!-- Generator: Adobe Illustrator 22.0.0, SVG Export Plug-In . SVG Version: 6.00 Build 0)  -->
<svg version="1.1" id="Capa_1" xmlns="http://www.w3.org/2000/svg" xmlns:xlink="http://www.w3.org/1999/xlink" x="0px" y="0px"
	 viewBox="0 0 750 1624" style="enable-background:new 0 0 750 1624;" xml:space="preserve">
<style type="text/css">
	.st0{fill:#6228cf;}
	.st1{fill:#4E21B1;}
	.st2{fill:#FDC50C;}
	.st3{fill:#F12B49;}
	.st4{fill:#FFFFFF;}
	.st5{fill:#1AB2BB;}
	.st6{fill:#F49898;}
	.st7{fill:#FEE5C6;}
	.st8{fill:#005874;}
	.st9{fill:#E3F4FD;}
</style>
<rect x="0.1" y="0.1" class="st0" width="749.9" height="1623.7"/>
<g>
	<g>
		<g>
			<path class="st1" d="M636.6,1180.1c-5.2-4.1-12.1-4.3-18.1-1.6c-1.4,0.6-1.6,1.7-1.3,2.8c-2.5,1.7-4.4,4.3-6.1,6.9
				c-3.7,5.6-7,11.4-10.6,17.2c-5.6,9.1-13.2,23.5-3.2,32.4c3.8,3.4,9,4.5,13.5,2c2.5-1.4,4.5-3.6,6.6-5.5c2.4-2.3,4.7-4.7,7-7.1
				c4.2-4.6,8.1-9.6,11.6-14.8c3.5-5,6.9-10.4,7.3-16.6C644,1189.7,641.3,1183.7,636.6,1180.1z"/>
		</g>
		<g>
			<path class="st1" d="M686.7,1209.7c-0.6,0.1-1.1,0.3-1.4,0.6c-4.3-3.8-10.7-2-15.5,0.2c-8.1,3.6-16.1,7.5-24.1,11.4
				c-8,3.8-15.9,7.5-23.9,11.3c-6.6,3.1-14.9,5.7-19.4,11.8c-3.5,4.5-4.2,12,0.5,15.9c5.7,5,13.6,1.2,19.4-1.6
				c16.2-7.6,32.4-15.3,48.6-22.8c4.5-2.1,9-4.2,13.5-6.4c3.2-1.5,6.4-3.2,8.6-6.2C696.4,1218.9,694.3,1208.8,686.7,1209.7z"/>
		</g>
		<g>
			<path class="st1" d="M324.4,1108.5c0,0-9.5,5.9-11.7,11.9c-2.2,5.9,13.1,37.8,18.2,60.2c5.1,22.3,24.1,59.4,28.5,69
				s10.9,18.5,37.3,12.6c26.3-5.9,110.3-27.4,139.5-37.8c29.3-10.4,51.1-24.5,64.3-34.2c13.1-9.7,16.8-23.8,16.8-23.8s16,0.8,27-7.4
				c0,0-2.2,23,2.9,30.4c5.1,7.4,13.1,0,15.4,3.7c2.2,3.7,0.8,7.4,6.6,8.9c5.9,1.4,13.9-0.8,20.5-11.1c6.6-10.4,23.4-88.3,22.6-94.2
				c-0.8-5.9-10.6-11.9-21-8.9c-10.4,3-2.4-2.2-12.6-4.4c-10.2-2.2-13.9,1.4-17.6-12.6c-3.7-14.1-5.1-42.3-24.1-49.7
				c-19-7.4-35,76.5-35,76.5s-27.7-51.2-33.6-62.4c-5.9-11.1-8-13.3-21.9-14.1S324.4,1108.5,324.4,1108.5z"/>
		</g>
		<g>
			<path class="st1" d="M619.4,841.3c-2.2,3.7-13.1,31.9-10.2,46s7.3,26,38.7,32.6c31.4,6.7,57,2.2,64.3-18.5
				c7.3-20.8,17.6-83.8,16-98.7c-1.4-14.9,5.9-16.3-25.6-22.3C671.3,774.6,619.4,841.3,619.4,841.3z"/>
		</g>
		<g>
			<path class="st1" d="M173.3,895.5l-1.7,2.5l-26,36.8c0,0-21.1,11.1-25.6,17.1c-4.4,6-4.3,23.8,25.6,37.8s111,34.2,182.6,33.4
				c71.5-0.8,74.4,4.4,113.2-0.8c38.7-5.2,62.1-20.1,81.1-28.2c19-8.2,65-44.5,68.6-68.3c3.7-23.8-10.2-42.3-19.7-62.4
				c-9.5-20.1-5.9-34.9,19.7-56.4c25.6-21.5,35.8-54.9,46.7-71.9c10.9-17.1,29.9-42.3,27-56.4c-2.9-14.1-10.9-28.2-36.5-32.6
				c-25.6-4.4-55.5-21.5-61.3-32.6c-5.9-11.1-19.7-26.7-40.9-26c-21.1,0.8-59.2,37.1-59.2,37.1L388,701.8L173.3,895.5z"/>
		</g>
		<g>
			<path class="st1" d="M245.5,1271c0,0-5.1,12.6,0,18.5c5.1,5.9,18.2,1.4,41.6-7.4s39.4-14.9,43.1-19.3c3.7-4.4,5.1-14.1-1.4-18.5
				C322.3,1239.8,245.5,1271,245.5,1271z"/>
		</g>
		<g>
			<path class="st1" d="M92.9,1180.5c0,0-10.9,22.3-10.9,28.2c0,5.9,2.2,17.1,16,23.8c13.9,6.7,35,9.7,48.2,14.1
				c13.1,4.4,46,11.1,57.7,7.4c11.7-3.7,29.9-17.8,41.6-37.8c11.7-20.1,49.6-114.3,58.4-126.9c8.8-12.6,7.3-23.8-0.8-33.4
				c-8-9.7-35.8-14.9-57.7-23.8c-21.9-8.9-30.7-11.9-43.8-10.4c-13.1,1.4-22.6,5.9-22.6,5.9L92.9,1180.5z"/>
		</g>
		<g>
			<path class="st1" d="M109.4,1100.3c-0.4-0.5-0.9-0.7-1.3-0.8c-3.8-11-7.4-22.1-9.8-33.6c-2.4-12.1-3.3-24.6-7.9-36.1
				c-3.9-9.7-10.2-18.6-19.9-22.9c-9.2-4.1-20.3-3.6-27.8,3.7c-8.8,8.5-7.3,21-6.4,32.2c1.1,12.4,3,24.6,5.7,36.6
				c2.9,12.3,6.7,24.3,11.3,36.1c3.9,9.8,8.5,20.8,19.1,24.5c5.6,1.9,11.2,0.8,15.8-2.8c5.3-4,10.1-8.2,16-11.3
				c4.3-2.3,9.4-4.6,11-9.8C117.4,1109.9,113.2,1104.5,109.4,1100.3z"/>
		</g>
		<g>
			<path class="st1" d="M70.6,857c0,0,7-3.3,14.6,2.8c7.6,6,9.8,24.5,3,41.3c-6.8,16.8-22.5,41.3-39,47.8S25.1,945,31,926.1
				c5.9-18.9,20.4-50.8,23.8-57.3C58.1,862.3,60.2,858,70.6,857z"/>
		</g>
		<g>
			<path class="st2" d="M670,1175.5c0,0-0.4-5.2,0.4-10.3c0.7-5.2,14.3-77.8,14.3-77.8s2.7-0.7,6.5,0.4c3.8,1.1,6.8,3.5,6.8,3.5
				l-15.4,87.1l-1.7,4.8L670,1175.5z"/>
		</g>
		<g>
			<path class="st3" d="M648.5,1093.1c-0.4-3-1-6.1-1.5-9.1c-2.2-10.3-5.4-20.3-7.8-30.5c-1.2-4.9-2.2-9.9-2.9-15
				c-0.6-4.7-0.4-9.8-2.5-14.1c-3.6-7.3-12.5-10-19.9-9c-4.6,0.7-9,2.4-13.2,4.4c-3.9,1.8-8.3,3.7-10.2,7.8
				c-1.9,4.2-1.4,9.1-1.1,13.5c0.3,5.4,0.8,10.7,1.4,16c1.3,10.6,3.1,21,5.5,31.5c2.7,11.4,6.5,22.6,7.4,34.4
				c0.8,9.8,0.9,20.5,6.8,28.9c1.1,1.4,2.7,1.4,4,0.7c0.2,0.1,0.5,0.1,0.8,0.1c6.4,0.3,12.7-0.8,18.7-3.3c2.9-1.2,7-2.9,9.5-5.5
				c0.9,0,1.7-0.3,2.3-1.3C655.3,1127.8,653.2,1109.8,648.5,1093.1z"/>
		</g>
		<g>
			<polygon class="st4" points="624,876.6 618.3,895.9 693.3,911.3 720.8,787.9 691.4,786 			"/>
		</g>
		<g>
			<path class="st3" d="M429.3,638.6c0,0,3.9-8.7,12.6-17.5c8.7-8.8,21.9-18.2,21.9-18.2s7.8-27,10.1-37.4
				c2.3-10.3,2.3-15.9,1.5-20.7c-0.8-4.7-7.9-13.7-7.1-18.3c0.9-4.6,38.3-34.9,38.3-34.9l7,1.5c0,0,11.7,15.1,15.6,24.6
				c3.9,9.6,4.7,26.2,3.9,35.7c-0.8,9.6-6.3,54.8-7,61.1c-0.8,6.4,9.4,8.7,14.9,11.1s17.2,3.2,21.1-1.5c4-4.7,1.7-3.6,7.5-7.3
				c0,0-0.5-6.2-2-10.1c-1.5-4-7.4-13.1-5.7-17.7c1.7-4.5,48.7-32.3,48.7-32.3s26.6,38.1,23.5,72.3c-3.1,34.2-29.7,76.3-39.9,88.9
				c-10.1,12.7-25.8,27-25.8,27L429.3,638.6z"/>
		</g>
		<g>
			<path class="st4" d="M540.5,550.3c0,0-2-5.4,6.1-15.4s27.7-31.9,37.8-38.9s15.9-6.7,18-0.9c2,5.8-0.4,14.9-7.7,26.5
				c-7.3,11.6-21.6,25.3-29,29.8c-7.3,4.5-15.4,6.7-15.4,6.7S540.5,560.3,540.5,550.3z"/>
		</g>
		<g>
			<path class="st4" d="M449.6,500.2c0,0-5.3-2.9-2.4-14.1s18-42.7,26.5-52.6c8.6-9.9,11.8-9.1,11.8-9.1s6.6-2.5,8.1,5.4
				c1.6,7.8-4.9,34-5.3,35.1c-0.4,1.3-10.6,21.9-10.6,21.9L467,500.1C467.1,500.2,451.2,501.9,449.6,500.2z"/>
		</g>
		<g>
			<path class="st2" d="M464.9,516.6l-4.2-5.5l-11-10.9c0,0,6.6,1.6,12.6-2c6.1-3.7,19.6-27.7,26.8-45.6c7.3-17.8,2.4-27.3-3.7-28.2
				c0,0,9.4-4.9,11,10.3c1.6,15.4-1.6,34.4-1.6,34.4l7.8,11.5l2.4,7.1l-16.3,23.2L464.9,516.6z"/>
		</g>
		<g>
			<path class="st2" d="M554.3,572.6c0,0-8.9-11.2-10.5-13.6c-1.6-2.5-3.3-7.4-3.3-8.7c0-1.3,1.6,4.5,10.6,4.5
				c9,0,21.6-11.2,32.2-22.4c10.6-11.2,18-24.4,19.1-29c1.3-4.5-1.3-11.2-4.9-12c-3.7-0.9,5.3-3.3,7.7,5.4s-0.4,16.1-5.7,27.3
				c-5.3,11.2-6.1,13.2-4.1,17s6.6,9.2,6.6,9.2l-14.8,18.2l-17.5,10.3C569.8,578.9,556.7,584.2,554.3,572.6z"/>
		</g>
		<g>
			<path class="st5" d="M456.9,910.8c0,0,8.3,18.2,14.8,23.5c6.4,5.2,14.1-2.6,22.5-7.1c8.3-4.5,38.5-27.4,38.5-27.4l3.9-18.2
				l-25-18.9l21.1-66.5l47.5-45.7c0,0-41.7-99.8-147.6-110.8C326.6,628.3,456.9,910.8,456.9,910.8z"/>
		</g>
		<g>
			<path class="st5" d="M254.1,888.6L214.3,914c0,0-2.6-1.4-12.2-11.1c-9.7-9.8-30.8-46.3-30.8-46.3s30.1-12.4,43-13
				c12.8-0.7,39.2,9.8,39.2,9.8L254.1,888.6z"/>
		</g>
		<g>
			<path class="st6" d="M221.6,831.5c0,0-4.3-5.6-8.1-6.8c-3.8-1.2-5.5-4.7-2-4.4c3.5,0.3,7.5,0.6,7.5,0.6s-6.4-5.6-7.5-6.5
				s-3.5-4.4-7.2-3.6s0-5,4.3-4.4c4.3,0.6,12.7,10.6,12.7,10.6L221.6,831.5z"/>
		</g>
		<g>
			<path class="st7" d="M209,797.3c0,0-12.4-3.6-11.4,14.3c0.9,17.9,12.3,41.9,35.6,42.4c0,0,19.9,93.5,126.3,89.9
				c0,0,99.4,7.1,136.4-82.3c0,0,7,11.6,29.9-1.8c22.9-13.4,30.8-30.4,27.3-51s-28.2-20.6-44-5.4L444,703.3l-120.6,16.1L245.1,740
				L209,797.3z"/>
		</g>
		<g>
			<path class="st2" d="M238.8,748.5c0,0-6,10.3-7,36.6c-1,26.3,1.8,56.3,1.8,56.3s-5.1,3.3-9.3-2.3c-4.2-5.6-16.1-26.3-18.9-49.2
				c-2.8-23-3.7-45-3.7-45L238.8,748.5z"/>
		</g>
		<g>
			<path class="st2" d="M417.3,724.6c0,0-77,47.4-183.5,28.9c-106.4-18.5-62.9-84.5-41.5-76.2c0,0-6.1-12.4-3-22.7
				c3-10.3,18.2-18.5,37.5-7.2c0,0,2-18.5,18.2-15.4c16.2,3.1,41.5,17.5,61.8,17.5s65.8-14.4,89.2-17.5c23.3-3.1,55.7,2,58.8,44.3
				c0,0,42.6-13.4,54.7,21.6c12.2,35,5,100.9,5,100.9s-9.1,27.8-20.3,35c-11.1,7.2-37.5-6.2-18.2-42.2
				C476.1,791.5,419.3,780.2,417.3,724.6z"/>
		</g>
		<g>
			<path class="st2" d="M280.6,777.8c0,0-7,1.9-11.2,4.5s-6.1,4.5-6.8,2.3c-0.7-2.3,0-7.1,6.1-10.4c6.1-3.3,12.8-3.3,15.1-1
				C286.1,775.5,285.5,777.5,280.6,777.8z"/>
		</g>
		<g>
			<path class="st2" d="M387.4,776.2c0,0-7.7-2.9-11.2-4.5c-3.5-1.6-6.8-6.9-3.2-9.8c3.6-2.9,8.3-1.9,13.5,1
				c5.1,2.9,12.6,10.1,12.6,12.7S393.5,778.8,387.4,776.2z"/>
		</g>
		<g>
			<path class="st8" d="M302.2,829.9c0,0-0.7,3.3-4.2,1.4c-3.6-1.9-4.2-9.2-9.3-12.4c-5.1-3.3-8.7-0.7-9,5.2c-0.3,5.9-1,7.1-2.9,6.9
				s-2.9-4-1.3-11.1c1.6-7.1,10.6-10.7,18-4.9C300.8,820.9,302.2,829.9,302.2,829.9z"/>
		</g>
		<g>
			<path class="st8" d="M384.5,824.7c0,0,0,5.2-2.9,6.2s-4.8-1-2.2-10.4s6.8-15.6,16-16.3c9.3-0.7,10.6,17.3,9.7,23.2
				c0,0-1.6,2.6-4.2,0.7c-2.6-1.9,0-9.2-3.9-15.4C393.2,806.5,387.1,813.3,384.5,824.7z"/>
		</g>
		<g>
			<path class="st3" d="M331,838.7c0,0,2.2,7.5-1,12.4c-3.2,4.9-4.5,0.3-6.1-0.7c-1.6-1-1.6-1.4-0.7-4.5c1-3.3,3.6-7.1,3.9-9.8
				C327.5,833.5,331,836.5,331,838.7z"/>
		</g>
		<g>
			<path class="st3" d="M326.2,864.5c0,0,16.7-2.9,24.7-6.6c8-3.6,7.3,2.3,8.3,7.8c1,5.5-1.6,21.5-5.1,25.1
				c-3.6,3.6-8.7,6.2-17.7,2.3c-9-4-10.2-20.9-11.9-24.8C323,864.5,326.2,864.5,326.2,864.5z"/>
		</g>
		<g>
			<path class="st6" d="M256.2,899.8c0,0,11.2-0.3,20.6-8.1c9.3-7.8,4.8-28.4,2.2-34.9c-2.6-6.6-6.8-15.4-22.8-15
				c-16,0.3-22.1,7.5-23.8,12.4l-0.3,1.9C232.2,856.2,243.3,884.6,256.2,899.8z"/>
		</g>
		<g>
			<path class="st6" d="M389.7,886.7c0,0-9-3.6-9.7-21.1c-0.7-17.6,9-28.4,23.8-31c14.8-2.6,31.1-2.6,34.7,11.1
				c3.6,13.7,6.1,25.1-9.9,37.5C412.4,895.5,397.4,893.5,389.7,886.7z"/>
		</g>
		<g>
			<path class="st6" d="M505.8,846.3c0,0,0.3-3.3,2.2-8.5c1.9-5.2,8-18.2,14.1-23.8c6.1-5.5,15.1-4,18-0.7c2.9,3.3-1.3,0.3-5.8,0.7
				c-4.5,0.3-9,3.3-11.6,7.8c-2.6,4.5-4.8,7.5-4.8,7.5s5.8-2.9,10.2-2.3c4.5,0.7,7.3,2.9,4.2,3.6c-3.2,0.7-6.1,0-9.7,1.9
				c-3.6,1.9-8,3.3-9,6.2c-1,2.9-1.9,7.8-3.6,9.2C508.7,849.2,506.1,852.1,505.8,846.3z"/>
		</g>
		<g>
			<path class="st7" d="M209.1,901.2c0,0-10,6.6-5.9,18c4.2,11.4,27.7,23.9,65.9,29.4c0,0,10.6,1.8,18.2,1.8s34.2,5.4,48.3,13.1
				c14.1,7.8,11.8,10.8,7.6,11.4c-4.2,0.6-15.9-5.4-15.9-5.4s11.2,5.4,12.4,12.6c1.2,7.1-5.3,4.2-14.1-3c0,0,8.8,9,8.2,14.4
				c-0.6,5.4-8.2,3.6-15.4-5.4c0,0,7,8.4,7,14.4c0,6-2.9,6-8.8,1.2c-5.9-4.8-7-7.8-7-7.8s-2.3,5.4-10.6,4.8
				c-8.2-0.6-17.7-6.6-23-8.4c-5.3-1.8-41.8,6.6-93-22.7c-51.3-29.4-59.5-82,1.2-102.3C184.4,867.1,205.6,877.3,209.1,901.2z"/>
		</g>
		<g>
			<path class="st7" d="M480.5,925.1c0,0,12.4,9.6,7,16.1c-5.3,6.6-21.2,12-46.5,13.8c-25.3,1.8-46,13.1-60.6,25.1
				c-14.7,12-18.2,23.4-1.7,12c0,0-3.6,5.4-4.2,11.4c-0.6,6,1.2,10.8,11.8-4.2c0,0,3.6-3,2.3,0c-1.2,3-5.3,7.8-7,13.1
				c-1.7,5.4,0,9,5.3,3.6c5.3-5.4,8.2-9,9.5-7.1c1.2,1.8-5.9,6.6-7.6,9.6c-1.7,3-1.7,7.8,4.7,3.6c6.5-4.2,11.2-6.6,11.2-6.6
				s7,2.4,17.1-3.6c10-6,10-9,10-9s43.5-3.6,78.9-21c35.3-17.4,51.8-75.4,10.6-93.9C521.2,888.1,497.6,891.6,480.5,925.1z"/>
		</g>
		<g>
			<path class="st5" d="M577,705.7c-2.9,3.3-6,6.3-9.3,9.1c-1.2,1-1,2.9,0,3.9c1.1,1.2,2.7,0.9,3.8,0c3.4-2.7,6.5-5.8,9.3-9.1
				C583,706.8,579.2,703,577,705.7z"/>
		</g>
		<g>
			<path class="st5" d="M592.1,693.8c-1.2-1.1-2.6-1-3.8,0c-1.4,1.3-2.8,2.5-4.2,3.7c-1.1,1-1,2.9,0,3.9c1.2,1.1,2.6,1,3.8,0
				l4.2-3.7C593.2,696.7,593.1,694.8,592.1,693.8z"/>
		</g>
		<g>
			<path class="st5" d="M598.4,675.3c-1.5,3.1-3.3,6.2-5.2,9c-1.9,2.9,2.7,5.6,4.6,2.7c1.9-2.9,3.8-5.9,5.2-9
				C604.6,674.9,599.9,672.2,598.4,675.3z"/>
		</g>
		<g>
			<path class="st5" d="M611.5,655.1c-1.2-0.7-3.1-0.4-3.7,1l-3.4,8.1c-0.6,1.4-0.4,2.9,1,3.8c1.2,0.7,3.1,0.4,3.7-1l3.4-8.1
				C613.1,657.5,612.9,655.9,611.5,655.1z"/>
		</g>
		<g>
			<path class="st5" d="M615.7,634.5c-1.3-0.4-3.1,0.5-3.3,1.9c-0.4,2.9-0.8,5.8-1.2,8.6c-0.2,1.4,0.4,2.9,1.8,3.4
				c1.3,0.4,3.1-0.5,3.3-1.9c0.4-2.9,0.8-5.8,1.2-8.6C617.8,636.4,617.2,634.9,615.7,634.5z"/>
		</g>
		<g>
			<path class="st5" d="M618.8,617.3c-0.8-3.4-6-1.9-5.2,1.4c0.5,2.2,0.7,4.3,0.6,6.7c-0.1,3.5,5.2,3.5,5.3,0
				C619.7,622.6,619.4,619.9,618.8,617.3z"/>
		</g>
		<g>
			<path class="st5" d="M618.8,603.7c-1-2.4-1.5-4.7-1.6-7.3c-0.1-3.5-5.5-3.5-5.3,0c0.1,3,0.7,6,1.8,8.8c0.6,1.4,1.7,2.3,3.3,1.9
				C618.2,606.7,619.3,605.1,618.8,603.7z"/>
		</g>
		<g>
			<path class="st5" d="M614,585.9c-0.8-1.8-1.5-3.8-2.3-5.6c-0.6-1.4-1.7-2.3-3.3-1.9c-1.3,0.4-2.4,2-1.8,3.4
				c0.8,1.8,1.5,3.8,2.3,5.6c0.6,1.4,1.7,2.3,3.3,1.9C613.5,588.8,614.6,587.2,614,585.9z"/>
		</g>
		<g>
			<path class="st5" d="M569.7,616.9c1.5,0.2,11.2,0.4,19.3,1.2s10.8-0.8,8.1-2.3c-2.7-1.5-19.7-2.3-22.7-2.7
				C571.3,612.6,566.2,616.6,569.7,616.9z"/>
		</g>
		<g>
			<path class="st5" d="M573.2,611.4c0,0,14.3-1.5,20.5-1.9s3.5-2.7-1.2-3.1C587.8,605.9,572,609.9,573.2,611.4z"/>
		</g>
		<g>
			<path class="st5" d="M553.4,684.8c-1.4,0-2.9-0.5-4.7-1.5c-3.4-2-7.4-5.5-11.3-8.9c-3.6-3.1-7-6.1-9.1-7.1
				c-1.5-0.8-2.3-1.7-2.2-2.9c0.1-2.1,3.2-3.7,4.1-4.1c1-0.8,7.3-5.9,9.5-8c1.9-1.9,4-1.5,6.5-1.1c1.4,0.3,2.8,0.6,4.7,0.7l0.9,0.1
				c5.6,0.4,7.4,0.9,11.2,9.2c3.7,8.3,3.3,9.3,0.3,14c-0.2,0.4-0.5,0.8-0.8,1.2c-0.3,0.5-0.6,1-0.9,1.4
				C559.5,681.2,557.2,684.8,553.4,684.8z M531.2,662.1c-1.4,0.6-2.9,1.7-2.9,2.2c0,0.1,0.3,0.5,1.1,0.9c2.4,1.3,5.9,4.2,9.6,7.4
				c3.8,3.3,7.7,6.8,11,8.7c4.9,2.9,6.7,0.5,10-4.9c0.3-0.5,0.6-1,0.9-1.4c0.3-0.4,0.5-0.8,0.8-1.2c2.7-4.2,2.9-4.4-0.5-11.9
				c-3.4-7.5-4.5-7.6-9.4-7.9l-1-0.1c-2-0.1-3.7-0.5-5-0.8c-2.5-0.5-3.5-0.7-4.5,0.4c-2.3,2.4-9.5,8.1-9.8,8.3
				C531.4,662.1,531.3,662.1,531.2,662.1L531.2,662.1z M530.7,661.2L530.7,661.2L530.7,661.2z"/>
		</g>
		<g>
			<path class="st5" d="M486.8,642.7c-2.3,0-5.9-1.7-11.7-5.7c-4.5-3.1-11.4-5.4-13.6-6.2c-0.6-0.2-1.4-0.6-1.7-1.4
				c-0.3-1.1,0.5-2,1.6-3.4c0.5-0.6,1-1.2,1.5-1.9c2.3-3.2,7.5-8.9,7.8-9.1c0.2-0.2,0.5-0.3,0.8-0.4c0.1,0,8.1-0.4,14.2-1.2
				c5-0.7,7.1,1.7,9.2,4.1c0.8,0.9,1.4,1.6,2.4,2.4c1.1,0.9,1.6,1.9,1.8,3.3c0.5,4-3.1,9-4.6,11c-3.8,7.2-6.3,8.2-6.9,8.3
				C487.2,642.7,487,642.7,486.8,642.7z M462,628.7c0.1,0,0.1,0,0.2,0.1c2.3,0.8,9.4,3.2,14.1,6.4c5.6,3.8,9.3,5.6,10.8,5.3
				c1.1-0.2,3.7-3.9,5.4-7.2c0-0.1,0.1-0.1,0.1-0.2c2.2-2.9,4.5-6.9,4.2-9.6c-0.1-0.8-0.4-1.4-1-1.8c-1.1-0.9-1.8-1.7-2.7-2.6
				c-1.9-2.1-3.5-3.9-7.3-3.4c-5.3,0.7-12.2,1.1-13.9,1.2c-1.2,1.3-5.4,6-7.3,8.6c-0.6,0.8-1.2,1.4-1.6,2
				C462.5,627.9,462.2,628.4,462,628.7z"/>
		</g>
		<g>
			<path class="st5" d="M530.3,623.5c-0.2,0-0.4-0.1-0.6-0.2c-0.3-0.2-25.8-17.9-35-19.8c-9.4-1.9-23.8-1.2-24-1.2
				c-0.6,0-1.1-0.4-1.2-1.1c0-0.6,0.4-1.2,1-1.2c0.6,0,14.9-0.8,24.5,1.2c9.8,1.9,34.8,19.4,35.8,20.2c0.5,0.4,0.6,1.1,0.3,1.5
				C531,623.3,530.7,623.5,530.3,623.5z"/>
		</g>
		<g>
			<path class="st5" d="M509.6,553.8c-0.1,0-0.1,0-0.2,0c-8.5-1.2-17.1-1.3-25.6-0.3c-0.6,0.1-1.2-0.4-1.2-1c-0.1-0.6,0.4-1.2,1-1.2
				c8.7-1,17.5-0.9,26.1,0.3c0.6,0.1,1,0.7,0.9,1.3C510.5,553.4,510,553.8,509.6,553.8z"/>
		</g>
		<g>
			<path class="st5" d="M481.1,549.2c-0.5,0-1-0.3-1.1-0.9c-0.1-0.6,0.2-1.2,0.8-1.4c8.7-2.1,17.9-2.5,26.6-1.1
				c0.6,0.1,1,0.7,0.9,1.3c-0.1,0.6-0.7,1-1.3,0.9c-8.5-1.4-17.4-1.1-25.8,1C481.2,549.2,481.2,549.2,481.1,549.2z"/>
		</g>
		<g>
			<path class="st5" d="M561.6,592.2c0,0,15.1-1.5,26.9-8.6c12-7,22.4-18.4,24.6-23.1c2.3-4.7,2.3-8.2-0.4-11.8
				c-2.7-3.6-2.7-7.4-5.8-9.8c-3.1-2.3-10.8-2.7-12-1.2c-1.2,1.5,3.9,8.2,4.2,10.6c0.4,2.3-7,9-15.4,14.9
				c-8.5,5.9-14.3,8.6-18.5,10.1s-8.1,1.9-8.1,1.9l-3.1-2.7c0,0-1.9,0.8-1.5,5.1c0.4,4.3,2.7,3.6,4.2,6.7
				C558.5,587.6,558.5,592.6,561.6,592.2z"/>
		</g>
		<g>
			<path class="st5" d="M460.6,511.2c0,0-2.7,5.1,1.9,8.2s2.7,4.3,5.8,7c3.1,2.7,12.4-1.5,23.1-6.7c10.8-5.1,18.9-15.3,22.4-21.5
				c3.5-6.3,1.5-11.8-0.8-14.9c-2.3-3.1-2.7-5.5-5.8-7c-3.1-1.5-1.5-4.7-5-4.7c-3.5,0-4.6,1.5-4.6,1.5l5,7.4c0,0-0.4,8.2-11.2,19.6
				s-26.6,16.4-26.6,16.4L460.6,511.2z"/>
		</g>
		<g>
			<path class="st4" d="M480.8,515.9c2-0.7,4.2-1.3,6.1-2.2c5.5-2.5,10.2-6.9,13.2-12.2c0.6-1,0.9-2.5-0.2-2.9
				c-0.7-0.3-1.4,0.3-1.9,0.8c-3.2,3.2-5.8,7-9.5,9.6c-5.1,3.5-11.6,3.9-16.8,7c-1.2,0.7-1.8,1.6-1.7,2.9
				C473.5,518.8,477.4,516.9,480.8,515.9z"/>
		</g>
		<g>
			<path class="st4" d="M585.2,571.2c1.4-1.2,2.7-2.5,3.1-4.2c0.1-0.3,0.1-0.6-0.1-0.8c-0.3-0.3-0.8-0.2-1.2-0.1
				c-2.1,0.8-4,2-5.9,3.3c-6.2,3.9-12.8,7.3-20.1,8c-1.8,0.2-3.8,0.2-4.7,1.9C561.7,586.1,580.6,575.1,585.2,571.2z"/>
		</g>
		<g>
			<path class="st4" d="M562,589.1c-0.3-0.5,0.4-1.1,1-1.2c2.6-0.8,9.6-4.2,11.5-1.8C573.1,587,563.2,591.1,562,589.1z"/>
		</g>
		<g>
			<path class="st4" d="M587.5,575.7c-0.4-1.2,0.8-2,1.7-2.7c7.7-5,14.2-12.2,18.6-20.4c0.9-1.6,1.7-3.4,3-4.7c0.1,3.6-1.4,7-3.4,10
				C602.9,565.5,596.2,572.8,587.5,575.7z"/>
		</g>
		<g>
			<path class="st4" d="M601.8,538.3c1.3,3.9,1.4,8.2,0.2,12.1c2.6-1.5,2.8-5.3,2.6-8.5c-0.1-1.5-0.6-3.7-2.1-3.8"/>
		</g>
		<g>
			<path class="st4" d="M488.5,493.7c0.6-0.8,1-1.6,1.2-2.6c0.4-1.7,0.2-3.7-0.7-5.1c-1.2-1.9-3.4-2.7-5.5-1.9s-3.6,2.6-3.9,4.8
				c-0.4,2.3,0.5,4.7,2.5,5.9c0.9,0.6,1.9,0.8,3,0.7c1.2,0.3,2.4-0.1,3-1.3c0,0,0-0.1,0.1-0.1C488.3,494.1,488.4,493.9,488.5,493.7z
				"/>
		</g>
		<g>
			<path class="st4" d="M578.8,551.3c-0.1-0.5-0.4-1-0.7-1.3c-1.2-1.2-2.7-1-3.8,0c-0.8,0.7-1.5,1.4-2.1,2.2l0,0
				c-0.5,0.6-0.9,1.3-1.1,1.9c-0.3,0.8-0.4,1.5-0.4,2.3c0.1,1.9,1.1,3.9,2.7,4.8c1.6,1.4,4,1.8,5.7,0.1c0.9-0.9,1.4-2,1.7-3.3
				C581.8,555.8,581.3,552.7,578.8,551.3z"/>
		</g>
		<g>
			<polygon class="st9" points="621.2,884.3 619.2,891.1 691.4,902.6 713.2,787 666.8,783.1 			"/>
		</g>
		<g>
			<path class="st4" d="M610.8,884.3c2.8,1,76.9,10.6,76.9,10.6l14.2-122.4l-77.8-4.8L610.8,884.3z"/>
		</g>
		<g>
			<g>
				<path class="st9" d="M70.2,883.3c0,0-7.2,47.2-9,50.2c-1.7,3-3.4,3-3.4,3s-0.9,5.6-2.5,7c-1.7,1.3-0.4-7.3-0.4-7.3
					s-2.1-2.6-0.9-7.8c1.3-5.2,7.6-44.1,7.6-44.1l0.4-5.6l-28.6,50.2H31l-3.9-3.5l1.3-4.3l23.5-43.3L62,861.3l3-1.7l1.3-4.3
					c-2.1-0.9,0-7,0-7s5.5,1.3,6.9,1.3c1.3,0,0,6.5,0,6.5l-2.5,0.9l-0.9,4.3l2.1,6.5L70.2,883.3z"/>
			</g>
			<g>
				<path class="st8" d="M75.9,866.1c-2.6-5.5-9.4-9.2-14.6-5.9c-4.3,1.3-8,4.6-8.9,9.8c-1,5.5,1.9,11.5,7,13.9
					c5,2.5,11.3,1.1,15.1-3l0,0C78.1,877.3,78.3,870.9,75.9,866.1z M63.8,876.7c-3-1.6-4.2-6.7-1.3-9c2.9-2.3,7.7,1.7,8.3,4.7
					s-2.4,4.3-5.1,4.9C65,877.3,64.4,877.1,63.8,876.7z"/>
			</g>
			<g>
				<path class="st8" d="M31,928.8l-3.4,5.6c0,0-1.3-2.1,1.3-7.3L31,928.8z"/>
			</g>
		</g>
		<g>
			<g>
				<polygon class="st4" points="101.8,1119.6 76.1,1128.4 51.8,989.5 73.5,983.4 				"/>
			</g>
			<g>
				<path class="st9" d="M74.4,981.6l27.4,138l-25.7,8.9l-1.4-3.6l21.7-8.4L71.3,987.8l-18.7,5.8l-0.9-4
					C51.8,989.5,70.5,982.1,74.4,981.6z"/>
			</g>
			<g>
				<path class="st9" d="M84.7,1110l-0.5-2.1c4.2-1,8.2-2.5,11.9-4.7l1.1,1.9C93.2,1107.3,89.1,1109,84.7,1110z"/>
			</g>
			<g>
				<polygon class="st9" points="83.5,1099.8 82.8,1097.7 93.6,1093.7 94.4,1095.8 				"/>
			</g>
			<g>
				<polygon class="st9" points="70.4,1092.3 69.8,1090.2 90.2,1083.6 90.8,1085.6 				"/>
			</g>
			<g>
				<polygon class="st9" points="79.6,1076.3 78.8,1074.3 88.9,1070.6 89.7,1072.6 				"/>
			</g>
			<g>
				<polygon class="st9" points="77.9,1067.5 77,1065.4 86.2,1061.1 87,1063 				"/>
			</g>
			<g>
				<polygon class="st9" points="65.8,1061.1 64.9,1059.1 85.7,1050.8 86.5,1052.8 				"/>
			</g>
			<g>
				<polygon class="st9" points="73.6,1046.2 72.6,1044.3 82.6,1038.9 83.6,1040.8 				"/>
			</g>
			<g>
				<path class="st9" d="M72.2,1035l-0.9-1.9c3.2-1.5,6.5-2.9,9.8-4.1l0.7,2C78.6,1032.2,75.3,1033.6,72.2,1035z"/>
			</g>
			<g>
				<path class="st9" d="M60.8,1024.6l-0.5-2.1c6.6-1.5,12.9-3.9,19-6.8l1,1.9C74,1020.7,67.4,1023,60.8,1024.6z"/>
			</g>
			<g>
				<path class="st9" d="M65.1,1011l-0.5-2.1c4.2-1.1,8.2-2.4,12.1-4.2l0.9,2C73.5,1008.5,69.4,1010,65.1,1011z"/>
			</g>
			<g>
				<polygon class="st9" points="64.7,1000.4 64.1,998.2 74.5,994.8 75.2,996.9 				"/>
			</g>
		</g>
		<g>
			<g>
				<path class="st9" d="M166.5,1019.5c0,0,87.7,22.6,105,30.2c17.3,7.7,13.5,6.6,14.6,11.6c1.1,4.9,4.8,4.4,2.1,11.6
					c-2.7,7.1-37.4,86.9-47.6,113.3c-10.3,26.4-23.3,51.7-28.7,57.7s-10.8,8.8-23.8,4.9c-13-3.9-44.4-15.4-54.2-18.7
					c-9.8-3.3-30.9-11-43.3-17.1c-12.5-6.1-10.8-13.2-4.8-25.3c6-12.1,68.7-153.4,70.4-156.7S159,1019.5,166.5,1019.5z"/>
			</g>
			<g>
				<path class="st4" d="M233,1185.5l48.8-106.7c0,0,5.4-11,1.6-14.3c-3.8-3.3-47.6-15.9-47.6-15.9s0.6,5.5-8.1,4.9
					c-8.7-0.6-16.8-0.6-17.3-4.4c-0.6-3.9,1.1-8.2,1.1-8.2s-37.4-11.6-41.1-12.6c-3.8-1.1-4.3,0.6-9.8,12.1
					c-5.4,11.6-66.5,151.2-67.7,154.6c-1.1,3.3-4.3,6.1,3.8,11s82.8,31.9,92.6,33c9.8,1.1,16.8-0.6,23.3-11
					C219,1217.4,233,1185.5,233,1185.5z"/>
			</g>
			<g>
				<path class="st5" d="M271.5,1069.5l-96.4-28.1c0,0-6-5.5-10.8,5.5c-4.8,11-63.3,145.7-63.3,145.7s-3.3,3.9,3.8,8.8
					c7,4.9,75.8,28.1,81.7,29.7c6,1.6,13,5.5,20-4.9c7-10.4,67.1-143.6,67.1-143.6S279.1,1072.2,271.5,1069.5z"/>
			</g>
			<g>
				<path class="st4" d="M213,1162c-25.8,12.9-51.4,26.1-76.9,39.5c-3.1,1.6-0.4,6.3,2.7,4.7c25.5-13.4,51.2-26.6,76.9-39.5
					C218.7,1165.2,216,1160.4,213,1162z"/>
			</g>
			<g>
				<path class="st4" d="M247.7,1094.1c-12,6.7-23.8,13.3-35.8,20c-5.9,3.3-11.8,6.6-17.7,9.8c-2.8,1.5-5.6,3.1-8.4,4.6
					c-2.4,1.4-5.4,2.5-6.7,5.2c-2.9,5.8,5.1,7.1,8.6,8.9c1.3,0.6,2.4,1.3,3.6,1.9c0.3,0.2,3.4,1.9,3.4,2.1c0,0.5-2.7,1.4-3.2,1.6
					c-1.9,1-3.9,1.8-5.8,2.8c-12.2,5.8-24.3,11.6-36.5,17.3c-13.8,6.5-27.6,12.8-41.5,19.2c-3.2,1.4-0.4,6.1,2.7,4.7
					c24.8-11.3,49.5-22.9,74.2-34.7c2.9-1.4,5.8-2.8,8.6-4.2c2.3-1.2,5.2-2,6.4-4.6c2.2-5.4-5-8.9-8.8-10.7c-1.3-0.7-2.6-1.3-4-1.7
					c-0.6-0.2-1.2-0.4-1.7-0.6c-0.2-0.1-0.3-0.1-0.5-0.2c0.3-0.2,0.5-0.5,0.6-0.5c0.6-0.4,1.3-0.7,1.8-1.1c1.7-1,3.4-1.9,5.1-2.9
					l17.7-9.8c13.5-7.5,27-15.1,40.5-22.6C253.5,1097.1,250.8,1092.5,247.7,1094.1z"/>
			</g>
			<g>
				<path class="st4" d="M244.4,1071.6c-31.9,14-63.2,29.1-94.2,44.9c-2.2,1.2-1.4,4.2,0.7,5c4.7,1.5,9.4,3.1,14.1,4.6
					c0.2,0.1,1.3,0.5,2.2,0.9c-2.4,1.2-4.8,2.3-7.2,3.5c-9.2,4.4-18.3,8.9-27.5,13.4c-3.1,1.5-0.4,6.2,2.7,4.7
					c11.8-5.7,23.6-11.4,35.2-17.1c2-1,4.2-2,4.2-4.6c0-2.3-1.8-3.7-3.8-4.4c-3.9-1.5-7.9-2.9-12-4.2c29.1-14.8,58.6-28.9,88.4-42
					C250.3,1074.9,247.6,1070.3,244.4,1071.6z"/>
			</g>
			<g>
				<path class="st4" d="M229.2,1046.2c0.1-0.6,0.1-1.3-0.1-2.1c-1.3-4.2-7-5.2-10.2-2.7c-0.8,0.2-1.5,0.6-2.1,1.3
					c-1.6,1.9-0.9,4.8,1.1,6.2c1.7,1.3,4.7,1.4,6.7,0.4c1.2-0.1,2.2-0.4,3.1-0.9C228.4,1048,229,1047.2,229.2,1046.2z"/>
			</g>
		</g>
		<g>
			<g>
				<polygon class="st7" points="255.1,1278 238.2,1277.7 237.4,1275.4 246.7,1264.2 254.4,1264.1 256.4,1275 				"/>
			</g>
			<g>
				<path class="st6" d="M321.6,1249.3c0,0,7.5-1.9,8-7.2s-6.2-9.7-13.7-6.3C315.9,1235.8,320.1,1241.1,321.6,1249.3z"/>
			</g>
			<g>
				<path class="st4" d="M315.9,1235.8c0,0-3.1,0.6-5.3,1.7c-2.1,1.1-7.5,2.7-7.5,2.7s-1.6,0.6-0.6,2.2c1.1,1.6,5.4,8.5,6.8,14.5
					l5.6-2.7l7.2-3.3C322.2,1250.9,319.5,1241,315.9,1235.8z"/>
			</g>
			<g>
				<path class="st3" d="M310.6,1237.5c0,0,6.8,9.3,7.8,15.3l-3.5,1.4c0,0-4.8-10.9-8-15.1L310.6,1237.5z"/>
			</g>
			<g>
				<path class="st2" d="M309.3,1256.9l-54.1,21.1l0.6-2.4l-3.2-0.8l1.8-4.1l-4-1.1l1.4-2.7l-5-2.7l55.6-22.7
					C302.3,1241.5,308.1,1249.6,309.3,1256.9z"/>
			</g>
			<g>
				<path class="st8" d="M239.6,1277.8l-5.7,0.9l4.2-4.3l2.1,0.7C240.3,1275,241.3,1275.6,239.6,1277.8z"/>
			</g>
		</g>
		<g>
			<g>
				<path class="st3" d="M330.8,1088.1c0,0-0.8,0.4-1.9,1.1c-2.4,1.4-6.5,3.7-8.7,5.2c-3.4,2.3,1.2,9.7,3.4,17.7
					s30.2,107.1,34.2,118.5c4,11.4,8.4,21,13.4,24.5c5,3.4,11.8,0,28-4.5s104.3-39.3,138.9-50.1c34.8-10.8,47.6-18.2,55.5-22.2
					c7.8-4,9-1.2,2.2-12.6c-6.8-11.4-38.6-118.5-42-128.1c-3.4-9.7-11.2-26.2-14.6-27.9c-3.4-1.7-8.4,0.6-8.4,0.6L421,1052.3"/>
			</g>
			<g>
				<path class="st4" d="M425.3,1044.9c2.4-1,5.1,0.3,6,2.8c8.5,23.7,52.9,147.4,54.5,151.6c1.7,4.5,2.4,7.3-1,9.2
					c-3.4,1.8-81.8,31.4-91.7,35.5c-9.9,4.2-14.4,7.7-19.1-4.2c-4.7-11.9-37.9-128.5-41.1-144.3c-3.1-15.8-5.4-15.8,2.4-18.8
					c7.8-3,59-18.9,66.2-21.3C406.9,1053.4,418.7,1047.4,425.3,1044.9z"/>
			</g>
			<g>
				<path class="st5" d="M343.8,1092.6c-0.2,0-0.5-0.2-0.5-0.4c-0.1-0.3,0.1-0.6,0.4-0.7l83.3-24.6c0.3-0.1,0.6,0.1,0.7,0.4
					c0.1,0.3-0.1,0.6-0.4,0.7l-83.3,24.6C343.9,1092.6,343.8,1092.6,343.8,1092.6z"/>
			</g>
			<g>
				<path class="st5" d="M346.7,1108.6c-0.2,0-0.5-0.2-0.5-0.4c-0.1-0.3,0.1-0.6,0.4-0.7l83.8-24.6c0.3-0.1,0.6,0.1,0.7,0.4
					c0.1,0.3-0.1,0.6-0.4,0.7l-83.8,24.6C346.9,1108.6,346.8,1108.6,346.7,1108.6z"/>
			</g>
			<g>
				<path class="st5" d="M350.5,1122.4c-0.2,0-0.5-0.2-0.5-0.4c-0.1-0.3,0.1-0.6,0.4-0.7l85.9-26.1c0.3-0.1,0.6,0.1,0.7,0.4
					s-0.1,0.6-0.4,0.7l-85.9,26.1C350.6,1122.4,350.6,1122.4,350.5,1122.4z"/>
			</g>
			<g>
				<path class="st5" d="M356.6,1138c-0.2,0-0.4-0.1-0.5-0.4s0.1-0.6,0.3-0.7l85-30c0.3-0.1,0.6,0.1,0.7,0.3
					c0.1,0.3-0.1,0.6-0.3,0.7l-85,30C356.7,1137.9,356.6,1138,356.6,1138z"/>
			</g>
			<g>
				<path class="st5" d="M360.3,1153.6c-0.2,0-0.5-0.2-0.5-0.4c-0.1-0.3,0.1-0.6,0.4-0.7l85.7-28.7c0.3-0.1,0.6,0.1,0.7,0.4
					s-0.1,0.6-0.4,0.7l-85.7,28.7C360.4,1153.6,360.4,1153.6,360.3,1153.6z"/>
			</g>
			<g>
				<path class="st5" d="M363.9,1168.7c-0.2,0-0.5-0.2-0.5-0.4c-0.1-0.3,0.1-0.6,0.4-0.7l88.5-28.8c0.3-0.1,0.6,0.1,0.7,0.4
					s-0.1,0.6-0.4,0.7l-88.5,28.8C364,1168.7,363.9,1168.7,363.9,1168.7z"/>
			</g>
			<g>
				<path class="st5" d="M365.9,1184c-0.2,0-0.4-0.1-0.5-0.4s0.1-0.6,0.3-0.7l88.1-30.1c0.3-0.1,0.6,0.1,0.7,0.4
					c0.1,0.3-0.1,0.6-0.3,0.7l-88.1,30.1C366.1,1184,366,1184,365.9,1184z"/>
			</g>
			<g>
				<path class="st5" d="M370.6,1199.5c-0.2,0-0.4-0.1-0.5-0.4c-0.1-0.3,0-0.6,0.3-0.7l92.8-34.3c0.3-0.1,0.6,0,0.7,0.3
					c0.1,0.3,0,0.6-0.3,0.7l-92.8,34.3C370.8,1199.5,370.7,1199.5,370.6,1199.5z"/>
			</g>
			<g>
				<path class="st5" d="M374.9,1213.4c-0.2,0-0.4-0.1-0.5-0.4c-0.1-0.3,0-0.6,0.3-0.7l91.9-33.3c0.3-0.1,0.6,0,0.7,0.3
					s0,0.6-0.3,0.7l-91.9,33.3C375.1,1213.4,375,1213.4,374.9,1213.4z"/>
			</g>
			<g>
				<polygon class="st8" points="377,1222.7 376.7,1221.7 472.2,1188.7 472.6,1189.8 				"/>
			</g>
			<g>
				<path class="st8" d="M468.6,1204.9c-0.1-0.3-13-29.1-20.2-52.6c-4.2-13.9-7.9-23.5-10.7-30.5c-2-5.1-3.5-8.8-4.2-11.9l-0.6-2.4
					c-1.9-7.8-5.1-20.8-7.2-25.9c-1.6-4-2.5-8.1-3-10.9c-0.3-1.3-0.5-2.2-0.6-2.7c-0.6-1.7-2.4-9.9-2.5-10.2l1.1-0.2
					c0,0.1,1.8,8.5,2.4,10.1c0.2,0.6,0.4,1.5,0.7,2.9c0.6,2.7,1.4,6.9,3,10.7c2.1,5.1,5.4,18.2,7.3,26l0.6,2.4
					c0.8,3,2.2,6.7,4.2,11.8c2.7,7,6.5,16.7,10.7,30.6c7.1,23.5,20,52.1,20.1,52.4L468.6,1204.9z"/>
			</g>
			<g>
				<path class="st4" d="M435.5,1039.4c-2.4,0.9-3.8,3.6-2.9,6.1c8.3,23.8,51.8,147.8,53.1,152.1c1.4,4.6,2.8,7.2,6.5,6.5
					c3.7-0.8,82.6-28.8,93-32.1c10.3-3.3,15.9-3.4,12.2-15.6c-3.8-12.2-51.4-123.6-59-137.8c-7.6-14.2-5.8-15.6-13.7-12.9
					c-7.9,2.7-57.4,23.7-64.4,26.5C455,1034.1,442.3,1037,435.5,1039.4z"/>
			</g>
			<g>
				<path class="st5" d="M448.3,1058.4c-0.2,0-0.4-0.1-0.5-0.3c-0.1-0.3,0-0.6,0.3-0.7l79.7-35c0.3-0.1,0.6,0,0.7,0.3
					c0.1,0.3,0,0.6-0.3,0.7l-79.7,35C448.4,1058.4,448.3,1058.4,448.3,1058.4z"/>
			</g>
			<g>
				<path class="st5" d="M455.8,1073c-0.2,0-0.4-0.1-0.5-0.3c-0.1-0.3,0-0.6,0.3-0.7l79.9-35.3c0.3-0.1,0.6,0,0.7,0.3
					c0.1,0.3,0,0.6-0.3,0.7L456,1073C455.9,1073,455.8,1073,455.8,1073z"/>
			</g>
			<g>
				<path class="st5" d="M458.9,1086.5c-0.2,0-0.4-0.1-0.5-0.3c-0.1-0.3,0-0.6,0.3-0.7l82.6-35.6c0.3-0.1,0.6,0,0.7,0.3
					c0.1,0.3,0,0.6-0.3,0.7l-82.6,35.6C459.1,1086.4,459,1086.5,458.9,1086.5z"/>
			</g>
			<g>
				<path class="st5" d="M462.3,1098.6c-0.2,0-0.4-0.1-0.5-0.4c-0.1-0.3,0-0.6,0.3-0.7l84.3-32c0.3-0.1,0.6,0,0.7,0.3
					c0.1,0.3,0,0.6-0.3,0.7l-84.3,32C462.4,1098.6,462.4,1098.6,462.3,1098.6z"/>
			</g>
			<g>
				<path class="st5" d="M469.4,1114.6c-0.2,0-0.4-0.1-0.5-0.4s0-0.6,0.3-0.7l84.1-33.4c0.3-0.1,0.6,0,0.7,0.3
					c0.1,0.3,0,0.6-0.3,0.7l-84.1,33.4C469.6,1114.6,469.5,1114.6,469.4,1114.6z"/>
			</g>
			<g>
				<path class="st5" d="M474,1130.3c-0.2,0-0.4-0.1-0.5-0.4s0-0.6,0.3-0.7l86.2-35.2c0.3-0.1,0.6,0,0.7,0.3c0.1,0.3,0,0.6-0.3,0.7
					l-86.2,35.2C474.1,1130.3,474.1,1130.3,474,1130.3z"/>
			</g>
			<g>
				<path class="st5" d="M481.5,1142.1c-0.2,0-0.4-0.1-0.5-0.4s0-0.6,0.3-0.7l86.7-33.9c0.3-0.1,0.6,0,0.7,0.3s0,0.6-0.3,0.7
					l-86.7,33.9C481.7,1142,481.6,1142.1,481.5,1142.1z"/>
			</g>
			<g>
				<path class="st5" d="M481.4,1157.1c-0.2,0-0.4-0.1-0.5-0.4s0-0.6,0.3-0.7l93-33.8c0.3-0.1,0.6,0,0.7,0.3c0.1,0.3,0,0.6-0.3,0.7
					l-93,33.8C481.5,1157.1,481.5,1157.1,481.4,1157.1z"/>
			</g>
			<g>
				<path class="st5" d="M488,1170.6c-0.2,0-0.4-0.1-0.5-0.4c-0.1-0.3,0-0.6,0.3-0.7l91.7-33.9c0.3-0.1,0.6,0,0.7,0.3
					c0.1,0.3,0,0.6-0.3,0.7l-91.7,33.9C488.1,1170.6,488,1170.6,488,1170.6z"/>
			</g>
			<g>
				<polygon class="st8" points="490.1,1181.6 489.7,1180.6 583.9,1144.1 584.3,1145.1 				"/>
			</g>
			<g>
				<path class="st8" d="M501.6,1191c-0.1-0.3-8.2-30.8-17.5-53.5c-5.5-13.4-8.6-23.3-10.9-30.5c-1.6-5.2-2.9-9-4.2-11.8l-1.1-2.2
					c-3.4-7.2-9.1-19.4-10.7-24.7c-1.2-4-3.1-7.7-4.4-10.1c-0.7-1.2-1.1-2-1.3-2.6c-0.6-1.6-4.4-9.3-4.4-9.4l1-0.5
					c0.2,0.3,4,7.8,4.5,9.5c0.2,0.5,0.7,1.4,1.3,2.5c1.4,2.5,3.3,6.3,4.5,10.3c1.5,5.2,7.2,17.4,10.6,24.6l1.1,2.2
					c1.4,2.9,2.6,6.7,4.2,11.9c2.3,7.1,5.5,17,10.9,30.4c9.3,22.8,17.4,53.3,17.5,53.6L501.6,1191z"/>
			</g>
			<g>
				<path class="st9" d="M439.9,1048c-4.2,1.3-8.1,3.1-11.9,5.4c-2.9,1.8-0.3,6.6,2.7,4.7c3.4-2.1,6.9-3.7,10.5-4.8
					C444.7,1052.2,443.3,1046.9,439.9,1048z"/>
			</g>
			<g>
				<path class="st9" d="M445.5,1062.1c-4.4,1.4-8.6,3.3-12.5,6c-2.8,2-0.1,6.7,2.7,4.7c3.5-2.4,7.1-4.2,11.2-5.5
					C450.3,1066.3,448.8,1061.1,445.5,1062.1z"/>
			</g>
			<g>
				<path class="st9" d="M453.4,1081.5c-5.5,1.4-10.7,3.5-15.7,6.1c-3.1,1.6-0.4,6.4,2.7,4.7c4.6-2.4,9.4-4.2,14.4-5.6
					C458.2,1085.9,456.8,1080.6,453.4,1081.5z"/>
			</g>
			<g>
				<path class="st9" d="M457.2,1100.6c-4.2,1.5-8.6,3.2-12.8,4.7c-3.2,1.2-1.8,6.5,1.4,5.2l12.8-4.7
					C461.9,1104.6,460.5,1099.4,457.2,1100.6z"/>
			</g>
			<g>
				<path class="st9" d="M463.4,1115.9c-4.3,2.1-8.8,3.9-13.4,5.3c-3.3,1.1-1.8,6.3,1.4,5.2c5-1.6,9.9-3.6,14.7-5.9
					C469.2,1119.1,466.5,1114.5,463.4,1115.9z"/>
			</g>
			<g>
				<path class="st9" d="M473.1,1136.2c-5.6,2.3-11.2,4.6-16.8,7c-3.2,1.4-1.7,6.6,1.4,5.2c5.6-2.3,11.2-4.6,16.8-7
					C477.6,1140.2,476.3,1134.9,473.1,1136.2z"/>
			</g>
			<g>
				<path class="st9" d="M481.3,1156.9c-5.8,2.7-11.8,5.1-17.8,7.2c-3.3,1.2-1.8,6.4,1.4,5.2c6.5-2.2,12.8-4.8,19.1-7.7
					C487.2,1160.1,484.4,1155.4,481.3,1156.9z"/>
			</g>
			<g>
				<path class="st9" d="M487.6,1171.4c-6,2.7-12.3,4.9-18.5,6.8c-3.3,1-1.9,6.2,1.4,5.2c6.8-1.9,13.4-4.3,19.9-7.2
					C493.5,1174.7,490.7,1170.1,487.6,1171.4z"/>
			</g>
			<g>
				<path class="st9" d="M492,1188.2c-5.9,3.6-12.2,6.3-18.9,8c-3.4,0.9-1.9,6.1,1.4,5.2c7.1-1.8,13.9-4.7,20.2-8.5
					C497.7,1191.1,495,1186.4,492,1188.2z"/>
			</g>
		</g>
		<g>
			<path class="st8" d="M626,1125.6c0,0-1.1-15.4-6.3-24.2s-10.9-24.2-9.8-42.8c1.1-18.5,2.1-28.5,2.1-31.4c0-2.9,4.2-6.8,7.7-0.7
				c3.5,6.1,8.1,12.5,11.2,31c3.2,18.5,3.2,43.2,3.2,49.9s1.4,12.5,0.7,16v1.4L626,1125.6z"/>
		</g>
		<g>
			<path class="st2" d="M646.4,1131c-1.9-8.4-13.5-8.5-20-6.4c-4.7,1.5-8.9,4.5-11.8,8.6c-2,2.2-3.7,4.8-4.8,7.5
				c-2.9,7.2,1,15,8.3,17.2c6.4,2,12.4-0.5,17.3-4.4c0.4-0.1,0.9-0.4,1.3-0.8c3.7-3.7,8.4-8.9,9.4-14.6
				C646.8,1135.9,647,1133.5,646.4,1131z"/>
		</g>
		<g>
			<g>
				<path class="st3" d="M627.6,1203.7c0,0-7.9,17.4-9.9,19c-2,1.6-9,1.3-10.7,1c-1.7-0.3-3.2-4.6-5.4-7.4c-2.2-2.8-2.4-4.6-0.4-8.1
					c2-3.5,6.4-12.4,6.4-12.4l5.6-2.2L627.6,1203.7z"/>
			</g>
			<g>
				<path class="st8" d="M622.2,1199.8l8.3-3c0,0,3.8-10.9,4-13.3c0.2-2.4-0.6-4.2-4-6.5c-3.4-2.2-6.4-2-9.8-2.4
					c-3.4-0.4-4.7,1-6.6,4.2c-1.8,3.2-4.7,10.9-4.7,10.9L622.2,1199.8z"/>
			</g>
			<g>
				<path class="st4" d="M627.6,1203.7c0,0-6.6,1.6-7.9,2.2c-1.4,0.6-12.2-10.1-12.2-10.1l2-6.1l12.7,10.1l8.3-3L627.6,1203.7z"/>
			</g>
		</g>
		<g>
			<g>
				<polygon class="st7" points="621.1,1248.5 607.9,1250.2 609.9,1245.7 615.7,1238.8 623.5,1238.5 				"/>
			</g>
			<g>
				<path class="st5" d="M693.9,1210.8l-72.8,37.7c0,0,0.4-2-1.1-4.2c-1.4-2-2-2-2.4-3.8c-0.4-1.7-2-1.7-2-1.7l72.4-37.4
					C688.1,1201.5,693.9,1202.2,693.9,1210.8z"/>
			</g>
			<g>
				<path class="st5" d="M612.2,1249.2l-9.2,2.4l6.8-5.9C609.9,1245.7,612.2,1245.7,612.2,1249.2z"/>
			</g>
		</g>
		<g>
			<path class="st7" d="M673.1,1188.3c0,0-3.1-11.8-3.1-12.7s2.4-3.5,2.4-3.5l2.7,2.4l2-2l0.7,2.4l4.4-2.8c0,0,0.4,1.4,0.4,2.4
				c0,1.1-0.4,5.2-1.7,8.7c-1.4,3.5-4.4,8.3-4.4,8.3L673.1,1188.3z"/>
		</g>
		<g>
			<path class="st2" d="M673.1,1188.3c0,0,1.1-2,2.7-1.4c1.7,0.7,1.7,2.4,1.7,2.4l-2.7,7.9L673.1,1188.3z"/>
		</g>
		<g>
			<g>
				<path class="st3" d="M661.2,1171.7c0,0,6.1-35,9.2-48.4c3.1-13.5,4.7-27.6,5.4-32.5c0.7-4.8,0-7.2,0-7.2s-5.8-1.4-9.6-0.7
					c0,0-9.6,54.3-11.2,61.2c-1.7,7-5.1,24.9-5.1,24.9l0.7,4.5L661.2,1171.7z"/>
			</g>
			<g>
				<path class="st7" d="M656.1,1184.6c0,0,4.7-11.1,5.1-12.7l-2-1.7l-0.7-3.5c0,0-1.7,3.1-3.1,4.2s-2.4-3.1-2.4-3.1l-2.4,3.1
					l-0.7-1.7l2.7,14.2L656.1,1184.6z"/>
			</g>
			<g>
				<path class="st3" d="M656.1,1185.5l-1.7,5.2l-1.7-7.6c0,0,1.1-2,2.4-1.7c1.4,0.4,2.4,1.4,2.4,1.4L656.1,1185.5z"/>
			</g>
		</g>
		<g>
			<path class="st4" d="M621.6,1120.3c-0.5,0-0.9-0.3-1-0.7c-0.2-0.6,0.1-1.2,0.7-1.4l5.6-2.1c0.6-0.2,1.2,0.1,1.4,0.7
				c0.2,0.6-0.1,1.2-0.7,1.4l-5.6,2.1C621.9,1120.2,621.8,1120.3,621.6,1120.3z"/>
		</g>
		<g>
			<path class="st4" d="M620.3,1113.8c-0.3,0-0.6-0.1-0.8-0.4c-0.4-0.5-0.4-1.2,0.1-1.5c1.3-1.3,2.8-2.1,4.5-2.6
				c0.6-0.2,1.2,0.2,1.4,0.8s-0.2,1.2-0.7,1.4c-1.4,0.4-2.6,1.2-3.7,2.1C620.8,1113.7,620.5,1113.8,620.3,1113.8z"/>
		</g>
		<g>
			<path class="st4" d="M618.2,1107.3c-0.2,0-0.5-0.1-0.7-0.2c-0.5-0.4-0.6-1.1-0.2-1.5c1.2-1.4,2.5-2.8,4-3.9
				c0.5-0.4,1.2-0.3,1.5,0.2c0.4,0.5,0.3,1.2-0.2,1.5c-1.4,1.1-2.5,2.2-3.6,3.6C618.8,1107.1,618.5,1107.3,618.2,1107.3z"/>
		</g>
		<g>
			<path class="st4" d="M615.1,1100.1c-0.3,0-0.7-0.2-0.9-0.5c-0.4-0.5-0.2-1.2,0.3-1.5c1.4-1.1,2.7-2.4,3.7-3.9
				c0.3-0.5,1-0.7,1.4-0.3c0.5,0.3,0.7,1,0.3,1.5c-1.2,1.7-2.6,3.3-4.2,4.4C615.5,1100,615.3,1100.1,615.1,1100.1z"/>
		</g>
		<g>
			<path class="st4" d="M610.9,1089.9c-0.3,0-0.7-0.2-0.9-0.5c-0.4-0.5-0.2-1.2,0.2-1.5c1.8-1.4,3.7-2.6,5.5-3.8
				c0.5-0.3,1.2-0.2,1.4,0.4c0.3,0.5,0.2,1.2-0.4,1.5c-1.8,1.2-3.7,2.4-5.4,3.7C611.4,1089.9,611.1,1089.9,610.9,1089.9z"/>
		</g>
		<g>
			<path class="st4" d="M608.3,1083.2c-0.4,0-0.8-0.2-1-0.7c-0.3-0.6,0-1.2,0.5-1.4l5.9-2.8c0.6-0.3,1.2,0,1.4,0.5
				c0.3,0.6,0,1.2-0.5,1.4l-5.9,2.8C608.6,1083.1,608.4,1083.2,608.3,1083.2z"/>
		</g>
		<g>
			<path class="st4" d="M606.5,1069.4c-0.6,0-1-0.4-1.1-1c-0.1-0.6,0.4-1.2,1-1.2l3.7-0.4c0.6-0.1,1.2,0.4,1.2,1
				c0.1,0.6-0.4,1.2-1,1.2L606.5,1069.4C606.5,1069.4,606.5,1069.4,606.5,1069.4z"/>
		</g>
		<g>
			<path class="st4" d="M612.7,1059.9C612.7,1059.9,612.6,1059.9,612.7,1059.9l-7-0.5c-0.6,0-1.1-0.6-1-1.2c0-0.6,0.6-1.1,1.2-1
				l5.2,0.4l0,0c0.4-0.5,1.1-0.5,1.5-0.1l0.7,0.6c0.4,0.3,0.5,0.8,0.3,1.3C613.6,1059.6,613.1,1059.9,612.7,1059.9z"/>
		</g>
		<g>
			<path class="st4" d="M611.4,1051.4L611.4,1051.4l-5.3-0.6c-0.6-0.1-1-0.6-1-1.2c0.1-0.6,0.6-1.1,1.2-1l5.2,0.6
				c0.6,0.1,1,0.6,1,1.2C612.4,1051,611.9,1051.4,611.4,1051.4z"/>
		</g>
		<g>
			<path class="st4" d="M612.3,1043.6c-0.1,0-0.2,0-0.2,0l-5.5-1.3c-0.6-0.1-1-0.7-0.8-1.4c0.1-0.6,0.7-1,1.3-0.8l5.5,1.3
				c0.6,0.1,1,0.7,0.8,1.4C613.3,1043.3,612.9,1043.6,612.3,1043.6z"/>
		</g>
		<g>
			<path class="st4" d="M614.2,1035.4c-0.1,0-0.1,0-0.2,0c-2.1-0.3-4.2-1.1-6-2.1c-0.5-0.3-0.7-1-0.4-1.4c0.3-0.5,1-0.7,1.4-0.4
				c1.6,1,3.4,1.6,5.2,1.8c0.6,0.1,1,0.7,0.9,1.3C615.2,1035,614.7,1035.4,614.2,1035.4z"/>
		</g>
		<g>
			<path class="st4" d="M617,1028.6c-0.2,0-0.3,0-0.5-0.1c-0.6-0.3-0.8-0.9-0.5-1.4c1-2,2.7-3.6,4.8-4.2c0.6-0.2,1.2,0.1,1.4,0.7
				c0.2,0.6-0.1,1.2-0.7,1.4c-1.5,0.5-2.8,1.7-3.6,3.2C617.8,1028.5,617.4,1028.6,617,1028.6z"/>
		</g>
		<g>
			<path class="st4" d="M621.6,1034.2c-0.4,0-0.7-0.2-1-0.6c-0.3-0.5-0.1-1.2,0.4-1.4c1.8-1.1,3.7-2.1,5.6-3c0.6-0.3,1.2,0,1.4,0.5
				c0.3,0.6,0,1.2-0.5,1.4c-1.8,0.9-3.7,1.8-5.4,2.9C622,1034.2,621.8,1034.2,621.6,1034.2z"/>
		</g>
		<g>
			<path class="st4" d="M625.2,1039.8c-0.5,0-1-0.3-1.1-0.9c-0.1-0.6,0.2-1.2,0.8-1.4c1.7-0.4,3.5-0.6,5.2-0.6
				c0.6,0,1.1,0.5,1.1,1.1c0,0.6-0.5,1.1-1.1,1.1c-1.5,0-3.2,0.2-4.7,0.6C625.4,1039.8,625.3,1039.8,625.2,1039.8z"/>
		</g>
		<g>
			<path class="st4" d="M626.5,1048.1c-0.5,0-1-0.4-1.1-0.9c-0.1-0.6,0.2-1.2,0.8-1.3c1.6-0.4,3.3-0.5,4.9-0.4c0.6,0,1.1,0.6,1,1.2
				c0,0.6-0.6,1.1-1.2,1C629.5,1047.6,628,1047.7,626.5,1048.1C626.7,1048.1,626.6,1048.1,626.5,1048.1z"/>
		</g>
		<g>
			<path class="st4" d="M628.8,1057.1c-0.3,0-0.5,0-0.8,0c-0.6,0-1.1-0.5-1.1-1.2c0-0.6,0.5-1.1,1.1-1.1c1.8,0.1,3.8-0.1,5.6-0.6
				c0.6-0.1,1.2,0.2,1.3,0.8c0.1,0.6-0.2,1.2-0.8,1.4C632.5,1056.9,630.6,1057.1,628.8,1057.1z"/>
		</g>
		<g>
			<path class="st4" d="M634.9,1064.9L634.9,1064.9l-4.9-0.1c-0.6,0-1.1-0.5-1.1-1.1c0-0.6,0.5-1.1,1.1-1.1l0,0l4.9,0.1
				c0.6,0,1.1,0.5,1.1,1.1C636,1064.4,635.5,1064.9,634.9,1064.9z"/>
		</g>
		<g>
			<path class="st4" d="M634.5,1076.3c-0.1,0-0.2,0-0.3-0.1l-3.7-1.3c-0.6-0.2-0.9-0.8-0.7-1.4c0.2-0.6,0.8-0.9,1.4-0.7l3.7,1.3
				c0.6,0.2,0.9,0.8,0.7,1.4C635.4,1076.1,635,1076.3,634.5,1076.3z"/>
		</g>
		<g>
			<path class="st4" d="M636.4,1085.5c-0.1,0-0.2,0-0.3,0c-2.1-0.5-4.2-1.4-6.2-2.3c-0.5-0.3-0.8-1-0.5-1.4c0.3-0.6,1-0.8,1.4-0.5
				c1.8,1,3.8,1.6,5.7,2.2c0.6,0.1,1,0.8,0.8,1.4C637.4,1085.2,636.9,1085.5,636.4,1085.5z"/>
		</g>
		<g>
			<path class="st4" d="M639.1,1096.7c-0.1,0-0.1,0-0.2,0c-2.6-0.5-5.1-1.4-7.4-2.6c-0.5-0.3-0.8-1-0.5-1.4c0.3-0.6,0.9-0.8,1.4-0.5
				c2.1,1.2,4.4,1.9,6.9,2.4c0.6,0.1,1,0.7,0.9,1.3C640.1,1096.3,639.7,1096.7,639.1,1096.7z"/>
		</g>
		<g>
			<path class="st4" d="M636.6,1107.3c-1.4,0-2.7-0.2-4-0.6c-0.6-0.2-0.9-0.8-0.8-1.4c0.2-0.6,0.8-0.9,1.4-0.8
				c1.4,0.4,2.8,0.6,4.2,0.5c0.6,0,1.1,0.4,1.2,1c0,0.6-0.4,1.2-1,1.2C637.4,1107.3,637,1107.3,636.6,1107.3z"/>
		</g>
		<g>
			<path class="st4" d="M636.3,1117.8c-0.7,0-1.3-0.1-1.9-0.2c-0.6-0.1-1-0.7-0.9-1.3c0.1-0.6,0.7-1,1.3-0.9
				c1.6,0.3,3.3,0.1,4.8-0.4c0.6-0.2,1.2,0.2,1.4,0.7c0.2,0.6-0.1,1.2-0.7,1.4C638.9,1117.6,637.6,1117.8,636.3,1117.8z"/>
		</g>
		<g>
			<path class="st4" d="M616.5,1016c-0.2-0.2-0.5-0.4-0.8-0.6c-0.3-1.8-1.4-7.5-4.2-10.8c-3.2-4-5.3-4.6-9.8-4.2
				c-4.5,0.4-6.7,2.5-3.9,6.1c2.8,3.6,10.5,11.4,10.5,11.4l0.8,0.2c-0.3,0.7-0.3,1.5,0.2,2.2c0.1,0.2,0.3,0.4,0.5,0.6
				c0.3,0.9,0.8,1.7,1.5,2.3s1.6,1,2.7,1.1c1.4,0,3-0.8,3.3-2.2c0.2-1,0.1-2,0.2-3C617.6,1017.8,617.3,1016.8,616.5,1016z
				 M602.2,1005.4c0-1.4,2.8-2.5,6,0c2.2,1.7,3.4,7,4,9.8c-0.5,0.1-1,0.3-1.3,0.5c-0.6-1.1-1.2-2.3-1.9-3.2
				C607.1,1010.4,602.2,1006.8,602.2,1005.4z"/>
		</g>
	</g>
	<path class="st6" d="M313.9,984.6c-0.5,0-1.1,0.1-1.5,0.3c-0.9,0.3-1.4,1-1.9,1.6c-0.8,1.1-1.2,2.4-0.8,3.7
		c0.4,1.3,1.9,1.5,2.9,0.8c0.7-0.6,1.2-1.4,1.6-2.1c-0.1,0.2,0.1-0.1,0.1-0.1c0.3-0.3,0.5-0.6,0.6-0.9c0.2-0.4,0.3-0.9,0.4-1.3
		C315.7,985.7,314.7,984.5,313.9,984.6z"/>
	<path class="st6" d="M319.3,976.9c-1.3,0.2-2.1,0.8-2.7,1.8c-0.3,0.6-0.4,1.2-0.4,1.7c0,0.3,0,0.6,0.1,0.9c0,0.1,0.4,0.8,0.3,0.6
		c0.1,0.7,0.9,1,1.3,0.4c0.8-0.2,1.6-1,2-1.5c0.3-0.4,0.5-0.7,0.7-1.1c0.2-0.5,0.2-0.9,0.3-1.4C320.9,977.5,320.1,976.7,319.3,976.9
		z"/>
	<path class="st6" d="M325.4,969.2c-0.4-0.5-1.1-0.8-1.7-0.6c-1.4,0.5-2.3,1.4-2.7,2.8c-0.3,1.1,0,2.3,0.4,3.3
		c0.3,0.6,1.3,1,1.5,0.2c0.3-0.7,0.8-1.2,1.3-1.6c0.6-0.7,1.1-1.4,1.4-2.2C325.8,970.3,325.8,969.8,325.4,969.2z"/>
	<path class="st6" d="M328.4,964.2c-0.4,0.3-0.9,0.5-1.3,0.8c-0.9,0.5,0,1.9,0.8,1.4c0.4-0.3,0.8-0.6,1.2-0.9
		C329.9,964.9,329.3,963.8,328.4,964.2z"/>
	<path class="st6" d="M405.4,1008.2c-0.1-0.7-0.5-1.3-1-1.7c-0.1-0.1-0.2-0.2-0.3-0.3c-0.1-0.1-0.1-0.1-0.2-0.2c0,0,0,0,0.1,0.1
		c-0.5-0.6-1.1-1-1.7-1.2c-0.1,0-0.1-0.1-0.2-0.1c-1-0.7-2.2-0.1-2.9,0.8c-0.9,1.2-1,2.8-0.3,4.1c0.9,1.5,2.7,2.6,4.4,2
		C405,1011.1,405.7,1009.7,405.4,1008.2z"/>
	<path class="st6" d="M397.7,1001.8c-0.3-1.1-0.7-2.1-1.3-3.1c-0.2-0.3-0.5-0.6-0.7-0.9c0-0.1-0.2-0.2-0.2-0.3
		c-0.6-0.9-1.3-1.4-2.2-1.7c-1.5-0.4-2.8,0.5-3.4,1.9c-0.7,1.5,0.5,3.9,1.6,4.9c1.2,1.2,2.4,1.6,4.1,1.8
		C397,1004.7,397.9,1003,397.7,1001.8z"/>
	<path class="st6" d="M389.5,992c-0.2-0.4-0.3-0.8-0.7-1.1c-0.3-0.3-0.6-0.4-0.8-0.7c-0.4-0.4-0.7-0.9-0.9-1.4
		c-0.4-0.7-0.7-1.6-1.4-2c-0.9-0.5-1.8-0.3-2.4,0.5c-1.1,1.4-0.1,3.7,0.9,4.8c0.5,0.7,1.1,1.2,1.7,1.6c0.9,0.6,1.6,0.6,2.6,0.5
		C389.5,994.1,389.9,992.8,389.5,992z"/>
	<path class="st6" d="M386.5,979.5c-0.3-0.6-1.1-1-1.7-1c-1.8,0-2.7,1.7-2.9,3.3c-0.3,1.7,0.2,3.5,2,4.2c0.8,0.3,1.6-0.2,2-0.9
		c0.5-0.9,0.5-1.9,0.6-2.6c0-0.3,0.2-0.5,0.3-1C386.8,980.8,386.7,980.2,386.5,979.5z"/>
</g>
</svg>
