<?xml version="1.0" encoding="utf-8"?>
<!-- Generator: Adobe Illustrator 22.0.0, SVG Export Plug-In . SVG Version: 6.00 Build 0)  -->
<svg version="1.1" id="Capa_1" xmlns="http://www.w3.org/2000/svg" xmlns:xlink="http://www.w3.org/1999/xlink" x="0px" y="0px"
	 viewBox="0 0 750 1624" style="enable-background:new 0 0 750 1624;" xml:space="preserve">
<style type="text/css">
	.st0{fill:#6228cf;}
	.st1{fill:#FFFFFF;}
	.st2{fill:#1AB2BB;}
	.st3{fill:#FEE5C6;}
	.st4{fill:#FDC50C;}
	.st5{fill:#E3F4FD;}
	.st6{fill:#4E21B1;}
	.st7{fill:#F12B49;}
	.st8{fill:#22BF3F;}
	.st9{fill:#FF7000;}
	.st10{fill:#005874;}
	.st11{fill:#F49898;}
	.st12{fill:#015874;}
	.st13{opacity:0.5;}
</style>
<rect x="0.1" y="0.1" class="st0" width="749.9" height="1623.7"/>
<g>
	<g>
		<path class="st1" d="M508.6,474.5c0,0-0.6-0.6,2.2,5.8c2.8,6.5,90.6,141,90.6,141s7.4,11.1,11.1,12.9c3.7,1.8,4.2-0.9,11.1-1.4
			c6.9-0.5,54.5-16.2,54.5-16.2l23.6-59.2l-73.5-117.4c0,0-12.9,0-14.3,0c-1.4,0-26.8,6.5-26.8,6.5L508.6,474.5z"/>
	</g>
	<g>
		<polygon class="st2" points="620,451.6 535,476.3 540,486.2 620.3,617.4 694.5,595.4 692.7,570.4 		"/>
	</g>
	<g>
		<polygon class="st3" points="652,544.8 665.5,528.2 671.6,539.4 660.1,553.2 		"/>
	</g>
	<g>
		<polygon class="st3" points="609.7,565.7 593.1,567.4 599.2,576.9 613.7,575.2 		"/>
	</g>
	<g>
		<path class="st4" d="M634,596.5l3.4,15.2l14.5-3.7l0.8-5.1c0,0,5.1-3,7.1-3.7c2-0.7,5.7,5,5.7,5l13.5-3.4L668.2,584L634,596.5z"/>
	</g>
	<g>
		<polygon class="st4" points="546.7,573.9 570.8,602.3 574.5,618.9 566,630 531.9,587.4 533.9,570.1 		"/>
	</g>
	<g>
		<polygon class="st5" points="624.7,618.1 614,620.8 526.7,478.9 535.5,475.7 		"/>
	</g>
	<g>
		<path class="st3" d="M648,516.4c-1.2-0.7-2.6-1.1-3.9-1.1c-1.5,0-3.4,1.2-4.8,0.6c-1.1-0.5-2.1-2.1-2.9-3
			c-1.1-1.1-2.3-2.1-3.7-2.8c-5.9-3-12.9-2-19.1-0.7c-4.6,0.9-9.1,2.2-13.5,3.8c-3.5,1.3-7,2.7-9.2,5.9c-4.2,6.1-3.5,14.8-0.6,21.4
			c-1.2,0.9-1.9,2.5-1.7,4.2c0.4,3,3.3,4.4,6,5.1c2,0.5,2.8,1.2,4.3,2.5c1.2,1.1,2.5,2,3.9,2.7c3,1.4,6.2,1.9,9.5,1.9
			c1.5,0,3.1-0.2,4.6-0.4c1.7-0.3,3.6-0.9,5.3-0.8c3.2,0.2,4.9,4.1,8.1,4.8c2.7,0.7,5.7-0.4,6.6-3.2c0.5-1.4,0.3-2.8,0.1-4.2
			c-0.3-2.2,0.7-2.7,2.3-4c2.5-2,4.3-4.7,5.5-7.7c0.6-1.5,0.7-3.2,1.6-4.6c1-1.5,2.7-2.6,3.8-4.1C653.9,527.7,654.1,519.9,648,516.4
			z"/>
	</g>
	<g>
		<path class="st5" d="M693.7,555.5c0,0-62.5-108-65.3-110.1c-2.8-2.1-7.1-4.3-17.8-2.1c-10.7,2.1-82.9,24.6-92.1,28.4
			c-4.7,2-8.8,2.8-8.8,2.8s5.7-9.2,15.6-12.8c9.9-3.6,60.2-16.3,68-19.8c7.8-3.6,19.4-4.3,26.5-6.4c7.1-2.1,14.2,1.4,17.8,8.5
			c3.6,7.1,37.6,61.1,37.6,61.1l27,44L693.7,555.5z"/>
	</g>
	<g>
		<path class="st6" d="M320.3,1230.1c0,0-40.1,8.2-49,12.6c-8.9,4.5,0,18.6,14.1,25.3c14.1,6.7,78.8,10.4,157.5,9.7
			c78.8-0.7,171.7-9.7,205.1-11.1s49.8-12.6,52-17.1c2.2-4.5-2.2-17.1-29-20.1c-26.8-3-156-5.2-191-7.4
			C445.2,1219.7,320.3,1230.1,320.3,1230.1z"/>
	</g>
	<g>
		<path class="st1" d="M410.7,1230.6l0.6,7.7c0,0-60,2.5-78.1,1.5c-18.1-1-19.7-5-20.7-9.1c-1-4,14.4-8.4,22.1-9.8
			C342.2,1219.7,410.7,1230.6,410.7,1230.6z"/>
	</g>
	<g>
		<path class="st1" d="M630,1222.4c0,0,12,4.8,16.8,6.5c4.8,1.7,6.9,6.2,6.2,9.9c-0.7,3.8-3.4,4.5-22,4.5c-18.5,0-61.1,2.4-71.4,2.1
			c-10.3-0.3-11.3-0.3-9.9-7.2C551,1231.3,630,1222.4,630,1222.4z"/>
	</g>
	<g>
		<path class="st7" d="M410.7,1224.5v6.2c0,0-54.6,3.4-72.7-0.7l-3.4-8.9c0,0,19.9-7.2,27.8-9.3
			C370.2,1209.7,410.7,1224.5,410.7,1224.5z"/>
	</g>
	<g>
		<path class="st7" d="M548.3,1228.6l1.4,9.6c0,0,70.7,0.3,79.6-2.1c0,0-2.1-6.9-1.4-9.9s2.1-3.8,2.1-3.8s-8.2-4.1-13.7-5.8
			C610.7,1214.9,548.3,1228.6,548.3,1228.6z"/>
	</g>
	<g>
		<path class="st8" d="M377.4,1034.7c0,0-11,99.2-12.7,115.3c-1.7,16.1-3.4,30.5-5.9,37.3c-2.5,6.8-0.8,8.5-0.8,8.5l53.4,17
			c0,0,6.8-12.7,11-22.9c4.2-10.2,33.1-99.2,36.5-107.7c3.4-8.5,5.4-13.4,5.4-13.4s19.2-4.4,26.8,8.3s37.3,88.2,41.5,102.6
			s10.2,35.6,10.2,35.6l67-14.4l5.8-9.9c0,0-27-114.7-29.5-129.1s-3.4-33.1-5.1-37.3c-1.7-4.2-5.4-13.7-5.4-13.7l-81.1-19.3
			l-75.5,22.9L377.4,1034.7z"/>
	</g>
	<g>
		<path class="st4" d="M413.8,1054.6c-0.1,0-0.2,0-0.4,0c-4.2-0.5-17-2.3-17.5-2.4c-0.4-0.1-0.8-0.3-1-0.7c0,0-2-4.2-3.8-8.7
			c-3.3-8.5-2.7-10.7-1.6-11.7c2.5-2.5,24.1-8.6,28.4-9.8c0.6-0.2,1.3,0.1,1.6,0.7l8.5,19.4c0.2,0.4,0.1,0.9-0.2,1.3
			C426.3,1044.7,418.6,1054.6,413.8,1054.6z M397,1049.7c2.8,0.4,13.1,1.9,16.7,2.3c2.1,0.2,7.5-5,11.5-10.2l-7.7-17.6
			c-12,3.4-24.7,7.5-26.1,8.8C390.7,1034.3,393.3,1041.9,397,1049.7z"/>
	</g>
	<g>
		<path class="st4" d="M391.9,1040.9c-0.5,0-1-0.3-1.2-0.8c-0.3-0.7,0.1-1.4,0.8-1.7c0.9-0.3,20.9-8.1,29-10c0.7-0.2,1.4,0.3,1.6,1
			c0.2,0.7-0.3,1.4-1,1.6c-7.8,1.8-28.4,9.8-28.6,9.9C392.2,1040.9,392,1040.9,391.9,1040.9z"/>
	</g>
	<g>
		<path class="st4" d="M558,1032.4c-0.5,0-0.9-0.3-1.2-0.7c-3.3-6-2.8-6.8-2.5-7.4c0.2-0.4,0.7-0.7,1.1-0.7c0.8-0.2,3.9-2.2,6.4-3.8
			c1.4-0.9,2.9-1.8,4.3-2.7c3.6-2.2,0.9-8.2,0.9-8.2c-0.2-0.5-0.1-1,0.2-1.4c0.4-0.4,0.9-0.5,1.4-0.4l7.1,2.4
			c0.5,0.2,0.9,0.6,0.9,1.2c0,0.1,0.2,3.5-0.2,7.3c-0.6,5.3-2.2,8.9-4.7,10.5C566.5,1031.9,558.4,1032.4,558,1032.4
			C558.1,1032.4,558,1032.4,558,1032.4z M557,1025.9c0.3,0.9,1,2.4,1.8,3.8c2.1-0.2,7.9-1,11.7-3.5c3.4-2.2,3.8-10.5,3.7-14.4
			l-3.7-1.2c0.7,3,0.6,6.9-2.8,9c-1.4,0.8-2.9,1.8-4.3,2.7C559.9,1024.2,558.1,1025.3,557,1025.9z M555.7,1023.6
			C555.7,1023.6,555.7,1023.6,555.7,1023.6C555.7,1023.6,555.7,1023.6,555.7,1023.6z"/>
	</g>
	<g>
		<path class="st9" d="M672.8,634.1c0,0,33.9-0.8,55.2,24.3c0,0-30,171.2-187.6,211.8c0,0,46.4,104.5,37.7,139.3
			c0,0-47.4-10.6-98.7-1.9c0,0-18.4,4.8-29,5.8c-10.6,1-25.1,4.8-33.9,7.7c-8.7,2.9-23.2,8.7-31.9,12.6c-8.7,3.9-14.5-4.8-7.7-8.7
			l1-7.7c0,0-1.9-17.4-2.9-45.5c-1-28,6.8-82.2,6.8-82.2s-45.5-10.6-38.7-65.8l39.7-45.5l16,43.1c0,0,54.8-10.3,83.7-9.3
			c0,0,46.3-9.6,61.8-15.4C559.7,790.9,619.7,758.1,672.8,634.1z"/>
	</g>
	<g>
		<g>
			<path class="st4" d="M407.6,1012.2c-2.4,0.6-4.9,1.3-7.3,2c0,4.2,0.4,8.4,1.3,12.5c2.8-1.1,5.5-2.1,8.1-3.1
				C408.7,1019.8,408,1016,407.6,1012.2z"/>
		</g>
		<g>
			<path class="st4" d="M395,1015.6c-2.5,0.7-5,1.5-7.4,2.2c0.1,0.2,0.1,0.4,0.1,0.6c0.4,4.5,0.8,8.9,1.2,13.4c2.4-1,5-2.1,7.6-3.2
				C395.7,1024.4,395.1,1020,395,1015.6z"/>
		</g>
		<g>
			<path class="st4" d="M525.6,806.7c-0.1,2-0.1,4.1,0,6.1c0.6,16.5,6.2,32.7,15.7,46.2c1.6,2.3,4.6,4.9,4.9,8
				c0.7,0.4,1.3,0.8,2,1.1c7.8-2.3,15.3-4.9,22.5-7.8c-13.6-18.8-23.1-40.4-27.7-63.1c-4.3,1.5-10.4,3.2-17,5
				C525.9,803.7,525.6,805.2,525.6,806.7z"/>
		</g>
		<g>
			<path class="st4" d="M361.7,844.4c1.1-1.8,2.3-3.5,3.5-5.2c0.8-1.1,2.3-2.4,3.1-3.7c-1.4-1.4-4-2.5-5.4-3.2
				c-0.9-0.5-1.9-0.9-2.8-1.2c0,0.6-0.2,1.2-0.6,1.8c-5.8,6.5-10.6,13.9-14.2,21.8c1.5,4.8,3.6,9,5.9,12.6c1.3-4.2,2.9-8.3,4.7-12.2
				C357.6,851.4,359.6,847.8,361.7,844.4z"/>
		</g>
		<g>
			<path class="st4" d="M481.4,820.2c0-0.3,0.1-0.5,0.1-0.8c-0.7,0.9-1.4,1.7-2,2.5c-0.6,0.7-1.2,1.4-1.8,2c0,0,0,0.1,0,0.1
				c-2.3,7.7-1.7,16.1,1.3,23.4c-0.5-3-0.8-5.9-0.9-8.9c-0.2-6.1,0.8-12.2,3.3-17.6C481.3,820.7,481.3,820.4,481.4,820.2z"/>
		</g>
		<g>
			<path class="st4" d="M442.4,859.7c-18.1,0.6-36.2,2.7-53.3,8.9c-0.6,0.2-1.1,0.2-1.6,0.1c-2.4,6.8-4.6,13.7-6.6,20.7
				c0.5,0.1,0.7,0.2,0.7,0.2s-0.3,1.9-0.7,5.2c9.1-2.6,18.3-4.8,27.6-6.7c40.5-8.2,81.9-9.9,123.1-9.6c-0.5-1.6-1-3.2-1.5-4.9
				c-12.6-0.9-25.1-2.5-37.5-4.7c-0.5,0.4-1.3,0.5-2.1,0.3c-3.6-1.1-6.5-3.2-9.6-5.3c-3.6-2.6-7-4.1-11.5-4.4
				C460.6,859,451.4,859.4,442.4,859.7z"/>
		</g>
		<g>
			<path class="st4" d="M599.7,806.1c-0.5-0.5-1-1-1.5-1.4c0,0,0,0-0.1,0.1c0.1,0.1,0.3,0.3,0.4,0.4
				C599,805.5,599.4,805.8,599.7,806.1C599.7,806.1,599.7,806.1,599.7,806.1z"/>
		</g>
		<g>
			<path class="st4" d="M572.8,831.7c3.6,7,7.7,13.8,12.3,20.3c0.3,0.5,0.7,0.9,1,1.4c12.8-6.3,24.4-13.5,35.1-21.3
				c-13-7.5-26.2-15.3-35-27.8c-3.6-5.1-6.4-10.8-9-16.6c-1.6-2.6-3.1-5.4-4.4-8.2c-5.4,4.2-10.2,7.5-14.4,10.1
				C561.2,804.2,566,818.4,572.8,831.7z"/>
		</g>
		<g>
			<path class="st4" d="M367.1,845.9C367.1,845.9,367,845.9,367.1,845.9c-0.4,0.6-0.8,1.2-1.1,1.8c0.2-0.1,0.4-0.2,0.7-0.2
				c0.1-0.1,0.2-0.2,0.3-0.3C367,846.7,367,846.3,367.1,845.9z"/>
		</g>
		<g>
			<path class="st4" d="M576.2,974.6c0,0-0.1,0-0.1,0c-15.4-2.8-31-4.8-46.7-5.7c-27.6-1.7-55.4-0.6-82.7,3.4c-13.5,2-26.8,4.6-40,8
				c-10.4,2.6-20.9,5.6-30.8,9.9c0.7,12.9,1.5,21.8,1.9,25.4c13.9-4.6,28-8.5,42.2-11.8c13.8-3.1,27.7-5.6,41.7-7.7
				c14.4-2.1,28.8-3.9,43.3-3.9c14.4-0.1,28.9,1.1,43.3,1.8c10.4,0.6,21.2,0.8,31,4.3C579.1,991.4,578,983.3,576.2,974.6z"/>
		</g>
		<g>
			<path class="st4" d="M539.1,998.8c0,2,0,3.9-0.1,5.9c3.7,0.2,7.2,0.5,10.5,0.8v-6.3c-3.3-0.1-6.5-0.2-9.6-0.4
				C539.6,998.8,539.3,998.8,539.1,998.8z"/>
		</g>
		<g>
			<path class="st4" d="M564.9,1000.2c-3.4-0.4-6.8-0.7-10.2-0.9v6.6c3.9,0.4,7.4,0.9,10.5,1.3
				C565.6,1004.9,565.2,1002.2,564.9,1000.2C564.9,1000.2,564.9,1000.2,564.9,1000.2z"/>
		</g>
		<g>
			<path class="st4" d="M469.4,1000.2c-3.2,0.4-6.4,0.9-9.6,1.4c0.3,3.4,0.7,6.8,1,10.2c3.3-0.6,6.7-1.4,9.6-2
				C470.2,1006.6,469.9,1003.4,469.4,1000.2z"/>
		</g>
		<g>
			<path class="st4" d="M439.7,1005.1c-4,0.7-7.9,1.5-11.9,2.4c1,3.2,1.7,6.5,2.3,9.8c3.3-0.8,6.7-1.6,10-2.3
				C440,1011.6,439.8,1008.3,439.7,1005.1z"/>
		</g>
		<g>
			<path class="st4" d="M514.9,997.6c-2.3-0.1-4.6-0.1-6.9-0.1c-0.7,2.4-0.9,4.7-0.5,7.1c2.6-0.1,5.1-0.2,7.6-0.3
				C514.9,1002,514.9,999.8,514.9,997.6z"/>
		</g>
		<g>
			<path class="st4" d="M502.5,997.4c-1.6,0-3.1,0.1-4.7,0.1c-1.5,0.1-3.1,0.1-4.6,0.2c-0.1,2.6-0.1,5.3,0.1,7.9
				c3-0.3,6-0.6,8.9-0.8C501.8,1002.4,501.9,999.9,502.5,997.4z"/>
		</g>
		<g>
			<path class="st4" d="M603.9,802.9c8,7.5,17.2,13.6,27.4,17.9c0.9,0.4,1.6,1.1,1.8,1.9c6.6-5.6,12.8-11.4,18.6-17.4
				c-0.2-0.2-0.4-0.4-0.5-0.6c-0.4-0.2-0.8-0.4-1.1-0.6c-3.5-2.2-6.6-5.5-9.8-8.2c-6.3-5.3-12.5-10.7-18.6-16.2
				c-9.1-6.5-17.7-13.7-25.9-21.3c-3.8,4-7.5,7.6-11,10.9C588.5,781.7,595.1,793.3,603.9,802.9z"/>
		</g>
		<g>
			<path class="st4" d="M454.6,1002.4c-3.2,0.5-6.5,1.1-9.7,1.7c0,0.1,0,0.2,0,0.3l0.5,9.6c1.7-0.3,3.4-0.5,5-0.6
				c1.6-0.1,3.3-0.4,5.2-0.7C455.3,1009.3,454.9,1005.9,454.6,1002.4z"/>
		</g>
		<g>
			<path class="st4" d="M382.5,1019.5c-1.7,0.6-3.4,1.1-5.1,1.7l-0.5,3.8c-6.6,3.8-1.3,12.1,7,9
				C383.4,1029.2,383,1024.3,382.5,1019.5z"/>
		</g>
		<g>
			<path class="st4" d="M502,914.7c14.5-0.8,29.1-1.1,43.7-0.8c4,0.1,8.5-0.3,12.5,0.8c-2.6-7-5.1-13.7-7.4-19.5c-0.1,0-0.1,0-0.2,0
				c-13.3-0.1-26.6-0.1-39.9,0.1c-44.5,0.6-89.5,3.9-131.8,18.4c-0.7,6.1-1.4,12.9-2,19.9c13-3.3,26.2-6.1,39.4-8.6
				C444.5,919.6,473.2,916.2,502,914.7z"/>
		</g>
		<g>
			<path class="st4" d="M354.5,824.4c1.5-1.2,3.3-0.6,4.1,0.6c0,0,0.1,0,0.1,0c0.1,0,0.2,0.1,0.3,0.1c0.1,0,0.2,0.1,0.3,0.1
				c4.8,1.4,10,3.7,13.3,7.3c0.2,0.2,0.4,0.5,0.6,0.7c0.8-0.9,1.6-1.7,2.5-2.6c2.8-2.6,5.9-4.9,9.2-7c0.1-1,0.7-2,1.9-2.2
				c0.8-0.1,1.5-0.2,2.3-0.4c0.8-0.5,1.7-1,2.5-1.4c1.2-0.7,2.4-0.3,3.1,0.5c1.1-0.2,2.1-0.3,3.2-0.5l-15.4-41.4l-39.7,45.5
				c-0.7,5.6-0.8,10.8-0.5,15.5C345.8,833.8,349.6,828.6,354.5,824.4z"/>
		</g>
		<g>
			<path class="st4" d="M533.8,998.5c-4.6-0.3-9.1-0.5-13.7-0.7c0,2.1,0.1,4.3,0.2,6.4c4.6,0,9.1,0.1,13.4,0.2
				C533.8,1002.4,533.9,1000.4,533.8,998.5z"/>
		</g>
		<g>
			<path class="st4" d="M487.8,998.2c-4.4,0.4-8.9,0.8-13.3,1.4c0.4,3,0.8,6,1,9c2.4-0.6,3.8-1,3.8-1c2.9-0.5,5.7-0.9,8.6-1.3
				C487.8,1003.6,487.8,1000.9,487.8,998.2z"/>
		</g>
		<g>
			<path class="st4" d="M570.3,1001.2c0.2,2.3,0.3,4.7-0.1,6.9c5,0.8,7.9,1.5,7.9,1.5c0.4-1.7,0.7-3.6,0.9-5.7
				C576.2,1002.7,573.3,1001.8,570.3,1001.2z"/>
		</g>
		<g>
			<path class="st4" d="M660.4,675c2.9,1.1,5.8,2.2,8.7,3.4c11.4,4.6,22.7,9.9,32.8,17c2.5,1.7,4.9,3.6,7.2,5.5
				c1.6,1.3,3.4,2.7,4.9,4.3c3.4-8.9,6.1-17,8.2-23.8c-0.4-0.4-0.8-1-1.1-1.6c-0.7-1.6,0.1-3,1.2-3.7c-13.4-9.8-28.5-17.1-44.5-21.5
				c-3.6-1-7.3-1.8-11.1-2.5c-0.6-0.1-1.2-0.2-1.9-0.3c-3.4,7.3-6.8,14.2-10.2,20.8C656.6,673.3,658.7,674.3,660.4,675z"/>
		</g>
		<g>
			<path class="st4" d="M422.6,1008.6c-3.3,0.7-6.6,1.5-9.9,2.3c0.3,3.7,0.9,7.3,1.9,10.9c0.7-0.2,1.3-0.5,1.9-0.7
				c2.4-0.8,5.3-1.7,8.5-2.6C424.5,1015.2,423.7,1011.8,422.6,1008.6z"/>
		</g>
		<g>
			<path class="st4" d="M436.3,844.3c7.4-0.8,15.1-1.8,22.5-1.5c0.5,0,0.9,0.1,1.4,0.1c2.1-0.4,4.3-0.9,6.4-1.3
				c0.2,0,0.4-0.1,0.6-0.1c-0.7-1.9-1.2-3.9-1.4-5.9c-0.2-2,0-4,0.5-5.9c-2.1,0.3-4.3,0.4-6.4,0.6c-4.8,0.5-9.6,0.8-14.4,1
				c-14.4,0.7-28.8,1-43,3.2c-1.2,1.7-2.2,3.6-3.1,5.5c-2.3,4.7-4.4,9.5-6.4,14.4C406.9,849,421.5,845.9,436.3,844.3z"/>
		</g>
		<g>
			<path class="st4" d="M503.2,807.6c-0.2,0.6-0.4,1.3-0.8,1.8c-1.4,2.4-3,4.5-4.3,7c-2.5,5-4.1,10.5-4.7,16.1
				c-1.3,11.3,1.2,22.7,7.2,32.3c8.6,1.4,17.3,2.4,26,3.1c-10-14.9-15.5-32.7-15.6-50.6c0-3.4-0.1-7.9,0.8-11.8
				C508.9,806.3,506,807,503.2,807.6z"/>
		</g>
		<g>
			<path class="st4" d="M542.2,874.5c0-0.1-0.1-0.2-0.1-0.2c0,0,0,0-0.1,0C542.1,874.3,542.1,874.4,542.2,874.5z"/>
		</g>
		<g>
			<path class="st4" d="M408.6,964.1c30.2-6.1,60.9-11,91.7-12.3c15.2-0.7,30.4-0.4,45.6,0.9c7.5,0.7,15.3,1.3,22.7,2.9
				c1.3,0.3,2.4,0.7,3.3,1.3c-2.1-7.6-4.5-15.5-7-23.1c-15.8-2.6-31.9-3.9-47.9-4c-29.7-0.1-59.2,3.6-88.3,9.3
				c-14.7,2.8-29.2,6.2-43.7,9.8c-3.2,0.8-6.4,1.6-9.5,2.4c-0.4,7.4-0.6,14.3-0.4,20.2c2.9-0.7,5.7-1.3,8.6-2
				C391.9,967.6,400.2,965.8,408.6,964.1z"/>
		</g>
		<g>
			<path class="st4" d="M682.4,765.9c-15.9-18.7-40.5-26-59.5-40.9c-5.3,7.4-10.5,14.1-15.5,20.2c19.2,14.3,37.5,29.8,54.7,46.4
				c0.3,0.3,0.6,0.8,0.7,1.3c7.4-8.8,14.1-17.7,20-26.7C682.6,766.2,682.5,766.1,682.4,765.9z"/>
		</g>
		<g>
			<path class="st4" d="M654.7,721.4c7,4,13.8,8.2,20.5,12.6c3.5,2.3,6.9,4.7,10.3,7.2c2.7,2,5.9,3.9,8,6.7c0.1,0.1,0.2,0.3,0.3,0.5
				c4.6-8.1,8.6-16,12.1-23.6c-10.9-9.1-22.9-16.9-35.7-23.1c-5.8-2.8-11.8-5.3-17.9-7.5c-2.1-0.7-5.4-1.4-7.9-2.6
				c-3.8,6.6-7.6,12.8-11.3,18.6C640.4,713.6,647.6,717.4,654.7,721.4z"/>
		</g>
		<g>
			<path class="st4" d="M367.8,883.4c3,1.9,5.9,3.3,8.2,4.2c3.4-11.9,7.4-23.5,12-35c2.1-5.1,4.1-10.7,6.8-15.8
				C379.9,847.8,370,865,367.8,883.4z"/>
		</g>
	</g>
	<g>
		<path class="st3" d="M397.9,821.5c0,0,48.6-10.7,83.7-9.3l17.2-2.9c0,0-0.7-24.3,18.6-37.2c19.3-12.9,42.2-24.3,56.5-50.8
			c14.3-26.5-2-82.4-11.7-102l-17.9-27.6c0,0-6.9-14.1-14-28.4c-7.2-14.3-10.4-26.4-22.4-37.2c-12-10.7-28.4-30.8-49.9-30.1
			c-21.5,0.7-58.7,10-58.7,10L360,568.2l-11.4,130.9l9.3,80.1L397.9,821.5z"/>
	</g>
	<g>
		<path class="st10" d="M462.6,725.7c0,0-4.2-2.8-13.2,0s-35.5,5.6-57.8-13.2c-22.3-18.8-23-52.9,11.8-61.9s41.1,4.9,59.8,11.1
			c18.8,6.3,20.9-5.6,18.8-15.3s-27.8-34.1-35.5-43.1c0,0,8.3-2.8,11.8-11.1c3.5-8.3,0-21.6-12.5-30.6c0,0,15.3-4.9,16.7-23
			c1.4-18.1-11.8-32-13.9-32.7s43.1,0,59.1,20.2c0,0,1.4-20.9-22.3-32c0,0,16-2.8,18.1-8.4c2.1-5.6-4.2-18.8-29.2-22.3
			c-25-3.5-43.8,0.7-43.8,0.7s22.3-19.5-4.9-22.3c-27.1-2.8-96,11.8-153.1,51.5c-57.1,39.7-96.7,87-45.2,147.5
			c0,0-20.9,18.1-4.9,64.7c16,46.6,41.1,96.7,107.9,113.4c0,0,19.5,11.1,27.8,15.3s18.8,3.5,27.1-7.7c0,0,20.9-3.5,27.8-18.8
			c0,0,12.5,0.7,18.8-8.3s-1.4-21.6-1.4-21.6s18.8-1.4,25-8.3c6.3-7-6.3-14.6-6.3-14.6s18.1-9.7,20.2-16
			C471.7,732.7,470.3,727.1,462.6,725.7z"/>
	</g>
	<g>
		<path class="st11" d="M446.4,693.7l3.8-3c0,0-7.2-10.2-15.7-15.3c-8.5-5.1-18.3-5.1-25.5-2.1c-7.2,3-8.5,7.2-4.3,6.4
			c4.3-0.9,5.5-4.7,14-4.3c8.5,0.4,11.1,2.6,11.1,2.6s-6.8,2.1-10.6,7.7c-3.8,5.5-3,8.1,1.7,4.3c4.7-3.8,6-7.2,11.9-7.7
			S443.4,692,446.4,693.7z"/>
	</g>
	<g>
		<path class="st11" d="M507.3,669.5c0,0-10.6-1.7-16.2-17.9c-5.5-16.2-2.1-26.4,7.7-28.5c9.8-2.1,17.9,0.9,24.7,14
			c6.8,13.2,5.1,23.8-1.7,28.5C514.9,670.3,507.3,669.5,507.3,669.5z"/>
	</g>
	<g>
		<path class="st7" d="M544.3,678.8c0,0-7.2,0.4-10.6-14.9c-3.4-15.3-1.3-18.7-1.3-18.7s9.8,0.4,16.2,3c6.4,2.6,10.2,4.7,10.2,4.7
			s-0.9,8.9-2.1,15.7C555.3,675.4,549.8,679.7,544.3,678.8z"/>
	</g>
	<g>
		<path class="st7" d="M544.3,591.6c0,0,10.6,10.6,15.7,14.9c5.1,4.3,7.2,4.7,6,8.5c-1.3,3.8-2.1,4.3-3.8,4.3
			c-1.7,0-7.2-3.8-11.9-10.2C545.5,602.7,544.3,591.6,544.3,591.6z"/>
	</g>
	<g>
		<path class="st10" d="M526,595.5c0,0-0.4,4.7-3.8,3.8s-5.1-6-10.2-8.9c-5.1-3-7.7-2.1-8.1,4.3c-0.4,6.4,1.3,10.2-3,11.1
			c-4.3,0.9-4.3-6-3.8-11.1c0.4-5.1,3.8-11.9,10.2-11.5C513.6,583.6,523.4,589.9,526,595.5z"/>
	</g>
	<g>
		<path class="st10" d="M482.2,560.2c0,0-3,5.5-3.8,8.1c-0.9,2.6-4.3,0.9-3-6c1.3-6.8,4.7-15.7,11.1-17.9c6.4-2.1,9.4,0.4,9.8,3.4
			C496.6,550.8,491.1,546.6,482.2,560.2z"/>
	</g>
	<g>
		<path class="st3" d="M580.7,605.1c0,0,8.3-14,8.8-22.3c0.5-8.3-9.8-30.6-16.1-38.4c-6.2-7.8-5.2-9.3-5.2-9.3s5.7-4.7,6.2-8.3
			s-1.6-4.7-8.3-2.1c-6.7,2.6-11.9,5.2-12.4,9.3c-0.5,4.1,5.2,18.7,5.2,18.7l-9.8,14C549.1,566.7,574.5,589,580.7,605.1z"/>
	</g>
	<g>
		<path class="st3" d="M671.9,634.1c0,0,6.2-35.2,6.2-45.6s-2.1-31.1-3.1-37.3c-1-6.2,3.6-4.1,7.8,2.1c4.1,6.2,9.8,17.1,9.8,17.1
			s3.6-31.6,2.6-37.3c-1-5.7,2.1-3.1,8.3,1.6c6.2,4.7,7.8,16.1,7.8,16.1s7.8,2.1,9.3,7.3s1.6,11.4,1.6,11.4s3.6,0.5,4.7,5.2
			c1,4.7,0.5,10.4,0.5,10.4s3.6,0.5,3.6,8.8c0,8.3-7.8,61.7-7.8,61.7S703.6,636.2,671.9,634.1z"/>
	</g>
	<g>
		<path class="st2" d="M511,456.2c0,0-25-4-30-6.5c-5-2.5-3-6,3-7C490,441.7,508,453.2,511,456.2z"/>
	</g>
	<g>
		<path class="st2" d="M542,442.7c0,0-14.5-11.5-21.5-20c-7-8.5-5-13.5,0-14.5c5-1,10.5,4.5,17,19.5C544,442.7,545,442.7,542,442.7z
			"/>
	</g>
	<g>
		<path class="st2" d="M592.6,427.7c0,0-1.5,1-4-9c-2.5-10-4.5-22.5-1.5-26c3-3.5,7-1,8,5.5C596.1,404.7,595.1,427.7,592.6,427.7z"
			/>
	</g>
	<g>
		<path class="st2" d="M646.2,442.7c0,0,12-25,14-30c2-5,5.5-7,9-4.5c3.5,2.5-3.5,11-8,18C656.7,433.2,648.7,444.2,646.2,442.7z"/>
	</g>
	<g>
		<path class="st2" d="M684.2,484.3c0,0-9.5,2-2-2c7.5-4,19-11,24.5-13c5.5-2,10-0.5,8,3C712.8,475.8,684.2,484.3,684.2,484.3z"/>
	</g>
	<g>
		<path class="st2" d="M717.8,521.8c0,0-14,1-15.5,0.5c-1.5-0.5-3-2,4-3c7-1,15.5-5,20.5-5c5,0,7.5,5,3.5,7.5
			C726.3,524.3,717.8,521.8,717.8,521.8z"/>
	</g>
	<g>
		<path class="st2" d="M600.6,641c0,0-12.5,25.5-16,27.5c-3.5,2-6-5.5-1.5-12C587.6,650,601.6,638,600.6,641z"/>
	</g>
	<g>
		<path class="st2" d="M632.2,651c0,0-6.5,27-5,31c1.5,4,9.5,5,10-1c0.5-6-1-24-1-30.5C636.2,644,634.2,642.5,632.2,651z"/>
	</g>
	<g>
		<path class="st4" d="M407.9,1203.7c-0.9-4.1-3.6-6.4-1.8-15.4c1.8-9.1,29.5-115.4,29.5-115.4l20-1.4c0,0,1.8-1.8,8.6-2.7
			c6.8-0.9,17.7,0,17.7,0c-5.5-2.3-12.7-3.6-21.4-3.6c-8.6,0-28.2,3.6-40.4,6.4c-12.3,2.7-5.9,3.2,1.8,2.3c7.7-0.9,9.5-3.2,8.6,0.5
			c-0.9,3.6-26.8,110.4-28.6,117.2s0.5,12.7,0.5,12.7L407.9,1203.7z"/>
		<path class="st4" d="M407.9,1203.7c0.9,4.1,3.2,2.7,6.8,4.5c3.6,1.8,3.2,4.1,3.2,7.3s-2.7,6.8-5.9,7.3c0,0-1.8,4.1-5.9,3.6
			c-4.1-0.5-7.3-4.1-15-5.5c-7.7-1.4-26.3-6.4-34.5-9.5c-8.2-3.2-12.3-3.6-8.6-9.5c3.6-5.9,1.4-9.1,7.7-11.4
			c6.4-2.3,20.4,3.6,27.3,7.3c6.8,3.6,19.5,6.4,19.5,6.4"/>
	</g>
	<g>
		<path class="st4" d="M601.4,1198.4c-0.7,0-1.3-0.5-1.3-1.2c-0.1-1.6-0.5-4.6-1.5-9.7c-0.1-0.7,0.3-1.4,1-1.6
			c0.7-0.1,1.4,0.3,1.6,1c1,5.2,1.4,8.4,1.5,10.1C602.8,1197.7,602.2,1198.3,601.4,1198.4C601.5,1198.4,601.4,1198.4,601.4,1198.4z
			 M597.7,1178.7c-0.6,0-1.1-0.4-1.3-1c-0.7-3-1.6-6.3-2.5-9.7c-0.2-0.7,0.2-1.4,0.9-1.6c0.7-0.2,1.4,0.2,1.6,0.9
			c0.9,3.4,1.8,6.7,2.5,9.7c0.2,0.7-0.3,1.4-1,1.6C597.9,1178.7,597.8,1178.7,597.7,1178.7z M592.6,1159.3c-0.6,0-1.1-0.4-1.3-1
			c-0.7-2.8-1.5-6.1-2.3-9.8c-0.2-0.7,0.3-1.4,1-1.6c0.7-0.2,1.4,0.3,1.6,1c0.8,3.7,1.6,7,2.3,9.8c0.2,0.7-0.3,1.4-1,1.6
			C592.8,1159.3,592.7,1159.3,592.6,1159.3z M588.1,1139.7c-0.6,0-1.1-0.4-1.3-1c-0.7-3.1-1.4-6.4-2.2-9.8c-0.2-0.7,0.3-1.4,1-1.6
			c0.7-0.2,1.4,0.3,1.6,1c0.7,3.4,1.5,6.7,2.2,9.8c0.2,0.7-0.3,1.4-1,1.6C588.3,1139.7,588.2,1139.7,588.1,1139.7z M583.9,1120.1
			c-0.6,0-1.2-0.4-1.3-1c-0.7-3.2-1.4-6.5-2.1-9.8c-0.2-0.7,0.3-1.4,1-1.6c0.7-0.2,1.4,0.3,1.6,1c0.7,3.3,1.4,6.6,2.1,9.8
			c0.2,0.7-0.3,1.4-1,1.6C584,1120,584,1120.1,583.9,1120.1z M579.7,1100.4c-0.6,0-1.2-0.4-1.3-1c-0.7-3.3-1.4-6.6-2.1-9.8
			c-0.1-0.7,0.3-1.4,1-1.6c0.7-0.2,1.4,0.3,1.6,1c0.7,3.3,1.4,6.5,2.1,9.8c0.1,0.7-0.3,1.4-1,1.6
			C579.9,1100.4,579.8,1100.4,579.7,1100.4z M575.6,1080.7c-0.6,0-1.2-0.4-1.3-1.1c-0.7-3.4-1.4-6.7-2-9.8c-0.1-0.7,0.3-1.4,1-1.6
			c0.7-0.1,1.4,0.3,1.6,1c0.7,3.2,1.3,6.5,2,9.8c0.1,0.7-0.3,1.4-1,1.6C575.8,1080.7,575.7,1080.7,575.6,1080.7z M571.6,1061
			c-0.6,0-1.2-0.4-1.3-1.1c-0.7-3.5-1.4-6.8-2-9.8c-0.1-0.7,0.3-1.4,1-1.6c0.7-0.1,1.4,0.3,1.6,1c0.6,3,1.3,6.3,2,9.8
			c0.1,0.7-0.3,1.4-1,1.6C571.7,1061,571.7,1061,571.6,1061z M567.6,1041.3c-0.6,0-1.2-0.4-1.3-1.1c-1.3-6.2-2-9.9-2-9.9
			c-0.1-0.7,0.3-1.4,1-1.6c0.7-0.1,1.4,0.3,1.6,1c0,0,0.7,3.7,2,9.9c0.1,0.7-0.3,1.4-1,1.6C567.7,1041.3,567.6,1041.3,567.6,1041.3z
			"/>
	</g>
	<g>
		<path class="st4" d="M497.1,1049.4c-0.2,0-0.4,0-0.5-0.1c0,0-4.8-2-9.7-4.4c-10.2-4.9-11-6.4-11.3-7.1c-1.5-3-1.2-18.3-1.1-21.4
			c0-0.6,0.5-1.2,1.1-1.3c0.9-0.2,23.3-3.8,33.2-4.3c0.7,0,1.3,0.5,1.4,1.1l3.3,23.1c0.2,1.4-0.6,3.6-7.9,8.9
			c-3.8,2.8-7.8,5.2-7.8,5.2C497.6,1049.3,497.4,1049.4,497.1,1049.4z M477.2,1017.6c-0.2,7.3,0,17.4,0.8,19c0.8,1.5,10.4,6.3,19,10
			c7.5-4.6,13.8-9.6,13.9-11.1l-3.1-21.9C498.9,1014.2,481.7,1016.9,477.2,1017.6z"/>
	</g>
	<g>
		<path class="st4" d="M476.8,1025.3c-0.6,0-1.2-0.5-1.3-1.1c-0.1-0.7,0.4-1.4,1.1-1.5c0.9-0.2,23.3-3.8,32.8-3.8
			c0.7,0,1.3,0.6,1.3,1.3s-0.6,1.3-1.3,1.3c-9.2,0-32.1,3.7-32.4,3.8C477,1025.3,476.9,1025.3,476.8,1025.3z"/>
	</g>
	<g>
		<path class="st10" d="M565,456.4c-3.4,0-3.4,5.3,0,5.3C568.4,461.7,568.4,456.4,565,456.4z"/>
	</g>
	<g>
		<path class="st10" d="M623.9,472.7c-1.1-2.3-2.3-4.6-3.6-6.9c-1.1-2-2.3-3.9-3.5-5.8c-0.9-1.4-1.9-3-3.5-3.7
			c-2.1-0.9-4.3-0.1-6.4,0.5c-2.2,0.7-4.3,1.4-6.5,2.1c-3.1,1.1-8.6,2.4-7.3,6.9c0.6,2,2.1,4,3.1,5.8l3.5,6.3c1.9,3.5,3.4,8,8.1,7.6
			c4.5-0.3,9.2-2.2,13.3-3.7c0.4-0.2,0.8-0.4,1.1-0.7c1.6-0.6,2.9-1.7,3.2-3.5C625.7,476,624.7,474.3,623.9,472.7z"/>
	</g>
	<g>
		<path class="st10" d="M651,542.3l11.1,11.1l-6.5,7.4l16.2,23.1c0,0-30,13.4-39.3,13.9l-3.2-0.9l-4.6-20.3l-13.4,1.8l-3.7-16.6
			l22.2-5.5l3.7,2.3l3.7-4.6L651,542.3z"/>
	</g>
	<g>
		<path class="st9" d="M545.7,564.4c0,0,4.4,3.4,9.5,7.4s17.9,20.6,22.3,26.7c4.4,6.1,4.4,7.4,4.4,7.4l-7.4,12.9
			c0,0-11.8-20.6-17.3-26.1c-5.4-5.4-21.3-18.6-21.3-18.6l-2-4.1L545.7,564.4z"/>
	</g>
	<g>
		<path class="st4" d="M594.1,541.7c0,0-2.4-6.8-2-12.5c0.3-5.8,3.4-7.8,3.4-7.8s10.8,0,18.6-2.7c7.8-2.7,12.5-5.4,12.5-5.4
			s9.1,8.8,11.5,10.1c2.4,1.4,1.7-2,3.7-4.7c2-2.7,3.7-2,3.7-2s-4.7-11.8-7.1-15.2c-2.4-3.4-5.8-4.1-9.5-2c-3.7,2-2.7,2.7-8.1,0.7
			c-5.4-2-11.8-1-17.9,2c-6.1,3-9.8,4.1-12.5,3.4c-2.7-0.7-4.4-2-6.1,1c-1.7,3,0,3.4,0,3.4s-3.4-1-6.4,0.3c-3,1.4-1.4,5.1,1.7,6.4
			c0,0-2.7,3-0.7,7.1c2,4.1,3.4,0.7,5.1,4.1C585.7,531.2,585,546.1,594.1,541.7z"/>
	</g>
	<g>
		<path class="st11" d="M607.2,543.6c-0.5-2.2-2.4-4.1-4.7-4.1c-1.5,0-2.8,1-3.3,2.5c-0.4,1.1-0.2,2.5,0.5,3.5
			c0.1,0.2,0.2,0.3,0.3,0.4c0.1,0.2,0.3,0.5,0.4,0.7c0.6,0.9,1.7,1.5,2.8,1.3c0.7,0.1,1.4,0.1,2.1,0c1.1-0.2,1.9-1.5,1.9-2.5
			c0-0.1,0-0.1,0-0.2C607.3,544.7,607.3,544.2,607.2,543.6z"/>
	</g>
	<g>
		<path class="st11" d="M634.7,530.5c-0.9-1-2.3-1.4-3.6-1.2c-3-0.3-5.1,3.1-4.2,5.8c0.9,2.7,4,4.3,6.6,2.7
			C636,536.3,636.8,532.6,634.7,530.5z"/>
	</g>
	<g>
		<path class="st12" d="M602.1,536.8l-1-0.3c0.1-0.4,0.1-0.9,0-1.4c-0.1-0.7-0.2-1.6,0.3-2.3c0.7-1.1,2.2-1.2,3.3-0.6
			c1,0.5,1.7,1.5,2.2,2.2L606,535c-0.5-0.7-1.1-1.5-1.8-1.9c-0.6-0.3-1.6-0.3-1.9,0.3c-0.3,0.4-0.2,1-0.1,1.6
			C602.1,535.6,602.2,536.2,602.1,536.8z"/>
	</g>
	<g>
		<path class="st12" d="M618.8,529.9c-0.2-0.9-0.3-1.9-0.2-2.8c0.2-1.2,1-2.1,1.9-2.4c1-0.3,2.1,0,3,0.9c0.7,0.7,1.1,1.6,1.5,2.5
			l-1,0.4c-0.3-0.8-0.7-1.6-1.3-2.1c-0.4-0.4-1.2-0.9-1.9-0.6c-0.7,0.2-1.1,1-1.2,1.6c-0.1,0.8,0,1.6,0.2,2.5L618.8,529.9z"/>
	</g>
	<g>
		<path class="st4" d="M599.7,528.5l-0.9-0.6c1.7-2.7,5.2-4.2,8.3-3.6l-0.2,1C604.1,524.8,601.1,526.1,599.7,528.5z"/>
	</g>
	<g>
		<path class="st4" d="M616.3,522.2l-0.5-0.9c2.1-1.2,4.6-1.5,6.9-0.6l-0.4,1C620.4,520.9,618.1,521.1,616.3,522.2z"/>
	</g>
	<g>
		<path class="st7" d="M616.3,544.3c-2.1,0-3.9-2.1-4-2.2l0.8-0.7c0,0,1.9,2.2,3.6,1.8c1.1-0.3,2-1.8,2.6-4.3l1,0.2
			c-0.7,3-1.8,4.7-3.4,5.1C616.7,544.3,616.5,544.3,616.3,544.3z"/>
	</g>
	<g>
		<path class="st7" d="M614.8,537.7L614,537c1-1,0-2.7-0.1-2.7l0.9-0.6C615.4,534.5,616.1,536.4,614.8,537.7z"/>
	</g>
	<g class="st13">
		<g>
			<path class="st1" d="M641.3,519.5c-2.9,7.1-5.6,14.3-8.1,21.6c-2.3,6.7-5.1,13.8-5.7,20.9c-0.3,3.3,0.4,6.2,1.8,9.2
				c1.7,3.6,2,6.4,0.7,10.3c-2.4,7.3-6.1,14.3-9.9,20.9c-1.7,3,2.9,5.6,4.6,2.7c3.7-6.6,7.1-13.4,9.8-20.4c1.3-3.3,2.2-6.8,1.6-10.3
				c-0.6-3.3-2.9-6-3.2-9.4c-0.4-3.7,0.8-7.4,1.9-10.9c1.1-3.7,2.3-7.3,3.5-11c2.5-7.4,5.2-14.8,8.2-22
				C647.7,517.7,642.6,516.4,641.3,519.5z"/>
		</g>
		<g>
			<path class="st1" d="M613.2,536.3c1.9-8.2,4.5-16.3,6.8-24.4c2.4-8.4,4.8-16.8,7.1-25.2c0.9-3.3-4.2-4.7-5.1-1.4
				c-2.4,8.4-4.8,16.8-7.1,25.2c-2.3,8.1-4.9,16.2-6.8,24.4c-0.9,3.8-1.4,7.8-0.9,11.7c0.5,3.7,2.1,7.2,1.9,11
				c-0.5,6.9-5.2,13-6.8,19.6c-0.8,3.3,4.3,4.7,5.1,1.4c1.6-6.7,5.9-12.6,6.8-19.5c0.5-3.5-0.3-6.8-1.1-10.2
				C612,544.6,612.2,540.6,613.2,536.3z"/>
		</g>
		<g>
			<path class="st1" d="M610.5,466.8c-4.8,14.7-9.5,29.4-14.3,44.1c-4.5,13.9-9.4,27.9-9.4,42.6c0,3.4,5.3,3.4,5.3,0
				c0.1-14.6,5.1-28.5,9.6-42.2c4.6-14.4,9.3-28.7,13.9-43.1C616.7,465,611.6,463.6,610.5,466.8z"/>
		</g>
		<g>
			<path class="st1" d="M581.6,469.8c-3.9,15-8.5,29.9-13.8,44.4c-1.2,3.2,3.9,4.6,5.1,1.4c5.3-14.6,9.9-29.4,13.8-44.4
				C587.6,467.9,582.5,466.5,581.6,469.8z"/>
		</g>
		<g>
			<path class="st1" d="M572,470.6c-4.1,6.8-7.8,13.8-11.2,21.1c-1.4,3.1,3.1,5.7,4.6,2.7c3.4-7.2,7.1-14.2,11.2-21.1
				C578.3,470.4,573.7,467.7,572,470.6z"/>
		</g>
	</g>
	<g>
		<path class="st4" d="M555.1,1227.7c0,0-4.5,1.8-9.1,1.8c-4.5,0-8.2-2.7-5-5.9c3.2-3.2-1.4-4.1-4.1-5c-2.7-0.9-4.1-5.9,0.9-8.6
			c5-2.7,50.9-10.9,59.1-13.6c8.2-2.7,14.1-7.3,18.6-5.5c4.5,1.8,6.8,3.6,5,6.8c-1.8,3.2-5.9,6.4-4.1,6.4c1.8,0,4.5-0.5,5,3.2
			c0.5,3.6,0.5,7.3-2.7,9.1c-3.2,1.8-11.4,4.5-11.4,4.5L555.1,1227.7z"/>
	</g>
</g>
</svg>
