<?xml version="1.0" encoding="utf-8"?>
<!-- Generator: Adobe Illustrator 22.0.1, SVG Export Plug-In . SVG Version: 6.00 Build 0)  -->
<svg version="1.1" id="Capa_1" xmlns="http://www.w3.org/2000/svg" xmlns:xlink="http://www.w3.org/1999/xlink" x="0px" y="0px"
	 viewBox="0 0 750 1624" style="enable-background:new 0 0 750 1624;" xml:space="preserve">
<style type="text/css">
	.st0{fill:#6228cf00;}
	.st1{fill:#FDE7CC;}
	.st2{fill:#F23253;}
	.st3{fill:#FAFAFA;}
	.st4{fill:#1CB9C2;}
	.st5{fill:#01637F;}
	.st6{fill:#FCCB07;}
	.st7{fill:#F03253;}
	.st8{fill:#F29F9F;}
	.st9{fill:#E4F2FB;}
	.st10{fill:#1CB7C0;}
	.st11{fill:#51DCE4;}
	.st12{fill:#F4A1A1;}
	.st13{fill:#FFFFFF;}
</style>
<rect x="0.1" y="0.1" class="st0" width="749.9" height="1623.7"/>
<g>
	<g>
		<g>
			<g>
				<path class="st1" d="M444.2,1350.3c0,0,15.6,64.4,19.3,72.6c0,0,71.7,1.8,81.8,0.9c0,0,2.8-4.6-8.3-10.1s-55.2-18.4-55.2-18.4
					l-8.3-60.7L444.2,1350.3z"/>
			</g>
		</g>
	</g>
	<g>
		<g>
			<g>
				<path class="st2" d="M457,1398.6c0,0,4.6-0.2,14.4,5s13.8-1.7,14.3-7.5l-3.8-0.8l-0.8-10.7c0,0,5.2,1.1,9.8,4s4.6,9.2,4.6,9.2
					s39.6,12,46.5,16.6c6.9,4.6,5.2,9.8,5.2,9.8l-83.6-1.3L457,1398.6z"/>
			</g>
		</g>
	</g>
	<g>
		<g>
			<g>
				<polygon class="st3" points="547.9,1423.3 462.9,1420.7 463.1,1424.3 546.7,1425.6 				"/>
			</g>
		</g>
	</g>
	<g>
		<g>
			<g>
				<path class="st1" d="M266.6,1345.4c0,0-15.6,64.4-19.3,72.6c0,0-71.7,1.8-81.8,0.9c0,0-2.8-4.6,8.3-10.1
					c11-5.5,55.2-18.4,55.2-18.4l8.3-60.7L266.6,1345.4z"/>
			</g>
		</g>
	</g>
	<g>
		<g>
			<g>
				<path class="st4" d="M483.3,903.9l-1.8,483.3l-39.6-9.9c0,0-16.5-116.2-18.1-150.9s6.6-61.1,6.6-61.1s-11-168.4-20.9-180
					c-9.9-11.6-53.5,155.2-88.1,234.5s-56.2,147.6-56.2,147.6l-38-3.3c0,0,16.5-79.9,26.5-126.1c9.9-46.2,41.3-94.1,41.3-94.1
					l72.7-220.1v-23.1L483.3,903.9z"/>
			</g>
		</g>
	</g>
	<g>
		<g>
			<g>
				<path class="st5" d="M321.2,683.2c0,0-5.1-8.6,37.5-29c32-15.3,70.3-32.9,87.3-40.6c5.6-2.6,9.6-7.7,10.6-13.8l12.8-75.2
					c0.6-3.6,4-6.1,7.7-5.6l16.2,2.3c3.3,0.5,5.8,3.3,5.9,6.6c0.4,20.3,1.4,86.9,0,98.5c-1.7,13.7-23.2,31.3-51.5,49.1
					C419.4,693.1,321.2,683.2,321.2,683.2z"/>
			</g>
		</g>
	</g>
	<g>
		<g>
			<g>
				<path class="st6" d="M495,524v-8.9c0-2.5-1.8-4.7-4.3-5.1l-9-1.4c-2.8-0.4-5.4,1.5-5.9,4.2l-1.4,8.3L495,524z"/>
			</g>
		</g>
	</g>
	<g>
		<g>
			<g>
				<path class="st1" d="M486.4,463.8c0,0-1.2,20.5-3.1,30.7s-3.2,15.2-3.2,15.2l12.8,2.1l0.9-31L486.4,463.8z"/>
			</g>
		</g>
	</g>
	<g>
		<g>
			<g>
				<path class="st6" d="M365.4,911.1h114.4c1.9,0,3.5-1.6,3.5-3.5v-37H362v37C362,909.6,363.5,911.1,365.4,911.1z"/>
			</g>
		</g>
	</g>
	<g>
		<g>
			<g>
				<path class="st1" d="M408.8,516.6c0,0,10.3,33.2,18.1,28.3c0,0,0.6,11.5,1.2,16.3s7.2,25.9-9,35.6l0,0c-1.8,1.1-2.6,3.2-2.1,5.2
					l16.5,59.3l-66.9-3l-7.2-42.3l0-55.4l22.3-31.4L408.8,516.6z"/>
			</g>
		</g>
	</g>
	<g>
		<g>
			<g>
				
					<ellipse transform="matrix(0.7373 -0.6756 0.6756 0.7373 -256.4734 420.5634)" class="st5" cx="412.5" cy="540.1" rx="1.9" ry="2.8"/>
			</g>
		</g>
	</g>
	<g>
		<g>
			<g>
				<g>
					<path class="st7" d="M428,563.1c-0.4,0.1-0.8,0.2-1.2,0.1c-5.1-0.1-5.9-5.3-5.9-5.5c-0.1-0.4-0.5-0.7-0.9-0.7
						c-0.4,0.1-0.7,0.5-0.7,0.9c0.3,2.3,2.2,6.6,7.2,6.9c0.1,0,0.1,0,0.2,0c0.6,0,1.1,0,1.6-0.2C428.2,564.2,428.1,563.7,428,563.1z
						"/>
				</g>
			</g>
		</g>
	</g>
	<g>
		<g>
			<g>
				<path class="st5" d="M405.4,533.1c-0.1,0.2-0.1,0.5-0.1,0.7c-0.4,2.1,0.5,2.4,0.9,1.5c0-0.2,0.1-0.4,0.1-0.6
					c0.1-0.7,0-1.4,1.6-2.3c0.3-0.3,0.7-0.4,1-0.4c1.2-0.2,1.9,0.7,2.9,0.5c0.1,0,0.2-0.1,0.3-0.1c0.5-0.4,0.5-1.3-0.2-1.6
					c-1.5-0.7-3.2-1.1-4.7-0.1C406.3,531.2,405.8,532.1,405.4,533.1z"/>
			</g>
		</g>
	</g>
	<g>
		<g>
			<g>
				<path class="st8" d="M379.7,571.9c0.2-0.1,4.4-1.7,8.5-0.7c-2.7-2.7-6.4-5.2-11.4-5.7c-0.4,0-0.7-0.4-0.7-0.9
					c0-0.4,0.4-0.7,0.9-0.7c12.9,1.2,18,14.5,18,14.6c0.2,0.4,0,0.8-0.4,1c0,0,0,0,0,0c-0.4,0.2-0.9-0.1-1-0.5c0-0.1-1-2.5-3.1-5.4
					c-0.1,0-0.2,0-0.2-0.1c-4.1-2.6-9.8-0.4-9.9-0.3c-0.4,0.2-0.9,0-1-0.4C379.1,572.5,379.3,572.1,379.7,571.9z"/>
			</g>
		</g>
	</g>
	<g>
		<g>
			<g>
				<path class="st5" d="M359.4,616c0,0-27.4-66.5-30.5-71.2c-3.1-4.7-11-17.2,1.6-32.1c12.5-14.9,36-20.3,41.5-35.2
					c5.5-14.9,14.9-11,14.9-3.1c0,0,6.3-6.3,7.8-12.5s20.3-4.7,11,28.2c0,0,7-7,11-5.5s3.9,11.7-3.9,26.6s-25,28.9-25,28.9
					s12.5,18.8,15.6,23.5c3.1,4.7-1.6,5.5-8.6,0.8c-7-4.7-8.6-11.7-18.8-9.4s-10.2,38.3,21.1,34.4
					C396.9,589.4,400.8,621.5,359.4,616z"/>
			</g>
		</g>
	</g>
	<g>
		<g>
			<g>
				<path class="st6" d="M444,665.7l-8.2-13.5c-1.1-1.8-2.9-2.9-5-3.1l-69.1-6c-3.8-0.3-7.1,2.7-7.1,6.5v17.6c0,3.5,2.8,6.4,6.3,6.5
					l77.3,1.9C443.4,675.8,446.6,670.1,444,665.7z"/>
			</g>
		</g>
	</g>
	<g>
		<g>
			<g>
				<path class="st5" d="M343.4,667.2l114.8,2.6c13.2,0.3,23.9,10.7,24.6,23.9l9,180.1c0.7,14.4-10.7,26.4-25.1,26.4h-87.9
					c-12,0-22.4-8.5-24.7-20.3l-35.9-182.6C315,681.5,327.3,666.9,343.4,667.2z"/>
			</g>
		</g>
	</g>
	<g>
		<g>
			<g>
				<path class="st5" d="M477.4,750.5c0,0,103.6-52.5,120-67.3s26.5-37.3,24.2-60.1c-1.9-18.6-11.4-63.3-14.8-79.1
					c-0.7-3.4-3.5-5.9-7-6.2l-22.9-2.3c-4.8-0.5-8.9,3.4-8.7,8.3l3.4,70c0.4,7.1-3.9,13.7-10.5,16.4l-100.8,40.3L477.4,750.5z"/>
			</g>
		</g>
	</g>
	<g>
		<g>
			<g>
				<path class="st9" d="M493.9,467.5l-3.8,36.7c0,0-1.4,10.2,6.7,11.2c8,1.1,58.9,7.9,58.9,7.9l1.6,0.2c7,0.9,13.5-4.1,14.3-11.1
					l12.2-106.1c0.8-7-4.3-13.3-11.3-14l-57.2-5.9c-6.9-0.7-13.1,4.3-13.9,11.2L493.9,467.5z"/>
			</g>
		</g>
	</g>
	<g>
		<g>
			<g>
				<path class="st10" d="M496.6,501l10.2-99.7c0.4-4.4,4.4-7.6,8.7-7.1l52.6,5.4c4.4,0.5,7.6,4.4,7.1,8.8l-10.8,100.9
					c-0.5,4.4-4.5,7.6-8.9,7.1l-52-6.7C499.3,509.2,496.2,505.3,496.6,501z"/>
			</g>
		</g>
	</g>
	<g>
		<g>
			<g>
				<path class="st1" d="M574.7,524.8c0,0-3.7-17.7-5.4-21.4c-1.7-3.7-9.4-5.4-10.7-15.1c-1.3-9.7-0.7-21.1-2-24.8
					c-1.3-3.7,3.3-5,5.4,2.7s4.4,17.1,6,18.7c1.7,1.7,3.3,0.3,4-1.7s7.1-35.4,7.1-35.4s3.5,1.4,3.5,6.4l1,6.2c0,0,3.5,0.2,3.7,6.7
					c0,0,3,1.3,3,4.7c0,0,2.3,2.3,2.3,6c0,2.7-1.4,15.6-2.2,22.6c-0.3,3-0.1,6,0.6,8.9l5,20.7l-20.7-1.3L574.7,524.8z"/>
			</g>
		</g>
	</g>
	<g>
		<g>
			<g>
				<path class="st6" d="M572.7,536.9l-1.9-12.9c-0.3-1.8,1.2-3.3,2.9-3.2l21.7,1.2c1.3,0.1,2.3,1,2.6,2.2l3.3,15.2L572.7,536.9z"/>
			</g>
		</g>
	</g>
	<g>
		<g>
			<g>
				<path class="st1" d="M490.5,487.3c0,0,8.7-1.6,9.5-11.5s-4-13.9,0.4-21c4.4-7.1,9.9-11.1,9.1-15.1c-0.8-4-4.4,2-9.9,6.7
					c-5.6,4.8-11.1,9.1-13.1,14.7C484.5,466.7,490.5,487.3,490.5,487.3z"/>
			</g>
		</g>
	</g>
	<g>
		<g>
			<g>
				<path class="st1" d="M490.9,461.5l-1.2-5.6c0,0,3.6-14.3,7.9-20.2l-2.4,18.2L490.9,461.5z"/>
			</g>
		</g>
	</g>
	<g>
		<g>
			<g>
				<polygon class="st11" points="228.3,1353.5 269.6,1352.4 265.1,1367.4 227.1,1364.1 				"/>
			</g>
		</g>
	</g>
	<g>
		<g>
			<g>
				<polygon class="st11" points="441.9,1377.3 440.3,1368 481.7,1368 481.5,1387.3 442.4,1384.5 				"/>
			</g>
		</g>
	</g>
	<g>
		<g>
			<g>
				<path class="st2" d="M253.8,1393.7c0,0-4.6-0.2-14.4,5c-9.8,5.2-13.8-1.7-14.3-7.5l3.8-0.8l0.8-10.7c0,0-5.2,1.1-9.8,4
					c-4.6,2.9-4.6,9.2-4.6,9.2s-39.6,12-46.5,16.6c-6.9,4.6-5.2,9.8-5.2,9.8l83.6-1.3L253.8,1393.7z"/>
			</g>
		</g>
	</g>
	<g>
		<g>
			<g>
				<polygon class="st3" points="163,1418.4 248,1415.8 247.8,1419.4 164.1,1420.7 				"/>
			</g>
		</g>
	</g>
	<g>
		<g>
			<g>
				<path class="st8" d="M417.8,549.9c-0.4-0.7-0.8-1.2-1.3-1.7c0,0-0.1-0.1-0.1-0.1c-0.3-0.3-0.6-0.5-0.9-0.7
					c-0.1-0.1-0.3-0.2-0.5-0.4c0,0,0,0-0.1-0.1c0,0,0,0,0,0c-0.1-0.1-0.2-0.1-0.3-0.2c-1.1-0.6-2.7-0.9-4-0.5
					c-1.2,0.4-2.4,1.2-3.1,2.4c-0.6,1.1-1,2.7-0.5,4c0.2,0.6,0.4,1,0.6,1.3c0,0,0,0,0,0c0,0,0,0,0,0c0.2,0.3,0.3,0.6,0.5,0.9
					c0,0,0,0,0,0c0.1,0.2,0.3,0.4,0.5,0.6c0.5,0.6,1.1,1,1.7,1.4c0.1,0,0.2,0.1,0.4,0.1c0.3,0.1,0.5,0.2,0.8,0.3c0,0,0.1,0,0.1,0
					c0,0,0.1,0,0.1,0c0.7,0.2,1.4,0.3,2.2,0.2c1.1-0.1,2.2-0.6,2.9-1.4c0.6-0.7,1-1.4,1.3-2.3C418.7,552.5,418.4,551,417.8,549.9z"
					/>
			</g>
		</g>
	</g>
	<g>
		<g>
			<g>
				<path class="st4" d="M451.2,755.9c-7.7,0-14.9-2.4-20.6-6.8c-7.4-5.8-12-14.7-13.7-26.6l1.1-0.2c4.5,31.2,27.7,32.6,34.7,32.3
					c14.3-0.6,32.5-8.1,32.7-8.2l0.4,1c-0.2,0.1-18.6,7.7-33.1,8.3C452.2,755.9,451.7,755.9,451.2,755.9z"/>
			</g>
		</g>
	</g>
	<g>
		<g>
			<g>
				
					<rect x="451.4" y="661.6" transform="matrix(6.316755e-02 -0.998 0.998 6.316755e-02 -245.1471 1078.712)" class="st4" width="1.1" height="16.7"/>
			</g>
		</g>
	</g>
	<g>
		<g>
			<g>
				<path class="st6" d="M600,681c0,0-8.6-4-8.1-17.1s12.6-10.1,14.1-28.7s15.1-16.1,15.1-16.1S630.7,651.3,600,681z"/>
			</g>
		</g>
	</g>
	<g>
		<g>
			<g>
				<path class="st5" d="M408.9,985.5c0-0.1-4.4-11.3-28.1-13.8l0.1-1.1c24.5,2.5,28.8,14.1,29,14.5L408.9,985.5z"/>
			</g>
		</g>
	</g>
	<g>
		<g>
			<g>
				<path class="st5" d="M465.8,1367.6l-1.1,0c0.1-2.3,9.8-231.8,9.8-258.9s-5.8-165.3-5.9-166.7l0-0.5l0.5-0.1
					c0.5-0.1,11.3-2,11.3-13.2h1.1c0,10.7-9.5,13.6-11.7,14.2c0.4,9,5.9,139.9,5.9,166.3C475.6,1135.8,465.9,1365.3,465.8,1367.6z"
					/>
			</g>
		</g>
	</g>
	<g>
		<g>
			<path class="st12" d="M590.2,472.2c0,0-0.1,0-0.1,0c-1.7-0.4-3.2-1.4-4.3-2.7c-0.2-0.2-0.3-0.4-0.5-0.6c-0.3-0.4-0.6-0.7-0.9-1
				c-0.3-0.2-0.6-0.4-0.9-0.6c-0.2-0.1-0.4-0.3-0.7-0.4c-1.1-0.8-1.9-2-2.3-3.3c-0.1-0.2,0.1-0.4,0.3-0.5c0.2-0.1,0.4,0.1,0.5,0.3
				c0.3,1.2,1.1,2.2,2,2.9c0.2,0.1,0.4,0.3,0.6,0.4c0.3,0.2,0.7,0.4,1,0.7c0.4,0.3,0.7,0.7,1,1.1c0.1,0.2,0.3,0.4,0.4,0.5
				c1,1.2,2.4,2,3.9,2.4c0.2,0.1,0.3,0.3,0.3,0.5C590.5,472.1,590.4,472.2,590.2,472.2z"/>
		</g>
	</g>
	<g>
		<g>
			<path class="st12" d="M490.3,455.3c-0.1,0-0.2,0-0.3-0.1c-0.2-0.2-0.2-0.4,0-0.6c0.2-0.2,4.4-4.6,6.3-5.9
				c0.2-0.1,0.4-0.1,0.6,0.1c0.1,0.2,0.1,0.4-0.1,0.6c-1.9,1.3-6.1,5.7-6.2,5.8C490.5,455.2,490.4,455.3,490.3,455.3z"/>
		</g>
	</g>
	<g>
		<path class="st13" d="M565.6,427.8l-9.8-1.2c-1.3-0.2-2.3-1.4-2.1-2.7l2.1-17.3c0.2-1.3,1.4-2.3,2.7-2.1l9.8,1.2
			c1.3,0.2,2.3,1.4,2.1,2.7l-2.1,17.3C568.1,427,566.9,428,565.6,427.8z"/>
	</g>
</g>
</svg>
