<?xml version="1.0" encoding="utf-8"?>
<!-- Generator: Adobe Illustrator 16.0.3, SVG Export Plug-In . SVG Version: 6.00 Build 0)  -->
<!DOCTYPE svg PUBLIC "-//W3C//DTD SVG 1.1//EN" "http://www.w3.org/Graphics/SVG/1.1/DTD/svg11.dtd">
<svg version="1.1" id="Capa_1" xmlns="http://www.w3.org/2000/svg" xmlns:xlink="http://www.w3.org/1999/xlink" x="0px" y="0px"
	 width="750px" height="1624px" viewBox="0 0 750 1624" enable-background="new 0 0 750 1624" xml:space="preserve">
<g>
	<rect x="1" y="2" fill="#6228CF" width="750" height="1624"/>
	<g>
		<path fill="#7F51D6" d="M82.368,1049.939c42.712-42.703,85.425-85.407,128.137-128.11c-0.479-0.479-0.959-0.96-1.439-1.439
			c-42.743,42.737-85.486,85.476-128.229,128.21C81.348,1049.047,81.858,1049.493,82.368,1049.939z"/>
		<path fill="#7D4ED5" d="M391.834,557.02c-41.155,41.179-82.31,82.354-123.464,123.53c0.596,0.602,1.192,1.198,1.788,1.798
			c41.149-41.153,82.303-82.311,123.455-123.465C393.02,558.262,392.427,557.641,391.834,557.02z"/>
		<path fill="#5723B5" d="M689.976,718.318c-24.049,24.05-48.098,48.1-72.146,72.146c0.396,0.399,0.797,0.798,1.195,1.197
			c24.047-24.051,48.094-48.104,72.142-72.153C690.769,719.113,690.372,718.716,689.976,718.318z"/>
		<path fill="#5623B5" d="M244.379,1129.032c21.042-21.042,42.085-42.084,63.128-63.126c-0.417-0.418-0.833-0.836-1.25-1.254
			c-21.042,21.043-42.083,42.085-63.125,63.127C243.547,1128.197,243.963,1128.614,244.379,1129.032z"/>
		<path fill="#8457D7" d="M553.355,333.729c-19.012,19.041-38.021,38.082-57.03,57.123c0.397,0.404,0.799,0.81,1.199,1.214
			c19.061-19.014,38.122-38.028,57.183-57.042C554.257,334.592,553.807,334.16,553.355,333.729z"/>
		<path fill="#7F50D5" d="M95.961,775.763c10.103-10.249,20.205-20.498,30.308-30.747c-0.374-0.377-0.747-0.753-1.12-1.13
			c-10.167,10.194-20.334,20.39-30.501,30.582C95.086,774.899,95.523,775.331,95.961,775.763z"/>
		<path fill="#8051D6" d="M327.269,430.105c9.417-9.434,18.833-18.863,28.249-28.297c-0.478-0.478-0.953-0.955-1.433-1.434
			c-9.417,9.431-18.835,18.86-28.253,28.291C326.311,429.146,326.79,429.626,327.269,430.105z"/>
		<path fill="#8052D6" d="M643.695,911.514c9.382-9.152,18.765-18.31,28.146-27.464c-0.544-0.557-1.088-1.112-1.633-1.67
			c-9.248,9.28-18.496,18.562-27.743,27.84C642.875,910.651,643.285,911.083,643.695,911.514z"/>
		<path fill="#8457D7" d="M700.378,1162.841c-10.508,10.513-21.015,21.025-31.521,31.538c0.33,0.336,0.662,0.673,0.993,1.009
			c10.534-10.54,21.068-21.081,31.604-31.622C701.095,1163.457,700.736,1163.149,700.378,1162.841z"/>
		<path fill="#8355D7" d="M307.633,918.123c10.183-10.169,20.362-20.337,30.543-30.506c-0.328-0.332-0.656-0.664-0.981-0.996
			c-10.198,10.207-20.396,20.415-30.597,30.622C306.943,917.536,307.288,917.829,307.633,918.123z"/>
		<path fill="#8457D7" d="M709.723,570.015c-10.244,10.212-20.486,20.426-30.729,30.637c0.479,0.485,0.964,0.975,1.445,1.461
			c10.135-10.322,20.269-20.646,30.4-30.968C710.467,570.767,710.095,570.391,709.723,570.015z"/>
		<path fill="#5723B6" d="M708.043,985.398c-8.063,8.036-16.126,16.073-24.189,24.111c0.384,0.384,0.765,0.77,1.146,1.151
			c8.057-8.045,16.113-16.089,24.169-24.134C708.792,986.152,708.418,985.775,708.043,985.398z"/>
	</g>
</g>
<g id="Capa_2" display="none">
</g>
<g>
	<g>
		<g>
			<path fill="#5924B9" d="M684.322,1261.132c0,10.418-110.076,18.857-245.861,18.857c-135.791,0-245.87-8.439-245.87-18.857
				c0-10.407,110.079-18.846,245.87-18.846C574.246,1242.286,684.322,1250.725,684.322,1261.132z"/>
			<g>
				<g>
					<g>
						<path fill="#E3E7E8" d="M421.797,730.828l-21.837,14.217l5.04,68.313c8.691-18.15,17.381-36.302,26.074-54.452
							L421.797,730.828z"/>
						<path fill="#C5D3D6" d="M431.074,758.905c-8.693,18.15-17.383,36.302-26.074,54.452l0.31,4.225
							c0.823,11.114,9.896,19.703,20.818,19.703h5.908l4.631-37.326l2.176-17.554l-3.896-11.786L431.074,758.905z"/>
					</g>
					<g>
						<polygon fill="#EDB698" points="428.042,717.935 408.06,706.696 392.185,749.011 410.111,754.963 						"/>
						<polygon fill="#EDB698" points="426.588,720.939 433.982,727.352 423.938,743.392 417.313,740.09 						"/>
					</g>
				</g>
				<g>
					<g>
						<polygon fill="#808285" points="561.543,443.267 556.804,440.973 439.729,692.787 444.472,695.083 						"/>
						<path fill="#58595B" d="M438.034,691.967l-35.564,76.499c-3.9,8.385-13.756,11.969-21.976,7.993
							c-8.218-3.977-11.731-14.036-7.833-22.421l1.286-2.766l-8.129-3.934l-1.288,2.764c-6.026,12.959-0.594,28.505,12.105,34.654
							c12.703,6.147,27.937,0.606,33.962-12.355l35.566-76.498L438.034,691.967z"/>
					</g>
					<g>
						<path fill="#BA0000" d="M563.891,431.981c-83.894-40.609-177.362-36.087-254.104,3.956l102.975,49.843
							C465.772,434.255,521.948,411.679,563.891,431.981z"/>
						<path fill="#BA0000" d="M563.891,431.981c41.938,20.302,60.335,78.973,54.767,153.462l102.971,49.844
							C703.478,549.313,647.782,472.589,563.891,431.981z"/>
						<path fill="#E50000" d="M563.891,431.981c-41.942-20.302-98.118,2.273-151.13,53.799l205.896,99.663
							C624.226,510.955,605.829,452.283,563.891,431.981z"/>
					</g>
				</g>
				<g>
					<g>
						<path fill="#FFBB04" d="M618.489,764.608c-20.837,6.089-45.055-3.087-56.949-21.579c-3.577-5.566-6.063-11.733-8.551-17.904
							c2.594,17.232,2.058,34.958-1.702,51.957c13.663,15.106,31.059,26.567,50.707,30.109
							C613.345,796.958,619.687,780.013,618.489,764.608z"/>
						<path fill="#E59E00" d="M552.989,725.125c-1.837-4.551-3.679-9.103-5.966-13.419c-8.64-16.314-23.854-28.874-41.3-34.083
							c7.462,27.278,16.754,56.229,31.334,80.326c4.1,6.776,8.885,13.226,14.229,19.133
							C555.047,760.083,555.583,742.358,552.989,725.125z"/>
					</g>
					<g>
						<polygon fill="none" points="475.521,866.391 518.064,871.833 475.521,866.391 						"/>
						<path fill="#E3E7E8" d="M483.102,754.963l52.105,26.423c1.481-8.02,2.594-16.065,2.869-24.149
							c0.974-28.482-10.467-57.072-28.75-78.619c-18.546,1.324-36.584,9.229-50.302,22.043c-8.614,8.045-14.312,18.808-17.1,30.379
							c-7.717,32.054-13.684,66.201-24.035,98.124c-2.308,7.117-1.466,14.883,2.196,21.382c1.79,3.185,3.589,6.367,5.521,9.459
							l49.913,6.385l30.203-47.617L483.102,754.963z"/>
						<path fill="#C5D3D6" d="M524.497,852.88c-1.447-23.759,6.282-47.507,10.71-71.494l-52.105-26.423l22.622,63.81l-30.203,47.617
							l42.544,5.442c0.021-0.023,0.04-0.049,0.06-0.074C522.522,866.497,524.919,859.779,524.497,852.88z"/>
					</g>
					<polygon fill="#D1D3D4" points="425.607,860.006 421.347,876.298 520.007,889.192 518.064,871.833 					"/>
					<g>
						<g>
							<polygon fill="#90B4BB" points="360.104,1024.871 313.449,1190.707 358.81,1202.944 408.06,1040.058 428.042,1014.297 
								428.042,877.174 							"/>
							<polygon fill="#6D9AA0" points="428.042,877.174 428.042,1014.297 444.785,992.708 							"/>
						</g>
						<g>
							<path fill="#072A6E" d="M319.219,1192.267l-5.318,11.472c-5.299,11.439-14.541,20.487-25.957,25.415l-24.213,10.455
								c-5.91,2.555-10.542,7.464-12.818,13.584l0,0h102.711l-4.924-52.977L319.219,1192.267z"/>
							<g>
								<path fill="#E3E7E8" d="M305.429,1242.286c-0.669,0-1.325-0.362-1.684-0.991l-10.937-19.346
									c-0.537-0.945-0.218-2.157,0.713-2.707c0.924-0.549,2.119-0.226,2.656,0.726l10.936,19.343
									c0.538,0.948,0.217,2.16-0.711,2.705C306.095,1242.195,305.761,1242.286,305.429,1242.286z"/>
							</g>
							<g>
								<path fill="#E3E7E8" d="M315.88,1235.339c-0.573,0-1.136-0.257-1.521-0.74l-13.609-17.36
									c-0.669-0.855-0.533-2.102,0.305-2.79c0.841-0.686,2.062-0.54,2.734,0.313l13.607,17.355
									c0.669,0.855,0.534,2.105-0.304,2.791C316.733,1235.196,316.307,1235.339,315.88,1235.339z"/>
							</g>
							<g>
								<path fill="#E3E7E8" d="M325.112,1226.662c-0.466,0-0.935-0.168-1.307-0.515l-16.04-14.877
									c-0.793-0.737-0.852-1.992-0.13-2.804c0.723-0.812,1.957-0.871,2.747-0.13l16.04,14.872
									c0.794,0.737,0.852,1.992,0.131,2.803C326.168,1226.445,325.641,1226.662,325.112,1226.662z"/>
							</g>
						</g>
					</g>
					<g>
						<g>
							<path fill="#D38C6C" d="M496.446,658.106c-1.411-3.344-2.829-6.677-4.214-10.043c-12.496,4.489-24.775,8.097-37.271,12.585
								c4.517,4.732,9.05,9.485,12.843,14.838c0.685,0.968,1.314,1.985,1.948,2.996
								C479.873,673.599,489.028,666.663,496.446,658.106z"/>
							<path fill="#EDB698" d="M506.722,682.612c-3.378-8.213-6.84-16.348-10.275-24.505c-7.418,8.557-16.573,15.493-26.694,20.376
								c2.855,4.576,5.113,9.545,6.101,14.858C486.046,689.497,496.53,686.455,506.722,682.612z"/>
						</g>
						<path fill="#754F46" d="M442.297,609.424c-6.487-3.873-11.71-10.039-14.115-17.303c-2.406-7.262-1.861-15.578,1.851-22.245
							c5.959-10.699,19.359-15.66,31.244-13.568c11.886,2.094,22.139,10.2,29.277,20.118c8.818-2.695,18.769-0.201,26.458,4.963
							c7.691,5.165,12.967,13.909,14.028,23.238c1.227,10.809-3.164,21.896-10.683,29.613c-7.513,7.717-17.89,12.193-28.478,13.477
							c-5.135,0.623-10.494,0.504-15.289-1.483c-7.588-3.149-12.658-10.429-16.956-17.547
							C455.337,621.565,449.371,613.645,442.297,609.424z"/>
						<path fill="#EDB698" d="M440.429,597.319c-3.123,14.141-11.523,27-23.116,35.379c2.908,1.26,6.174,3.186,9.082,4.448
							c0.227,6.445,1.678,13.666,3.898,19.704c2.217,6.041,6.785,11.556,12.918,13.115c4.052,1.031,8.32,0.265,12.37-0.75
							c13.615-3.404,26.552-9.582,37.837-18.063c3.714,2.718,9.973,0.992,12.56-2.857c2.585-3.85,2.174-9.299-0.365-13.181
							c-1.892-2.893-4.926-5.056-8.3-5.549c-3.378-0.493-7.02,0.814-9.119,3.556c-2.096,2.741-2.401,6.867-0.491,9.746
							c-1.627-1.149-4.032-2.141-5.658-3.289c0.299-6.371,0.684-13.053,0.983-19.423c-3.564-2.229-7.641-4.598-11.202-6.829
							c0.6-4.388,1.589-8.841,2.188-13.228C463.418,598.675,451.029,598.743,440.429,597.319z"/>
					</g>
					<path fill="#FFBB04" d="M513.841,676.588c-0.447-2.281-0.928-4.595-1.361-6.861c-0.916-4.804-5.39-7.978-10.123-7.181
						c-16.865,2.845-33.5,8.418-48.587,16.569c-4.198,2.266-5.458,7.813-2.713,11.767l4.768,6.858
						c2.281,3.281,6.552,4.294,10.06,2.461c12.094-6.322,26.818-10.977,40.442-12.962
						C511.387,686.503,514.844,681.7,513.841,676.588z"/>
					<g>
						<g>
							<path fill="#072A6E" d="M591.632,1202.944L591.632,1202.944c6.667,4.409,9.323,13.028,6.338,20.541l-3.924,9.872
								l-3.063,1.301c-7.907,3.362-13.919,10.163-16.38,18.534l0,0h49.251l23.329-56.181l-33.946-18.694L591.632,1202.944z"/>
							<g>
								<path fill="#E3E7E8" d="M610.895,1229.387c-0.108,0-0.216-0.008-0.327-0.024l-17.017-2.978
									c-1.054-0.185-1.766-1.211-1.585-2.292c0.181-1.076,1.166-1.802,2.246-1.618l17.01,2.979
									c1.06,0.181,1.771,1.208,1.588,2.286C612.646,1228.707,611.826,1229.387,610.895,1229.387z"/>
							</g>
							<g>
								<path fill="#E3E7E8" d="M613.188,1221.497c-0.035,0-0.076,0-0.116,0l-17.228-1.036c-1.077-0.063-1.891-1.007-1.827-2.096
									c0.062-1.098,0.969-1.908,2.053-1.867l17.229,1.036c1.075,0.061,1.89,1.003,1.829,2.095
									C615.069,1220.685,614.207,1221.497,613.188,1221.497z"/>
							</g>
							<g>
								<path fill="#E3E7E8" d="M596.011,1215.128c-0.965,0-1.803-0.733-1.929-1.736c-0.136-1.08,0.619-2.073,1.683-2.212
									l17.123-2.229c1.087-0.114,2.037,0.635,2.173,1.722c0.136,1.084-0.619,2.076-1.684,2.215l-17.123,2.226
									C596.17,1215.121,596.09,1215.128,596.011,1215.128z"/>
							</g>
						</g>
						<g>
							<path fill="#6D9AA0" d="M480.642,918.948l11.845-19.94l6.075-12.621l-33.251-4.344
								C462.991,902.772,480.642,918.948,480.642,918.948z"/>
							<path fill="#90B4BB" d="M505.724,1049.869l10.225-161.206l-17.387-2.276l-6.075,12.621l-11.845,19.94
								c0,0-17.65-16.176-15.331-36.905l-37.269-4.869l25.072,173.021c1.47,10.131,5.865,19.578,12.63,27.144l119.219,133.204
								l33.671-38.378L505.724,1049.869z"/>
						</g>
					</g>
					<path fill="#E3E7E8" d="M484.969,758.877l34.554,61.383l-52.977,55.541c-1.108,12.635,4.752,25.148,15.073,32.222l73.02-60.583
						c9.243-7.669,12.737-20.454,8.718-31.898l-28.303-80.531c-3.123-8.893-9.702-16.083-18.183-19.874l0,0
						c-13.748-6.146-29.706,1.012-34.562,15.502l-0.004,0.006C479.17,740.009,480.139,750.296,484.969,758.877z"/>
				</g>
			</g>
		</g>
	</g>
</g>
</svg>
