<?xml version="1.0" encoding="utf-8"?>
<!-- Generator: Adobe Illustrator 16.0.3, SVG Export Plug-In . SVG Version: 6.00 Build 0)  -->
<!DOCTYPE svg PUBLIC "-//W3C//DTD SVG 1.1//EN" "http://www.w3.org/Graphics/SVG/1.1/DTD/svg11.dtd">
<svg version="1.1" id="Capa_1" xmlns="http://www.w3.org/2000/svg" xmlns:xlink="http://www.w3.org/1999/xlink" x="0px" y="0px"
	 width="750px" height="1624px" viewBox="0 0 750 1624" enable-background="new 0 0 750 1624" xml:space="preserve">
<g>
	<rect x="1" y="2" fill="#6228CF" width="750" height="1624"/>
	<g>
		<path fill="#7F51D6" d="M82.368,1049.939c42.712-42.703,85.425-85.407,128.137-128.11c-0.479-0.479-0.959-0.96-1.439-1.439
			c-42.743,42.737-85.486,85.477-128.229,128.21C81.348,1049.047,81.858,1049.493,82.368,1049.939z"/>
		<path fill="#7D4ED5" d="M391.834,557.02c-41.155,41.18-82.31,82.354-123.464,123.53c0.596,0.603,1.192,1.198,1.788,1.798
			c41.148-41.152,82.303-82.311,123.455-123.465C393.02,558.262,392.427,557.641,391.834,557.02z"/>
		<path fill="#5723B5" d="M689.976,718.318c-24.049,24.05-48.098,48.1-72.146,72.146c0.396,0.399,0.797,0.798,1.195,1.197
			c24.047-24.051,48.094-48.104,72.142-72.153C690.769,719.113,690.372,718.716,689.976,718.318z"/>
		<path fill="#5623B5" d="M244.379,1129.032c21.042-21.042,42.085-42.084,63.128-63.126c-0.417-0.418-0.833-0.836-1.25-1.254
			c-21.042,21.043-42.083,42.085-63.125,63.127C243.547,1128.197,243.963,1128.614,244.379,1129.032z"/>
		<path fill="#8457D7" d="M553.355,333.729c-19.013,19.041-38.021,38.082-57.03,57.123c0.396,0.404,0.799,0.81,1.199,1.214
			c19.061-19.014,38.122-38.028,57.183-57.042C554.257,334.592,553.807,334.16,553.355,333.729z"/>
		<path fill="#7F50D5" d="M95.961,775.763c10.103-10.249,20.205-20.498,30.308-30.747c-0.374-0.377-0.747-0.753-1.12-1.13
			c-10.167,10.194-20.334,20.391-30.501,30.582C95.086,774.899,95.523,775.331,95.961,775.763z"/>
		<path fill="#8051D6" d="M327.269,430.105c9.417-9.435,18.833-18.863,28.249-28.298c-0.478-0.478-0.952-0.954-1.433-1.434
			c-9.417,9.431-18.835,18.86-28.253,28.291C326.311,429.146,326.79,429.626,327.269,430.105z"/>
		<path fill="#8052D6" d="M643.695,911.514c9.382-9.151,18.765-18.31,28.146-27.464c-0.544-0.557-1.088-1.112-1.633-1.67
			c-9.248,9.28-18.496,18.563-27.743,27.84C642.875,910.651,643.285,911.083,643.695,911.514z"/>
		<path fill="#8457D7" d="M700.378,1162.841c-10.508,10.513-21.015,21.025-31.521,31.538c0.33,0.336,0.661,0.673,0.992,1.009
			c10.534-10.54,21.068-21.081,31.604-31.622C701.095,1163.457,700.736,1163.149,700.378,1162.841z"/>
		<path fill="#8355D7" d="M307.633,918.123c10.184-10.169,20.362-20.337,30.543-30.506c-0.328-0.332-0.656-0.664-0.98-0.996
			c-10.198,10.207-20.396,20.415-30.598,30.622C306.943,917.536,307.288,917.829,307.633,918.123z"/>
		<path fill="#8457D7" d="M709.723,570.015c-10.244,10.212-20.485,20.427-30.729,30.638c0.479,0.484,0.964,0.975,1.445,1.461
			c10.135-10.322,20.269-20.646,30.399-30.969C710.467,570.767,710.095,570.391,709.723,570.015z"/>
		<path fill="#5723B6" d="M708.043,985.398c-8.063,8.035-16.126,16.072-24.189,24.11c0.385,0.384,0.766,0.771,1.146,1.151
			c8.057-8.045,16.113-16.089,24.169-24.134C708.792,986.152,708.418,985.775,708.043,985.398z"/>
	</g>
</g>
<g id="Capa_2" display="none">
</g>
<g>
	<g>
		<path fill="#5924B9" d="M703.896,1256.123c0,9.983-110.978,18.079-247.871,18.079c-136.897,0-247.875-8.096-247.875-18.079
			c0-9.988,110.977-18.082,247.875-18.082C592.919,1238.041,703.896,1246.135,703.896,1256.123z"/>
		<g>
			<g>
				<g>
					<path fill="#1D1D1D" d="M412.056,815.482l-10.947-32.872l-15.643,6.225l-4.366,23.27
						C390.752,816.194,401.719,817.408,412.056,815.482z"/>
					<path fill="#1D1D1D" d="M412.056,815.482c-10.337,1.926-21.304,0.712-30.956-3.377l-3.89,20.709
						c-1.634,8.708,2.974,17.399,11.226,21.167l1.004,0.458c8.939,4.083,19.612,1.262,25.182-6.666l0,0
						c3.505-4.985,4.438-11.268,2.523-17.013L412.056,815.482z"/>
				</g>
				<path fill="#D38C6C" d="M410.681,767.675l-15.85-11.42c-4.351-3.129-10.563-1.69-12.985,3.012l-13.138,25.508
					c-2.292,4.454-0.15,9.856,4.623,11.662l15.361,5.821c4.015,1.521,8.541-0.424,10.08-4.336L410.681,767.675z"/>
			</g>
			<g>
				<g>
					<polygon fill="#808285" points="491.819,467.209 486.505,465.691 405.05,734.107 410.363,735.629 					"/>
					<path fill="#58595B" d="M403.15,733.564l-24.745,81.543c-2.712,8.938-12.409,14.069-21.618,11.438
						c-9.208-2.639-14.493-12.05-11.778-20.988l0.895-2.946l-9.109-2.609l-0.895,2.951c-4.193,13.813,3.973,28.363,18.205,32.431
						c14.23,4.07,29.216-3.857,33.409-17.672l24.746-81.54L403.15,733.564z"/>
				</g>
				<g>
					<path fill="#FFA300" d="M492.441,455.642c-93.992-26.88-190.696-7.474-264.237,44.484l115.373,32.996
						C390.537,473.561,445.451,442.203,492.441,455.642z"/>
					<path fill="#FFA300" d="M492.441,455.642c46.993,13.439,75.629,68.689,81.824,143.449l115.371,32.996
						C656.86,549.72,586.435,482.524,492.441,455.642z"/>
					<path fill="#FFBD00" d="M492.441,455.642c-46.99-13.439-101.904,17.919-148.864,77.479l230.688,65.97
						C568.07,524.331,539.435,469.081,492.441,455.642z"/>
				</g>
			</g>
			<g>
				<g>
					<g>
						<path fill="#500E59" d="M540.517,750.882c-4.215-9.39-13.703-17.498-12.352-27.655c0.89-6.672,6.476-12.196,6.883-18.91
							c0.358-5.879-3.387-11.299-7.827-15.311c-4.441-4.015-9.713-7.125-13.896-11.391c-8.813-8.992-11.746-21.946-12.883-34.303
							c-1.135-12.361-0.881-25.026-4.826-36.829c-6.221-18.622-23.354-33.394-43.134-37.199
							c-19.783-3.802-43.028,2.999-52.233,22.312c-13.483,7.389-20.653,22.461-23.458,37.25
							c-3.968,20.917-0.752,43.056,9.021,62.094c9.774,19.037,26.049,34.862,45.646,44.381
							c30.931,15.026,56.964,44.011,89.602,55.122C537.513,786.042,547.336,766.07,540.517,750.882z M440.153,724.787
							c-29.933-14.439-49.719-46.726-48.513-79.15c21.576,6.235,41.044,21.235,52.926,39.799c4.199,6.557,7.581,13.866,7.891,21.584
							C452.766,714.737,446.847,720.615,440.153,724.787z"/>
						<path fill="#3C0043" d="M391.641,645.637c-1.206,32.424,18.58,64.711,48.513,79.15c6.693-4.171,12.612-10.049,12.304-17.766
							c-0.31-7.718-3.691-15.028-7.891-21.584C432.685,666.872,413.217,651.872,391.641,645.637z"/>
					</g>
					<g>
						<path fill="#D38C6C" d="M442.18,672.91c-0.514-0.732-1.022-1.469-1.492-2.18l-18.035,4.639
							c3.089,4.249,5.704,8.808,7.914,13.542C435.314,684.238,439.235,678.821,442.18,672.91z"/>
						<path fill="#EDB698" d="M457.325,689.286c-4.309-2.538-10.535-9.774-15.146-16.376c-2.944,5.911-6.865,11.329-11.613,16.001
							c1.598,3.423,3.009,6.924,4.11,10.522L457.325,689.286z"/>
					</g>
					<path fill="#EDB698" d="M433.389,633.407c-7.248-2.02-14.489-4.41-20.777-8.445c-5.971-3.83-11.027-9.329-13.19-15.924
						c-3.585,3.258-5.377,8.178-6.068,12.966c-0.782,5.442-0.417,10.995-1.226,16.433c-0.809,5.435-3.068,11.041-7.753,14.123
						c3.163,0.995,5.632,2.172,8.794,3.163c1.056,4.74,2.002,9.56,4.106,13.954c2.104,4.396,5.369,8.433,9.829,10.613
						c5.277,2.575,11.659,2.266,17.259,0.428c5.597-1.834,16.05-9.412,16.325-9.987c-0.612-0.996-1.217-1.992-1.758-3.024
						C433.512,657.356,430.848,644.748,433.389,633.407z"/>
				</g>
				<g>
					<g>
						<path fill="#06296C" d="M340.386,1206.262l46.501,9.293l44.639-135.454c-18.465-2.824-36.652-7.318-54.21-13.545
							L340.386,1206.262z"/>
						<path fill="#052150" d="M386.887,1030.342l-9.571,36.214c17.558,6.227,35.745,10.721,54.21,13.545l11.832-35.896
							L386.887,1030.342z"/>
						<path fill="#06296C" d="M592.729,1166.429l-41.169-91.978c-18.776,4.786-38.049,7.662-57.432,8.712l60.305,107.166
							L592.729,1166.429z"/>
						<path fill="#052150" d="M538.021,1044.204h-65.817l21.925,38.959c19.383-1.05,38.655-3.926,57.432-8.712L538.021,1044.204z"/>
					</g>
					<g>
						<path fill="#EDB698" d="M378.154,1234.778l-0.839-21.138l-33.776-6.749l-18.651,15.833c-1.628,1.383-3.358,2.637-5.131,3.83
							C338.339,1233.232,358.382,1236.044,378.154,1234.778z"/>
						<path fill="#06296C" d="M319.758,1226.555c-3.688,2.479-7.646,4.569-11.844,6.153l-5.969,2.255
							c-8.049,3.04-15.01,8.292-20.031,15.113h96.845l-0.604-15.298C358.382,1236.044,338.339,1233.232,319.758,1226.555z"/>
					</g>
					<g>
						<path fill="#EDB698" d="M604.073,1180.722l-14.35-12.414l-30.251,18.88l0.229,1.44c1.183,7.346,0.848,14.8-0.915,21.948
							C577.622,1208.536,595.25,1197.027,604.073,1180.722z"/>
						<path fill="#06296C" d="M604.073,1180.722c-8.823,16.306-26.451,27.814-45.287,29.854c-1.089,4.398-2.708,8.687-4.869,12.752
							l-5.11,9.644c-3.404,6.414-3.661,13.974-0.699,20.589l72.83-58.251L604.073,1180.722z"/>
					</g>
				</g>
				<g>
					<g>
						<path fill="#1D1D1D" d="M436.495,757.675l55.706,74.172l-34.876,47.8l22.054,30.868l65.898-20.617
							c-1.149-20.268-1.467-40.521-0.771-60.672c1.055-30.534-11.803-60.271-29.261-87.397l-43.563-24.155L436.495,757.675z"/>
						<path fill="#3C3C3C" d="M479.379,910.515l-22.054-30.868l34.876-47.8l-55.706-74.172l35.187-40.001l43.563,24.155
							c-9.196-14.287-19.646-27.861-30.062-40.42c-8.256-9.955-21.497-15.113-34.431-12.728
							c-17.24,3.176-25.548,16.861-33.194,29.852c-3.64,6.184-7.28,12.37-10.92,18.553c-5.303,9.009-7.61,19.354-6.808,29.704
							c3.348,43.234,4.48,87.343,3.547,130.49c-1.047,48.447-7.637,97.168-24.619,142.735c62.634,17.82,127.956,24.051,192.27,13.27
							c-13.221-53.226-22.638-108.344-25.751-163.388L479.379,910.515z"/>
					</g>
					<path fill="#1D1D1D" d="M478.182,927.447c-14.021-13.222-25.831-28.65-34.824-45.506
						C446.073,901.316,459.839,919.37,478.182,927.447z"/>
					<path fill="#1D1D1D" d="M466.453,1044.204c0.699-33.942,1.398-67.886,2.103-101.826
						C473.988,975.69,473.404,1011.154,466.453,1044.204z"/>
					<path fill="#1D1D1D" d="M463.91,854.747c0.263-16.702,0.527-33.406,0.786-50.108
						C468.246,820.086,467.234,839.252,463.91,854.747z"/>
				</g>
				<path fill="#3C3C3C" d="M440.202,762.167l74.056,72.669l-56.933,44.811l22.054,30.868l79.623-54.208
					c17.623-12.003,19.873-36.517,4.712-51.35l-83.286-81.479c-10.843-10.609-28.437-10.859-39.6-0.567l0,0
					C429.331,733.516,429.048,751.221,440.202,762.167z"/>
			</g>
		</g>
	</g>
</g>
</svg>
