<?xml version="1.0" encoding="utf-8"?>
<!-- Generator: Adobe Illustrator 22.0.1, SVG Export Plug-In . SVG Version: 6.00 Build 0)  -->
<svg version="1.1" id="Capa_1" xmlns="http://www.w3.org/2000/svg" xmlns:xlink="http://www.w3.org/1999/xlink" x="0px" y="0px"
	 viewBox="0 0 750 1624" style="enable-background:new 0 0 750 1624;" xml:space="preserve">
<style type="text/css">
	.st0{fill:#6228cf;}
	.st1{fill:#FAC907;}
	.st2{fill:#01637F;}
	.st3{fill:#FBE5CA;}
	.st4{fill:#F29F9F;}
	.st5{fill:#FFFFFF;}
	.st6{fill:#F23253;}
	.st7{fill:#CE2B63;}
	.st8{fill:#E4F2FB;}
	.st9{fill:#1CB7C0;}
	.st10{fill:#F4A1A1;}
</style>
<rect x="0.1" y="0.1" class="st0" width="749.9" height="1623.7"/>
<g>
	<g>
		<g>
			<g>
				<path class="st1" d="M474.6,524.5c-7.2-7.8-17.8-14.7-33.3-16.1c0,0,9-2.8,10.4-5.5c1.4-2.8-5.5-2.8-19.4,2.1
					c-13.8,4.8-38.8,9.7-52.6,31.8c-13.8,22.1-15.9,86.5-45,135.7S216.3,826.8,190,894s-4.8,121.1,0.7,122.5
					c5.5,1.4,1.4-5.5,1.4-5.5s36.7,61.6,65.8,76.8c29.1,15.2,112.1,39.5,165.4,33.2c53.3-6.2,98.3-10.4,135-49.1
					c36.7-38.8,63-108.7,58.1-139.1c0,0,4.2,11.1,6.2,6.9c2.1-4.2-2.1-34.6-7.6-49.8c-5.5-15.2-33.2-99-76.1-148.8
					s-48.5-127.4-49.1-152.3c-0.3-12.6-0.7-22.4-1-28.9C488.3,546.8,483.4,534.1,474.6,524.5z"/>
			</g>
		</g>
	</g>
	<g>
		<g>
			<g>
				
					<ellipse transform="matrix(7.405460e-02 -0.9973 0.9973 7.405460e-02 -254.5383 1027.3445)" class="st2" cx="426" cy="650.7" rx="10.4" ry="32.1"/>
			</g>
		</g>
	</g>
	<g>
		<g>
			<g>
				<path class="st3" d="M403.2,665.8l4.8-53c0,0-0.7-9.2-9.7-9.2s-22.1-4.6-20.8-19c1.4-14.4,19.4-15.7,22.1-7.2
					c0,0,14.5,11.8,30.5-2c15.9-13.7,24.9-36,20.8-49.1c0,0,18.7,3.9,24.2,22.9c5.5,19,2.1,38,0.7,49.1s-4,16.3-13.7,23.5
					c-9.7,7.2-11.6,1.7-14.7,25c-2.3,17.7-0.7,23.6-0.7,23.6S421.2,670.4,403.2,665.8z"/>
			</g>
		</g>
	</g>
	<g>
		<g>
			<g>
				<path class="st1" d="M462.9,562.3C462.9,562.3,462.9,562.3,462.9,562.3c0.5-0.2,2.1-1.2,3.5-1s2.7,1.4,3.5,2.5
					c0,0,0.3,0.4,0.6,0.2c0-0.1,0-0.3,0-0.5c-0.8-3.8-5.3-5.2-8.1-2.5C461.7,561.6,462.2,562.3,462.9,562.3z"/>
			</g>
		</g>
	</g>
	<g>
		<g>
			<g>
				<path class="st4" d="M476.9,589.9c0-0.3,0-0.5,0-0.8c0-0.5,0-1,0-1.5c-1.5-1.2-3.6-1.8-6.3-0.7c-0.2,0.1-0.4,0.2-0.5,0.2
					c-0.7,0.2-1.3,0.6-1.9,1c-2.7,2.1-4.5,5.8-4.1,9.2c0.4,3.4,3.1,6.1,6.5,6.3c0.7,0,1.3,0,2-0.2c0.2,0,0.5-0.1,0.7-0.1
					c0,0,0.8-0.2,1.9-0.8C476,598.4,476.5,594.2,476.9,589.9z"/>
			</g>
		</g>
	</g>
	<g>
		<g>
			<g>
				<path class="st4" d="M416.6,592.3c0,0.2,0,0.4,0,0.6c0,0.7,0.1,1.4,0.3,2.1c1.1,3.2,4,6.1,7.4,6.8c3.3,0.7,6.8-1,8-4.2
					c0.2-0.6,0.4-1.3,0.5-1.9c0-0.2,0.1-0.5,0.1-0.7c0,0,0.3-2.4-1.1-5.1c-1.4-2.7-4-4.2-6.2-4.6
					C423.3,584.8,416.2,585.5,416.6,592.3z"/>
			</g>
		</g>
	</g>
	<g>
		<g>
			<g>
				<g>
					<path class="st4" d="M451.3,592.2c0.1,0,0.2,0,0.3-0.1c1.2-0.5,2.5-1.7,2.5-1.7c0.1-0.1,0.2-0.3,0.2-0.5c0-0.2-0.1-0.4-0.2-0.5
						c-1.5-1.3-1.6-4.7-1.5-5.9c0-0.4-0.2-0.7-0.6-0.7c-0.4,0-0.7,0.2-0.7,0.6c0,0.2-0.4,4.3,1.4,6.5c-0.4,0.3-1.1,0.8-1.7,1.1
						c-0.3,0.1-0.5,0.5-0.3,0.8C450.8,592,451,592.2,451.3,592.2z"/>
				</g>
			</g>
		</g>
	</g>
	<g>
		<g>
			<g>
				<path class="st2" d="M436.5,578.8c0-0.2-0.1-0.4-0.1-0.7c-0.2-1.1-1.4-1.7-2.5-1.6c-0.9,0.1-1.8,0.9-1.9,1.9c0,0,0,0.1,0,0.1
					c-0.1,0.2-0.1,0.4-0.1,0.6c0,0.4,0,0.7,0.1,1.1c0,0.3,0,0.5,0.1,0.8c0,0,0,0.1,0,0.1c0.1,1.2,1,2.3,2.2,2.2c1.1,0,2.2-0.9,2.2-2
					c0,0,0-0.1,0-0.1C436.8,580.3,436.8,579.5,436.5,578.8z"/>
			</g>
		</g>
	</g>
	<g>
		<g>
			<g>
				<path class="st2" d="M461,580.3c0-0.2,0.1-0.4,0.1-0.7c0.2-1.1,1.4-1.7,2.5-1.6c0.9,0.1,1.8,0.9,1.9,1.9c0,0,0,0.1,0,0.1
					c0.1,0.2,0.1,0.4,0.1,0.6c0,0.4,0,0.7-0.1,1.1c0,0.3,0,0.5-0.1,0.8c0,0,0,0.1,0,0.1c-0.1,1.2-1,2.3-2.2,2.2
					c-1.1,0-2.2-0.9-2.2-2c0,0,0-0.1,0-0.1C460.7,581.9,460.7,581.1,461,580.3z"/>
			</g>
		</g>
	</g>
	<g>
		<g>
			<g>
				<path class="st5" d="M440.7,594.7l16.7,2.3c0,0-0.9,7.7-8.1,9.5C442,608.2,440.7,594.7,440.7,594.7z"/>
			</g>
		</g>
	</g>
	<g>
		<g>
			<g>
				<path class="st4" d="M386.3,588c0.2,0,3.8-0.6,7,0.9c-1.7-2.6-4.3-5.2-8.3-6.5c-0.3-0.1-0.5-0.5-0.4-0.8
					c0.1-0.3,0.5-0.5,0.8-0.4c10.2,3.1,12.1,14.6,12.1,14.8c0.1,0.3-0.2,0.7-0.5,0.7c0,0,0,0,0,0c-0.4,0.1-0.7-0.2-0.7-0.5
					c0,0-0.4-2.2-1.6-4.8c-0.1,0-0.1-0.1-0.2-0.1c-2.9-2.8-7.9-1.9-7.9-1.9c-0.3,0.1-0.7-0.2-0.7-0.5
					C385.7,588.4,385.9,588,386.3,588z"/>
			</g>
		</g>
	</g>
	<g>
		<g>
			<g>
				<path class="st6" d="M393.9,647.8c0,0,1.7,11.2,31,12.8c29.3,1.6,33.4-6.5,32.8-9.3c0,0,3,3,2.4,10.2s-3.9,10.5-2,18.4
					c2,7.9-7.8,15.1-22.8,15.8c-15,0.7-35.8-4.6-43.7-11.2c-7.8-6.6-0.7-13.8,0-19.7S390.3,653.8,393.9,647.8z"/>
			</g>
		</g>
	</g>
	<g>
		<g>
			<g>
				<g>
					<path class="st3" d="M395.5,1013c0,0-49.8,139.2-57.7,164s-63.4,170.8-75.8,194.6c0,0-5.7,12.4-7.9,19.2s-36.2,20.4-60,22.6
						c-23.8,2.3,4.5-14.7,20.4-21.5s27.2-7.9,33.9-37.3c6.8-29.4,38.5-173.1,48.6-211.6c10.2-38.5,40.7-195.7,62.2-235.3
						c21.5-39.6,17-65.6,17-76.9H468c0,0,6.8,38.5,9.1,55.4c2.3,17,21.5,62.2,15.8,121.1c-5.2,54.4-42.4,315.1-48,353.8
						c-0.4,2.9,1.1,5.7,3.8,6.9c6.9,3.2,20.2,9.1,28.4,11.5c11.3,3.4,12.4,11.3-14.7,7.9c-27.2-3.4-21.5-6.8-37.3-11.3
						c0,0,1.1-10.2,2.3-45.3c1.1-35.1,3.4-271.5,3.4-311.1c0,0-1.1-57.7-2.3-62.2s-5.7-13.6-12.4-1.1S395.5,1013,395.5,1013z"/>
				</g>
			</g>
		</g>
		<g>
			<g>
				<g>
					<path class="st2" d="M477,886.3c-2.3-17-9.1-55.4-9.1-55.4h-91.6c0,11.3,4.5,37.3-17,76.9c-21.5,39.6-52,196.9-62.2,235.3
						c-5.4,20.3-16.7,69.8-27.2,116.4c11.1,4.1,23.2,5.9,35.3,6c15.1-39.4,29-77,32.7-88.5c7.9-24.9,57.7-164,57.7-164
						s13.6-44.1,20.4-56.6c6.8-12.4,11.3-3.4,12.4,1.1c1.1,4.5,2.3,62.2,2.3,62.2c0,28.3-1.2,157.3-2.2,241.3
						c7.1,2.5,15.6,2.4,22.6,2.1c2.6-0.1,5.2-0.3,7.8-0.6c13-92.6,30.5-219.2,34-255.2C498.5,948.5,479.3,903.2,477,886.3z"/>
				</g>
			</g>
		</g>
		<g>
			<g>
				<g>
					<path class="st6" d="M224.1,1399.5c-5.4,0.4-10.8-2.6-14.6-5.2c-15.9,7.7-36.8,21.2-15.3,19.2c23.8-2.3,57.7-15.8,60-22.6
						c0.2-0.5,0.3-1,0.5-1.5C246.2,1393.6,231.8,1398.9,224.1,1399.5z"/>
				</g>
			</g>
		</g>
		<g>
			<g>
				<g>
					<path class="st6" d="M477,1379.5c-3.2-1-7.3-2.5-11.4-4.2c-5.7,3.9-7.9,5.7-14,4.7c-5.6-0.9-22.1-8.4-26.1-10.2
						c-0.3,4.5-0.5,6.2-0.5,6.2c15.8,4.5,10.2,7.9,37.3,11.3S488.3,1382.9,477,1379.5z"/>
				</g>
			</g>
		</g>
	</g>
	<g>
		<g>
			<g>
				<path class="st6" d="M473.8,683.7c0,0,25.6,10.9,34,24.1s16.5,42.8,16.5,42.8s3.1-34.8,5.6-45.6c2.4-10.8,8.7-13.5,15.1-16.3
					l1.2-8c0.5-3.1,3.3-5.3,6.4-4.9l18.5,2.3c3.3,0.4,5.5,3.5,5,6.7l-1.2,6.7c0,0,6.8,1,7.9,9.5c1.1,8.4-9.7,65.2-18.6,92.1
					c-8.9,26.9-22.6,46.8-39.3,49.9c-16.8,3.1-29-24.9-34.9-55.6C484.1,756.8,473.8,683.7,473.8,683.7z"/>
			</g>
		</g>
	</g>
	<g>
		<g>
			<g>
				<path class="st3" d="M551.9,678.3l4-21.5c0,0-7.4-6.5-11.1-16.6s-3.6-15.9-7.2-24.5c-3.5-8.6,5.9-4.8,7.9,3.9
					c1.9,8.8,7.4,13,9.8,12.7c2.4-0.3,4.6-15.3,5.7-26.1c1.1-10.8,3.9-14.4,8-14.9c0,0-1.8,18.3-0.9,25.5c0,0,3.9-1.3,6.8,1.6
					s3.4,1.2,6.3,4.1c2.8,2.9,5.3,3.4,4.7,11.7c-0.6,8.3-5.5,14.6-6.6,18.9c-1.1,4.2-8.4,5.2-8.6,10.1c-0.1,3.7-0.8,14.5-1.1,19.6
					c-0.1,1.4-1.5,2.3-2.8,1.9c-3.2-1-8.8-2.7-13.3-3.8C552.4,680.5,551.7,679.4,551.9,678.3z"/>
			</g>
		</g>
	</g>
	<g>
		<g>
			<g>
				<path class="st6" d="M388.7,676.9c0,0-33.5,10.7-45.7,18.5c-12.1,7.8-11.5,59.4,3.2,105.4c14.7,45.9,19.9,52,19.9,52
					s-8.7,4.3-1.7,13.9c0,0-10.4,13.9-18.2,32.9c-7.8,19.1-24.3,97-24.3,97s41.6,32.9,98.8,35.5c57.2,2.6,100.5-23.4,100.5-23.4
					s-11.3-51.4-24.3-89.5c-10.7-31.3-13.7-57.1-14.5-65.4c-0.1-1.5,0.1-3,0.9-4.4c0.9-1.6,1.8-4.1,0.8-6.9
					c-0.8-2.4-2.1-3.8-3.2-4.7c-1.5-1.2-2-3.3-1.2-5c5.1-11.3,20.5-46.3,23.3-65.7c3.5-23.4,9.5-43.3,0.9-59.8
					c-8.7-16.5-35.5-26.9-50.2-30.3S408.6,669.9,388.7,676.9z"/>
			</g>
		</g>
	</g>
	<g>
		<g>
			<g>
				<path class="st6" d="M366.5,689.6c0,0-20.7-3.5-30.5,13.3c-9.8,16.8-23.4,112.1-25.7,140c-2.3,27.9,52.7,70.6,75.6,79.2
					c23,8.6,42-10.6,45.6-27.2s-1.9-28.8-22.8-37.5c-20.9-8.7-40-25.6-45.4-33.7s17.8-95.4,18.3-112
					C382.1,695.4,377.9,691.4,366.5,689.6z"/>
			</g>
		</g>
	</g>
	<g>
		<g>
			<g>
				<path class="st7" d="M430.6,892.3l-0.8-0.2c3.9-14.2-2.3-20-2.3-20.1l0.5-0.6C428.3,871.6,434.7,877.6,430.6,892.3z"/>
			</g>
		</g>
	</g>
	<g>
		<g>
			<g>
				<path class="st8" d="M478.7,933.1l48.2,40.9c1.9,1.6,4.5,2.2,7,1.5l86-24.1c5.8-1.6,7.5-9.1,3-13.1l-97.3-84.9
					c-1.9-1.7-4.5-2.3-6.9-1.6l-82.7,21.4c-5.7,1.5-7.6,8.5-3.5,12.7l45.8,46.7C478.4,932.8,478.5,932.9,478.7,933.1z"/>
			</g>
		</g>
	</g>
	<g>
		<g>
			<g>
				<path class="st9" d="M614,941.2l-93.2-81.8c-0.4-0.4-1.1-0.5-1.6-0.4l-78.1,19.9c-1.4,0.3-1.8,2.1-0.8,3.1l89.2,85
					c0.5,0.4,1.1,0.6,1.7,0.4l82.1-23C614.7,943.9,615.1,942.2,614,941.2z"/>
			</g>
		</g>
	</g>
	<g>
		<g>
			<g>
				<path class="st8" d="M490.7,911.4l-32.3-28l56.2-14.2l25,22.2l-16.4,2.3l-14.2,3.5l-13.2,2.9L490.7,911.4z M460.8,883.9
					l29.5,25.6l4.6-10.3l13.7-3l14.2-3.5l14.1-2l-22.7-20.3L460.8,883.9z"/>
			</g>
		</g>
	</g>
	<g>
		<g>
			<g>
				<path class="st3" d="M458.7,894.4c-9.8-0.6-19.6-3-25.8-1.9c0,0-6.2-0.4-13.5-4c-3.2,4.8-5,9.6-5.4,15.4
					c3.8,1.3,8.5,3.4,10.5,5.8c3.7,4.3,7.5,14.8,20.2,21.6c12.6,6.7,33.7,1.6,33.7,1.6l-23.7-24.2c0,0-2.9-5.1,8.6-6.3
					c11.5-1.2,15.1,0.4,17.6-4.1C483.5,893.7,468.4,895,458.7,894.4z"/>
			</g>
		</g>
	</g>
	<g>
		<g>
			<g>
				<path class="st6" d="M558.9,915.8c0,0,8.1,8.7,3.6,19.1c-4.5,10.4-19.1,16.5-34.6,6.5s-4.7-34.7,16-32.5
					C564.5,911.2,558.9,915.8,558.9,915.8z"/>
			</g>
		</g>
	</g>
	<g>
		<g>
			<g>
				<path class="st7" d="M540.6,922.7l5.8-19.6c0.3-1.1,1.8-1.7,2.9-1L563,910c1.1,0.6,1,2-0.1,2.6l-19.5,11.7
					C541.9,925.2,540.1,924.1,540.6,922.7z"/>
			</g>
		</g>
	</g>
	<g>
		<g>
			<g>
				
					<ellipse transform="matrix(0.9995 -3.015448e-02 3.015448e-02 0.9995 -27.2315 15.2048)" class="st6" cx="490.5" cy="910.5" rx="4" ry="2.9"/>
			</g>
		</g>
	</g>
	<g>
		<g>
			<g>
				
					<rect x="484.8" y="875.5" transform="matrix(0.6932 -0.7208 0.7208 0.6932 -492.5268 622.6094)" class="st8" width="0.4" height="28.5"/>
			</g>
		</g>
	</g>
	<g>
		<g>
			<g>
				
					<rect x="498.9" y="872" transform="matrix(0.6932 -0.7208 0.7208 0.6932 -485.6284 631.6595)" class="st8" width="0.4" height="28.5"/>
			</g>
		</g>
	</g>
	<g>
		<g>
			<g>
				
					<rect x="512.6" y="868.8" transform="matrix(0.6932 -0.7208 0.7208 0.6932 -479.1395 640.5589)" class="st8" width="0.4" height="28.5"/>
			</g>
		</g>
	</g>
	<g>
		<g>
			<g>
				
					<ellipse transform="matrix(0.9995 -3.015448e-02 3.015448e-02 0.9995 -26.9045 15.3448)" class="st6" cx="495.3" cy="899.7" rx="4" ry="2.9"/>
			</g>
		</g>
	</g>
	<g>
		<g>
			<g>
				
					<ellipse transform="matrix(0.9995 -3.015448e-02 3.015448e-02 0.9995 -26.8088 15.7496)" class="st6" cx="508.8" cy="896.7" rx="4" ry="2.9"/>
			</g>
		</g>
	</g>
	<g>
		<g>
			<g>
				
					<ellipse transform="matrix(0.9995 -3.015448e-02 3.015448e-02 0.9995 -26.711 16.1985)" class="st6" cx="523.7" cy="893.7" rx="4" ry="2.9"/>
			</g>
		</g>
	</g>
	<g>
		<g>
			<g>
				
					<ellipse transform="matrix(0.9995 -3.015448e-02 3.015448e-02 0.9995 -26.6249 16.6369)" class="st7" cx="538.3" cy="891.1" rx="4" ry="2.9"/>
			</g>
		</g>
	</g>
	<g>
		<g>
			<g>
				<path class="st7" d="M407.3,922.7c8.5-2,14.1-7.5,17.6-12.5c-0.2-0.2-0.4-0.4-0.5-0.6c-3.4,4.9-8.9,10.4-17.2,12.4
					c-15.1,3.6-27.8,0.8-59.4-24.4l-0.5,0.6c24.8,19.8,38,25.9,50,25.9C400.6,924,403.9,923.5,407.3,922.7z"/>
			</g>
		</g>
		<g>
			<g>
				<path class="st7" d="M422.5,886.4l-0.5-0.5c-13.4,12.1-7,22.3-6.9,22.4l0.6-0.4C415.5,907.4,409.6,898.1,422.5,886.4z"/>
			</g>
		</g>
		<g>
			<g>
				<path class="st7" d="M426.9,891.3c0.1-0.3,2.7-7.5-0.9-11c-3.6-3.6-11.9-7.4-16.5-8.3c-1.5-0.3-3.9,1.1-6.5,3.8
					c-5.8,6.1-10.6,16.8-8.1,27.1c0.6,2.5,2.4,4.6,4.8,5.6c5.3,2.3,12.1,5,14.5,5c3.6,0,6.6-2.1,8.3-5.6l-0.7-0.4
					c-1.7,3.3-4.4,5.4-7.7,5.4c-1.7,0-6.8-1.8-14.2-5c-2.2-0.9-3.8-2.9-4.4-5.1c-2.4-10,2.3-20.5,8-26.4c2.3-2.4,4.5-3.8,5.8-3.6
					c4.5,0.8,12.7,4.6,16.1,8.1c3.2,3.2,0.8,10.2,0.7,10.3L426.9,891.3z"/>
			</g>
		</g>
		<g>
			<g>
				<path class="st7" d="M571.7,697.7c-20.4,0.3-26.2-5.7-26.4-8.9l-0.7,0c0,0.4,0.8,9.6,25.5,9.6c0.6,0,1.1,0,1.7,0L571.7,697.7z"
					/>
			</g>
		</g>
		<g>
			<g>
				<path class="st7" d="M404.1,690.2c11.2,3.5,20.2,5.6,28.6,5.6c6.6,0,13-1.3,19.8-4.3l-0.3-0.7c-15.2,6.8-28,4.9-47.9-1.3
					c-10.7-3.3-14.2-6.9-15.2-9.4c-0.8-1.8-0.1-3.1-0.1-3.1l-0.7-0.4c0,0.1-0.8,1.5,0.1,3.7C389.5,683,393,686.8,404.1,690.2z"/>
			</g>
		</g>
		<g>
			<g>
				<path class="st1" d="M365.6,793.2c0,0,8.8,16.9,8.8,21c0,4-5.4,17.3-5.4,17.3S357.6,826.9,365.6,793.2z"/>
			</g>
			<g>
				<path class="st7" d="M363,824c6.3,12.7,25.4,24.5,39.8,30.7c15.6,6.8,24.7,17,24.8,17.1l0.6-0.5c-0.1-0.1-9.3-10.5-25-17.3
					c-14.3-6.2-33.1-17.8-39.4-30.3c-0.1-0.9-1.1-10.7,0.5-20.4c1.7-10.1,12.5-62.7,14.6-71.3c5.1-20.5,3.8-33.9-4-39.9l-0.5,0.6
					c7.5,5.8,8.8,19,3.7,39.1c-2.1,8.6-12.9,61.2-14.6,71.3c-1.7,10.2-0.5,20.6-0.5,20.7L363,824z"/>
			</g>
		</g>
		<g>
			<g>
				<path class="st7" d="M379.6,1009.9c-33.8-9.7-54.5-26.3-54.7-26.5l-0.5,0.6c0.2,0.2,21,16.8,54.9,26.6
					c13.6,3.9,30.7,7.1,50.3,7.1c25.4,0,55.2-5.3,87.3-21.1l-0.3-0.7C459.9,1023.7,410.8,1018.9,379.6,1009.9z"/>
			</g>
		</g>
		<g>
			<g>
				<path class="st7" d="M515.8,794.9c-4.1,11.1-6.9,27-4.5,34.3l0.7-0.2c-2.4-7.2,0.4-22.8,4.5-33.8c4-10.9,8.2-44.1,8.2-44.5
					l-0.7-0.1C523.9,750.9,519.8,784.1,515.8,794.9z"/>
			</g>
		</g>
	</g>
	<g>
		<g>
			<path class="st6" d="M390.1,559.7c-1.2-10.5-1.5-32.7,15.7-45.5c0,0-9.7,4.2-13.4,7.8c0,0-9.6,12.8-3.1,37.7
				C389.5,560.3,390.1,560.1,390.1,559.7z"/>
		</g>
	</g>
	<g>
		<g>
			<path class="st6" d="M391.5,525.3c0,0-9.2-3.7-15.2-14.8s12.5-6.9,18.4,9.2c0,0-9.7-15.2-10.1-21.7s15.2-6,16.6,18.9L391.5,525.3
				z"/>
		</g>
	</g>
	<g>
		<g>
			<g>
				<path class="st7" d="M492.8,801.4c-0.1,0-0.1,0-0.2,0c-0.2-0.1-0.3-0.3-0.2-0.5c0.1-0.2,7.8-15.2,9.9-26.7
					c1.9-10.5-1.9-19.8-6.7-31.6c-0.5-1.2-1-2.3-1.5-3.5c-4.3-10.6-5.1-17.9-6-26.3c-0.3-2.6-0.6-5.4-1-8.3c0-0.2,0.1-0.4,0.3-0.4
					c0.2,0,0.4,0.1,0.4,0.3c0.4,3,0.7,5.7,1,8.4c0.9,8.4,1.6,15.6,5.9,26.1c0.5,1.2,1,2.4,1.5,3.5c4.9,11.9,8.8,21.3,6.8,32.1
					c-2.1,11.6-9.9,26.7-10,26.9C493,801.3,492.9,801.4,492.8,801.4z"/>
			</g>
		</g>
	</g>
	<g>
		<g>
			<circle class="st6" cx="392.9" cy="599.3" r="2.2"/>
		</g>
	</g>
	<g>
		<g>
			<path class="st7" d="M320.4,869.3c0,0,3.7-5.6,3.2-11.5c-0.5-5.9-7.4-12-6.1-23.8c1.2-11.8-5.2-13.5-5.2-13.5
				S300.3,852.1,320.4,869.3z"/>
		</g>
	</g>
	<g>
		<g>
			<path class="st7" d="M505.9,832.5c0,0,2.2-2.5,6.4-0.2c4.2,2.2,7.1,6.4,14,1c6.9-5.4,10.6-7.9,18.2-2.9
				C544.4,830.3,522.6,858.8,505.9,832.5z"/>
		</g>
	</g>
	<g>
		<g>
			<path class="st10" d="M574.6,641.6c-0.5,0-1-0.2-1.4-0.6c-0.5-0.6-0.4-1.4-0.2-2.2c1.2-5.4,4.1-10.3,8.3-14
				c0.2-0.2,0.4-0.1,0.6,0c0.1,0.2,0.1,0.4,0,0.6c-4,3.5-6.8,8.3-8,13.5c-0.1,0.5-0.2,1.1,0.1,1.5c0.3,0.4,0.9,0.4,1.4,0.2
				c0.5-0.3,1-0.8,1.3-1.3l5.6-7.1c0.1-0.2,0.4-0.2,0.6-0.1c0.2,0.1,0.2,0.4,0.1,0.6l-5.6,7.1c-0.4,0.5-0.9,1.2-1.6,1.5
				C575.3,641.6,574.9,641.6,574.6,641.6z"/>
		</g>
	</g>
	<g>
		<g>
			<path class="st10" d="M564.9,636.4c-0.6,0-1.2-0.2-1.7-0.6c-1.2-1.1-1.1-2.9-0.8-4.1c0.9-5.3,3-10.3,6.1-14.7
				c0.1-0.2,0.4-0.2,0.6-0.1c0.2,0.1,0.2,0.4,0.1,0.6c-3,4.3-5.1,9.2-6,14.4c-0.3,1.7-0.1,2.8,0.6,3.4c0.9,0.8,2.5,0.4,3.3-0.5
				c0.2-0.2,0.4-0.2,0.6,0c0.2,0.2,0.2,0.4,0,0.6C566.9,636,565.9,636.4,564.9,636.4z"/>
		</g>
	</g>
	<g>
		<g>
			<path class="st10" d="M569.7,640.4c-0.3,0-0.6-0.1-0.9-0.2c-0.9-0.4-1.5-1.3-1.7-2.4c-0.1-0.9,0.1-1.9,0.3-2.7
				c1.5-5.9,3.9-11,7.3-15.2c0.1-0.2,0.4-0.2,0.6-0.1c0.2,0.1,0.2,0.4,0.1,0.6c-3.3,4.1-5.7,9.1-7.2,14.9c-0.2,0.8-0.4,1.6-0.3,2.4
				c0.1,0.8,0.6,1.5,1.2,1.7c1.2,0.5,2.5-0.6,3.2-1.7c0.6-0.8,1.1-1.7,1.5-2.7c0.1-0.2,0.3-0.3,0.5-0.2c0.2,0.1,0.3,0.3,0.2,0.5
				c-0.4,1-0.9,2-1.6,2.9C572.2,639.4,571,640.4,569.7,640.4z"/>
		</g>
	</g>
	<g>
		<g>
			<path class="st10" d="M564.5,624.6C564.5,624.6,564.4,624.6,564.5,624.6l-4.2-1c-0.2-0.1-0.4-0.3-0.3-0.5
				c0.1-0.2,0.3-0.3,0.5-0.3l4.1,1c0.2,0.1,0.4,0.3,0.3,0.5C564.8,624.5,564.7,624.6,564.5,624.6z"/>
		</g>
	</g>
	<g>
		<g>
			<path class="st10" d="M564.2,647.3C564.2,647.3,564.2,647.3,564.2,647.3c-0.3-0.1-0.4-0.3-0.4-0.5c0.6-2.9,2.4-5.5,4.9-7.1
				c0.2-0.1,0.4-0.1,0.6,0.1c0.1,0.2,0.1,0.4-0.1,0.6c-2.3,1.5-4,3.9-4.6,6.6C564.6,647.1,564.4,647.3,564.2,647.3z"/>
		</g>
	</g>
	<g>
		<g>
			<path class="st10" d="M470.4,926.2c-7.8,0-16.2-3.2-16.3-3.3c-0.2-0.1-0.3-0.3-0.2-0.5c0.1-0.2,0.3-0.3,0.5-0.2
				c0.1,0,9,3.5,16.8,3.2c0,0,0,0,0,0c0.2,0,0.4,0.2,0.4,0.4c0,0.2-0.2,0.4-0.4,0.4C470.9,926.2,470.6,926.2,470.4,926.2z"/>
		</g>
	</g>
	<g>
		<g>
			<path class="st10" d="M474.6,933.3c-15,0-22-4.3-22.4-4.5c-0.2-0.1-0.2-0.4-0.1-0.6c0.1-0.2,0.4-0.3,0.6-0.1
				c0.1,0.1,8.4,5.1,25.7,4.2c0.3,0,0.4,0.2,0.4,0.4c0,0.2-0.2,0.4-0.4,0.4C477.1,933.3,475.8,933.3,474.6,933.3z"/>
		</g>
	</g>
</g>
</svg>
