<?xml version="1.0" encoding="utf-8"?>
<!-- Generator: Adobe Illustrator 22.0.0, SVG Export Plug-In . SVG Version: 6.00 Build 0)  -->
<svg version="1.1" id="Capa_1" xmlns="http://www.w3.org/2000/svg" xmlns:xlink="http://www.w3.org/1999/xlink" x="0px" y="0px"
	 viewBox="0 0 750 1624" style="enable-background:new 0 0 750 1624;" xml:space="preserve">
<style type="text/css">
	.st0{fill:#6228cf;}
	.st1{fill:#4E21B1;}
	.st2{fill:#FDC50C;}
	.st3{fill:#FEE5C6;}
	.st4{fill:#F12B49;}
	.st5{fill:#1AB2BB;}
	.st6{fill:#C82658;}
	.st7{fill:#F49898;}
	.st8{fill:#E3F4FD;}
	.st9{fill:#FFFFFF;}
</style>
<rect x="0.1" y="0.1" class="st0" width="749.9" height="1623.7"/>
<g>
	<path class="st1" d="M402.9,1201.8c0,0-17.9-3-35.4-1.5c-17.4,1.5-54.3,3.5-67.2,5c-13,1.5-34.9,2-46.8,13c-12,11-12.5,15.9-6,28.9
		c6.5,13,14.9,31.4,77.2,33.9c62.3,2.5,198.8,3,232.6-3c33.9-6,30.9-9,53.3-13s40.8-11,42.8-21.9c2-11,10.5-26.4-23.4-32.4
		c-33.9-6-96.1-10.5-113.1-11c-16.9-0.5-51.3,3-67.7,3S402.9,1201.8,402.9,1201.8z"/>
	<path class="st2" d="M283.1,1017.6c0,0-49.3-9.5-50.9-103.4c0,0-1.6-50.9,19.1-93.8c0,0-22.3,9.5-19.1-14.3
		c3.2-23.9,23.9-35,27-77.9c3.2-42.9-35-232.2,128.8-291.1c186.1-36.6,238.6,117.7,221.1,219.5c0,0,6.4,87.5,28.6,146.3
		c22.3,58.9,47.7,192.5-112.9,237C524.9,1039.9,413.6,1079.6,283.1,1017.6z"/>
	<path class="st3" d="M468.8,1200.7l1.2,17c0,0-0.8,3.3,0.4,6.6c1.2,3.3,13.7,11.2,20.7,13.3c7,2.1,8.3-17,8.3-17l-4.1-4.1l1.7-17
		L468.8,1200.7z"/>
	<path class="st3" d="M426.5,1189.9l-1.2,18.7c0,0,1.7,2.9-0.4,6.6c-2.1,3.7-16.6,11.6-16.6,11.6l-10.4-2.9l-4.1-12.4
		c0,0,5.4-4.6,6.6-7.5c1.2-2.9,0.4-16.2,0.4-16.2L426.5,1189.9z"/>
	<path class="st4" d="M425.9,1213.2c0,0,0.9-0.4,0.9,2.6s0,4.4-2.6,6.1c-2.6,1.8-26.3,15.8-37.3,18.4c-11,2.6-17.1-2.2-12.3-10.5
		c4.8-8.3,13.6-18.9,18.4-21.1c0,0,11-2.6,14.5,12.7c0,0,1.8,2.2,5.7,0.4S425.9,1213.2,425.9,1213.2z"/>
	<path class="st4" d="M470.2,1222.9c0,0,8.3,7.5,13.2,9.2c4.8,1.8,6.1,0,7.9-2.6c1.8-2.6,2.6-7.9,9.7-8.8c0,0,17.1,18.9,21.1,23.7
		c3.9,4.8,1.8,10.1-5.3,10.1c-7,0-23.7-9.7-40.4-18c0,0-7-3.1-8.3-5.7C466.7,1228.1,468.4,1225.5,470.2,1222.9z"/>
	<path class="st5" d="M390.3,1186.5c0,0,6.1,4.4,20.2,5.7c14,1.3,23.7-1.8,28.1-5.7l0.9-7.5l14.5-147.4l2.2-0.4l2.2,151.8l0.4,9.7
		c0,0,0.4,7,12.3,11c11.8,3.9,25.5,2.2,31.2,0.4c5.7-1.8,5.7-17.6,7-25c1.3-7.5,21.5-168.9,21.5-168.9l-150.5,1.3l9.2,168.5
		C389.5,1179.9,387.7,1183.4,390.3,1186.5z"/>
	<path class="st3" d="M377.9,746c-0.8-1.3-2.1-2.2-3.6-2.6c-0.4-2-1.8-3.7-3.7-4.7c-2.3-1.2-4.8-0.8-6.9,0.3
		c-0.4-1.9-1.3-3.6-3.3-4.7c-2.5-1.4-4.2-0.5-6,0.7c-0.1-0.6-0.2-1.1-0.3-1.7c-0.2-1.1-1.4-1.9-2.4-1.8c-4.5,0.1-8,3-10.2,6.8
		c-1.7,2.9-2.5,6.1-3.7,9.2c-0.9-1.1-2-2-3.5-2.4c-2.8-0.8-5.9,0.6-6.8,3.5c-1,3.2,1,6.5,1.9,9.5c0.8,2.9,1.3,5.8,1.4,8.8
		c0,0.9,0,1.7,0,2.6c-0.8,0.9-1,2.2,0.2,3.2c5.5,4.5,11.9,7.8,18.8,9.2c3.5,0.7,7,1,10.6,0.9c3.1-0.1,7.4-0.1,9.5-2.7
		c1.2-1.5,1.6-3.6,2.2-5.3c0.6-1.9,1.2-3.7,1.8-5.6c1.4-4.4,2.6-8.8,3.8-13.2C378.6,752.7,379.8,749,377.9,746z"/>
	<g>
		<path class="st4" d="M404.7,1025.8c0,0,40.6,21.1,99.4-0.2c58.8-21.3,45.6-48.7,43.6-58.8c0,0,4.1-10.1,2-16.2
			c-2-6.1-4.1-12.2-4.1-12.2S572,905,567,855.3c-5.1-49.7-8.1-77-56.8-83.1c0,0-6.1-9.1-6.1-16.2c0-7.1-2-11.2-13.2-13.2
			c-11.2-2-67.9,7.1-73,9.1c-5.1,2-11.2,9.1-7.1,21.3c0,0-24.3,4.1-31.4,19.3l-7.1-5.1c0,0-2-8.1-6.1-11.2c-4.1-3-36.5-3.6-36.5-3.6
			l-2,8.6c0,0-8.1-2-13.2,10.1c-5.1,12.2-18.2,58.8-17.2,97.3c1,38.5,27.4,52.7,36.5,57.8C342.9,951.6,404.7,1025.8,404.7,1025.8z"
			/>
		<path class="st6" d="M334.5,921.3c-1.9-3.2-3.7-7.6-6.6-9.9c-3-2.4-6.5-1.2-9.2,1.1c-2.8,2.4-5.3,5.2-7.4,8.2
			c-1,1.4-2.4,3.3-3.3,5.2c2.7,5.3,7.2,9,11.8,12.6c0.9,0.4,1.8,0.7,2.8,0.9c0.9,2.2,4.3,3.2,6,0.6c1.2-1.7,2.3-3.3,3.8-4.8
			c1.3-1.3,2.6-2.5,3.5-4.1C337.9,927.6,336.4,924.6,334.5,921.3z"/>
		<path class="st6" d="M562.3,907c-0.6-4.1-2.6-8.1-4.9-11.5c-2.2-3.1-4.8-7.1-9.1-6.6c-8.1,0.9-11.5,11.4-10.9,18.3
			c0.4,4.5,1.7,9,3.5,13.2c1,2.2,2.1,4.1,3.5,5.9c0.6,1.7,1.3,3.5,2,5.2c0.8,1.9,3.6,2.6,4.7,0.5c2.4-4.7,5.3-9.1,8-13.6
			C561,914.8,562.9,911.1,562.3,907z"/>
		<path class="st6" d="M546.8,967.5C546.8,967.5,546.8,967.5,546.8,967.5c-1.6,2.3-3,4.8-4.6,7.1c-2.5,3.7-5.2,7.2-8.3,10.5
			c0,0-0.1,0.1-0.1,0.1c-0.2-0.2-0.4-0.4-0.6-0.5c-1.1-0.6-2.7-0.3-3.4,0.9c-0.1,0.1-0.1,0.2-0.2,0.4c-1.8-1.1-3.8-1.6-5.8-2.4
			c-1.6-0.6-2.8,2.1-1.2,2.8c2,0.9,3.8,2,6,2.5c0,0.3,0.1,0.6,0.2,0.8c-5.4,4.1-11.6,6.9-18,9.7c0.6-1,1.1-2,1.4-2.7
			c0.6-1.5-1.3-2.5-2.5-1.9c-2.1,1-3.2,3-5,4.3c-1.1-0.2-2.2-0.1-3.3-0.2c-1.6-0.1-3.9,0.1-5.4-0.4c-1.2-0.4-1.6,1.2-0.8,1.9
			c1.4,1.1,2.3,2.5,4,3.3c0.4,0.2,0.7,0.3,1.1,0.5c-2.1,0.9-4.2,1.6-6.4,1.9c-3.6,0.6-7,1.6-10.5,2.5c2.2-1.3,3.9-3.4,4.9-5.7
			c0.6-1.4-0.7-2.9-2.1-2.1c-2.2,1.2-4.2,3.4-6.7,4c-2.1,0.6-3.9-0.5-5.9-0.7c-0.5,0-1,0.4-1.1,0.8c-0.6,3.1,2.7,4.9,5.5,5.1
			c-9.7,2.5-19.4,3.9-29.4,3.9c-5.7,0-11.4-0.1-17-0.3c-0.5,0-1,0-1.5-0.1c4.2-1,8.4-2.3,12.6-3.6c0.8-0.3,1.7-0.5,2.5-0.8
			c0.3,0.7,0.7,1.4,1.5,2c1.3,1.1,3,2,4.7,2.1c3.8,0.3,7-2.3,8.5-5.6c0.6-1.2,0.2-2.8-0.7-3.7c1.5-0.6,3-1.2,4.5-1.8
			c1.6-0.6,3.4-1.1,4.7-2.2c1.5,0.1,2.9,0.2,4.5,0.2c2.6-0.1,5.1-0.7,7.4-1.9c1.1-0.6,2.1-1.7,3.2-2.1c1.4-0.6,3.2,0.7,4.6,1
			c5.4,1.1,11.2-0.5,15.9-3.3c4.9-3,9.2-7,13.3-10.9c4.2-3.9,8.2-7.9,12-12.3c4.3-4.9,8.2-10.1,11.9-15.5c2.2-3.2,3.9-6.6,5.3-10.2
			c-0.6-1.8-1.1-3.4-1.5-4.5c-2.6,3.4-5.3,6.8-7.8,10.4c-3.2,4.8-6.5,9.5-10.2,13.9c-3.7,4.5-7.6,8.9-11.8,13.1
			c-4.1,4.1-8.5,8.3-13.3,11.5c-2.3,1.5-4.9,3-7.6,3.5c-1.5,0.3-3.1,0.4-4.6,0.1c-1.5-0.2-2.8-1-4.3-1.3c-2.5-0.5-3.9,0.7-5.8,2
			c-2.7,1.8-5.8,2.4-9,1.9c-1.4-0.2-2.8-0.2-4.1-0.1c-0.8,0-1.6,0.1-2.4,0.3c-1.5,0.2-3,0.6-4.5,1c-1.5,0.3-2.9,0.7-4.4,1.1
			c-1.4,0.4-2.8,0.8-4.2,1.2c-5.7,1.3-11.4,2.4-17.2,3.3c-3.6,0.6-7.2,0.9-10.9,1.1c-2.7,0.2-4.9,0.4-6.7,2.6
			c-1.6,2.1-2.9,4.5-4.3,6.8c-1.9,1.4-3.4,3.8-3.9,6.2c-0.1,0.2-0.3,0.5-0.4,0.7c-0.1,0-0.3,0-0.4,0c-3.1-0.3-3.5,3.9-1.5,5.4
			c0.2,0.1,0.4,0.3,0.6,0.4c0.1,0.1,0.2,0.1,0.3,0.2c4.7,3.1,10.9,4.5,16.2,5.8c6,1.5,12,2.5,18.2,3.2c2.4,0.2,4.9,0.4,7.4,0.5
			c15.2,0.2,33.7-2,54.4-9.5C560.6,1004.8,549.2,978.1,546.8,967.5z M544.7,979.4c0,0,0.1-0.1,0.1-0.1c-0.3,3-0.6,6-1.3,8.8
			c-0.1-1.8-0.4-3.6-0.8-5.3c0-0.2-0.1-0.4-0.2-0.5C543.2,981.3,543.9,980.3,544.7,979.4z M539.1,986.3c0.1,1.2,0.2,2.5,0.3,3.7
			c0.2,1.6,0.7,3.3,1,4.9c-0.3,0.4-0.5,0.7-0.8,1.1c-1.2,1.4-2.5,2.7-3.9,3.9c0.4-2.7,1-5.4,0.9-8.1c0-1.1-1-1.5-1.8-1.2
			C536.2,989.2,537.7,987.8,539.1,986.3z M534,991.2c-0.1,0.2-0.2,0.4-0.2,0.6c-0.3,3.1,0.1,6.3,0.4,9.4c-1.5,1.2-3.1,2.3-4.7,3.4
			c0.1-0.8,0.2-1.6,0.2-2.3c0.2-2.4,0.7-4.9-0.2-7.2c0-0.1-0.1-0.2-0.2-0.3C530.9,993.6,532.4,992.5,534,991.2z M418.5,1017.9
			c-0.1,1.4-0.2,2.8-0.1,4.1c-1.4-0.4-2.8-0.8-4.2-1.2c0.2-1.2,0.5-2,1.3-3.1c0.3-0.4,0.7-0.8,1-1.3c0.7,0.3,1.4,0.6,2.1,0.9
			C418.6,1017.6,418.5,1017.7,418.5,1017.9z M426.8,1024.2c-1.5-0.3-3-0.7-4.5-1.1c0.3-1.5,0.6-3.1,0.8-4.6c1.7,0.3,3.4,0.6,5.1,0.8
			c-0.4,1.8-0.1,3.4,0.1,5.2C427.8,1024.4,427.3,1024.3,426.8,1024.2z M431.6,1025.1c0.6-1.7,1.3-3.3,1.5-5.2
			c2.6,0.3,5.3,0.4,7.9,0.5c0.1,2,0.4,4,0.7,6C438.3,1026.2,434.9,1025.7,431.6,1025.1z M445.2,1026.8c-0.2,0-0.4,0-0.6-0.1
			c0.2-2.1,0.4-4.2,0.3-6.3c3.6-0.1,7.3-0.5,10.9-1c-0.2,1.7,0,3.3,0.1,5c0.1,0.9,0.2,1.8,0.4,2.6
			C452.7,1027.2,449,1027.1,445.2,1026.8z M460.2,1027c0.2-0.9,0.4-1.8,0.6-2.8c0.3-1.8,0.5-3.6,0.3-5.5c3.4-0.4,6.8-1,10.2-1.6
			c-0.3,1.5-0.2,3,0.1,4.6c0.3,1.5,0.9,2.8,1.7,4.1C468.8,1026.5,464.5,1026.8,460.2,1027z M475.3,1025.5c-0.3-3.1,0.8-6.4,1-9.4
			c0.2,0,0.3-0.1,0.5-0.1c2.8-0.7,5.7-1.4,8.6-2.2c-0.3,3.3-0.1,6.5,0.5,9.7C482.3,1024.3,478.8,1025,475.3,1025.5z M488.4,1022.8
			c0.1-3.4,0.5-6.9,0.7-10.3c0,0,0-0.1,0-0.1c1-0.4,1.9-0.8,2.8-1.2c2.5-1.2,4.7-2.7,7.3-3.7c-0.4,3.9,0.1,7.9,0.4,11.9
			C495.9,1020.7,492.2,1021.9,488.4,1022.8z M516,1001.6c0-0.1,0-0.1,0-0.2c3.6-1.4,7.1-3,10.4-4.9c-0.9,3.1-0.3,6.7,0.2,10
			c-0.1,0.1-0.3,0.2-0.4,0.3c-3.4,2.2-7,4.3-10.6,6.1C516.4,1009.1,516.5,1005.2,516,1001.6z M503.7,1007.2c0-0.4-0.2-0.7-0.4-1.1
			c1.5-0.5,2.9-1,4.4-1.6c1.2-0.5,2.5-0.9,3.7-1.4c-0.7,3.7-0.7,7.9,0.1,11.6c-0.2,0.1-0.4,0.2-0.6,0.3c-2.8,1.2-5.7,2.4-8.5,3.5
			C503.1,1014.7,503.9,1010.8,503.7,1007.2z"/>
		<path class="st6" d="M470.2,937.3c2.8-3.8,5.8-7.5,8.6-11.3c5.8-7.9,11.4-15.9,16-24.6c9.7-18.2,14.1-38.1,14.3-58.7
			c0.1-5.8-0.6-11.5-1.5-17.2c-0.5-2.9-0.9-5.8-1-8.7c0-3,0.5-6-0.1-9c-0.3-1.6-2.4-1.6-3.2-0.4c-0.9,1.4-1.4,3-1.7,4.7
			c-1.2,0.8-2.6,1.5-3.8,2.3c-0.9,0.6-3.4,1.9-3.8,2.9c-0.1,0-0.1,0.1-0.2,0.1c-0.4-0.5-1-1-1.4-1.5c-1.1-1.1-2.1-2-3.6-2.5
			c-1.9-0.6-3.5,1.3-3.1,3.1c0.7,3.1,5.5,7.9,9,6.9c1.9-0.6,3.5-2.5,4.7-4c0.7-0.8,1.3-1.7,1.9-2.5c0,2,0,3.9-0.1,5.7
			c-0.1,2-0.2,3.9-0.2,5.9c-1.6,0.4-2.8,1.3-4.1,2.3c-0.6,0.5-1.3,0.9-1.9,1.4c-0.2,0.1-1.8,1.6-2.1,1.6c-0.7,0-2.4-1.8-3-2.3
			c-1.2-0.9-3-1.4-4.1-2.4c-0.3-0.3-0.9,0.1-0.6,0.5c0.7,0.9,1,2.2,1.5,3.3c0.5,1.1,1.2,2.1,1.9,3c1.1,1.5,2.4,2.8,4.3,3
			c2.2,0.3,4-1.2,5.7-2.4c0.8-0.5,1.6-1.1,2.3-1.6c0,1.1,0,2.2,0,3.2c0,1.3,0,2.7,0,4c-0.9,0.4-2,0.4-2.9,0.8c-0.7,0.3-1.3,0.7-2,1
			c-0.9,0.5-4.6,2.9-5.7,2.6c-0.5-0.1-2.5-2.8-3.2-3.6c-1.2-1.3-2.2-2.5-4.1-2.5c-0.8,0-1.4,0.5-1.7,1.3c-0.8,2.4,1.4,4.8,2.9,6.5
			c1.5,1.6,3.3,3.7,5.6,3.9c2.5,0.2,4.8-1.7,6.7-3.1c1.1-0.9,2.3-1.8,3.2-2.9c0.5-0.6,0.8-1.2,1-1.8c-0.1,2.9-0.2,5.9-0.4,8.8
			c-3.5,0.4-6.6,3.7-9.5,5.5c-0.4,0.3-0.7,0.5-1.1,0.7c-0.1-0.2-0.3-0.3-0.4-0.5c-0.9-0.3-1.9-1.2-2.7-1.7c-1.6-1-4-1.6-5.2-3
			c-0.3-0.4-0.9,0.1-0.7,0.5c0.7,1.2,0.7,2.7,1.2,4c0.5,1.2,1.3,2.2,2.1,3.2c1.6,1.9,3.7,3.8,6.4,3.7c2.6-0.1,4.9-2.2,6.9-3.6
			c0.7-0.5,1.6-1,2.4-1.5c-0.3,2.8-0.8,5.5-1.3,8.2c-0.1,0.3-0.1,0.6-0.2,0.8c-0.3-0.1-0.6-0.1-0.9,0c-1.4,0.3-2.5,1-3.7,1.8
			c-0.6,0.4-1.1,0.8-1.7,1.2c-0.2,0.1-0.4,0.3-0.5,0.4c-0.3,0.3-0.4,0.3,0-0.2c-1.1-0.3-2.3-1.1-3.4-1.5c-1.7-0.7-3.3-1.2-4.7-2.6
			c-0.5-0.5-1.2,0.2-0.8,0.8c2.5,3.2,3.8,7.3,8.2,8.6c1.6,0.5,2.9-0.1,4.3-0.9c0.5-0.3,1.1-0.6,1.6-1c-1.3,4.6-2.9,9-4.9,13.3
			c-1.2-1-2.6-1.7-4-2.5c-0.7-0.4-1.6-0.8-2.4-1.1c-0.8-0.3-1.6-0.2-2.4-0.3c-0.8-0.1-1.5,0.9-1.2,1.6c0.2,0.7,0.3,1.4,0.7,2.1
			c0.4,0.8,1.1,1.6,1.7,2.2c1.2,1.3,2.7,2.6,4.3,3.4c0.1,0.1,0.3,0.1,0.4,0.1c-0.3,0.6-0.6,1.2-1,1.7c-4.9,8.6-10.7,16.7-16.5,24.8
			c-0.9,1.2-1.8,2.4-2.6,3.7c-0.2-0.1-0.4-0.3-0.7-0.3c-1.1-0.3-1.8,0.2-2.8,0.3c-0.9,0-1.8-1-2.6-1.5c-2.1-1.3-4.5-2.7-7.1-2.8
			c-1.7-0.1-2.6,1.9-1.9,3.3c1.8,3.4,6.8,6.8,11.1,6.8c-1,1.5-1.9,3-2.8,4.5c-1.3,2.2-2.5,4.8-2.8,7.3c-0.1,1.2,0,2.3,0.2,3.3
			c-0.5,0.4-0.9,1.1-0.7,1.8c0.5,1.8,1.6,3.3,2.5,4.9c0.5,0.9,1,1.9,1.5,2.9c-0.1,0-0.2,0-0.4,0.1c-1.8,0.9-3.4,2.2-5.1,3.3
			c-1.4,0.9-2.9,1.9-3.7,3.4c-0.2,0.3,0,0.8,0.4,0.7c1.8-0.2,3.3-1.3,4.8-2.3c1.6-1.1,3.4-2.1,4.9-3.5c0,0,0,0,0,0
			c0.1,0.2,0.2,0.4,0.3,0.6c1.9,3.1,4.3,5.9,6.5,8.7c1,1.3,1.9,2.5,2.9,3.8c-2.4,0.5-4.7,1.8-6.7,3c-1.8,1-5.1,2.9-4.9,5.2
			c0,0.3,0.2,0.5,0.4,0.5c2.1,0.8,4.7-1.5,6.3-2.6c2.1-1.3,4.6-2.3,6.6-3.9c0.6,0.9,1.3,1.7,1.9,2.6c0.2,0.3,0.4,0.6,0.6,0.9
			c-0.1,0-0.1,0-0.2,0c-4.3,1.5-7.9,4.4-11.6,7c0,0,0,0.1,0,0.1c4.2-1.3,8.7-2.5,12.5-4.9c0.2-0.1,0.4-0.3,0.4-0.5
			c0.5,0.7,1,1.3,1.5,2c0.4,0.5,0.8,0.9,1.2,1.3c-0.1,0-0.1,0-0.2,0c-2.3,0.7-4.3,2.1-6.4,3.4c-1.8,1.1-4.5,2.2-5.4,4.2
			c-0.3,0.6-0.1,1.4,0.6,1.6c2.3,0.5,4.8-1.2,6.7-2.4c2.2-1.4,4.3-3,5.6-5.2c0.1-0.1,0.1-0.3,0.1-0.4c0.6,0.7,1.3,1.4,1.8,2.1
			c0.5,0.7,1.7,0.3,1.5-0.6c-1.1-3.8-1.9-7-4.2-10.3c-2.1-3.1-4.3-6-6.6-8.9c-2.4-3-4.7-6.1-7-9.1c-1.2-1.6-2.6-2.9-3.7-4.6
			c-0.4-0.6-0.8-1.3-1.2-1.9c0.6-1.8,1.9-3.5,2.8-5.1C467.3,941.5,468.7,939.4,470.2,937.3z"/>
		<path class="st6" d="M466,963.8c-3.4,1.7-7.3,3.7-9.3,7c-0.3,0.6,0.2,1.3,0.9,1.1c3.6-1.1,6.8-3.5,10.2-5.1
			C469.7,965.8,468,962.8,466,963.8z"/>
		<path class="st6" d="M400.2,822.2c0-1.9-0.1-3.9-0.1-5.8c0-2,0.2-3.4-1.1-5c-0.5-0.6-1.7-0.6-2.2,0c-1.2,1.5-1.1,2.6-1.2,4.5
			c-0.1,2.1-0.3,4.2-0.6,6.3c-0.5,3.9-1.6,7.6-2.2,11.5c-1.2,8.2-2.2,16.5-3.1,24.7c-1,8-2.1,16.1-2.7,24.2c-0.3,4-0.5,8.1-0.5,12.1
			c0,3.2-0.2,7.1,2.3,9.4l0,0.4c0.1,1.5,2.1,1.4,2.3,0c0-0.1,0-0.2,0-0.3c2.7-2.1,2.7-6.2,3-9.4c0.5-3.9,0.9-7.7,1.3-11.6
			c1-8.2,1.9-16.4,2.9-24.6c1-8,2.1-16.1,2.3-24.2C400.8,830.2,400.3,826.2,400.2,822.2z"/>
		<path class="st6" d="M376.3,793.6c-1-1.6-2.6-3.5-4.5-4.1c0,0-0.2-0.1-0.4-0.2c-0.1-0.6,0.2-1.3,0.3-1.8c0.5-3-0.1-7.1-4.1-6.8
			c-2,0.1-3.3,2.1-2.3,4c0.3,0.7-0.2,2-0.3,2.7c-0.2,0.9-0.3,1.9-0.2,2.8c-0.8,0.6-1.6,1.3-2.5,1.9c-1,0.6-2,1.1-3.1,1.5
			c2.4-3,5.5-7.2,4-11.2c-0.6-1.5-2.4-1.4-3,0c-0.7,1.7-0.7,3.3-0.8,5.1c0,2-0.5,3.7-1.2,5.5c-0.1,0.3,0.2,0.7,0.5,0.7
			c-0.5,0.1-0.9,0.3-1.4,0.4c-0.9,0.2-1.8,0.4-2.7,0.6c2.2-3.3,5.2-8,3.5-11.5c-0.3-0.6-1.2-0.8-1.7-0.4c-1.8,1.3-2.2,3.2-2.5,5.2
			c-0.4,2.3-0.7,4.7-1,7c-2.3,0.3-4.6,0.4-6.9-0.1c-3.9-0.9-7.6-2.7-11.2-4.5c0.9-2.4,2-4.8,2.9-7.3c0.8-2.1,2.1-4.3,1.5-6.6
			c-0.1-0.6-0.7-0.7-1.2-0.5c-2.3,1-3.1,3.9-3.8,6.1c-0.8,2.5-1,4.9-1,7.4c-1.9-0.9-4.2-2-5.9-3.5c0-0.1,0-0.1,0.1-0.2
			c0.3-1.4,1.3-2.3,1.9-3.6c0.6-1.2,1-2.4,1.5-3.6c0.5-1.2,1.6-3.5-0.2-4.2c-1.8-0.7-2.9,2.1-3.4,3.2c-0.5,1.2-1,2.3-1.1,3.6
			c-0.1,1,0,2-0.1,3c-0.2-0.3-0.3-0.6-0.4-0.9c-0.5-1.7-3.1-1.4-3.1,0.4c0,4.4,3.1,7.3,6.8,9c5.1,2.3,10.3,4.4,15.8,5.7
			c4.8,1.1,9.3,2.4,14.1,1c2.6-0.8,6-2.2,8.2-4.5c0.5,0.5,1,0.9,1.4,1.4c1.1,1.3,1.6,3,1.8,4.6c0.4,4.6-1.4,9.3-2,13.9
			c-0.7,5.1-0.8,10.3-0.9,15.4c-0.1,10.2-0.6,20.4-1.5,30.5c-0.5,5.2-1,10.5-1.6,15.7c-0.3,2.6-0.5,5.2-0.7,7.8
			c-0.2,2.6,0.4,5.3,0.2,7.8c-0.3,2.7,4.1,3.2,4.7,0.6c0.5-2,1.7-3.9,2.2-6c0.6-2,1-4.2,1.3-6.2c0.8-4.4,1.3-8.9,1.8-13.3
			c0.9-8.5,1.5-17,1.9-25.6c0.4-8.6,0-17.2,0.9-25.7C377.6,808.7,380.7,800.6,376.3,793.6z"/>
		<path class="st6" d="M344,779.9c-1.6,4-1,8.8-1.3,13c0,0.7,0.9,0.7,1.1,0.2c1.3-4.1,3.6-8.3,3.6-12.7
			C347.4,778.3,344.7,778.2,344,779.9z"/>
		<path class="st6" d="M415,891.4c-1.7,0.4-2.8,1.6-4.1,2.8c-0.9,0.8-2.3,2.6-3.5,3.4c-1-0.9-1.9-2.2-3-3c-1.4-1.1-2.9-1.5-4.5-2.1
			c-0.3-0.1-0.5,0.3-0.4,0.6c1.1,2.4,2,4.1,4,6c1.2,1.1,2.4,2.3,4.2,2.1c1.9-0.2,3.6-2.2,5-3.3c1.7-1.4,3.5-2.6,4.2-4.7
			C417.2,892.1,416,891.1,415,891.4z"/>
		<path class="st6" d="M413,883.3c-1.1,0.2-1.8,0.7-2.7,1.4c-0.6,0.5-2.4,2.5-3,2.6c-0.6,0.1-2-1.1-2.5-1.4
			c-1.3-0.8-2.4-1.6-3.5-2.7c-0.5-0.5-1.1,0.1-0.9,0.7c1.2,2.7,2.8,7.4,6.3,7.6c1.7,0.1,2.8-1,4-2c1.5-1.3,3.3-2.5,3.9-4.4
			C415.1,883.9,414,883.1,413,883.3z"/>
		<path class="st6" d="M410.4,874.7c-1.1,0.8-2.7,2.8-4,2.1c-1.4-0.7-3.7-2.3-4.6-3.5c-0.5-0.7-1.6-0.1-1.1,0.7
			c1.5,2.7,1.5,6.9,5.1,7.9c2.9,0.9,6.2-1.8,7.6-4.1C414.5,875.9,412.2,873.5,410.4,874.7z"/>
		<path class="st6" d="M413.2,862.9c-1.2,0.8-2.2,1.7-3.3,2.6c-0.3,0.3-1.2,0.8-1.6,1.1c-0.3-0.3-0.8-0.8-0.8-0.8
			c-1.6-1.5-3.3-3.4-5.4-4.2c-0.5-0.2-1.1,0.3-1.1,0.8c0,3,2.8,7.6,5.6,8.8c1.5,0.7,2.8,0.1,3.9-1c1.6-1.6,3.4-3.4,4.7-5.3
			C416.2,863.8,414.5,862.2,413.2,862.9z"/>
		<path class="st6" d="M413.2,851c-1.4,1.4-2.8,3.8-5.1,2.4c-1.4-0.9-2.2-2.6-3.4-3.7c-0.8-0.7-1.9,0.2-1.4,1.1
			c1.3,2.6,1.5,5.8,4.8,6.7c3.1,0.9,6.3-2.2,7.6-4.7C416.3,851.4,414.5,849.7,413.2,851z"/>
		<path class="st6" d="M414,837.3c-1.7,1-3.1,2.4-4.5,3.7c-0.4,0.4-0.8,0.7-1.2,1c-1.8-2.4-3.5-5.2-6.6-5.3c-0.4,0-1,0.3-1,0.8
			c-0.6,4.2,3.7,6.5,5.7,9.4c0.4,0.6,1.2,1.3,2.1,1.2c3.6-0.4,7.3-4.4,9.2-7.3C419.1,838.6,416.2,836,414,837.3z"/>
		<path class="st6" d="M415.1,827.9c-1,0.9-2.2,1.5-3.4,2.2c-0.8,0.5-2,1.8-3,1.8c-1.2,0-2.6-2.3-3.9-2.8c-1.6-0.7-3.2,1.1-1.9,2.5
			c1.6,1.8,3.2,4.4,6,4.2c3.3-0.3,5.7-4.2,7.6-6.4C417.5,828.3,416.1,827,415.1,827.9z"/>
		<path class="st6" d="M414.5,818c-1.1,0.5-1.8,1.3-2.7,2.2c-0.6,0.6-1.3,1.7-2,2.3c-2-0.7-4-3.1-5.3-4.5c-0.5-0.6-1.5,0.2-1.1,0.8
			c1,1.3,1.9,2.7,2.9,4c0.8,1,1.8,2.6,3.3,2.9c1.3,0.2,2.3-0.6,3.2-1.3c1.5-1.1,3-2.3,3.9-4C417.8,818.9,416.1,817.3,414.5,818z"/>
		<path class="st6" d="M414.2,806.1c-1.3,0.7-2.3,2-3.4,2.9c-1.1-0.5-2.1-1.5-2.9-2.2c-1.3-1.1-3-2.3-4-3.7c-0.6-0.9-2-0.4-1.8,0.7
			c0.5,2,0.6,3.7,1.8,5.5c1.1,1.6,2.6,3,4.2,4c3.8,2.3,7.3-0.6,9.6-3.7C419.4,807.4,416.3,804.9,414.2,806.1z"/>
		<path class="st6" d="M509.4,776.2c-2.2,3.1-3.9,6.5-6.3,9.4c-1.1,1.3-2.2,2.5-3.4,3.5c-1.6,1.3-3.3,2-5.1,3
			c-3.2,1.8-6.2,3.9-9.5,5.5c-3.2,1.5-6.5,2.6-9.9,3.4c-8.7,2.1-17.9,2.5-26.8,3.4c-7.4,0.7-17.2,3.1-23.7-1.8
			c-3.5-2.7-5.9-6.3-7.1-10.5c-1.3-4.5-1.4-9.3-3.5-13.5c-0.3-0.6-1.2-0.4-1.4,0.2c-1.2,4.2-0.6,8.9,0.5,13.1c0.3,1,0.6,2,0.9,3
			c-1.2,0.6-2.3,1.7-3.7,1.6c-1.8-0.1-3.9-1.8-4.7-3.3c-0.6-1.1-2.1-0.1-1.6,1c0.8,1.7,0.7,3.3,2,4.9c1,1.1,2.5,1.7,4,1.8
			c1.9,0.1,4.3-0.6,5.5-2.1c0.7,1.8,1.4,3.5,2.6,5.1c5.7,7.6,14.6,9.2,23.6,8.6c10.1-0.7,20.6-1,30.5-3.2c8-1.7,16-5.6,22.6-10.5
			c3.6-2.7,6.2-6.6,9.3-9.9c3-3.2,6.5-6.7,8.3-10.8C513.2,775.9,510.7,774.4,509.4,776.2z"/>
		<path class="st6" d="M430.9,796.1c-0.1-1.3-0.3-2.6-0.6-3.9c-0.6-2.8-1.5-5.4-2.4-8.1c-0.8-2.6-1.9-5.3-2.2-8
			c-0.3-2.6-0.6-5.4-1.3-8c-0.2-0.8-1.3-0.9-1.7-0.2c-1.5,2.2-1.5,5.2-1.1,7.7c0.5,3.1,0.7,6.1,1.1,9.2c0.4,2.9,0.7,5.7,1.7,8.5
			c0.5,1.4,1,2.8,1.8,4.1c0.8,1.4,1.9,1.9,2.8,3.1c0.4,0.6,1.4,0.4,1.4-0.4C430.4,798.7,431,797.5,430.9,796.1z"/>
		<path class="st6" d="M444.2,787.2c-0.6-2.2-0.9-4.6-1.6-6.8c-0.3-1.1-0.9-2.2-0.9-3.4c0-1,0.3-2,0.4-3.1c0.1-1.2-1.4-1.6-2.2-0.9
			c-1.5,1.4-1.4,3.3-1.3,5.2c0.1,2.7,0.3,5.4,0.6,8.1c0.4,4.9,0.4,10.9,3.8,14.8c0.8,0.9,2.1,0.3,2.5-0.7
			C446.9,796.4,445.3,791.2,444.2,787.2z"/>
		<path class="st6" d="M456.4,794.5c-0.6-2.1-1.3-4.2-1.7-6.3c-0.8-4.2-1.3-8.5-4.6-11.5c-0.2-0.1-0.4-0.1-0.6,0.1
			c-2,4-0.9,8.3,0.8,12.3c1,2.4,1.8,4.9,2.7,7.3c0.7,1.8,0.9,3.4,2.8,4c0.4,0.2,1-0.1,1.2-0.5C458.1,798.1,457,796.3,456.4,794.5z"
			/>
		<path class="st6" d="M470.7,791.9c-0.1-1.8-0.5-3.7-0.7-5.5c-0.5-3.4-1-7.1-3.5-9.7c-0.5-0.5-1.6-0.5-1.9,0.2
			c-1.5,3.4-0.7,7,0.1,10.4c0.5,1.9,0.9,3.8,1.6,5.6c0.3,0.8,0.6,1.5,1,2.3c0.5,0.9,1.2,1.6,1.6,2.6c0.3,0.9,1.8,0.8,1.7-0.2
			C470.2,795.8,470.8,793.7,470.7,791.9z"/>
		<path class="st6" d="M476.9,774.3c-0.5-0.7-1.6-0.3-1.8,0.5c-1.7,6.4,2.2,13.3,4,19.3c0.1,0.4,0.7,0.3,0.7-0.1
			C480,787.6,481.3,779.6,476.9,774.3z"/>
		<path class="st6" d="M491.6,776.9c-0.8-4.4-1.9-8.6-4-12.5c-0.7-1.4-2.7-0.6-2.8,0.7c-0.3,4.4,0.2,8.6,1,12.9
			c0.4,2.1,0.8,4.2,1.5,6.2c0.3,0.8,0.5,1.6,0.9,2.4c0.5,1,1.6,1.9,1.8,3c0.2,0.7,1.3,0.6,1.2-0.2c-0.1-1.1,0.7-2.2,0.8-3.3
			c0.1-0.8,0.2-1.7,0.2-2.5C492.3,781.3,492,779.1,491.6,776.9z"/>
		<path class="st6" d="M503.1,779.8c0-1.4-0.3-2.9-0.6-4.4c-0.4-3-0.9-5.9-1.1-8.9c-0.1-2.4,0.4-5.1-0.3-7.5
			c-0.9-2.8-3.4-4.8-4.8-7.3c-0.1-0.2-0.5-0.1-0.4,0.2c0.5,1.5,0.7,2.8,1,4.3c0.2,1.4,0.9,3.1,0.9,4.5c0,1.3-0.8,2.6-1.3,3.8
			c-0.5,1.4-0.6,2.8-0.7,4.2c-0.1,2.8,0.5,5.5,1.5,8c0.6,1.4,1.2,2.8,2,4c0.7,1,2.1,1.6,2.7,2.6c0.1,0.3,0.5,0.1,0.5-0.2
			C502.5,782,503.1,780.9,503.1,779.8z"/>
		<path class="st6" d="M447.4,892.4c-0.1-0.9-0.6-1.7-1.5-2c-2.1-0.6-3.1,0.6-4.8,1.6c-1.4,0.9-3.5,2.5-5,1.3
			c-1.1-0.8-5.6-5.7-7.1-2.9c-1.1,1.9,0.5,4,1.6,5.5c1.4,1.9,3.1,3.7,5.5,3.9c2.4,0.2,4.7-1.1,6.7-2.2
			C444.8,896.5,447.6,895,447.4,892.4z"/>
		<path class="st6" d="M444.8,903.1c-1.5,0.4-2.7,1.1-4,2c-1.3,0.9-2.6,2.4-4.3,1.6c-1.4-0.6-2.6-2-4-2.8c-1.7-1-2.9-1.1-4.8-1.4
			c-0.4-0.1-0.7,0.3-0.5,0.7c0.5,1.1,0.6,1.9,1.3,2.9c0.8,1.1,1.9,2.1,3,3c1.6,1.3,3.4,2.5,5.6,2.3c3.5-0.4,7.6-4.2,8.6-7.4
			C445.9,903.5,445.3,902.9,444.8,903.1z"/>
		<path class="st6" d="M445,915.5c-2.8-0.7-5.6,1.7-7.8,3.1c-1.5,1-2,1.1-3.7,0.4c-1.8-0.7-3.6-1.6-5.3-2.6
			c-0.5-0.3-0.9,0.3-0.5,0.7c1.6,1.9,2.8,4.1,4.4,6c1.2,1.4,2.8,2.2,4.7,1.6c2.1-0.6,4.2-2.1,5.9-3.4c1.5-1.1,3.1-2.6,3.1-4.6
			C445.9,916.2,445.5,915.6,445,915.5z"/>
		<path class="st6" d="M471.6,895.6c-1.3,0.3-2.3,0.9-3.5,1.6c-0.6,0.4-1.4,1.2-2.1,1.3c-0.9,0.2-1,0.1-1.9-0.3
			c-2.4-1.2-5.8-1.9-7.7-3.8c-0.5-0.5-1.2,0.2-0.8,0.8c2.5,3.1,3.3,7.7,7.5,9.2c2,0.7,3.5,0,5-1.4c1.7-1.6,3.7-3.3,4.8-5.4
			C473.7,896.5,472.7,895.3,471.6,895.6z"/>
		<path class="st6" d="M471,906.4c-2.4,1.3-4.6,3.9-7.2,4.6c-1.4,0.4-2.6-0.5-3.8-1.1c-0.7-0.3-2.4-0.8-2.9-1.3
			c-0.4-0.4-1.1,0.1-0.9,0.7c0.3,0.5,0.1,1.5,0.3,2.1c0.2,0.9,0.7,1.7,1.2,2.4c1.3,1.6,3.3,2.8,5.4,2.9c4,0.2,8.6-3.4,11-6.3
			C475.8,908.2,473.6,904.9,471,906.4z"/>
		<path class="st6" d="M469,882.7c-1.4,0.7-2.5,1.7-3.6,2.6c-0.3,0.3-0.6,0.5-0.9,0.8c-0.4-0.2-0.8-0.4-1.2-0.6
			c-1.2-0.7-2.4-1.5-3.6-2.1c-1.2-0.6-1.9-0.5-3.1-0.7c-0.5-0.1-1.1,0.2-1,0.8c0.1,2,0.3,3.3,1.8,4.9c1.3,1.4,3.1,2.8,4.9,3.4
			c4,1.4,8-3,10.1-6C473.7,883.9,470.9,881.6,469,882.7z"/>
		<path class="st6" d="M471,865.3c-1.5,1-3.3,1.5-4.8,2.5c-0.8,0.5-1.9,1.5-3,2.1c-0.4-0.5-0.9-1.2-1.2-1.6
			c-0.6-0.7-1.2-1.4-1.8-2.1c-1.2-1.3-2.5-2.7-4.3-2.4c-0.7,0.1-1.4,0.5-1.6,1.2c-0.7,2.3,1.2,4.2,2.6,5.9c1.4,1.6,3.1,4.4,5.5,4.6
			c2,0.2,3.8-1.7,5.2-3c0.9-0.8,1.9-1.8,2.6-2.8c0.7-1,1.1-2.3,1.8-3.3C472.3,865.7,471.5,864.9,471,865.3z"/>
		<path class="st6" d="M471,851.2c-1.4,1-2.5,1.9-3.7,3.1c-0.3,0.3-1.2,1.4-1.7,1.7c0.2-0.2-0.7-0.7-1.1-1c-2.3-2.2-4.3-4.8-7.2-6.1
			c-0.3-0.1-0.6,0-0.6,0.4c-0.3,4.2,3.5,9.4,6.9,11.6c4,2.6,8.8-3.7,10.2-6.9C474.4,852.3,472.8,850,471,851.2z"/>
		<path class="st6" d="M471.6,835.6c-2.6,0.3-5.4,2.1-7.5,3.7c-0.4-0.4-1-0.8-1.3-1.1c-1.2-1.1-2.4-1.9-4-2.4
			c-1.7-0.5-3.4,1.2-2.9,2.9c1,3.1,5,7.7,8.7,6.6c1.8-0.6,3.3-2.3,4.6-3.5c1.5-1.5,2.9-2.8,3.3-5
			C472.6,836.2,472.2,835.5,471.6,835.6z"/>
		<path class="st6" d="M471.5,821.5c-2.6,0.2-3.6,2.5-5,4.5c-0.2,0.2-0.6,1.1-0.9,1.2c-0.1,0-1.5-0.8-1.7-0.9
			c-1.3-0.7-2.9-1.2-4.1-2.2c-0.4-0.3-1.1,0.1-0.8,0.6c1.7,2.6,3.9,5.7,7.5,5.4c1.5-0.1,2.6-1.3,3.7-2.3c1.5-1.3,3.1-2.4,3.1-4.5
			C473.2,822.4,472.5,821.4,471.5,821.5z"/>
		<path class="st6" d="M472,813.3c-1.2,1-2.5,1.7-3.9,2.3c-1.4,0.6-2.6,1.5-3.9,0.7c-1.7-1-2.7-2.6-5-1.8c-1.5,0.5-1.9,2.2-0.9,3.4
			c1.6,2,4,4.1,6.8,3.2c3.4-1.1,5.3-4.7,7.5-7.2C473,813.5,472.4,812.9,472,813.3z"/>
		<path class="st6" d="M446.2,878.6c-1.5-0.9-3.1,0.4-4.2,1.3c-0.7,0.6-1.3,1.2-2,1.7c-0.4,0.4-0.8,0.7-1.3,1.1
			c-0.1,0-0.3-0.1-0.5-0.2c-2-0.2-4.3-1.6-6.1-2.5c-1.2-0.5-2.5,0.9-1.5,1.9c2.3,2.1,5.1,7,8.8,6.1c1.6-0.4,2.9-1.9,4.1-2.9
			c1.2-1.1,3.3-2.4,3.7-4.1C447.4,880.1,447.1,879.1,446.2,878.6z"/>
		<path class="st6" d="M444.5,868.4c-0.8,0.6-1.8,0.8-2.8,1.2c-0.8,0.3-2.3,1.3-3.2,1.2c-1.5-0.1-3.5-2.4-4.7-3.3
			c-1.4-0.9-3.6-2.3-5.2-1.1c-1,0.8-1.1,2.1-0.6,3.2c0.8,1.8,2.7,2.9,4.2,4.1c1.6,1.2,3.3,2.6,5.4,2.7c1.9,0.1,3.5-0.9,4.8-2.1
			c1.7-1.5,2.2-3.2,3.4-4.9C446.5,868.6,445.2,867.8,444.5,868.4z"/>
		<path class="st6" d="M442.4,854.1c-0.9,0.7-1.8,1.4-2.6,2.3c-0.2,0.2-0.7,0.9-1.1,1.2c0-0.1-0.7-0.2-0.9-0.3
			c-1.8-0.7-4.4-2.1-5.5-3.8c-0.2-0.3-0.6-0.2-0.6,0.2c0.1,3.5,0.9,6.4,4.2,8.3c4,2.3,7.2-0.6,9.8-3.7
			C447.4,856.1,445,852.1,442.4,854.1z"/>
		<path class="st6" d="M442.7,843.4c-2.2,1.2-5.1,3.8-7.3,1.5c-1.6-1.7-2.5-4.2-5.3-3.9c-1.3,0.1-2.8,1.4-2.2,2.9
			c1.1,2.9,4.6,6.6,7.8,7.1c4.2,0.7,7.2-2.9,8.4-6.5C444.4,843.7,443.4,843,442.7,843.4z"/>
		<path class="st6" d="M445.4,831.5c-0.4-2.5-4-2-4.6,0c-1.7,5.1-6.3-0.4-9.1-1.5c-0.4-0.1-0.7,0.4-0.4,0.7c2.8,2.5,2.5,7.4,7.3,7.8
			C442.6,838.9,446,835.5,445.4,831.5z"/>
		<path class="st6" d="M443.9,817.5c-0.8,0.7-2,1.2-2.9,1.8c-0.9,0.6-2.4,2-3.5,1.8c-0.9-0.1-2.2-2.4-2.9-3c-1.1-1-2-1.5-3.5-1.5
			c-1,0-1.7,0.9-1.8,1.8c-0.2,2.4,1.6,4.2,3.1,5.8c1.4,1.6,3.1,2.9,5.4,2.4c1.8-0.3,3.4-1.7,4.5-3.1c1.5-1.8,1.8-3.3,2.4-5.5
			C444.9,817.4,444.3,817.1,443.9,817.5z"/>
	</g>
	<path class="st3" d="M302.6,638c0,0-13.9-1.1-17.6,15.7c-3.7,16.8,9.5,43.6,39.9,44.1c0,0,9.5-2.1,17.9,8.4
		c8.4,10.5,24.2,27.3,56.2,32.6c0,0,20.5,4.2,25.7,26.8c0,0,11,10,34.1,8.9c23.1-1.1,35.2-21.5,38.9-30.5c3.7-8.9,3.7-10,14.2-13.1
		c10.5-3.2,38.3-15.2,51-33.6c12.6-18.4,15.8-23.6,26.8-29.4c11-5.8,25.2-17.9,26.8-44.7c1.6-26.8-9.1-39.9-23.2-40.2l-150.1-81.7
		l-30.5,4.2L302.6,638z"/>
	<path class="st2" d="M310.6,640c0,0,4.5,16.1,9.3,22.5c4.8,6.4,13.7-0.8,12.1-12.9c-1.6-12.1-4.8-33-4.8-33s52.3,2.4,93.3-107
		c0,0,7.2,16.1,10.5,29.8c3.2,13.7,6.4,26.6,19.3,20.1c12.9-6.4,4-40.2,3.2-43.4c0,0,24.1,44.3,58.7,70
		c34.6,25.7,56.3,17.7,56.3,17.7s-2.4,20.1,4.8,22.5c7.2,2.4,12.1-4,13.7-13.7c1.6-9.7,1.5-26.2,1.5-26.2s10.6-105.7-143.9-121
		C290.2,450.1,284.4,598.2,310.6,640z"/>
	<path class="st4" d="M302.6,638c0,0-12.1-27.5-7.4-64.3c4.7-36.8,26.8-69.7,69-91.8c0,0-30.8-10.7-45.5-38.2
		c-14.7-27.5-7.4-44.2,13.4-32.8c20.8,11.4,35.5,36.2,35.5,36.2s-8-46.9,2.7-68.3s18.8-6.7,22.1,16.7c3.3,23.4-1.3,65-10,79
		c0,0,68.3-38.8,143.3,2.7c70.3,45.5,66.3,97.8,67.6,105.8c0,0-2,2.7-4.7,3.3c0,0,3.3-45.5-48.9-86.4
		c-52.2-40.9-114.5-34.8-156.1-13.4c-41.5,21.4-95.1,59.6-73.7,148.7l0.7,4.7L302.6,638z"/>
	<path class="st7" d="M299.4,652.5c0,0,10.5,2.9,18.8,13.7c8.3,10.8,9.8,17,8,18.1c-1.8,1.1-3.6,1.1-4.7-2.2
		c-1.1-3.3-2.9-10.5-7.6-12.3c-4.7-1.8-11.6-0.7-13-0.7c-1.4,0-1.4-2.9,2.9-4.3c4.3-1.4,9.8,0.7,9.8,0.7s-7.2-7.2-14.5-7.6
		C291.9,657.6,290,652.1,299.4,652.5z"/>
	<path class="st2" d="M395.9,607.7c0,0-4.3,4.7-10.8,7.6c-6.5,2.9-10.1,2.5-5.1-2.2c5.1-4.7,8-4.7,11.6-9S398.8,603.4,395.9,607.7z"
		/>
	<path class="st4" d="M461.7,644.9c0,0-1.8,14.5,4.3,18.1c6.1,3.6,6.1-2.5,3.6-7.6c-2.5-5.1-5.1-9.4-6.5-11.2
		C461.7,642.4,461.7,644.9,461.7,644.9z"/>
	<path class="st5" d="M508.3,633.7c0,0-1.4,4-7.2,2.9c-5.8-1.1-5.1-9.4-1.8-13.4c3.3-4,10.8-3.3,10.5,6.1L508.3,633.7z"/>
	<path class="st5" d="M396.3,644.9c0,0-0.4,4-6.9,2.9c-6.5-1.1-6.9-11.6-4.7-14.8c2.2-3.3,8.7-4.3,11.6,2.2
		C399.2,641.7,396.3,644.9,396.3,644.9z"/>
	<path class="st4" d="M444,673.1c0,0,8.7,8,24.2,4.3c0,0,3.3-1.1,4,0.7c0.7,1.8-3.6,3.6-9,4.3c-5.4,0.7-13-0.4-20.6-4.3
		c0,0-3.3-1.4-2.2-4.7C440.4,673.5,442.2,671.3,444,673.1z"/>
	<path class="st7" d="M388.4,694.1c0,0,4.3-2.9,6.9-7.6c2.5-4.7-1.4-16.3-8.7-23.9c-7.2-7.6-18.8-9.8-31.8-5.1
		c-13,4.7-5.4,20.2-2.2,27.8c3.3,7.6,13,15.5,22.4,14.8C384.4,699.5,388.4,694.1,388.4,694.1z"/>
	<path class="st7" d="M510.9,683.9c0,0-6.9-10.5-4-22.4c2.9-11.9,17.7-25.3,24.2-27.1c6.5-1.8,18.8,1.8,21,18.4
		c2.2,16.6,1.1,26-9.8,32.9C531.5,692.6,519.5,695.2,510.9,683.9z"/>
	<path class="st7" d="M583.9,647.4c0,0,0.4,4,2.9,3.3c2.5-0.7,1.1-3.3,1.1-6.5c0-3.3,1.8-12.3,9-17.7c7.2-5.4,9.4-5.4,10.5-6.9
		c1.1-1.4-1.4-3.3-4.3-1.1c-2.9,2.2-10.1,7.2-10.1,7.2s5.4-13,7.2-16.6c1.8-3.6-0.4-6.5-3.3-2.5c-2.9,4-10.1,18.1-12.3,30.7
		C584.6,637.3,582.8,644.2,583.9,647.4z"/>
	<path class="st2" d="M512.7,596.1c0,0-1.1,1.8-4,0.7s-6.5-4.3-9.8-4.3c-3.3,0-4.7,1.1-7.6,1.1c-2.9,0-5.4-2.5-2.5-4.7
		s4.7-3.6,12.6-0.7C509.4,591.1,513,594.3,512.7,596.1z"/>
	<path class="st7" d="M498.4,737.6c0,0-13.8,5.9-24.4,7.7c-10.6,1.8-19.7,2-25,1.8s-3.3-2.8-0.6-3c2.8-0.2,13.2,1.2,26.6-2.4
		c13.4-3.5,20.5-6.9,21.7-7.1C497.8,734.4,499.6,735.6,498.4,737.6z"/>
	<path class="st7" d="M339.8,750.6c0,0,3.2-0.8,4.1,0.2c1,1,0.2-2.6-1.6-2.6C340.6,748.2,339.6,749.4,339.8,750.6z"/>
	<path class="st7" d="M348.5,753.7c0,0-1.2-1.4-2.2-1.4c-1,0-0.8-1.8,1-1.8c1.8,0,3,0.6,3.2,1.8
		C350.6,753.5,349.6,754.1,348.5,753.7z"/>
	<path class="st7" d="M359.5,757.7c0,0-2.4-0.2-3.9-0.6c-1.6-0.4-2.6-1.8-0.8-2C356.5,754.9,359.5,754.9,359.5,757.7z"/>
	<path class="st7" d="M367.8,759.2c0,0-2.2,1-3.3,0.4c-1.2-0.6-1.6-2.8-1.6-2.8S367.8,757.1,367.8,759.2z"/>
	<path class="st7" d="M353.8,736.6c0,0-3.7,6.7-4.7,14.4l-2.6,0.2c0,0,0.6-9.3,6.1-16.7C352.6,734.4,354,735,353.8,736.6z"/>
	<path class="st7" d="M361.3,738.4c0,0,1.4,2,0.8,3c-0.6,1-3.3,5.1-5.5,12.8c0,0-0.8,0.4-1.8,0.2c-1-0.2-1.2-1.8-0.2-5.3
		C355.5,745.5,359.7,739.7,361.3,738.4z"/>
	<path class="st7" d="M373.5,743.7c0,0-4.1,6.7-5.7,10.8c-1.6,4.1-2.2,4.1-2.2,4.1l-1.8-1.2c0,0,2.4-6.5,5.7-12.2
		C372.9,739.5,374.1,740.9,373.5,743.7z"/>
	<path class="st8" d="M362.8,890.2c0,0,1.5-7.6,12.1-2.3c10.6,5.3,78.8,41.7,78.8,41.7s10.6,1.5,7.6,12.1
		c-3,10.6-55.3,84.1-55.3,84.1l-29.6,40.2c0,0-8.3,8.3-22,1.5c-13.6-6.8-72-40.2-75.8-43.2c-3.8-3-6.1-8.3,0.8-18.9
		C286.3,994.8,362.8,890.2,362.8,890.2z"/>
	<path class="st9" d="M283.3,1006.1c0,0,75-99.3,79.6-106.1c4.5-6.8,8.3-9.1,14.4-5.3c6.1,3.8,18.9,9.1,22.7,12.9
		c3.8,3.8-3,4.5,0,7.6c3,3,3.8,5.3,9.1,5.3s6.1-5.3,10.6-3.8c4.5,1.5,8.3,6.1,18.2,10.6c9.9,4.5,18.2,6.8,17.4,12.1
		c-0.8,5.3-71.2,103.1-75.8,111.4s-9.9,11.4-18.9,9.9s-63.7-33.3-69-37.1C286.3,1019.8,274.9,1021.3,283.3,1006.1z"/>
	<path class="st9" d="M412.3,912.7c-0.1-0.3-0.3-0.6-0.4-0.8c-0.1-0.3-0.3-0.5-0.5-0.7c-0.3-0.3-0.6-0.5-1-0.7
		c-0.8-0.5-1.7-0.8-2.6-0.7c-0.7,0.1-1.3,0.2-1.8,0.7c-0.4,0.4-0.7,0.9-0.7,1.5c-0.8,1.2-1,2.9-0.2,4.2c1.1,1.8,3.4,2.1,5.3,1.2
		C411.8,916.5,413,914.5,412.3,912.7z"/>
	<path class="st5" d="M290.9,1006.1l70.5-97.8c0,0,4.5-8.3,12.9-4.5c8.3,3.8,60.6,31.8,64.4,34.9c3.8,3,8.3,3,3.8,11.4
		c-4.5,8.3-71.2,98.5-71.2,98.5s-4.5,6.8-11.4,6.1c-6.8-0.8-62.1-32.6-68.2-35.6C285.5,1016,285.5,1012.9,290.9,1006.1z"/>
	<path class="st4" d="M363.7,1014.5c0,0-9.1,11.4-22.7,9.9c-13.6-1.5-24.2-15.2-15.2-34.9c9.1-19.7,41.7-15.9,43.2,6.8
		C370.5,1019,363.7,1014.5,363.7,1014.5z"/>
	<path class="st6" d="M404.8,976.7l16.5-22.7c2.3-3.2,1.1-7.7-2.5-9.2l-0.5-0.2c-2.7-1.2-5.8-0.3-7.5,2.1l-16,22.9
		c-2.1,3-1.1,7.1,2,8.8l0,0C399.5,979.9,403,979.2,404.8,976.7z"/>
	<path class="st4" d="M392.5,961.4l12.2-15c2.3-3.2,1.1-7.7-2.5-9.2l-0.5-0.2c-2.7-1.2-5.8-0.3-7.5,2.1l-11.7,15.3
		c-2.1,3-1.1,7.1,2,8.8l0,0C387.2,964.7,390.6,963.9,392.5,961.4z"/>
	<path class="st4" d="M377.3,954.6l12.2-15c2.3-3.2,1.1-7.7-2.5-9.2l-0.5-0.2c-2.7-1.2-5.8-0.3-7.5,2.1l-11.7,15.3
		c-2.1,3-1.1,7.1,2,8.8l0,0C372,957.9,375.5,957.1,377.3,954.6z"/>
	<path class="st4" d="M367.5,941l7.6-9c2.3-3.2,1.1-7.7-2.5-9.2l-0.5-0.2c-2.7-1.2-5.8-0.3-7.5,2.1l-7.1,9.2c-2.1,3-1.1,7.1,2,8.8
		l0,0C362.2,944.2,365.6,943.5,367.5,941z"/>
	<path class="st6" d="M351.4,997h25.2c1.4,0,2.4,1.4,1.9,2.8l-6.9,17.2c-0.5,1.3-2.2,1.7-3.3,0.7l-18.3-17.2
		C348.7,999.3,349.5,997,351.4,997z"/>
	<path class="st3" d="M451.1,960.6c0,0,16.9,20.2,19.8,34.6c0,0-21.6,6.8-36,8.6c-14.4,1.8-19.4,2.5-21.6,1.4
		c-2.2-1.1-4-6.8,2.5-10.1c6.5-3.2,14.4-6.1,14.4-6.1L451.1,960.6z"/>
	<path class="st7" d="M413.9,1000.3c0,0,4.4-5.8,10.1-6.9c5.7-1.2,8.4-0.9,9.9-3.5s5.1-8.5,11.6-10s7.1-2.9,6-3.3
		c-1.1-0.4-4.3-1.1-10.7,1.4c-6.3,2.5-7.1,5.3-8.3,8.6c-1.2,3.3-4.6,3.7-8.8,4.4c-4.1,0.7-8.9,3.1-11.1,7.3
		C412.7,998.3,412.1,1000.2,413.9,1000.3z"/>
	<path class="st2" d="M161.4,849.2l-23.1-20.7c0,0-5.8-2.5-0.8-9.1s7.4-15.7,19-6.6l19.8,16.5L161.4,849.2z"/>
	<path class="st2" d="M180.4,821.9l-41.3-31.4c0,0-3.3-3.3,1.7-10.7c5-7.4,9.9-16.5,18.2-11.6c8.3,5,30.6,22.3,30.6,22.3
		s6.6,2.5,7.4,7.4C197.8,802.9,180.4,821.9,180.4,821.9z"/>
	<path class="st2" d="M206.1,789.7l-34.7-26.4c0,0-4.1-1.7,0.8-8.3c5-6.6,10.7-19,19-14c8.3,5,32.2,23.1,32.2,23.1L206.1,789.7z"/>
	<path class="st2" d="M653.7,761c0,0,1,4.2,4.2,1.6c3.1-2.6,21.4-22,21.4-22l-2.1,12c0,0-2.1,9.4,3.7,6.8
		c5.8-2.6,42.4-31.9,42.4-31.9l2.1,5.2c0,0,1.6-1,3.7-4.2c2.1-3.1,4.2-12.5,4.2-12.5s-0.5-2.1-5.8-1c-5.2,1-13.6,4.2-5.8,7.3
		L684,752.1l-0.5-16.7c0,0-1-5.8-6.8,0C670.9,741.2,653.7,761,653.7,761z"/>
	<path class="st4" d="M230.6,754.7c-20.8,30.7-42.7,60.8-65.7,90c-3,3.8-6,7.6-9,11.3c-2-1.5-4-3.1-6-4.6
		c-6.5-5.1-12.9-10.3-19.2-15.8c-6.2-5.5-12.3-11.1-18.2-16.9c-3-3-5.9-6-8.8-9c-2.8-2.9-5.5-6.8-8.9-8.9c-3.2-2-6.2,1.8-4.8,4.8
		c1.7,3.6,5.5,6.8,8.2,9.6c2.9,3.1,5.8,6.1,8.8,9.1c6,5.9,12.1,11.7,18.4,17.3c6.3,5.6,12.8,10.9,19.5,16.1c2,1.5,4,3.1,6,4.6
		c-2,2.4-3.9,4.8-5.9,7.2c-2,2.5,1.5,6.1,3.6,3.6c2.2-2.6,4.3-5.3,6.4-7.9c0,0,0.1,0.1,0.1,0.1c1.6,1.1,3.2,2.1,5.1,2.8
		c2,0.8,4.2,0.8,6.3,1.1c0.4,0.1,0.8-0.3,0.5-0.7c-0.9-1.7-1.6-3.5-2.8-5c-1.3-1.7-2.9-2.9-4.5-4.2c0,0,0,0,0,0
		c19.7-24.6,38.6-49.7,56.8-75.4c6.2-8.7,12.3-17.5,18.3-26.4C236.8,754.6,232.4,752.1,230.6,754.7z"/>
	<path class="st4" d="M203.5,658.7c-3.2,1.7-6.2,3.6-9.4,5.4c0-2.2-0.5-4.5-0.6-5.9c-0.4-4.2-0.2-9.2-1.8-13.1c-1-2.4-5-1.7-5.6,0.7
		c-0.5,2.5,0,5.1,0.3,7.6c0.2,2.4,0.5,4.8,0.8,7.2c0.1,1.1,0.3,3.8,1,6c-2.6-0.4-5.2-0.8-7.7-1.2c-3.6-0.6-7.6-1.7-11.2-1.1
		c-2.8,0.5-3.3,4.9-0.8,6.1c3.2,1.6,7.4,1.7,11,2.1c2.1,0.3,4.3,0.6,6.4,0.9c-1,2.5-2,5-2.9,7.5c-1.3,3.5-3.1,7.3-2.5,11.1
		c0.3,1.9,2.6,1.9,3.7,1c2.9-2.3,4.2-6.8,5.5-10.2c1-2.4,1.9-4.8,2.9-7.3c1.4,1.3,2.7,2.7,4,4.1c2.2,2.3,4.2,5.3,7.4,6.1
		c1.4,0.4,2.3-0.6,2.5-1.9c0.4-3.5-2.2-6.6-4.2-9.2c-1.1-1.5-2.3-2.9-3.6-4.3c3.3-1.8,6.5-3.7,9.1-6.2
		C210.7,661.4,206.9,656.9,203.5,658.7z"/>
	<path class="st4" d="M712.2,795.1c-11.5-8-25.1-12.5-38-17.6c-6.4-2.5-12.8-5.1-19.2-7.9c-2.9-1.3-5.7-2.6-8.5-4
		c0.4-0.7,0.7-1.4,1.1-2.1c2-3.9,3.7-7.8,5.6-11.7c3.8-8.2,7.6-16.4,11.3-24.5c3.8-8.2,7.4-16.5,11.1-24.7
		c3.7-8.1,7.7-16.2,11.1-24.5c1.3-3.3-4.1-5.5-5.7-2.4c-4.1,8-7.6,16.4-11.3,24.6c-3.7,8.2-7.6,16.3-11.4,24.5
		c-3.7,8.2-7.5,16.4-11.2,24.6c-1.7,3.9-3.5,7.8-5.1,11.7c-0.3,0.7-0.6,1.4-0.9,2.2c-1.6-0.4-3.2-0.6-4.7-0.1
		c-0.5,0.2-0.8,0.6-0.7,1.2c0.3,2,1.8,3.5,3.4,4.8c-0.3,1.5-0.2,3-0.2,4.6c0,0.5,0.5,0.6,0.8,0.3c1.1-0.9,2.1-1.7,2.9-2.7
		c2.8,1.5,5.7,2.9,8.6,4.2c6.3,2.9,12.8,5.5,19.2,8.1c13,5.2,25.4,11.4,37.6,18.1C712.8,804.4,716.4,798,712.2,795.1z"/>
	<path class="st4" d="M696,594.1c-2.9,4.4-4.7,9.6-6.8,14.4c-2.2,5-4.4,10.1-6.6,15.1c-2.1,4.9-4.3,9.8-6.4,14.7
		c-1,2.4-2.1,4.8-2.9,7.2c-0.4,1.2-0.7,2.5-0.9,3.7c-0.2,1.5,0.1,2.4,0.3,3.9c0.1,1.1,1.2,1.6,2.1,0.9c1-0.8,1.8-1.1,2.7-2.1
		c0.8-1,1.5-2.1,2.1-3.2c1.3-2.2,2.3-4.6,3.4-7c2.2-5,4.5-10.1,6.7-15.1c2.2-4.9,4.3-9.8,6.5-14.6c2.2-4.9,4.9-10,6.2-15.2
		C703.3,592.9,698.2,590.8,696,594.1z"/>
	<path class="st4" d="M677,616.4c-2.2-4.6-7.8-6.8-12.5-4.4c-4.7,2.5-6.3,8.6-3.5,13.1c2.2,3.5,6.2,4.6,9.5,3c0.3,0,0.5,0,0.8,0
		C676.6,627.5,679.2,620.8,677,616.4z M665.8,622c-1-1.9-0.3-4.2,1.6-5.3c1.6-0.9,4.2-0.2,4.9,1.7c0.9,2.3-1.1,4-2.9,5
		c-0.5,0.3-0.8,0.6-1.1,1C667.2,623.8,666.3,623,665.8,622z"/>
	<path class="st4" d="M711.2,631c-3.7-4.6-11.2-5.1-15.4-1c-4.4,4.2-4.3,12.4,0.5,16.2c2.4,1.9,5.4,2.6,8.4,2
		c1.2-0.2,2.2-0.7,3.1-1.4c0.4,0.1,0.9,0,1.3-0.4C713.9,642.9,715.1,635.7,711.2,631z M699.9,642.5c-2.9-1.9-3.6-6.5-1.2-9.1
		c2.3-2.4,6.8-2.3,9,0.1c2.7,2.9,1.3,7.1-1.5,9.3c-0.3,0.3-0.5,0.6-0.6,0.9C703.5,643.8,701.1,643.3,699.9,642.5z"/>
	<path class="st4" d="M645.9,560.4C645.9,560.4,645.9,560.4,645.9,560.4c-2.1-3.2-6.1-4.1-9.4-2.2c-3.5,2-4.3,6.6-2.2,9.9
		c2.1,3.4,6.6,4.7,10,2.4C647.7,568.2,648.7,563.6,645.9,560.4z"/>
	<path class="st4" d="M699.3,465.4c-4.8-0.3-9.9,0.8-14.7,1.4c-4.8,0.6-9.7,1.3-14.5,2c-4.5,0.7-9.1,1.4-13.6,2.2
		c-4.7,0.9-9.9,1.4-14.5,2.8c-4.5,1.4-4.6,4.6-4.4,8.8c0.2,4.6,0.2,9.2,0.2,13.9c0,5,0.6,9.9,1.2,14.8c0.4,3.2,0.9,6.4,1.7,9.5
		c-2-2.2-3.6-4.8-5.5-7c-2.1-2.4-5.7-6.5-9.2-6.3c-0.6,0-1.1,0.5-1.1,1.1c0,3.5,4.3,6.7,6.8,8.7c3.6,2.8,8.1,4.6,10.8,8.5
		c0.8,1.3,2.6,0.7,2.7-0.7c0.6-7.6-0.7-15.6-1.5-23.1c-0.4-3.8-1.1-7.6-1.4-11.4c-0.1-2-0.2-4-0.3-5.9c-0.1-1.5-0.3-3.3,0-4.8
		c1.6-0.7,3.9-0.7,5.6-1c2.6-0.5,5.2-0.9,7.8-1.4c4.9-0.8,9.7-1.6,14.6-2.4c4.9-0.8,9.8-1.5,14.8-2.1c5-0.7,10.5-0.7,15.4-2.1
		C703.2,470,702.4,465.6,699.3,465.4z"/>
	<path class="st4" d="M188.3,567.3c-0.2-0.6-0.5-1.2-1-1.7c-0.7-0.7-1.6-1.1-2.6-1.1c-1,0-2,0.4-2.6,1.1c-0.5,0.5-0.8,1-1,1.7
		c-0.2,0.7-0.2,1.3,0,2c0,0.2,0.1,0.4,0.1,0.6c0.1,0.3,0.2,0.6,0.4,0.9c0.2,0.4,0.5,0.8,0.9,1c0.2,0.2,0.5,0.4,0.8,0.5
		c0.4,0.2,0.9,0.3,1.4,0.3c0.6,0,1.3-0.2,1.8-0.5c0.4-0.2,0.8-0.5,1-0.9c0.3-0.4,0.5-0.8,0.7-1.2c0-0.2,0.1-0.4,0.1-0.6
		C188.5,568.7,188.5,568,188.3,567.3z"/>
	<path class="st4" d="M248.1,537.6c-0.4-6.1-7.4-11.1-13.3-8.9c-5,1.9-8,8.3-5.8,13.2c0.9,2,2.7,3.8,4.7,4.9
		c0.3,0.7,0.9,1.2,1.8,1.5C241.9,549.9,248.6,544.1,248.1,537.6z M235.6,534.1c2.5-0.5,5.4,1,5.8,3.7c0.4,3.1-2.5,4.6-5.1,4.6
		c-0.6,0-1.2,0.2-1.6,0.5c-0.8-0.4-1.4-1-1.9-1.7C231.4,538.8,233,534.7,235.6,534.1z"/>
</g>
</svg>
