<?xml version="1.0" encoding="utf-8"?>
<!-- Generator: Adobe Illustrator 22.0.0, SVG Export Plug-In . SVG Version: 6.00 Build 0)  -->
<svg version="1.1" id="Capa_1" xmlns="http://www.w3.org/2000/svg" xmlns:xlink="http://www.w3.org/1999/xlink" x="0px" y="0px"
	 viewBox="0 0 750 1624" style="enable-background:new 0 0 750 1624;" xml:space="preserve">
<style type="text/css">
	.st0{fill:#6228cf;}
	.st1{fill:#4E21B1;}
	.st2{fill:#E4C97A;}
	.st3{fill:#FDC50C;}
	.st4{fill:#1AB2BB;}
	.st5{fill:#FEE5C6;}
	.st6{fill:#F49898;}
	.st7{fill:#F12B49;}
	.st8{fill:#005874;}
	.st9{fill:#FF7000;}
</style>
<rect x="0.1" y="0.1" class="st0" width="749.9" height="1623.7"/>
<g>
	<g>
		<path class="st1" d="M408.9,1208.8c0,0-74.2,4.7-96.1,6.3c-21.9,1.6-32,3.1-46.1,14.1c-14.1,10.9-12.5,16.4-5.5,32
			c7,15.6,14.1,12.5,30.5,19.5c16.4,7,51.6,11.7,84.4,11.7s179,3.9,209.4-3.1c30.5-7,63.3-12.5,78.1-24.2
			c14.8-11.7,15.6-19.5,12.5-28.9c-3.1-9.4-7-14.8-29.7-18c-22.7-3.1-122.7-9.4-154-8.6S408.9,1208.8,408.9,1208.8z"/>
	</g>
	<g>
		<path class="st2" d="M602.5,1248.8c-0.7-2.2-2.7-3.3-5-2.8c-11,2.3-22.5,2.7-33.7,1.2c-2.7-0.4-5.5-0.9-8.2-1.5
			c-2.7-0.6-5.5-1.6-8.3-1.9c-2.8-0.3-5,0.8-7.7,1.4c-2.5,0.5-4.7-0.1-7.1-0.6c-1.2-0.3-2.2,0-3,0.5c-0.1-0.7-0.1-1.3-0.3-2
			c-0.4-1.7-2.9-2.5-4.1-1.1c-2.6,3.1-3.1,8.6-1.1,12.2c2.2,3.8,8.1,3.3,11.9,3.8c4,0.5,8.2,0.4,11.5-2.3c0.1-0.1,0.9-0.8,1.5-1.3
			c0,0,0.1,0.1,0.1,0.1c1.3,1.4,2.4,2.7,4.1,3.6c3.8,2,9,1.7,13.2,2c5.1,0.3,10.1,0.4,15.2,0.2c4.8-0.2,10.1-0.3,14.8-1.6
			C600.5,1257.3,604,1253.4,602.5,1248.8z"/>
	</g>
	<g>
		<path class="st2" d="M411.8,1242.2c0,0,0.6,3.2,0.6,7c0,3.8,2.5,6.1-2.2,7.3c-4.8,1.3-12.4,1.6-15.9,1.3c-3.5-0.3-4.1-3.8-6.4-4.5
			c-2.2-0.6-3.8,1.3-5.4,3.5c-1.6,2.2-7,2.5-20.1,2.2c-13.1-0.3-17.8-1-21.3-1.3c-3.5-0.3-5.1-1-5.7-4.1c-0.6-3.2-2.2-6.1,1.3-8.6
			C340.1,1242.5,411.8,1242.2,411.8,1242.2z"/>
	</g>
	<g>
		<path class="st3" d="M600.4,1227.5c-2-4.1-11.9-10.5-27.2-11.9c0,0-5.8,1-8.2-2c-2.4-3.1-0.7-19.4-2.4-24.5
			c-1.7-5.1-16-15.3-16-15.3l-5.8,5.4l-11,2.2c-0.4,1.7-1.7,3.1-3.4,3.6c0,0,0,0-0.1,0c-0.4,0.3-0.7,0.4-1,0.6c0.1,0,0.1,0,0.2-0.1
			c0,0-0.1,0-0.1,0.1c-0.8,0.4-1.6,0.7-2.4,0.7c0,0-0.1,0-0.1,0c-0.1,0.1-0.2,0.1-0.3,0.1c-0.2,0.1-0.4,0.3-0.7,0.4
			c0,0-0.1,0.1-0.3,0.3c-0.8,1.6-2.3,2.6-4.2,2.7c-0.3,0-0.6,0-0.9-0.1l-0.4,2.3l0.7,0.8c1.1,0.1,2.5,0.6,3.2,1.4
			c0.5,0.6,0.9,1.2,1.2,1.9c0,0,0,0,0,0c0.1,0.1,0.1,0.3,0.2,0.4c0,0.1,0.1,0.3,0.1,0.4c0,0,0,0,0,0.1c0,0.3,0.1,0.5,0.1,0.8
			c0,0,0,0.1,0,0.1v0.1l0.6,0.7c0,0,1.8,22.9,2.1,28.3c0.3,5.4,1,10.9,0.7,12.9s-1,3.7,4.1,5.1c5.1,1.4,14.3,3.4,35.4,3.1
			c21.1-0.3,33.7-0.3,33.7-0.3s5.8-0.7,5.8-3.7C603.8,1241.1,602.5,1231.6,600.4,1227.5z"/>
	</g>
	<g>
		<path class="st3" d="M376.2,1189.8c0,0-0.6,4.1-1.3,9.2s-0.3,11.6-1.4,13.9c-1,2.4-11.9,2.4-20.4,5.8c-8.5,3.4-12.6,5.1-15.6,12.6
			c-3.1,7.5-4.1,13.9,1.7,14.6c5.8,0.7,50.7,3.1,57.8,2.7c7.1-0.3,12.9-1.7,12.9-1.7s3.1-1.4,3.4-5.8c0.3-4.4,2.7-31.3,3.1-34.3
			c0.3-3.1,0.8-10.5,0.8-10.5l4.3-6.9l-4.4-8.2l-20.7,0.7c0,0-10.2-7.1-13.3-6.5C380,1176.2,374.8,1182.7,376.2,1189.8z"/>
	</g>
	<g>
		<path class="st4" d="M370.4,1048l-6.8,22.7c0,0-10.3-0.4-14.7-2.4s-4.4-2-4.4-2l2-9.5c0,0-9.9-2.4-11.9-3.6
			c-2-1.2,1.6-10.7,1.6-10.7s-4.4,1.2-7.6,0.4c-3.2-0.8,0-8,0-8s13.5-33.8,14.3-39.8c0.8-6,2.4-20.3,7.2-29.8
			c4.8-9.5,9.3-19.5,16.4-20.1c7.1-0.6,7.9,7,7.9,7L370.4,1048z"/>
	</g>
	<g>
		<path class="st4" d="M730.5,976.4l-14.6,5.5l-4,8.4l-10.6-5.5l1.5-11.7l4.8-1.5l6.2,2.9l12.8-5.5l-13.2-9.9l-15.7,4l-5.5,14.6
			l-88.5,31.8l-11.3-5.1l-17.2,4.8l-5.5,16.1l4,12.8l12.8,8.4l19.4-6.2l4-13.9l85.6-30.7l15.7,9.5l19.8-9.1L730.5,976.4z
			 M597.3,1030.6l-8.8,3.3l-8-5.5l2.2-8.8l8.4-2.9l7.3,4.8L597.3,1030.6z"/>
	</g>
	<g>
		<path class="st5" d="M638.4,1020.8c0,0,1,1-1.9,2.5c-2.9,1.5-5.2-0.2-7.7-4.6c-2.5-4.4-2.3-6.6,0.2-7.9s4.2-0.6,7,4.1
			C638.6,1019.5,638.4,1020.8,638.4,1020.8z"/>
	</g>
	<g>
		<path class="st5" d="M647.7,1020.6c0,0-1.7,1.9-4.6,1.9c-2.9,0-4.6-7.1-6-10.2c-1.4-3.1-0.2-4.1,2.1-4.8c2.3-0.8,3.7,0.4,6,4.2
			C647.5,1015.6,648.9,1018.9,647.7,1020.6z"/>
	</g>
	<g>
		<path class="st5" d="M655.4,1016.8c0,0-1.7,1.7-4.2,1.5c-2.5-0.2-5.8-8.9-7-11c-1.2-2.1,1.7-3.9,4.4-3.9c2.7,0,5.6,5.6,7,8.9
			C657,1015.6,655.4,1016.8,655.4,1016.8z"/>
	</g>
	<g>
		<path class="st5" d="M668,1014.5c0,0-3.9,2.1-6.8,1.4c-2.9-0.8-5.6-7.9-5.6-7.9s-3.3,0.4-4.4-3.9c-1.2-4.2,1.7-5-0.4-6.6
			c-2.1-1.5-7-2.4-7-2.4l-20.1,7.7c0,0-4.7-6.3-5.3-9.6s1.7-5.2,3.9-7.5s-2.1-6.6-3.3-9.3s1.2-2.5,3.9-4.2s11.8-6,13.7-7
			c1.9-1,2.5-0.6,3.9,1.2c1.4,1.7,3.7,6.2,3.7,6.2s0.8,1,3.3,0.2c2.5-0.8,6-4.8,13.7,1.2c7.7,6,12.6,14.5,13.1,19.3
			c0.6,4.8-2.9,8.5-5.6,10.8C668.6,1004,672.6,1011.6,668,1014.5z"/>
	</g>
	<g>
		<path class="st6" d="M667.2,1004.7c0,0-8.5,3.4-10.7,4.4c-2.1,1-4.8-0.2-6.7-2.8c-2-2.6-0.8-3.9,0.2-5.6c1-1.6,1.8-2.6,1.8-2.6
			s-4.1-0.2-9.2-3c-5.1-2.8-6.1-6.4-6.2-8.4c-0.2-2,1.8-2.1,2.8,0c1,2.1,1.5,6.2,7.7,7.2c6.2,1,10,0.3,11.2,0.5
			c1.1,0.2,2.3,1.3-0.3,3.1c-2.6,1.8-5.2,3.3-5.9,4.9c-0.7,1.6,0.7,2.3,2.3,3.8c1.6,1.5,2.5,0.3,6.2-1c3.8-1.3,5.7-2.1,6.7-2.3
			C668,1002.9,669,1003.5,667.2,1004.7z"/>
	</g>
	<g>
		<path class="st7" d="M263.9,535.1c0,0-3.7-0.5-4.2,3.3c-0.5,3.7-1.4,7.9-1.4,7.9s-2.3-0.9-7.5,6.1c-5.1,7-6.5,28.9,1.4,77.3
			c7.9,48.5,28.4,80.6,43.3,106.7c14.9,26.1,65.7,79.2,96,92.3c0,0,2.8-0.5,0.9,5.1c-1.9,5.6-7.9,61.5-13,68.5
			c-5.1,7-7.5,7-9.3,12.6c-1.9,5.6-2.8,17.7-2.8,17.7s2.3,4.2,0.9,7c-1.4,2.8-1.9,5.6-1.9,5.6s4.7,3.7,4.2,7.5
			c-0.5,3.7,0,54,0.5,57.8c0.5,3.7-1.4,44.7-1.4,54c0,9.3-0.9,36.8-1.4,45.2c-0.5,8.4,0.5,44.3,0.9,48.5c0.5,4.2,1.4,13.5,0.9,15.8
			s-2.8,6.5-1.4,8.9c1.4,2.3,7.5,7,7.5,7s0.9-8.9,7-7.9c6.1,0.9,8.9-0.5,9.8,4.2c0,0,11.6,0.5,16.8,0.5c5.1,0,7-0.5,7.5,2.3
			s0,7.5,0,7.5s3.7,0,6.1-3.7c2.3-3.7,1.4-7.9,3.7-11.6c2.3-3.7,3.7-7,2.8-12.1c-0.9-5.1-0.5-7.9,1.4-13
			c1.9-5.1,17.2-104.4,17.2-104.4s7-29.4,10.7-33.1c3.7-3.7,5.6-5.6,11.2-2.3c5.6,3.3,10.7,10.3,11.6,18.6c0.9,8.4,7,31.2,10.7,43.8
			s11.2,62,11.2,67.6c0,5.6,3.3,9.3,2.3,12.6c-0.9,3.3,0.5,8.9,0.5,12.6s2.8,9.8,1.9,12.6c-0.9,2.8,3.3,9.3,6.5,11.6
			c3.3,2.3,6.1,1.4,6.1,1.4l0.3-7.4c0.1-1.8,1.6-3.3,3.4-3.3h18.6c1.4,0,3.3-2.8,7.5-4.7s7-0.9,8.4,2.3c1.4,3.3,3.7,10.3,3.7,10.3
			s3.7-3.7,5.6-7.5c1.9-3.7,0.5-14.4,0.5-14.4l2.3-14.4c0,0,0.9-36.8,1.4-42.9c0.5-6.1-2.8-72.2-3.3-79.7c-0.5-7.5-0.9-9.8,0.9-12.6
			s2.3-14.4,1.9-21.9c-0.5-7.5-1.9-21-3.3-24.7c-1.4-3.7-4.2-9.8-4.7-13.5c-0.5-3.7-1.4-19.6-1.4-19.6s1.4-6.1,3.3-13
			c1.9-7-1.9-14.9-3.7-19.6c-1.9-4.7-3.3-40.5-3.3-40.5s21.4,61.5,21.9,66.2c0.5,4.7,6.1,16.8,9.3,21.9c3.3,5.1,6.5,8.9,8.9,8.9
			c2.3,0,5.6,0,5.6,0s4.2,0,6.1,5.1c1.9,5.1,5.6,5.1,9.3,4.2c3.7-0.9,16.8-7.5,19.1-8.9c2.3-1.4,2.8-3.7,0.9-8.9
			c-1.9-5.1-3.3-11.2-3.3-11.2s4.7-3.3,1.4-15.4c-3.3-12.1-25.6-73.6-33.1-87.1c-7.5-13.5-19.1-39.1-23.8-48.9
			c-4.7-9.8-8.9-12.6-14-14c-5.1-1.4-7.5,0.9-15.4,0c-7.9-0.9-28.9-2.8-28.9-2.8s-3.3-8.9-5.1-9.8c-1.9-0.9-7-2.8-9.8-3.3
			c-2.8-0.5-65.2-4.2-65.2-4.2s-6.1,0-8.4,7.5l-2.8,4.2c0,0-7.9-1.4-9.8-1.9c-1.9-0.5-12.6-6.5-19.6-11.2
			c-7-4.7-32.6-25.6-50.3-44.7s-39.6-61.5-45.7-101.1c-6.1-39.6-3.7-54-6.1-57.3c-2.3-3.3-9.3-7.9-9.3-7.9s1.4-7,0.5-9.3
			C291,537.5,275.1,533.3,263.9,535.1"/>
	</g>
	<g>
		<path class="st5" d="M372.1,714.6c0,0-11.8-9.5-17.5-27.4c-5.7-17.9-8-27-8-27s-5.2,2.1-12.7-0.3c-7.5-2.3-18.4-9.1-22.8-30.4
			c-4.4-21.3,5.7-40,23.6-39.4c0,0,16.4-36.1,49.8-55.9c33.3-19.8,129.7-26.1,181.8-7.8c52.1,18.2,65.1,97.4,65.1,97.4
			s9.9-4.2,18.2-1s12.5,8.9,10.9,25c-1.6,16.2-6.8,26.1-13.5,31.8c-6.8,5.7-24,9.9-36.5,7.8c0,0-6.8,26.6-21.4,37.5
			c-14.6,10.9-40.1,17.2-55.7,20.3c-15.6,3.1-16.7,12-17.7,17.2c-1,5.2-0.5,7.8-0.5,7.8s-39.6,23.4-44.3,26.6
			c-4.7,3.1-9.4-5.7-14.1-10.9c-4.7-5.2-13.5-19.8-13.5-19.8s6.3-10.9-7.3-16.7c-13.5-5.7-32.8-11.8-47.4-19.7L372.1,714.6z"/>
	</g>
	<g>
		<path class="st8" d="M432.3,619.8c-3-4.7-8.8-3.7-10.8,1.1c-1.7,4-2.4,10.5,1.7,13.4c1.5,1,3.7,1.7,5.5,1.1c0,0,0.1,0,0.1-0.1
			c1.3,0.4,2.9-0.4,3.5-1.5C434.7,629.7,434.9,624,432.3,619.8z"/>
	</g>
	<g>
		<path class="st8" d="M513.8,622.1c-1-2.6-3-4.3-5.8-4c-3.4,0.3-5.1,2.6-6.1,5.6c-1,2.9-1.6,6.3,0.1,9.1c0.4,0.7,0.9,1.2,1.4,1.7
			c1.2,2,3.2,3.4,5.9,2.8C515.3,636.3,515.5,626.5,513.8,622.1z"/>
	</g>
	<g>
		<path class="st6" d="M415.4,654.5c-3.9-9.3-14.5-15.6-24.5-11.8c-12.6,4.8-13.2,20.1-5.8,29.7c4.3,5.6,11.1,6.2,17.6,4.9
			c4.9-1,9.5-3.7,10.9-8.3C417.2,664.9,417.5,659.5,415.4,654.5z M390.7,666.9c0.7,0.9,1.5,1.8,2.3,2.5c-0.2-0.1-0.5-0.3-0.7-0.5
			C391.7,668.4,391.1,667.7,390.7,666.9z"/>
	</g>
	<g>
		<path class="st6" d="M559.8,656.4c-1.2-6.2-5.3-11.7-11.3-14.1c-13.3-5.4-29.1,9.8-25.9,23.3c1.5,6.3,7.2,11.2,13.4,12.7
			c4.6,1.1,10.7,0.6,15.1-1.9c1.7-0.5,3.2-1.3,4.5-2.4C560.2,669.7,560.8,662.1,559.8,656.4z"/>
	</g>
	<g>
		<path class="st6" d="M328.7,610.8c0,0,3.6,0.2,9.5,11.8c5.9,11.6,5.1,16.9,4.2,18.8c-0.8,1.9-3.4,1.5-3.8,0.2
			c-0.4-1.3-0.6-6.5-0.6-6.5s-0.2-5.9-3.4-8.4c0,0-3.6-0.8-5.9-1.1c-2.3-0.2-1.9-2.3,0.4-3c2.3-0.6,3.6-0.8,3.6-0.8
			s-1.7-4.4-5.3-7.2C323.9,611.9,326.2,609.5,328.7,610.8z"/>
	</g>
	<g>
		<path class="st7" d="M461.7,644.3c0,0-1.7,4.2-2.5,6.1c-0.8,1.9-1.9,3.8,0,4.6c1.9,0.8,4.2-0.2,5.3-2.1c1.1-1.9,0.8-5.9,0-7.8
			C463.6,643.3,462.5,642.2,461.7,644.3z"/>
	</g>
	<g>
		<path class="st7" d="M455.2,668.3c0,0,3.4,7.6,9.5,8.2c6.1,0.6,8.8-0.8,11.8-5.3c3-4.4,5.1-3.6,5.5-1.9c0.4,1.7-3.8,7.6-9.7,10.5
			c-5.9,3-9.7,1.3-12.6-0.2c-3-1.5-6.1-7.2-7.4-9.3C450.9,668.3,452.8,666.6,455.2,668.3z"/>
	</g>
	<g>
		<path class="st6" d="M631.1,655.3c0,0-3.4,4-5.3,7c-1.9,3-2.9,3.8-4.2,4c-1.3,0.2-1.7-2.3,0.4-5.9c2.1-3.6,8.4-13.9,16.4-19.6
			c8-5.7,10.3-1.9,8.8-0.4c-1.5,1.5-3.2,0.6-7.2,4.4c-4,3.8-5.9,6.1-5.9,6.1s6.5,0.6,8.4,1.5c1.9,0.8,2.1,2.3,0.6,3.4
			c-1.5,1.1-3.2,0.6-4.8,0.6C636.8,656.3,631.1,655.3,631.1,655.3z"/>
	</g>
	<g>
		<path class="st8" d="M579.5,689.4c0,0-2.5,0.4-4-0.2c-1.5-0.6-3.6-1.3-3.6-1.3l-3.8,0.2c0,0-12.4,0.2-15,0.2c-2.5,0-2.9-0.6-4,0.4
			s-1.3,0.6-2.3,0.8c-1.1,0.2-1.1,0.6-1.7,0.6s-0.8-0.2-1.9-0.4c-1.1-0.2-2.5,0-2.5,0s-1.1,0.8-1.9,0.8c-0.8,0-2.1,0.6-2.1,0.6
			s-0.6,1.9,0.8,2.3s3.6,0.4,4.8,0.4c1.3,0,1.1,0.4,2.3,1.5c1.3,1.1,1.7,1.1,2.7,1.7c1.1,0.6,3,1.3,1.5,1.7c-1.5,0.4-2.1,0-3.4,0.6
			c-1.3,0.6-1.3,2.5-1.3,2.5l3.6,1.3c0,0,2.1,1.3,2.3,1.9c0.2,0.6,0.8,0.2,0.8,1.3c0,1.1,1.9,0.8,3,1.5c1.1,0.6,1.9,1.3,2.7,1.3
			s3.4,0,3.4,0s6.1,0,7.2,0.2c1.1,0.2,2.5-0.4,3.6-1.1c1.1-0.6,0.4-1.1,4-0.4c3.6,0.6,3.8,1.1,6.5,0.8c2.7-0.2,5.1-0.2,5.1-0.2
			s1.1-1.9,0.4-3c-0.6-1.1-4.4-1.9-4.4-1.9s-0.6-1.1-0.2-2.3c0.4-1.3-0.2-1.3-0.6-2.1s-0.8-1.5,0.2-1.5s3.4,0,3.4,0s1.1-1.5-0.2-2.3
			c-1.3-0.8-1.9-0.4-2.3-1.3s0.6-1.7,0.6-1.7l0.8-1.3l-0.2-1.7L579.5,689.4z"/>
	</g>
	<g>
		<path class="st8" d="M388.6,730.1c0,0,1.9,0,3.4-0.8c1.5-0.8,1.3-2.3,4.6-5.1c3.4-2.7,6.7-5.3,8.9-7.4c2.1-2.1,2.3-4,2.3-4
			s1.3-2.5,0-2.7c-1.3-0.2,0,0.8-1.3-0.2c-1.3-1.1-1.5-2.5-1.5-2.5l-1.3-1.7l-1.9-1.1l-0.8-1.3c0,0-1.7,0.2-2.1-0.4
			c-0.4-0.6,0.4-1.9-0.8-1.7c-1.3,0.2-1.3,0.8-2.1,1.1c-0.8,0.2-0.8-1.1,0.6-2.7c1.5-1.7,1.5-2.1,1.1-2.7c-0.4-0.6-1.9-1.1-1.9-1.1
			s-1.5,1.5-2.7,1.9c-1.3,0.4-3.6,2.5-3.6,2.5s-9.1,8-11.6,10.5c-2.5,2.5-2.3,2.1-4,3.2c-1.7,1.1-1.7,1.1-1.7,1.1
			S377.8,723.1,388.6,730.1z"/>
	</g>
	<g>
		<path class="st9" d="M636.5,624.8c0,0-8.4,3.6-13.2,10.8c-4.8,7.2-13.2,23.4-17.4,25.8c-4.2,2.4-12.6,2.4-14.4-9.6
			c-1.8-12,10.8-28.8,10.8-28.8s-15.6-21.6-18-41.4c0,0-5.4,16.8-19.8,16.2c-14.4-0.6-12-19.8-3-45c0,0-16.8,22.8-35.4,33
			c-18.6,10.2-29.4,12.6-39,7.2c-9.6-5.4-6-34.2-6-34.2s-22.8,35.4-43.2,41.4c-20.4,6-45-1.2-36-49.8c0,0-6.6,5.4-11.4,6.6
			c0,0-3.6,28.8-28.2,41.4c0,0,0.6,14.4-0.6,21c-1.2,6.6-6,8.4-10.8,7.8c-4.8-0.6-9.6-13.2-10.8-31.8c0,0-3-5.4-6.6-5.4
			c0,0-1.2-60.7,22.8-99.1c0,0-7.8,4.2-13.8,4.8c-6,0.6-18.6-12,22.8-35.4c0,0-10.2-0.6-13.8-6.6c-3.6-6-1.2-18,34.2-20.4
			c0,0-7.2-3-11.4-7.8c-4.2-4.8-3-15.6,21-18.6c24-3,108.1-18,182,38.4c0,0,31.2,24,30,48c0,0,30.6-2.4,49.8,34.2
			C676.1,564.1,636.5,624.8,636.5,624.8z"/>
	</g>
	<g>
		<path class="st5" d="M290.8,543.1c0,0-4.5,0.9-7.2,0.7c-2.7-0.2-4.1-1.1-6.3-0.7c-2.3,0.5-6.5-0.7-9.5-1.1
			c-2.9-0.5-4.3-1.6-4.3-1.6l-0.7-19.2c0,0-3.6-1.6-4.5-8.6c-0.9-7,2-18.7,2.3-24.1c0.2-5.4,2-15.8,2.3-18.1
			c0.2-2.3,2.3-4.1,4.3-3.8c2,0.2,2.9,1.8,2.9,7.9c0,6.1,0.5,12.6,0.5,12.6s0.2,1.8,1.1,0.2c0.9-1.6,0.9-17.6,1.1-19.6
			c0.2-2,1.6-3.8,4.1-3.4c2.5,0.5,2.7,2.5,2.9,6.5c0.2,4.1,1.6,16.9,1.6,16.9s1.1,1.1,1.4-0.7c0.2-1.8,1.6-18.5,2-20.5
			c0.5-2,1.4-4.3,4.3-3.4c2.9,0.9,2.7,5,2.9,8.1c0.2,3.2-0.5,17.8-0.5,17.8s1.8,1.4,2.3-0.5c0.5-1.8,1.8-19.2,3.4-22.8
			c1.6-3.6,6.1-5,5.9,2.7c-0.2,7.7-1.4,28.2-0.9,29.3c0.5,1.1,5.9-2.9,11.3-5s6.5-1.1,6.1,3.8c-0.5,5-11.1,14-15.3,18.7
			c-4.3,4.7-7.4,8.4-12,9h-1.6L290.8,543.1z"/>
	</g>
	<g>
		<path class="st6" d="M319.3,494.2c0,0-3.8-1.8-6.8-0.3c-3,1.5-7.8,5.6-10.4,7.3c-2.5,1.8-3.8-0.8-6.1-2c-2.3-1.3-5.3-3-10.4,1.3
			c-5.1,4.3-5.3,7.1-5.8,9.6c-0.5,2.5-1.8,3.3-2.8,2.3c-1-1-1.8-6.1,2.5-11.4c4.3-5.3,8.1-7.1,9.4-7.6c1.3-0.5-0.5-1.3-5.3-1.5
			c-4.8-0.3-12.4-0.5-14.4-0.8c-2-0.3-1-3,0.3-3.3c1.3-0.3,9.9-1.3,13.7-1c3.8,0.3,9.9,1.8,14.2,6.3c4.3,4.6,4.3,4.6,4.3,4.6
			s5.3-4,8.3-5.6c3-1.5,5.1-2.3,7.3-1.5C319.5,491.4,319.3,494.2,319.3,494.2z"/>
	</g>
	<g>
		<path class="st3" d="M291.2,538.7c0,0,0.8,3-0.4,4.4c-1.2,1.4-0.6,5.1-0.8,7.1c-0.2,2.1-1.4,4.1-4.3,4.7c-0.5,0.1-1.1,0.2-1.8,0.3
			c-0.2-1.3-0.4-3.6-0.1-5.5c0.4-2.7,0.4-4.7-0.8-5.1c-1.2-0.4-1.2,1-1.2,1.6c0,0.5-0.3,7-0.4,9.1c-1.3,0-2.9,0-4.7-0.3l0.6-12
			l-2.5,0.3l-1,11.1c-0.8-0.2-1.6-0.4-2.5-0.7l0.6-11l-3.3-0.6l0.3,10.8c-0.5-0.2-0.9-0.3-1.4-0.5c0,0-4.1-1.9-6-3.5
			c-1.9-1.6-3.1-1.2-3.1,0.4c0,1.6,2.9,3.1,6.4,4.9c3.5,1.9,9.7,3.9,14.6,4.3c4.9,0.4,8.8-2.1,9.9-2.9c1-0.8,2.7-3.7,2.7-5.8
			c0-2.1,0.2-6,0.2-6.8C292.2,542.4,293.1,539.5,291.2,538.7z"/>
	</g>
	<g>
		<path class="st3" d="M302.6,748.9c0,0,2.3-0.7,4.6-3.9c2.3-3.2,3.9-9.6,0.7-16.3c-3.2-6.6-7.3-11.7-10.8-18.8
			c-3.4-7.1-6.2-13.1-11.2-13.5c-5-0.5-6.2,3-8,5.7c-1.8,2.7,0.7,4.1,1.6,7.1c0.9,3,12.1,22.9,14,26.6
			C295.3,739.6,300.6,748,302.6,748.9z"/>
	</g>
	<g>
		<path class="st3" d="M391.6,828.7c0,0,5.6-28.7,8.1-36.5c2.5-7.8,7.1-12.4,8.7-13.7s3.2,0.5,1.1,2.5c-2.1,2.1-6.4,8.5-8,14.7
			c-1.6,6.2-6.9,33.2-7.3,34.3s-1.4,3-1.4,3S391.5,832,391.6,828.7z"/>
	</g>
	<g>
		<path class="st3" d="M382.4,930.9c-1.1,0-2.1-0.5-2.9-1.6c-0.2-0.3-0.7-0.8-1.8-1.9c-0.7-0.7-1-1.5-1-2.5c0-0.9,0.4-1.8,1.1-2.4
			l0,0c2.1-1.9,4.9-4.6,6.6-6.3c2.9-2.9,13-10.7,15.9-12.7c0.8-0.6,1.6-1.2,2.2-1.8c1.6-1.3,3.5-3,5.1-1c0.5,0.5,1.1,1.2,1.8,1.8
			c1.6,1.5,2.6,2.5,2.8,3.5l0,0.2c0.3,1.5,0.2,1.7-4,5.8c-4.1,4.1-20.8,16.6-23.1,18C384.1,930.6,383.2,930.9,382.4,930.9z
			 M379.1,924.1c-0.3,0.2-0.4,0.6-0.4,0.9c0,0.4,0.1,0.7,0.4,1c0.9,0.9,1.6,1.6,1.9,2.1c0.6,0.8,1.2,1.3,3,0.2
			c2.3-1.4,18.6-13.6,22.7-17.7c2.1-2.1,3.4-3.4,3.5-3.7c0,0,0-0.1-0.1-0.2l0-0.2c-0.1-0.4-1.4-1.7-2.2-2.4
			c-0.7-0.7-1.4-1.3-1.9-1.9c-0.1-0.1-0.2-0.1-0.2-0.1c-0.3,0-1.3,0.8-2,1.4c-0.7,0.6-1.5,1.2-2.4,1.9c-2.8,1.9-12.9,9.7-15.7,12.5
			C384.1,919.5,381.2,922.1,379.1,924.1L379.1,924.1z"/>
	</g>
	<g>
		<path class="st3" d="M378.1,968.2c-0.6,0-1-0.4-1-1c-0.3-6.8,0.2-13.6,1.7-20.2c0.1-0.6,0.7-0.9,1.2-0.8c0.6,0.1,0.9,0.7,0.8,1.2
			c-1.4,6.5-1.9,13.1-1.6,19.7C379.2,967.7,378.7,968.2,378.1,968.2C378.1,968.2,378.1,968.2,378.1,968.2z"/>
	</g>
	<g>
		<path class="st3" d="M398.7,972.1c-0.6,0-1-0.4-1-1c-0.3-7.2,0.3-14.5,1.6-21.6c0.1-0.6,0.7-0.9,1.2-0.8c0.6,0.1,0.9,0.7,0.8,1.2
			c-1.3,6.9-1.9,14-1.6,21.1C399.7,971.6,399.3,972.1,398.7,972.1C398.7,972.1,398.7,972.1,398.7,972.1z"/>
	</g>
	<g>
		<path class="st3" d="M421.3,973.5c-0.5,0-1-0.4-1-0.9c-0.6-6.1-0.5-12.3,0.3-18.3c0.1-0.6,0.6-1,1.2-0.9c0.6,0.1,1,0.6,0.9,1.2
			c-0.8,5.9-0.8,11.9-0.3,17.9C422.4,972.9,422,973.4,421.3,973.5C421.4,973.5,421.4,973.5,421.3,973.5z"/>
	</g>
	<g>
		<path class="st3" d="M446.3,973.5c-0.6,0-1-0.4-1-1c-0.2-5.9,0.4-11.7,1.8-17.4c0.1-0.6,0.7-0.9,1.3-0.8c0.6,0.1,0.9,0.7,0.8,1.3
			c-1.4,5.5-2,11.2-1.8,16.9C447.4,973,446.9,973.4,446.3,973.5C446.4,973.5,446.3,973.5,446.3,973.5z"/>
	</g>
	<g>
		<path class="st3" d="M472.8,975.3c-0.5,0-1-0.4-1-1c-0.3-5.7,0-11.4,1-17c0.1-0.6,0.6-0.9,1.2-0.9c0.6,0.1,0.9,0.6,0.9,1.2
			c-0.9,5.4-1.2,11-0.9,16.5C473.9,974.8,473.5,975.3,472.8,975.3C472.9,975.3,472.9,975.3,472.8,975.3z"/>
	</g>
	<g>
		<path class="st3" d="M505,973.7C504.9,973.7,504.9,973.7,505,973.7c-0.7-0.1-1.1-0.6-1-1.1l1.5-16.9c0.1-0.6,0.6-1,1.1-0.9
			c0.6,0.1,1,0.6,0.9,1.1l-1.5,16.9C505.9,973.3,505.5,973.7,505,973.7z"/>
	</g>
	<g>
		<path class="st3" d="M527.6,975.7c0,0-0.1,0-0.1,0c-0.6-0.1-1-0.6-0.9-1.2c0.7-5.8,0.8-11.8,0.1-17.6c-0.1-0.6,0.3-1.1,0.9-1.2
			c0.6-0.1,1.1,0.3,1.2,0.9c0.7,6,0.7,12.1-0.1,18.1C528.6,975.3,528.1,975.7,527.6,975.7z"/>
	</g>
	<g>
		<path class="st3" d="M549.1,972.8c-0.5,0-1-0.4-1-1c-0.1-2.3-0.1-4.6,0-6.9c0.1-1.6,0.1-3.2,0.1-4.8c-0.1-4.6-0.8-8-2.3-10.7
			c-0.3-0.5-0.1-1.1,0.4-1.4c0.5-0.3,1.1-0.1,1.4,0.4c1.7,3.1,2.6,6.8,2.6,11.7c0,1.6,0,3.3-0.1,4.9c-0.1,2.2-0.2,4.5,0,6.7
			C550.2,972.3,549.7,972.8,549.1,972.8C549.1,972.8,549.1,972.8,549.1,972.8z"/>
	</g>
	<g>
		<path class="st3" d="M561.4,965.7c-0.6,0-1-0.4-1-1c-0.2-6.3-1-12.7-2.1-18.9c-0.1-0.6,0.3-1.1,0.8-1.2c0.6-0.1,1.1,0.3,1.2,0.8
			c1.2,6.3,1.9,12.8,2.2,19.2C562.4,965.2,562,965.7,561.4,965.7C561.4,965.7,561.4,965.7,561.4,965.7z"/>
	</g>
	<g>
		<path class="st3" d="M549.4,934.9c-0.3,0-0.6-0.1-0.8-0.4c-6.3-8.2-12.5-16.7-18.4-25.3c-0.6-0.9-1.7-2.4-1.4-4.1
			c0.2-1.1,0.8-1.9,1.4-2.5c1.8-2,4.2-3.4,6.8-4.1c0,0,0,0,0,0c0.6-0.1,1.1,0.2,1.3,0.8c0,0.1,0,0.1,0,0.2c0.5,1.3,4.7,8,5.3,8.8
			c1.8,2.3,3.8,4.5,5.7,6.7c0.6,0.7,1.2,1.3,1.8,2c0.5,0.6,1,1.1,1.6,1.7c2.1,2.2,4.5,4.8,5.7,7.6c1.3,2.8,0.2,3.6-1.7,4.9
			c-0.2,0.1-0.4,0.2-0.6,0.4c-2,1.3-4,2.4-6.1,3.4C549.7,934.8,549.5,934.9,549.4,934.9z M536.5,900.8c-1.9,0.6-3.6,1.8-4.9,3.2
			c-0.4,0.4-0.8,0.9-0.9,1.5c-0.1,0.8,0.4,1.7,1,2.6c5.7,8.3,11.7,16.5,17.9,24.5c1.8-0.9,3.5-1.8,5.2-2.9c0.2-0.1,0.4-0.3,0.6-0.4
			c0.6-0.4,1.2-0.7,1.3-0.9c0-0.1,0.1-0.3-0.4-1.3c-1.1-2.4-3.4-4.9-5.3-7c-0.6-0.6-1.1-1.2-1.6-1.7c-0.6-0.7-1.2-1.3-1.8-1.9
			c-2-2.2-4-4.4-5.8-6.8c-0.4-0.5-1.9-2.9-3.1-4.9C537.6,902.7,536.9,901.6,536.5,900.8z"/>
	</g>
	<g>
		<path class="st3" d="M457.2,952.4c0,0-0.1,0-0.1,0c-0.6-0.1-1-0.6-0.9-1.2c4-32.9,6.8-60.5,7.3-88.5c0-1.1,0-2.1,0.1-3.2
			c0.1-4.9,0.2-9.9,0.6-14.8c0.2-2.9,0.6-5.8,0.9-8.6c0.1-0.7,0.2-1.5,0.3-2.2c1.5-12.1,2.4-24.3,2.8-36.5c0-0.6,0.5-1,1.1-1
			c0.6,0,1,0.5,1,1.1c-0.4,12.2-1.3,24.5-2.8,36.6c-0.1,0.7-0.2,1.5-0.3,2.2c-0.3,2.8-0.7,5.7-0.9,8.5c-0.4,4.9-0.5,9.9-0.6,14.7
			c0,1.1,0,2.1-0.1,3.2c-0.5,28-3.3,55.7-7.3,88.7C458.1,952,457.7,952.4,457.2,952.4z"/>
	</g>
	<g>
		<path class="st3" d="M487,818.2c-4.1,0-8.3-1.7-11.7-4.9c-2.5-2.3-4.6-5.4-6.3-9.1c-2,3.5-4.8,7.5-8.8,10
			c-4.2,2.7-10.6,3.9-15.4,0.6c-3.8-2.6-5.6-7.2-6.9-11.3c-3.7-11.4-5.9-21.1-6.8-30.2c-0.1-0.6,0.4-1.1,0.9-1.1
			c0.6-0.1,1.1,0.4,1.1,0.9c0.9,9,3,18.5,6.7,29.8c1.3,4,2.8,8,6.1,10.2c2.9,2,8.1,2.6,13.1-0.6c4.4-2.8,7.2-7.4,9.2-11.2
			c0.2-0.4,0.6-0.6,1-0.6c0.4,0,0.8,0.3,0.9,0.7c1.7,4.4,3.9,7.8,6.6,10.3c3.2,2.9,7.1,4.5,10.9,4.3c6.8-0.3,12.1-6,16.5-11.4
			c3.6-4.5,7.1-9.2,10.4-13.8l7-9.5c0.2-0.3,0.4-0.6,0.5-0.9c0.2-0.5-0.1-1.2-0.4-2c-1.6-4.1-3.2-7.7-6.3-9.7
			c-0.5-0.3-0.6-1-0.3-1.4c0.3-0.5,1-0.6,1.4-0.3c3.6,2.3,5.4,6.2,7.1,10.7c0.3,0.8,0.8,2.1,0.4,3.4c-0.2,0.6-0.5,1.1-0.8,1.5
			l-7,9.5c-3.4,4.6-6.9,9.3-10.5,13.8c-4.6,5.8-10.4,11.8-18,12.2C487.5,818.2,487.3,818.2,487,818.2z"/>
	</g>
	<g>
		<path class="st3" d="M531.1,836.8c-1.6,0-3.2-0.1-4.6-0.2c-0.7,0-1.3-0.1-1.8-0.1c-2-0.1-18.8-0.2-20.8,0.1
			c-0.1,0.1-0.3,0.1-0.4,0.1c-0.6,0-1.1-0.4-1.1-1c0,0,0,0,0,0c-0.1-2.1-0.1-4.3,0-6.5c0-0.4,0.1-1.4,0.8-2c0.5-0.4,1.1-0.4,1.5-0.4
			c10-0.4,20.2-0.5,30.2-0.5c0.4,0,1.3,0,1.9,0.7c0.4,0.5,0.5,1,0.5,1.3c0.1,0.5,0.1,1,0.2,1.5c0.4,2.6,0.9,5.2-0.9,6.1
			C535.3,836.6,533.2,836.8,531.1,836.8z M504.5,835.7C504.5,835.7,504.5,835.7,504.5,835.7C504.5,835.7,504.5,835.7,504.5,835.7z
			 M504.5,835.7C504.5,835.7,504.5,835.7,504.5,835.7C504.5,835.7,504.5,835.7,504.5,835.7C504.5,835.7,504.5,835.7,504.5,835.7
			L504.5,835.7z M514.4,834.4c4.9,0,9.6,0.1,10.4,0.1c0.5,0,1.1,0.1,1.8,0.1c2.7,0.2,7.3,0.4,9.1-0.4c0.4-0.4,0-2.8-0.2-3.9
			c-0.1-0.6-0.2-1.1-0.2-1.6c0,0,0-0.1,0-0.2c-0.1,0-0.2,0-0.3,0c-10,0-20.1,0.1-30.1,0.5c-0.1,0-0.2,0-0.3,0c0,0.1,0,0.2,0,0.4
			c-0.1,1.7-0.1,3.4,0,5.2c1.4-0.1,4-0.1,9.1-0.1C513.9,834.4,514.1,834.4,514.4,834.4z M504.5,829L504.5,829L504.5,829z
			 M535.2,828.3L535.2,828.3L535.2,828.3z"/>
	</g>
	<g>
		<path class="st3" d="M520.8,868.2c-0.8,0-1.5-0.2-2.1-0.8c-0.4-0.4-1.7-1.6-3.3-3.1c-4.9-4.5-9.4-8.7-10.5-10.1
			c-1.6-2.1-2.6-3.3-2.3-5.2c0.2-0.9,0-8.7-0.2-13.3c0-0.6,0.4-1.1,1-1.1c0.6,0,1.1,0.4,1.1,1c0.1,2,0.4,12.3,0.2,13.7
			c-0.1,0.9,0.2,1.4,1.9,3.5c1.1,1.4,6.8,6.7,10.3,9.8c1.6,1.5,2.9,2.7,3.4,3.1c0.7,0.7,2.6-0.2,4.1-1.4c0.8-0.7,3.8-2.6,7.7-5
			c1.7-1.1,3.5-2.2,3.8-2.4c0.2-0.2,0.7-0.9,0.7-3.7c0-2-0.5-18.4-0.5-18.5c0-0.6,0.4-1.1,1-1.1c0.6,0,1.1,0.4,1.1,1
			c0,0.7,0.5,16.5,0.5,18.6c0,2-0.2,4.4-1.6,5.4c-0.4,0.3-1.7,1.1-3.9,2.5c-2.8,1.7-6.7,4.1-7.5,4.8
			C524.2,867.2,522.4,868.2,520.8,868.2z"/>
	</g>
	<g>
		<path class="st3" d="M559.1,872.5c-0.5,0-0.9-0.3-1-0.8c-0.2-1-5.8-24-6-30c-0.2-5.9,0.2-33.5,0.2-34.6c0-0.6,0.5-1.1,1.1-1
			c0.6,0,1,0.5,1,1.1c0,0.3-0.5,28.7-0.2,34.5c0.2,5.8,5.9,29.3,5.9,29.6c0.1,0.6-0.2,1.1-0.8,1.3
			C559.2,872.5,559.1,872.5,559.1,872.5z"/>
	</g>
	<g>
		<path class="st3" d="M553.1,842.7c-0.2,0-0.5-0.1-0.7-0.2c-4.3-3.6-9.4-23.7-10-26c-0.1-0.6,0.2-1.1,0.8-1.3
			c0.6-0.1,1.1,0.2,1.3,0.8c1.5,6,6.1,22.2,9.3,24.9c0.4,0.4,0.5,1,0.1,1.5C553.7,842.6,553.4,842.7,553.1,842.7z"/>
	</g>
	<g>
		<path class="st3" d="M606.4,965.9c-0.5,0-0.9-0.3-1-0.8c-0.1-0.6,0.2-1.1,0.7-1.3c0.1,0,7-1.9,12.1-4.7c5.1-2.9,15.1-8.7,15.2-8.7
			c0.5-0.3,1.1-0.1,1.4,0.4c0.3,0.5,0.1,1.1-0.4,1.4c-0.1,0.1-10.1,5.9-15.2,8.8c-5.3,2.9-12.3,4.8-12.5,4.9
			C606.6,965.9,606.5,965.9,606.4,965.9z"/>
	</g>
	<g>
		<path class="st3" d="M615.8,977.2c-0.2,0-0.4-0.1-0.6-0.2c-2-1.3-3.4-3.2-4.4-4.8c-1.4-2.2-2.7-4.6-3.7-7c-0.2-0.5,0-1.1,0.6-1.4
			c0.5-0.2,1.1,0,1.4,0.6c0.9,2.3,2.1,4.6,3.5,6.7c0.9,1.4,2.1,3.1,3.8,4.2c0.5,0.3,0.6,1,0.3,1.4
			C616.5,977,616.1,977.2,615.8,977.2z"/>
	</g>
	<g>
		<path class="st3" d="M620,974.7c-0.3,0-0.7-0.2-0.9-0.5c-2-3.3-4.2-6.6-6.4-9.8c-0.3-0.5-0.2-1.1,0.3-1.4c0.5-0.3,1.1-0.2,1.5,0.3
			c2.2,3.2,4.4,6.5,6.5,9.9c0.3,0.5,0.2,1.1-0.3,1.4C620.3,974.6,620.2,974.7,620,974.7z"/>
	</g>
	<g>
		<path class="st3" d="M626.2,971.8c-0.4,0-0.7-0.2-0.9-0.5l-4.5-8.2c-0.3-0.5-0.1-1.1,0.4-1.4c0.5-0.3,1.1-0.1,1.4,0.4l4.5,8.2
			c0.3,0.5,0.1,1.1-0.4,1.4C626.5,971.7,626.3,971.8,626.2,971.8z"/>
	</g>
	<g>
		<path class="st3" d="M633.7,967.4c-0.4,0-0.7-0.2-0.9-0.5l-5.6-9.8c-0.3-0.5-0.1-1.1,0.4-1.4c0.5-0.3,1.1-0.1,1.4,0.4l5.6,9.8
			c0.3,0.5,0.1,1.1-0.4,1.4C634.1,967.3,633.9,967.4,633.7,967.4z"/>
	</g>
	<g>
		<path class="st3" d="M638.4,964.2c-0.4,0-0.8-0.3-1-0.7c-1.2-3.4-2.9-6.6-5-9.5c-0.3-0.5-0.2-1.1,0.3-1.5c0.5-0.3,1.1-0.2,1.5,0.3
			c2.2,3.1,3.9,6.5,5.2,10c0.2,0.5-0.1,1.1-0.6,1.3C638.6,964.2,638.5,964.2,638.4,964.2z"/>
	</g>
	<g>
		<path class="st3" d="M411.5,1180.8C411.5,1180.8,411.5,1180.8,411.5,1180.8c-0.6,0-1.1-0.5-1-1.1c0.1-2.2,0.7-4.4,1.8-6.3
			c0.3-0.5,0.9-0.7,1.4-0.4c0.5,0.3,0.7,0.9,0.4,1.4c-0.9,1.6-1.5,3.5-1.6,5.3C412.5,1180.3,412,1180.8,411.5,1180.8z"/>
	</g>
	<g>
		<path class="st3" d="M414.4,1164.2C414.4,1164.2,414.4,1164.2,414.4,1164.2c-0.6,0-1.1-0.5-1-1.1l0.5-10c0-0.6,0.5-1,1.1-1
			c0.6,0,1,0.5,1,1.1l-0.5,10C415.5,1163.7,415,1164.2,414.4,1164.2z"/>
	</g>
	<g>
		<path class="st3" d="M415.1,1145.4c-0.1,0-0.1,0-0.2,0c-0.6-0.1-0.9-0.7-0.8-1.2l1.5-7.9c0.1-0.6,0.7-0.9,1.2-0.8
			c0.6,0.1,0.9,0.7,0.8,1.2l-1.5,7.9C416,1145.1,415.6,1145.4,415.1,1145.4z"/>
	</g>
	<g>
		<path class="st3" d="M419.4,1125.5C419.4,1125.5,419.3,1125.5,419.4,1125.5c-0.6,0-1.1-0.5-1-1.1l0.4-11.6c0-0.6,0.5-1,1.1-1
			c0.6,0,1,0.5,1,1.1l-0.4,11.6C420.4,1125.1,419.9,1125.5,419.4,1125.5z"/>
	</g>
	<g>
		<path class="st3" d="M422.2,1100.6c-0.1,0-0.1,0-0.2,0c-0.6-0.1-0.9-0.7-0.8-1.2l2.4-11.6c0.1-0.6,0.7-0.9,1.2-0.8
			c0.6,0.1,0.9,0.7,0.8,1.2l-2.4,11.6C423.1,1100.2,422.7,1100.6,422.2,1100.6z"/>
	</g>
	<g>
		<path class="st3" d="M429,1071.5c-0.1,0-0.1,0-0.2,0c-0.6-0.1-0.9-0.6-0.9-1.2l2-11.7c0.1-0.6,0.6-0.9,1.2-0.9
			c0.6,0.1,0.9,0.6,0.9,1.2l-2,11.7C430,1071.1,429.5,1071.5,429,1071.5z"/>
	</g>
	<g>
		<path class="st3" d="M434,1049.9c-0.1,0-0.3,0-0.4-0.1c-0.5-0.2-0.8-0.8-0.6-1.4c1.2-2.9,2.2-5.9,2.9-9c0.1-0.6,0.7-0.9,1.3-0.8
			c0.6,0.1,0.9,0.7,0.8,1.3c-0.7,3.2-1.8,6.3-3,9.3C434.8,1049.7,434.4,1049.9,434,1049.9z"/>
	</g>
	<g>
		<path class="st3" d="M443.6,1027.6c-0.2,0-0.3,0-0.5-0.1c-0.5-0.3-0.7-0.9-0.4-1.4c1.7-3.2,4.2-7.2,7.8-9.9
			c3.9-2.9,8.7-3.8,12.5-2.5c0.5,0.2,0.8,0.8,0.6,1.3c-0.2,0.5-0.8,0.8-1.3,0.6c-3.2-1.1-7.3-0.3-10.6,2.2c-3.3,2.5-5.6,6.3-7.3,9.2
			C444.4,1027.4,444,1027.6,443.6,1027.6z"/>
	</g>
	<g>
		<path class="st3" d="M519.1,1180c-0.4,0-0.8-0.2-1-0.6c-1.8-4.1-2.4-8.7-1.7-13.1c0.1-0.6,0.6-1,1.2-0.9c0.6,0.1,1,0.6,0.9,1.2
			c-0.6,4-0.1,8.2,1.5,11.9c0.2,0.5,0,1.1-0.5,1.4C519.4,1179.9,519.3,1180,519.1,1180z"/>
	</g>
	<g>
		<path class="st3" d="M517.4,1159.6c-0.5,0-1-0.4-1-0.9c-0.4-3.2-0.5-6.5-0.3-9.8c0-0.6,0.5-1,1.1-1c0.6,0,1,0.5,1,1.1
			c-0.2,3.1-0.1,6.3,0.3,9.4c0.1,0.6-0.3,1.1-0.9,1.2C517.5,1159.6,517.5,1159.6,517.4,1159.6z"/>
	</g>
	<g>
		<path class="st3" d="M516.7,1140.1c-0.6,0-1-0.5-1-1v-5.4c0-0.6,0.5-1,1-1c0.6,0,1,0.5,1,1v5.4
			C517.7,1139.6,517.2,1140.1,516.7,1140.1z"/>
	</g>
	<g>
		<path class="st3" d="M516.8,1120.9c-0.5,0-0.9-0.3-1-0.8l-1.8-8.7c-0.1-0.6,0.2-1.1,0.8-1.2c0.6-0.1,1.1,0.2,1.2,0.8l1.8,8.7
			c0.1,0.6-0.2,1.1-0.8,1.2C516.9,1120.9,516.8,1120.9,516.8,1120.9z"/>
	</g>
	<g>
		<path class="st3" d="M514.2,1100.6c-0.5,0-1-0.4-1-0.9l-0.8-8.3c-0.1-0.6,0.4-1.1,0.9-1.1c0.6-0.1,1.1,0.4,1.1,0.9l0.8,8.3
			C515.3,1100,514.9,1100.5,514.2,1100.6C514.3,1100.6,514.3,1100.6,514.2,1100.6z"/>
	</g>
	<g>
		<path class="st3" d="M508.4,1076.9c-0.5,0-1-0.4-1-0.9c-0.3-3.4-1-6.9-2.1-10.2c-0.2-0.5,0.1-1.1,0.7-1.3c0.5-0.2,1.1,0.1,1.3,0.7
			c1.1,3.4,1.9,7,2.2,10.6c0.1,0.6-0.4,1.1-0.9,1.1C508.5,1076.9,508.4,1076.9,508.4,1076.9z"/>
	</g>
	<g>
		<path class="st3" d="M503.8,1056.5c-0.6,0-1-0.4-1-1c-0.1-2.4-0.5-4.9-1.3-7.2c-0.2-0.6,0.1-1.1,0.7-1.3c0.6-0.2,1.1,0.1,1.3,0.7
			c0.8,2.5,1.2,5.1,1.4,7.7C504.9,1056,504.5,1056.5,503.8,1056.5C503.9,1056.5,503.8,1056.5,503.8,1056.5z"/>
	</g>
	<g>
		<path class="st3" d="M499.1,1039.1C499.1,1039.1,499.1,1039.1,499.1,1039.1c-0.6,0-1-0.5-1-1.1c0-2.2-1-4.5-2.8-5.8
			c-0.4-0.4-0.5-1-0.2-1.5c0.4-0.4,1-0.5,1.5-0.2c2.3,1.8,3.6,4.6,3.6,7.5C500.1,1038.6,499.6,1039.1,499.1,1039.1z"/>
	</g>
	<g>
		<path class="st3" d="M489.7,1024.5c-0.4,0-0.8-0.2-0.9-0.6c-0.5-1-1.4-1.9-2.5-2.3c-0.5-0.2-0.8-0.8-0.6-1.4
			c0.2-0.5,0.8-0.8,1.4-0.6c1.5,0.6,2.8,1.8,3.5,3.3c0.3,0.5,0,1.1-0.5,1.4C490,1024.5,489.9,1024.5,489.7,1024.5z"/>
	</g>
	<g>
		<path class="st3" d="M478,1017.5c-0.1,0-0.2,0-0.3,0c-2-0.5-3.8-1.3-5.6-2.2c-0.5-0.3-0.7-0.9-0.4-1.4c0.3-0.5,0.9-0.7,1.4-0.4
			c1.6,0.9,3.4,1.6,5.1,2.1c0.6,0.1,0.9,0.7,0.7,1.3C478.9,1017.2,478.5,1017.5,478,1017.5z"/>
	</g>
	<g>
		<path class="st3" d="M372.9,1105.8c0,0-2.1,13.3,6.6,18.3c8.7,5,14.5,2.9,19.1-4.2c4.6-7.1,3.3-17,4.2-28.7s0.4-22.9-8.7-27
			c-9.1-4.2-16.6-0.4-18.3,12.5C374.1,1089.6,372.9,1105.8,372.9,1105.8z"/>
	</g>
	<g>
		<path class="st3" d="M560.3,1126.5c0,0-4.6,1.2-9.6-1.2c-5-2.5-7.5-10.4-7.9-21.2c-0.4-10.8,0.4-23.3,5-28.7
			c4.6-5.4,9.1-6.2,15-2.5s6.2,12.1,6.2,18.7c0,6.6-0.8,20.8-0.8,24.9S565.3,1124.5,560.3,1126.5z"/>
	</g>
	<g>
		<path class="st3" d="M627.6,899.2c0,0-5.4,1.7-11.6,0c-6.2-1.7-7.1-7.1-10.4-18.7c-3.3-11.6-5.8-17-1.7-21.2
			c4.2-4.2,7.5-3.7,7.5-3.7s1.7,1.2,4.2,8.3s11.6,30.3,11.6,30.3S628.9,896.7,627.6,899.2z"/>
	</g>
	<g>
		<g>
			<path class="st8" d="M336,1247.9c2.9,1.2,6.5,0.8,9.6,0.9c3.2,0.1,6.5,0.1,9.7,0.2c6.7,0.1,13.3,0.3,20,0.5
				c6.3,0.2,12.7,0.5,19,0.5c3.1,0,6.4,0,9.5-0.4c2.9-0.4,5.8-1.8,8.6-2.7c1.3-0.4,0.7-2.5-0.6-2.1c-3.1,1-6.2,0.7-9.4,1
				c-3,0.3-6,0.3-9,0.3c-6.4-0.1-12.7-0.4-19.1-0.5c-6.3-0.2-12.6-0.4-19-0.6c-3.2-0.1-6.5-0.2-9.7-0.4c-3.1-0.1-6.6-0.7-9.6,0.4
				C334.4,1245.4,334.6,1247.3,336,1247.9L336,1247.9z"/>
		</g>
	</g>
	<g>
		<g>
			<path class="st8" d="M363.8,1216.6c1.4,1.5,3,2.8,4.6,4.1c1.2,1,2.4,2.6,4.1,2.8c0.5,0,0.8-0.5,0.7-0.9c-0.4-1.5-2.4-2.5-3.6-3.4
				c-1.7-1.2-3.4-2.4-5.2-3.3C363.9,1215.6,363.4,1216.2,363.8,1216.6L363.8,1216.6z"/>
		</g>
	</g>
	<g>
		<g>
			<path class="st8" d="M370.6,1215.2c0,0.1,0,0.1-0.1,0.2c-0.1,0.4,0,0.9,0.3,1.1c1.2,1,2.5,1.9,3.8,2.8c1.1,0.8,2.4,2,3.8,2
				c0.5,0,1-0.6,0.8-1.1c-0.5-1.3-1.8-2-2.9-2.8c-1.4-0.9-2.7-2-4.1-2.8c-0.3-0.2-0.8-0.2-1.1,0
				C370.9,1214.9,370.7,1215,370.6,1215.2L370.6,1215.2z"/>
		</g>
	</g>
	<g>
		<g>
			<path class="st8" d="M374.2,1210.7c0.3,1.7,3,2.1,4.4,2.5c2,0.6,4.5,1.6,6.5,1.1c1-0.2,1-1.5,0.3-2c-1.1-0.8-2.5-0.9-3.9-1.2
				c-1.4-0.3-2.7-0.7-4-1C377.1,1210,373.9,1209.2,374.2,1210.7L374.2,1210.7z"/>
		</g>
	</g>
	<g>
		<g>
			<path class="st8" d="M374.8,1204.9c2,1,4.6,1.3,6.8,1.5c2,0.3,4.3,0.8,6.2-0.1c0.6-0.3,0.4-1,0-1.3c-1.6-1.1-3.7-0.9-5.6-1.2
				c-2.3-0.3-4.7-0.9-7-0.6C374.4,1203.3,373.9,1204.4,374.8,1204.9L374.8,1204.9z"/>
		</g>
	</g>
	<g>
		<g>
			<path class="st8" d="M375.7,1195.9c1.3,1.5,3.4,1.4,5.3,1.5c1.8,0.1,4.3,0.6,5.6-0.8c0.3-0.3,0.3-0.9,0-1.2
				c-1.3-1.4-3.8-0.9-5.6-1c-1.9,0-3.8-0.4-5.3,0.9C375.6,1195.5,375.6,1195.8,375.7,1195.9L375.7,1195.9z"/>
		</g>
	</g>
	<g>
		<g>
			<path class="st8" d="M392.7,1209.1c2.3-2.1,2.1-6.2,2.3-9c0.3-3.7,0-7.5,0.1-11.2c0.1-4-4-10.6-9.5-7.9c-0.9,0.4,0.4,1.1,1.3,1.5
				c2.3,1.1,4.3,1,4.8,3.9c0.5,2.7,0,5.5-0.6,8.1c-0.6,2.5-0.9,5-1.1,7.6c-0.2,2.3-0.8,4.8,0.7,6.7
				C391.1,1209.6,392,1209.7,392.7,1209.1L392.7,1209.1z"/>
		</g>
	</g>
	<g>
		<g>
			<path class="st8" d="M393,1201.7c3.2,2.7,8.6,0.9,12.3,0.5c3.8-0.4,8.3-0.4,11.8-2.1c1.4-0.7,0.2-2.8-1.3-2.2
				c-3.4,1.6-8.3,1.4-12,1.3c-3.2-0.1-7.6-1.8-10.5,0.1C392.6,1199.8,392.3,1201,393,1201.7L393,1201.7z"/>
		</g>
	</g>
	<g>
		<g>
			<path class="st8" d="M418.1,1191.3c-1.6-1.1-3.5-0.7-5.3-0.6c-2.3,0.1-4.7,0.3-7,0.4c-2.3,0.1-4.7,0.2-7,0.2
				c-2,0-3.8-0.2-5.6,0.6c-0.8,0.3-0.7,1.7,0,2c1.8,0.9,3.6,0.6,5.6,0.6c2.5,0,5,0,7.5-0.1c2.3-0.1,4.7-0.2,7-0.5
				c1.8-0.2,4.2-0.1,4.9-1.6C418.5,1191.9,417.5,1191.1,418.1,1191.3L418.1,1191.3z"/>
		</g>
	</g>
	<g>
		<g>
			<path class="st8" d="M545.3,1198.9c-5.7,0.1-11.4,0.2-17.2-0.5c-1.2-0.1-2.7,0-3.9-0.4c-0.3-0.1-0.6-0.2-0.8-0.4h-1
				c-0.4,0-0.8-0.1-1.1-0.2c0,0.5,0,0.9,0.1,1.4c0,0.5,0.1,1,0.1,1.4c1.4,0.9,3.4,0.9,4.9,1c3.2,0.3,6.5,0,9.7,0
				c3.3,0,6.2-0.4,9.4-1C546.3,1200.1,546.1,1198.9,545.3,1198.9z"/>
		</g>
	</g>
	<g>
		<g>
			<path class="st8" d="M546.3,1207.4c2-1.2,1.1-4.8,1.2-6.7c0.2-3-0.1-6.1-0.1-9.2c-0.1-2.8-0.6-6.4,1.9-8.2
				c2.9-2.2,6.4-1.2,9.7-1.8c1-0.2,0.7-1.4,0-1.7c-6.7-2.7-14.1,2-15.1,8.9c-0.6,3.8-0.4,8.2,0,12
				C544.1,1201.3,544.4,1208.5,546.3,1207.4L546.3,1207.4z"/>
		</g>
	</g>
	<g>
		<g>
			<path class="st8" d="M544.3,1192.9c-4.6-0.6-9.3-0.9-14-1.2c-2-0.1-4-0.1-6-0.3c-1-0.1-2.1-0.2-3-0.6c0.1,0.8,0.1,1.6,0.1,2.4
				c0,0.2,0,0.4-0.1,0.6c2.2,0.4,4.6,0.2,6.4,0.2c5.5,0,11.1-0.3,16.6-0.8C544.5,1193.2,544.5,1192.9,544.3,1192.9z"/>
		</g>
	</g>
	<g>
		<g>
			<path class="st8" d="M544.2,1192.4c-1.8-0.4-3.9-0.6-5.8-0.3c-2.1,0.4-4.2,0.4-6.3,0.8c-0.3,0.1-0.3,0.6,0,0.7
				c2.1,0.3,4.2,0.3,6.3,0.5c1.9,0.2,4,0,5.8-0.5C544.7,1193.4,544.8,1192.5,544.2,1192.4L544.2,1192.4z"/>
		</g>
	</g>
	<g>
		<g>
			<path class="st8" d="M550.7,1196.9c2.2,0.1,4.4,0.5,6.7,0.5c1.4,0,3.1,0.3,4.4-0.3c2.8-1.1,1.4-5.3,1.2-7.4
				c-0.3-3.2-0.7-6.7-3.4-8.8c-2.7-2.1-6.1-2.2-9.4-1.9c-2.2,0.2-2.3,3.5,0,3.5c2.2,0,5-0.2,7,1.1c2.1,1.4,2.2,4.3,2.8,6.5
				c0.3,0.9,1.4,3.1,1.1,4c-0.4,1.3-1.7,1.1-2.7,1.2c-2.6,0.2-5.1,0.7-7.6,1C550.3,1196.3,550.3,1196.9,550.7,1196.9L550.7,1196.9z"
				/>
		</g>
	</g>
	<g>
		<g>
			<path class="st8" d="M553.1,1206.8c1.6,0.2,3.2,0,4.7-0.2c1.5-0.2,3.1-0.4,4.6-0.8c1.2-0.3,1.3-2.2,0-2.5
				c-1.5-0.4-3.3-0.5-4.8-0.5c-1.6,0-3.4,0.2-4.9,0.8C550.9,1204.2,551.3,1206.6,553.1,1206.8L553.1,1206.8z"/>
		</g>
	</g>
	<g>
		<g>
			<path class="st8" d="M563.7,1210.5c-2-0.1-3.8,0.5-5.8,0.3c-1.7-0.2-3.6-0.6-5.3-0.1c-0.9,0.3-1.3,1.7-0.3,2.2
				c1.6,0.7,3.4,0.6,5.1,0.3c2.1-0.3,4.5-0.2,6.5-0.9C564.9,1211.9,564.8,1210.5,563.7,1210.5L563.7,1210.5z"/>
		</g>
	</g>
	<g>
		<g>
			<path class="st8" d="M558.9,1220c2.2,1.6,6.6-1.4,8.4-2.6c0.6-0.4,1.2-1.3,0.9-2.1c-0.1-0.3-0.2-0.6-0.5-0.8
				c-0.6-0.5-1.6-0.8-2.3-0.3c-1.4,0.9-2.7,1.9-4.1,2.7c-1,0.6-2.4,1.5-2.6,2.7C558.7,1219.8,558.7,1219.9,558.9,1220L558.9,1220z"
				/>
		</g>
	</g>
	<g>
		<g>
			<path class="st8" d="M567,1224.3c3.9-1.4,8.6-3.6,9.8-8.1c0.1-0.4-0.3-0.7-0.6-0.6c-4.4,0.7-7.3,4.7-9.5,8.2
				C566.5,1224.1,566.8,1224.4,567,1224.3L567,1224.3z"/>
		</g>
	</g>
	<g>
		<g>
			<path class="st8" d="M524.9,1246.5c2.1,2.2,6,2.5,8.8,2.9c3,0.4,6.2,0.3,9.2,0.4c7.3,0.3,14.5,0.3,21.8,0.3
				c7.2,0,14.4,0.1,21.5,0.1c3.6,0,7.2,0,10.8,0c2.7,0,3.9-0.1,5.6-2.3c0.7-0.9-0.8-2.1-1.6-1.2c-0.2,0.2-2.7-0.2-3-0.2
				c-1.7,0-3.4-0.1-5.1-0.1c-3.2-0.1-6.5-0.1-9.7-0.1c-6.7,0-13.3-0.1-20-0.1c-6.4,0-12.9,0-19.3,0c-3.3,0-6.4-0.3-9.7-0.7
				c-2.8-0.4-6-1.6-8.8-1.1C524.5,1244.4,524.3,1245.8,524.9,1246.5L524.9,1246.5z"/>
		</g>
	</g>
</g>
</svg>
