<?xml version="1.0" encoding="utf-8"?>
<!-- Generator: Adobe Illustrator 22.0.1, SVG Export Plug-In . SVG Version: 6.00 Build 0)  -->
<svg version="1.1" id="Capa_1" xmlns="http://www.w3.org/2000/svg" xmlns:xlink="http://www.w3.org/1999/xlink" x="0px" y="0px"
	 viewBox="0 0 750 1624" style="enable-background:new 0 0 750 1624;" xml:space="preserve">
<style type="text/css">
	.st0{fill:#6228cf;}
	.st1{fill:#E4F2FB;}
	.st2{fill:#FAC907;}
	.st3{fill:#01637F;}
	.st4{fill:#1CB7C0;}
	.st5{fill:#FF7C00;}
	.st6{fill:#FBE5CA;}
	.st7{fill:#F29F9F;}
	.st8{fill:#1CB9C2;}
	.st9{fill:#F23253;}
	.st10{fill:#F4A1A1;}
</style>
<rect x="0.1" y="0.1" class="st0" width="749.9" height="1623.7"/>
<g>
	<g>
		<g>
			<g>
				<path class="st1" d="M425.3,878.6c0,0,18.5-3.3,26.1,20.5c7.6,23.8,20.5,99.3,20.5,99.3l-13,4.3l3.2,13l-15.1,3.2L425.3,878.6z"
					/>
			</g>
		</g>
	</g>
	<g>
		<g>
			<g>
				<path class="st2" d="M485.6,1286.7h-13.5c0,0-11.8-1-11.8,8.8c0,9.8,0,22,0,22h11.5v-15.9c0,0-0.7-5.1,4.1-5.1s9.8,0,9.8,0
					S490.4,1292.1,485.6,1286.7z"/>
			</g>
		</g>
	</g>
	<g>
		<g>
			<g>
				<polygon class="st3" points="472.8,1393.4 588.8,1393.4 588.8,1341.1 564.8,1317.1 528.3,1317.1 467.8,1317.1 				"/>
			</g>
		</g>
	</g>
	<g>
		<g>
			<g>
				<path class="st3" d="M526.6,1300.1h-40.8c-2,0-3.5-1.6-3.5-3.5v-9.9c0-2,1.6-3.5,3.5-3.5h40.8c2,0,3.5,1.6,3.5,3.5v9.9
					C530.2,1298.5,528.6,1300.1,526.6,1300.1z"/>
			</g>
		</g>
	</g>
	<g>
		<g>
			<g>
				<path class="st2" d="M524.2,1286.7h13.5c0,0,11.8-1,11.8,8.8c0,9.8,0,22,0,22h-11.5v-15.9c0,0,0.7-5.1-4.1-5.1
					c-4.7,0-9.8,0-9.8,0S519.5,1292.1,524.2,1286.7z"/>
			</g>
		</g>
	</g>
	<g>
		<g>
			<g>
				<rect x="460.1" y="1322.1" class="st4" width="80.3" height="47.7"/>
			</g>
		</g>
	</g>
	<g>
		<g>
			<g>
				<path class="st3" d="M508.3,1393.4v-52.3l24-24h32.3v76.2C564.5,1393.3,508,1393.1,508.3,1393.4z"/>
			</g>
		</g>
	</g>
	<g>
		<g>
			<g>
				<path class="st1" d="M273.6,1411.7l1.1,5c0,0,17.7,0.6,31.3-0.9c0,0,9-0.6,12.1-1.9c3.1-1.2,5-3.1,5-3.1l0.3,3.1l13.6-2.2
					l0.3-5.3L273.6,1411.7z"/>
			</g>
		</g>
	</g>
	<g>
		<g>
			<g>
				<path class="st1" d="M516.7,1411.7l-1.1,5c0,0-17.7,0.6-31.3-0.9c0,0-9-0.6-12.1-1.9c-3.1-1.2-5-3.1-5-3.1l-0.3,3.1l-13.6-2.2
					l-0.3-5.3L516.7,1411.7z"/>
			</g>
		</g>
	</g>
	<g>
		<g>
			<g>
				<path class="st2" d="M341.6,1330.8l-4.3,75.6c0,0-44.7,7.4-63.7,5.3c0,0-0.5-4.2,5.3-8.4c5.8-4.2,28.2-14,28.2-14l0.7-61.8
					L341.6,1330.8z"/>
			</g>
		</g>
	</g>
	<g>
		<g>
			<g>
				<path class="st2" d="M440.6,1330.8l12.4,75.6c0,0,44.7,7.4,63.7,5.3c0,0,0.5-4.2-5.3-8.4c-5.8-4.2-28.2-14-28.2-14l-8.8-61.8
					L440.6,1330.8z"/>
			</g>
		</g>
	</g>
	<g>
		<g>
			<g>
				<path class="st5" d="M395.5,605.7c0,0,3.9-15.1,9.3-29.3c5.4-14.1,12.2-35.1,11.7-52.2c-0.5-17.1-10.7-34.1-20-38.5
					c-9.3-4.4-9.8,2.4-6.3,7.8c0,0-5.4-10.7-21.9-14.1c-16.6-3.4-34.6,0-37.6,2.4c-2.9,2.4-6.3,9.8,6.8,10.7c0,0-15.6,0.5-23.9,9.8
					s-7.8,24.4,7.3,30.2c0,0-2.9,20.5,7.8,28.3S395.5,605.7,395.5,605.7z"/>
			</g>
		</g>
	</g>
	<g>
		<g>
			<g>
				<path class="st6" d="M348.1,643.2l0.5-31.7c0-2.6-1.6-4.9-4-5.6c-3.6-1.1-8.6-3.8-11.8-10.4c-5.3-11.1-2.7-32.4-4.2-51.4l-0.5-8
					c0,0,21.2,3.2,35.5,0.5c14.3-2.7,20.7-8,20.7-8s-4.8,5.8-2.7,14.3c2.1,8.5,9,6.4,12.7,3.7c0,0-1.1,8-4.8,14.3
					c-3.7,6.4,3.2,12.2,8,5.8c4.8-6.4,9.5-12.7,15.9-12.7s9.5,12.2,5.8,19.6c-3.7,7.4-23.9,12.7-23.9,19.6s1.6,58.9,1.6,58.9
					l-49.3,4.2L348.1,643.2z"/>
			</g>
		</g>
	</g>
	<g>
		<g>
			<g>
				<g>
					<path class="st7" d="M413.1,569.3c-0.2,0-3.9-0.7-7.2,0.9c1.8-2.7,4.4-5.4,8.5-6.7c0.3-0.1,0.5-0.5,0.4-0.8
						c-0.1-0.4-0.5-0.5-0.8-0.4c-10.5,3.2-12.5,15.1-12.5,15.2c-0.1,0.4,0.2,0.7,0.5,0.8c0,0,0,0,0,0c0.4,0.1,0.7-0.2,0.8-0.6
						c0,0,0.4-2.3,1.7-5c0.1,0,0.1-0.1,0.2-0.1c3-2.8,8.1-2,8.2-2c0.4,0.1,0.7-0.2,0.8-0.5C413.7,569.7,413.4,569.4,413.1,569.3z"/>
				</g>
			</g>
		</g>
	</g>
	<g>
		<g>
			<g>
				<g>
					<path class="st7" d="M329.2,568.1c0-0.2,0-0.4,0.1-0.7c0-0.4,0.1-0.8,0.1-1.2c1.4-0.9,3.2-1.2,5.4-0.1c0.2,0.1,0.3,0.2,0.4,0.2
						c0.6,0.2,1.1,0.6,1.6,1c2.2,2,3.4,5.3,2.7,8.1c-0.6,2.8-3.1,5-6,4.8c-0.6,0-1.1-0.1-1.7-0.3c-0.2,0-0.4-0.1-0.6-0.2
						c0,0-0.7-0.2-1.5-0.8C329.3,575.4,329.1,571.8,329.2,568.1z"/>
				</g>
			</g>
		</g>
	</g>
	<g>
		<g>
			<g>
				<g>
					<path class="st7" d="M377.2,570.9c0,0.2,0,0.3,0,0.5c0.1,0.6,0,1.2-0.1,1.8c-0.7,2.8-2.9,5.4-5.7,6.3c-2.7,0.8-5.8-0.3-7-2.9
						c-0.2-0.5-0.4-1-0.6-1.6c-0.1-0.2-0.1-0.4-0.1-0.6c0,0-0.4-2,0.5-4.4c0.9-2.4,3-3.8,4.9-4.4S377,565.3,377.2,570.9z"/>
				</g>
			</g>
		</g>
	</g>
	<g>
		<g>
			<g>
				<g>
					<g>
						<path class="st7" d="M347.3,574.5c-0.1,0-0.2,0-0.3-0.1c-1.2-0.9-2.3-2.5-2.3-2.6c-0.1-0.2-0.2-0.4-0.1-0.7
							c0-0.3,0.1-0.5,0.3-0.6c1.8-1.5,2.3-6.2,2.4-7.9c0-0.5,0.3-0.9,0.7-0.9c0.4,0,0.6,0.4,0.6,0.9c0,0.3-0.3,5.9-2.4,8.6
							c0.4,0.5,1,1.2,1.6,1.6c0.3,0.2,0.4,0.8,0.2,1.2C347.8,574.3,347.6,574.5,347.3,574.5z"/>
					</g>
				</g>
			</g>
		</g>
	</g>
	<g>
		<g>
			<g>
				<g>
					<path class="st8" d="M363.2,559c0-0.2,0.1-0.5,0.1-0.7c0.2-1.1,1.5-1.8,2.5-1.7c1,0.1,1.9,0.9,2,1.9c0,0,0,0.1,0,0.1
						c0.1,0.2,0.1,0.4,0.1,0.7c0,0.4,0,0.7-0.1,1.1c0,0.3,0,0.5-0.1,0.8c0,0,0,0.1,0,0.1c-0.1,1.2-1,2.4-2.3,2.3
						c-1.1,0-2.3-0.9-2.3-2.1c0-0.1,0-0.1,0-0.1C363,560.6,363,559.7,363.2,559z"/>
				</g>
			</g>
		</g>
	</g>
	<g>
		<g>
			<g>
				<g>
					<path class="st8" d="M335.3,559.5c0-0.2,0-0.5,0.1-0.7c0.2-1.1,1.4-1.9,2.4-1.8c1,0.1,1.9,0.8,2.1,1.8c0,0,0,0.1,0,0.1
						c0.1,0.2,0.1,0.4,0.1,0.6c0,0.4,0,0.7,0,1.1c0,0.3,0,0.5,0,0.8c0,0,0,0.1,0,0.1c0,1.2-0.8,2.4-2.2,2.5c-1.1,0-2.3-0.8-2.4-2
						c0,0,0-0.1-0.1-0.1C335.1,561.1,335.1,560.2,335.3,559.5z"/>
				</g>
			</g>
		</g>
	</g>
	<g>
		<g>
			<g>
				<path class="st9" d="M349.4,581c-3.5,0-6-1.6-6.1-1.6c-0.3-0.2-0.3-0.5-0.2-0.8c0.2-0.3,0.5-0.3,0.8-0.2c0.3,0.2,7.4,4.6,14-2.8
					c0.2-0.2,0.6-0.2,0.8,0c0.2,0.2,0.2,0.6,0,0.8C355.6,580,352.2,581,349.4,581z"/>
			</g>
		</g>
	</g>
	<g>
		<g>
			<g>
				<path class="st5" d="M370.1,550.3c-0.2,0-0.4-0.1-0.5-0.2c-2.4-3.4-7.1-1.2-7.3-1.1c-0.3,0.1-0.6,0-0.7-0.3
					c-0.1-0.3,0-0.6,0.3-0.7c0.1,0,5.8-2.6,8.7,1.5c0.2,0.3,0.1,0.6-0.1,0.8C370.3,550.3,370.2,550.3,370.1,550.3z"/>
			</g>
		</g>
	</g>
	<g>
		<g>
			<g>
				<path class="st5" d="M342.4,547.1c-0.2,0-0.4-0.1-0.5-0.2c0,0-1.4-2.1-3.6-2.4c-1.3-0.2-2.6,0.2-3.9,1.2
					c-0.2,0.2-0.6,0.1-0.8-0.1c-0.2-0.2-0.1-0.6,0.1-0.8c1.6-1.2,3.2-1.7,4.8-1.4c2.7,0.4,4.3,2.8,4.3,2.9c0.2,0.3,0.1,0.6-0.2,0.8
					C342.6,547,342.5,547.1,342.4,547.1z"/>
			</g>
		</g>
	</g>
	<g>
		<g>
			<g>
				<path class="st9" d="M396.6,624.2l-24.5,15c-2.4,1.5-5.5,1.3-7.7-0.5l-17.1-13.5l-1.2,30.2l52.5,0.4L396.6,624.2z"/>
			</g>
		</g>
	</g>
	<g>
		<g>
			<g>
				<path class="st9" d="M396.9,647.1c0,0,49.3,11.9,56.8,15.7S433.5,792,433.5,792l6,55.3c0,0,0,15.7-14.9,16.4l0.7,14.9
					l-122.5,1.5l-0.7-18.7c0,0-7.5,3-9-11.2s-3.7-98.6,0-137.4s-4.7-48.2,16.4-54.5C329.5,652.4,377.5,644.9,396.9,647.1z"/>
			</g>
		</g>
	</g>
	<g>
		<g>
			<g>
				<path class="st9" d="M425.3,878.6c0,0,9,11.2,12.7,38.8s41.3,374.4,41.3,387.1s-3.9,16.2-3.9,16.2l0,9.7c0,0-17.2,6-34.4,1.5
					l-3-6.7c0,0-9-6-11.2-22.4s-64.2-318.1-64.2-318.1l-11.2,324.1c0,0-2.2,8.2-8.2,10.5l-1.5,11.2c0,0-15.7,6.7-33.6,2.2l-3-10.5
					c0,0-5.2-0.7-6.7-15.7s-3-406.3-3-406.3s-1.5-16.4,7.5-20.2C311.7,876.4,425.3,878.6,425.3,878.6z"/>
			</g>
		</g>
	</g>
	<g>
		<g>
			<g>
				<path class="st9" d="M319.5,793.4l-39.1,54.8c0,0-13.8,13-33.4,4.8c-19.6-8.2-16.6-27.4-8.8-52.8
					c7.8-25.4,40.6-117.8,45.5-126.4c4.9-8.6,12.1-12.5,26.8-15.5C325.1,655.2,319.5,793.4,319.5,793.4z"/>
			</g>
		</g>
	</g>
	<g>
		<g>
			<g>
				<path class="st1" d="M304.2,712.7c0,0-9.1-0.6-12.2,1.3c-3.1,1.9-7.1,8.6-6.7,17.7c0.4,9.2,7.2,61.5,7.2,61.5l8.2-2.8l4.9,17.4
					c0,0,13.5,0.1,21.8-4.4l7.9-4.8l-2.7-9.9l8.6-2.8L326,740.8C326,740.8,315.7,714,304.2,712.7z"/>
			</g>
		</g>
	</g>
	<g>
		<g>
			<g>
				<path class="st9" d="M452.6,662.6c0,0,16.4,4.7,26.6,41.2c10.2,36.6,20.1,115.6,16.4,134.1c-3.7,18.5-24.8,30.3-42.2,23.5
					s-98.5-60.1-109.5-70.8s-17.4-19.3-8.1-36.5c6.6-12.2,17.1-16,43.5,0.4c26.4,16.4,67.1,38.4,67.1,38.4L425.6,730
					C425.6,730,419,678.1,452.6,662.6z"/>
			</g>
		</g>
	</g>
	<g>
		<g>
			<g>
				<path class="st6" d="M343.3,747.5l-9.9-6.2c-2.7-1.7-4.5-4.3-5.2-7.4c-1.2-5.4-3-13.7-4.2-16.7c-1.8-4.5-7.2-8.1-12.1-8.3
					s-14.4,2-17.4,3.4s-0.6,3.4,6.8,2.7c0,0-6.5,1.3-9,2.2c-2.5,0.9-1.6,3.9,4.3,3.1c0,0-7.5,1.7-7.5,3.7c-0.1,2,7.4,1.7,7.4,1.7
					s-7,1.3-7.5,3.2c-0.6,2,1.9,2,5.9,1.2c1.2-0.3,2.2-0.4,3-0.6c1.6-0.3,3.3,0.4,4.3,1.7l1,1.1c0,0,7,12.1,10.8,17.6
					c3.8,5.6,20.3,14,20.3,14L343.3,747.5z"/>
			</g>
		</g>
	</g>
	<g>
		<g>
			<g>
				<path class="st2" d="M333.2,768.8l-5.1-3.8c-2.9-2.2-3.7-6.2-1.7-9.3l7.1-11.3c2.1-3.3,6.4-4.2,9.6-2.2l5.5,3.4
					c0.2,0.1,0.3,0.5,0.2,0.7l-13.9,22.2C334.5,769.1,333.7,769.2,333.2,768.8z"/>
			</g>
		</g>
	</g>
	<g>
		<g>
			<g>
				<path class="st2" d="M437.6,853.6c-0.6-0.4-62.6-38.2-90.4-60.1c0,0-4.5-3.4-8.7-8.4c-3.9-4.6-8.4-11.7-7.6-19l0.1-0.6l3.2,2
					l13.1-21.1l-3.8-1.7l0.9-0.3c0.3-0.1,7.8-2.6,18.6,1.5c10.8,4.1,82.9,46.1,83.6,46.5c1.5,0.8,37.4,19,43.4,32.8l-0.7,0.3
					c-5.9-13.6-42.7-32.3-43.1-32.5c-0.7-0.4-72.8-42.4-83.5-46.5c-8.4-3.2-14.8-2.3-17.1-1.8l2.8,1.2l-0.2,0.4l-13.7,22.1l-2.8-1.8
					c-0.9,13.3,15.9,25.9,16,26.1c27.8,21.9,89.8,59.6,90.4,60L437.6,853.6z"/>
			</g>
		</g>
	</g>
	<g>
		<g>
			<g>
				<path class="st2" d="M362.4,746.3c-2.6-42.7,5.4-82.8,5.5-83.2l0.7,0.1c-0.1,0.4-8.1,40.4-5.5,83L362.4,746.3z"/>
			</g>
		</g>
	</g>
	<g>
		<g>
			<g>
				<polygon class="st2" points="361.3,862.2 302,862.2 302,861.5 360.5,861.5 360.9,803.7 361.6,803.7 				"/>
			</g>
		</g>
	</g>
	<g>
		<g>
			<g>
				<polygon class="st2" points="424.5,864.1 360.9,862.2 360.9,861.5 424.5,863.3 				"/>
			</g>
		</g>
	</g>
	<g>
		<g>
			<g>
				<polygon class="st2" points="246.8,809.6 246.2,809.1 288.2,763.3 288.8,763.8 				"/>
			</g>
		</g>
	</g>
	<g>
		<g>
			<g>
				<path class="st2" d="M299.4,681c0.4-5,1-14.3,9.9-20.9l0.4,0.6c-8.6,6.4-9.3,15.5-9.6,20.4c-0.4,5.2,0.4,29,0.4,29.2l-0.8,0"/>
			</g>
		</g>
	</g>
	<g>
		<g>
			<g>
				<path class="st2" d="M400.2,755.8c-0.6,0-1.2-0.1-1.8-0.4l-11.6-5.2c-1.6-0.7-2.6-2.3-2.6-4.1v-30.7h33.7v30.5
					c0,1.8-1.1,3.5-2.8,4.1l-13.2,5.3C401.3,755.7,400.8,755.8,400.2,755.8z M385,716.4v29.8c0,1.4,0.8,2.7,2.1,3.3l11.6,5.2
					c0.9,0.4,1.9,0.4,2.8,0.1l13.2-5.3c1.4-0.5,2.3-1.9,2.3-3.3v-29.7H385z"/>
			</g>
		</g>
	</g>
	<g>
		<g>
			<g>
				<rect x="384.6" y="725.4" class="st2" width="32.4" height="0.9"/>
			</g>
		</g>
	</g>
	<g>
		<g>
			<g>
				<rect x="309.1" y="862.2" class="st2" width="0.8" height="14.6"/>
			</g>
		</g>
	</g>
	<g>
		<g>
			<g>
				<rect x="319.6" y="862.2" class="st2" width="0.8" height="14.6"/>
			</g>
		</g>
	</g>
	<g>
		<g>
			<g>
				<rect x="330.1" y="862.2" class="st2" width="0.8" height="14.6"/>
			</g>
		</g>
	</g>
	<g>
		<g>
			<g>
				<rect x="340.6" y="862.2" class="st2" width="0.8" height="14.6"/>
			</g>
		</g>
	</g>
	<g>
		<g>
			<g>
				<rect x="351.1" y="862.2" class="st2" width="0.8" height="14.6"/>
			</g>
		</g>
	</g>
	<g>
		<g>
			<g>
				<rect x="361.6" y="862.2" class="st2" width="0.8" height="14.6"/>
			</g>
		</g>
	</g>
	<g>
		<g>
			<g>
				<rect x="372.2" y="862.2" class="st2" width="0.8" height="14.6"/>
			</g>
		</g>
	</g>
	<g>
		<g>
			<g>
				<rect x="382.7" y="862.2" class="st2" width="0.8" height="14.6"/>
			</g>
		</g>
	</g>
	<g>
		<g>
			<g>
				<rect x="393.2" y="863.4" class="st2" width="0.8" height="13.5"/>
			</g>
		</g>
	</g>
	<g>
		<g>
			<g>
				<rect x="403.7" y="863.4" class="st2" width="0.8" height="13.5"/>
			</g>
		</g>
	</g>
	<g>
		<g>
			<g>
				<rect x="414.2" y="863.7" class="st2" width="0.8" height="13.1"/>
			</g>
		</g>
	</g>
	<g>
		<g>
			<g>
				<path class="st2" d="M362.2,984.7c-2.4-15.3-7.8-21.9-12-24.9c-4.4-3.1-8.3-2.7-8.4-2.7l-0.1-0.7c0.2,0,4.2-0.5,8.9,2.8
					c4.3,3,9.8,9.8,12.3,25.4L362.2,984.7z"/>
			</g>
		</g>
	</g>
	<g>
		<g>
			<g>
				<path class="st2" d="M435.5,933.9c-26.2-6-35.5-47.9-35.5-48.3l0.7-0.2c0.1,0.4,9.3,41.9,35,47.7L435.5,933.9z"/>
			</g>
		</g>
	</g>
	<g>
		<g>
			<g>
				
					<rect x="341.4" y="885.5" transform="matrix(0.9988 -4.993762e-02 4.993762e-02 0.9988 -45.2919 18.2092)" class="st2" width="0.8" height="60.1"/>
			</g>
		</g>
	</g>
	<g>
		<g>
			<g>
				<path class="st2" d="M267.4,855.1c0,0,3.8-12.2-8.4-19.8c-12.2-7.6-26.1,0.4-26.1,0.4S232.9,858.9,267.4,855.1z"/>
			</g>
		</g>
	</g>
	<g>
		<g>
			<g>
				<path class="st2" d="M457.5,863.1c0,0,2.9-30.3,37.4-23.6C495,839.6,490.3,867.3,457.5,863.1z"/>
			</g>
		</g>
	</g>
	<g>
		<g>
			<g>
				<path class="st2" d="M362.8,668.1c-2.7,0-15.6-15.7-17.1-17.5l0.6-0.5c5.5,6.7,14.8,17.3,16.5,17.3c1.9,0,4.6-3.6,5.4-5l0.3-0.5
					l0.3,0.4c2.1,2.8,4.3,4.5,6.3,4.8c1.3,0.2,2.5-0.2,3.6-1.1c3.7-2.9,18.8-18.8,18.9-18.9l0.5,0.5c-0.6,0.7-15.3,16.1-19,19
					c-1.3,1-2.7,1.4-4.2,1.2c-2.7-0.4-5-2.6-6.5-4.6C367.6,664.5,365.1,668.1,362.8,668.1z"/>
			</g>
		</g>
	</g>
	<g>
		<g>
			<g>
				<path class="st2" d="M368.1,662.6c0-0.7-0.6-18.1,0-22.4l0.7,0.1c-0.6,4.3,0,22.1,0,22.3L368.1,662.6z"/>
			</g>
		</g>
	</g>
	<g>
		<g>
			<g>
				<path class="st3" d="M312.7,1333.7l-1.3,52.1c0,2,1.6,3.6,3.5,3.6l0,0c1.9,0,3.5-1.5,3.5-3.4l1.9-51.7L312.7,1333.7z"/>
			</g>
		</g>
	</g>
	<g>
		<g>
			<g>
				<path class="st3" d="M461.8,1333.3l9.3,51.9c0.3,2,2.2,3.3,4.2,2.9l0,0c1.9-0.4,3.1-2.2,2.8-4l-8.3-52L461.8,1333.3z"/>
			</g>
		</g>
	</g>
	<g>
		<g>
			<g>
				<path class="st2" d="M446,1178.4l-20.7,2.4c-4.1,0.5-7.7-2.5-8.2-6.5l-5.7-50.3c-0.5-4.1,2.5-7.7,6.5-8.2l20.7-2.4
					c4.1-0.5,7.7,2.5,8.2,6.5l5.7,50.3C453,1174.3,450,1177.9,446,1178.4z"/>
			</g>
		</g>
	</g>
	<g>
		<g>
			<g>
				<path class="st2" d="M330,1179.6l-20.9,0.5c-4.1,0.1-7.5-3.2-7.6-7.2l-1.1-50.6c-0.1-4.1,3.2-7.5,7.2-7.6l20.9-0.5
					c4.1-0.1,7.5,3.2,7.6,7.2l1.1,50.6C337.4,1176.1,334.1,1179.5,330,1179.6z"/>
			</g>
		</g>
	</g>
	<g>
		<g>
			<g>
				<path class="st2" d="M407.5,885.1c0,0,5.1,31.4,29.1,41.6l-3.7,6.1c0,0-23.6-8.2-32.7-47.3L407.5,885.1z"/>
			</g>
		</g>
	</g>
	<g>
		<g>
			<path class="st10" d="M304.9,726.4c-0.1,0-0.2,0-0.2-0.1c-3.1-2.2-9-0.3-9.1-0.2c-0.2,0.1-0.4,0-0.5-0.2c-0.1-0.2,0-0.4,0.2-0.5
				c0.3-0.1,6.4-2.1,9.8,0.4c0.2,0.1,0.2,0.4,0.1,0.5C305.1,726.3,305,726.4,304.9,726.4z"/>
		</g>
	</g>
	<g>
		<g>
			<path class="st10" d="M308.9,721.3c-0.1,0-0.1,0-0.2-0.1c-4.3-2.6-12.6-0.4-12.7-0.4c-0.2,0.1-0.4-0.1-0.5-0.3
				c-0.1-0.2,0.1-0.4,0.3-0.5c0.4-0.1,8.7-2.3,13.3,0.5c0.2,0.1,0.2,0.3,0.1,0.5C309.2,721.2,309.1,721.3,308.9,721.3z"/>
		</g>
	</g>
	<g>
		<g>
			<path class="st10" d="M313.1,716.4c-0.2,0-0.3-0.1-0.4-0.3c0,0,0,0,0,0c0,0-0.4-0.5-2.8-0.9c-4.2-0.6-10,0.4-10,0.4
				c-0.2,0-0.4-0.1-0.5-0.3c0-0.2,0.1-0.4,0.3-0.5c0.2,0,6-1.1,10.3-0.5c2.9,0.4,3.4,1.2,3.5,1.5
				C313.5,716.1,313.4,716.3,313.1,716.4C313.2,716.4,313.1,716.4,313.1,716.4z"/>
		</g>
	</g>
	<g>
		<g>
			<path class="st10" d="M305.2,727.4c-0.2,0-0.4-0.1-0.4-0.3c-0.3-1.8,1.4-3.2,2.7-4.3c0.3-0.2,0.5-0.4,0.6-0.7
				c0.1-0.2,0.1-0.4,0.1-0.7l0-0.3c0.2-1.5,1.3-2.8,2.6-3.4l0.3-0.1c0.3-0.1,0.6-0.2,0.8-0.4c0.1-0.1,0.2-0.3,0.2-0.5l0.1-0.2
				c0.5-1.3,1.7-2.3,3-2.6c0.3-0.1,0.5-0.1,0.5-0.2c0.1-0.1,0.1-0.2,0.1-0.3c0.3-1,1-1.8,1.8-2.2c0.2-0.1,0.4,0,0.5,0.2
				c0.1,0.2,0,0.4-0.2,0.5c-0.7,0.3-1.2,0.9-1.4,1.6c-0.1,0.3-0.1,0.5-0.3,0.7c-0.2,0.3-0.6,0.3-0.9,0.4c-1.2,0.3-2.2,1.1-2.6,2.1
				L313,717c-0.1,0.2-0.2,0.5-0.4,0.7c-0.3,0.4-0.7,0.5-1.1,0.7l-0.3,0.1c-1.1,0.5-2,1.6-2.2,2.8l0,0.2c0,0.3-0.1,0.6-0.2,0.9
				c-0.2,0.4-0.5,0.7-0.8,0.9c-1.3,1-2.7,2.2-2.4,3.6C305.6,727.2,305.5,727.4,305.2,727.4C305.2,727.4,305.2,727.4,305.2,727.4z"/>
		</g>
	</g>
	<path class="st2" d="M406.1,697.8c0,0-0.5-7.1-5.1-9.4c-0.2-0.1-0.5,0-0.6,0.3l-1.1,8.6L406.1,697.8z"/>
	<path class="st2" d="M395.1,716.3c2.8,0,5.6-0.1,8.4,0l-1.4-7.3c-0.3-1.4,0.4-2.7,1.6-3.4c2.5-1.4,6.4-4.3,6.3-8.4l-15-1.6
		l0.7-10.3c0-0.3-0.3-0.5-0.6-0.4c-1.6,0.8-5.9,3.4-8.3,9.3c0,0-2,4.4,1.7,7.4c3.6,3,5.1,6.6,5.9,10.6L395.1,716.3z"/>
	<path class="st8" d="M401.4,701.7L401.4,701.7c0.2-1.5-0.8-2.7-2.2-2.8l-1.4-0.1c-1.4-0.1-2.6,0.9-2.7,2.2l0,0.1
		c-0.1,1.4,0.9,2.6,2.2,2.7l1.4,0.1C400,704,401.3,703,401.4,701.7z"/>
</g>
</svg>
