<?xml version="1.0" encoding="utf-8"?>
<!-- Generator: Adobe Illustrator 16.0.3, SVG Export Plug-In . SVG Version: 6.00 Build 0)  -->
<!DOCTYPE svg PUBLIC "-//W3C//DTD SVG 1.1//EN" "http://www.w3.org/Graphics/SVG/1.1/DTD/svg11.dtd">
<svg version="1.1" id="Capa_1" xmlns="http://www.w3.org/2000/svg" xmlns:xlink="http://www.w3.org/1999/xlink" x="0px" y="0px"
	 width="750px" height="1624px" viewBox="0 0 750 1624" enable-background="new 0 0 750 1624" xml:space="preserve">
<g>
	<rect x="1" y="2" fill="#6228CF" width="750" height="1624"/>
	<g>
		<path fill="#7F51D6" d="M82.368,1049.939c42.712-42.703,85.425-85.407,128.137-128.11c-0.479-0.479-0.959-0.96-1.439-1.439
			c-42.743,42.737-85.486,85.478-128.229,128.21C81.348,1049.047,81.858,1049.493,82.368,1049.939z"/>
		<path fill="#7D4ED5" d="M391.834,557.02c-41.155,41.181-82.31,82.354-123.464,123.53c0.596,0.604,1.192,1.198,1.788,1.798
			c41.147-41.151,82.303-82.311,123.455-123.465C393.02,558.262,392.427,557.641,391.834,557.02z"/>
		<path fill="#5723B5" d="M689.976,718.318c-24.049,24.05-48.098,48.1-72.146,72.146c0.396,0.399,0.797,0.798,1.195,1.197
			c24.047-24.051,48.094-48.104,72.142-72.153C690.769,719.113,690.372,718.716,689.976,718.318z"/>
		<path fill="#5623B5" d="M244.379,1129.032c21.042-21.042,42.085-42.084,63.128-63.126c-0.417-0.418-0.833-0.836-1.25-1.254
			c-21.042,21.043-42.083,42.085-63.125,63.127C243.547,1128.197,243.963,1128.614,244.379,1129.032z"/>
		<path fill="#8457D7" d="M553.355,333.729c-19.014,19.041-38.021,38.082-57.03,57.123c0.396,0.404,0.799,0.81,1.199,1.214
			c19.061-19.014,38.122-38.028,57.183-57.042C554.257,334.592,553.807,334.16,553.355,333.729z"/>
		<path fill="#7F50D5" d="M95.961,775.763c10.103-10.249,20.205-20.498,30.308-30.747c-0.374-0.377-0.747-0.753-1.12-1.13
			c-10.167,10.194-20.334,20.392-30.501,30.582C95.086,774.899,95.523,775.331,95.961,775.763z"/>
		<path fill="#8051D6" d="M327.269,430.105c9.417-9.436,18.833-18.863,28.249-28.299c-0.478-0.478-0.951-0.953-1.433-1.434
			c-9.417,9.431-18.835,18.86-28.253,28.291C326.311,429.146,326.79,429.626,327.269,430.105z"/>
		<path fill="#8052D6" d="M643.695,911.514c9.382-9.15,18.765-18.31,28.146-27.464c-0.544-0.557-1.088-1.112-1.633-1.67
			c-9.248,9.28-18.496,18.563-27.743,27.84C642.875,910.651,643.285,911.083,643.695,911.514z"/>
		<path fill="#8457D7" d="M700.378,1162.841c-10.508,10.513-21.015,21.025-31.521,31.538c0.33,0.336,0.66,0.673,0.991,1.009
			c10.534-10.54,21.068-21.081,31.604-31.622C701.095,1163.457,700.736,1163.149,700.378,1162.841z"/>
		<path fill="#8355D7" d="M307.633,918.123c10.185-10.169,20.362-20.337,30.543-30.506c-0.328-0.332-0.656-0.664-0.979-0.996
			c-10.198,10.207-20.396,20.415-30.599,30.622C306.943,917.536,307.288,917.829,307.633,918.123z"/>
		<path fill="#8457D7" d="M709.723,570.015c-10.244,10.212-20.484,20.428-30.729,30.639c0.479,0.483,0.964,0.975,1.445,1.461
			c10.135-10.322,20.269-20.646,30.398-30.97C710.467,570.767,710.095,570.391,709.723,570.015z"/>
		<path fill="#5723B6" d="M708.043,985.398c-8.063,8.034-16.126,16.071-24.189,24.109c0.386,0.384,0.767,0.771,1.146,1.151
			c8.057-8.045,16.113-16.089,24.169-24.134C708.792,986.152,708.418,985.775,708.043,985.398z"/>
	</g>
</g>
<g id="Capa_2" display="none">
</g>
<g>
	<g>
		<path fill="#5924B9" d="M641.854,1253.398c0,8.968-96.691,16.231-215.965,16.231c-119.274,0-215.965-7.264-215.965-16.231
			c0-8.962,96.691-16.227,215.965-16.227C545.162,1237.172,641.854,1244.437,641.854,1253.398z"/>
		<g>
			<path fill="#BA7B62" d="M438.761,710.967c-10.705,2.294-19.161,11.061-23.598,21.071c-4.435,10.006-5.405,21.179-5.673,32.125
				c-0.553,22.45,1.623,44.961,6.455,66.892C424.364,792.167,430.342,749.855,438.761,710.967z"/>
			<path fill="#8D5C4C" d="M589.245,1089.04c-25.33,21.574-60.389,27.627-93.658,28.271c-33.268,0.645-67.384-2.126-100.244,3.11
				c-17.082-99.385,0.14-204.34,48.084-293.06C482.751,920.847,531.65,1005.561,589.245,1089.04z"/>
			<g>
				<g>
					<g>
						<path fill="#D38C6C" d="M470.634,672.785c-1.403-3.262-2.818-6.516-4.192-9.798c-12.441,4.377-24.666,7.899-37.107,12.276
							c4.497,4.618,9.011,9.255,12.785,14.48c0.683,0.944,1.312,1.935,1.939,2.922C454.132,687.899,463.25,681.132,470.634,672.785z
							"/>
						<path fill="#EDB698" d="M480.864,696.694c-3.361-8.015-6.809-15.95-10.23-23.91c-7.384,8.347-16.502,15.115-26.575,19.88
							c2.842,4.466,5.092,9.314,6.076,14.496C460.28,703.411,470.718,700.444,480.864,696.694z"/>
					</g>
					<path fill="#A13E4B" d="M426.613,626.296c-4.53-3.674-8.181-9.526-9.86-16.426c-1.678-6.896-1.294-14.792,1.296-21.121
						c4.157-10.157,13.517-14.871,21.811-12.884c8.3,1.987,15.455,9.687,20.44,19.101c6.157-2.558,13.104-0.191,18.474,4.713
						c5.365,4.905,9.051,13.204,9.79,22.063c0.859,10.263-2.207,20.788-7.455,28.116c-5.245,7.328-12.489,11.577-19.88,12.797
						c-3.592,0.592-7.328,0.479-10.674-1.412c-5.302-2.986-8.84-9.898-11.842-16.658
						C435.715,637.829,431.549,630.306,426.613,626.296z"/>
					<path fill="#EDB698" d="M414.866,613.476c-3.109,13.796-11.473,26.341-23.014,34.515c2.895,1.232,6.148,3.11,9.042,4.342
						c0.229,6.289,1.672,13.333,3.883,19.225c2.206,5.893,6.755,11.273,12.86,12.797c4.033,1.007,8.282,0.255,12.316-0.731
						c13.552-3.322,26.433-9.346,37.666-17.622c3.697,2.651,9.931,0.968,12.504-2.791c2.57-3.754,2.163-9.07-0.363-12.86
						c-1.883-2.823-4.905-4.933-8.263-5.413c-3.362-0.48-6.992,0.795-9.078,3.47c-2.087,2.674-2.396,6.7-0.488,9.506
						c-1.62-1.12-4.014-2.087-5.633-3.21c0.295-6.213,0.679-12.732,0.979-18.949c-3.55-2.175-7.609-4.486-11.158-6.661
						c0.597-4.281,1.588-8.626,2.183-12.908C437.754,614.798,425.417,614.862,414.866,613.476z"/>
				</g>
				<g>
					<g>
						<path fill="#FF889B" d="M492.113,592.983c1.039-7.915,2.003-16.375-1.522-23.538c-4.302-8.74-14.56-13.336-24.302-13.397
							c-9.739-0.056-19.094,3.659-27.884,7.856c-8.836,4.214-17.689,9.218-23.514,17.086c-2.751,3.717-4.614,8.227-5.294,12.809
							c27.496,0.084,54.964,4.709,80.984,13.591C491.042,602.358,491.525,597.441,492.113,592.983z"/>
						<path fill="#FF6B87" d="M409.598,593.799c-0.76,5.125-0.031,10.337,2.803,14.655l75.729,23.727
							c0.986-7.512,1.682-16.314,2.453-24.79C464.562,598.508,437.094,593.883,409.598,593.799z"/>
					</g>
					<path fill="#FF889B" d="M490.07,625.652c-25.916-12.772-50.926-20.724-79.481-24.022c-2.423-0.28-4.549,1.687-4.461,4.126
						c0.129,3.43,0.26,6.924,0.383,10.337c0.073,1.967,1.572,3.542,3.531,3.766c26.132,2.966,51.725,9.474,76.11,19.316
						c2.455,0.991,5.173-0.591,5.465-3.222c0.232-2.107,0.492-4.27,0.685-6.296C492.461,627.995,491.569,626.392,490.07,625.652z"/>
				</g>
			</g>
			<g>
				<path fill="#D38C6C" d="M281.518,906.559c-2.571,2.854-2.823,7.104-0.612,10.242l9.73,13.808
					c2.47,3.511,7.227,4.525,10.917,2.335l10.518-6.244l-2.758-7.491l9.034-17.622l-12.845-21.632L281.518,906.559z"/>
				<path fill="#8D5C4C" d="M475.563,718.142c-11.061-6.927-25.685-2.91-31.652,8.703l-48.448,94.225l-11.868,7.052
					c-1.456,13.856-2.906,27.716-4.362,41.575l31.49-18.697c8.638-5.132,15.922-12.26,21.234-20.791l50.699-81.384
					C489.155,738.39,485.985,724.666,475.563,718.142z"/>
				<path fill="#BA7B62" d="M303.104,875.917l2.398,4.037l0,0l12.845,21.632l0,0l1.871,3.155l59.013-35.045
					c1.456-13.859,2.906-27.719,4.362-41.575L303.104,875.917z"/>
			</g>
			<g>
				<g>
					<path fill="#0096AA" d="M490.051,897.731l-17.31-2.218l-33.104-4.238l-37.103-4.752l21.88,147.969
						c20.211-19.837,40.424-39.674,60.639-59.509L490.051,897.731z"/>
					<path fill="#40AABE" d="M479.873,1055.02l5.18-80.036c-20.215,19.835-40.428,39.672-60.639,59.509l3.081,20.847
						c1.463,9.883,5.841,19.105,12.577,26.48l118.686,129.968l33.521-37.446L479.873,1055.02z"/>
				</g>
				<g>
					<path fill="#3E4E6C" d="M613.99,1194.961l-27.085-14.615l-21.507,24.021c6.637,4.31,9.282,12.721,6.309,20.048l-3.906,9.631
						l-3.051,1.271c-5.165,2.152-9.489,5.766-12.563,10.296h39.097L613.99,1194.961z"/>
					<path fill="#FFFFFF" d="M613.99,1194.961l-22.707,50.651h-39.097c-1.611,2.37-2.898,4.98-3.742,7.786h49.031l23.226-54.816
						L613.99,1194.961z"/>
				</g>
			</g>
			<g>
				<g>
					<path fill="#3E4E6C" d="M323.549,1201.709l-29.352-7.755l-5.292,11.196c-5.277,11.158-14.476,19.985-25.845,24.794
						l-24.101,10.201c-3.002,1.272-5.668,3.147-7.863,5.467h96.615L323.549,1201.709z"/>
					<path fill="#FFFFFF" d="M231.095,1245.612c-2.111,2.226-3.79,4.86-4.897,7.786H328.45l-0.74-7.786H231.095z"/>
				</g>
				<path fill="#40AABE" d="M402.534,886.523l-67.632,144.106l-46.448,161.806l45.157,11.932l49.031-158.922l75.88-75.56
					c18.501-18.426,29.643-42.971,31.325-69.023l0.204-3.131L402.534,886.523z"/>
			</g>
			<g>
				<path fill="#FFC167" d="M510.15,800.117c1-6.859,1.719-13.735,1.932-20.639c0.967-31.401-10.423-62.923-28.623-86.681
					c-18.47,1.459-36.423,10.178-50.079,24.302c-8.574,8.875-14.248,20.74-17.021,33.496
					c-7.684,35.343-13.625,72.993-23.931,108.188c-2.294,7.848-1.458,16.41,2.187,23.578c1.783,3.51,3.574,7.02,5.497,10.427
					l49.691,7.043l42.354,6c0.02-0.028,0.04-0.056,0.06-0.084c4.378-5.8,6.765-13.207,6.345-20.815
					c-0.456-8.278,0.06-16.559,1.039-24.845l-37.521-103.736L510.15,800.117z"/>
				<path fill="#FF8162" d="M510.15,800.117l-48.071-43.766l37.521,103.736c2.115-17.93,6.608-35.896,9.623-53.98
					C509.556,804.111,509.862,802.116,510.15,800.117z"/>
			</g>
			<g>
				<g>
					<path fill="#40AABE" d="M592.135,776.695c-20.744,5.941-44.854-3.014-56.695-21.051c-3.562-5.433-6.036-11.449-8.514-17.474
						c2.582,16.814,2.045,34.111-1.691,50.698c13.596,14.735,30.917,25.92,50.478,29.375
						C587.014,808.26,593.326,791.727,592.135,776.695z"/>
					<path fill="#0096AA" d="M526.926,738.17c-1.828-4.438-3.663-8.879-5.938-13.088c-8.603-15.918-23.75-28.172-41.115-33.256
						c7.427,26.613,16.678,54.86,31.193,78.374c4.081,6.612,8.846,12.904,14.168,18.669
						C528.971,772.282,529.508,754.984,526.926,738.17z"/>
				</g>
				<path fill="#40AABE" d="M487.951,690.818c-0.442-2.227-0.922-4.485-1.354-6.696c-0.911-4.689-5.368-7.783-10.078-7.008
					c-16.79,2.779-33.349,8.216-48.371,16.167c-4.178,2.211-5.433,7.624-2.698,11.481l4.744,6.692
					c2.271,3.202,6.523,4.19,10.015,2.403c12.041-6.168,26.7-10.71,40.265-12.648C485.509,700.492,488.951,695.803,487.951,690.818z
					"/>
			</g>
			<g>
				<path fill="#8D5C4C" d="M440.855,743.99l15.208-13.304l-14.361-17.557l-1.494,0.728l-9.007,28.735
					c-4.781,15.243-7.385,31.09-7.73,47.065l-0.421,18.973l33.014-47.752L440.855,743.99z"/>
				<path fill="#8D5C4C" d="M506.529,858.212c0.079-3.494,0.256-6.992,0.604-10.479l5.832-58.83
					c-17.074-14.827-34.344-29.243-51.25-44.429C468.951,784.851,484.307,823.743,506.529,858.212z"/>
				<path fill="#BA7B62" d="M568.832,1014.651c-28-21.008-46.916-51.921-52.876-86.418l-7.48-43.289
					c-1.527-8.835-2.154-17.786-1.946-26.732c-22.223-34.469-37.578-73.361-44.814-113.737
					c16.906,15.187,34.176,29.602,51.25,44.429l1.363-13.704l-2.515-23.706c-1.1-10.39-3.905-20.524-8.307-29.999
					c-3.79-8.159-8.716-15.739-14.64-22.511l-5.408-6.188l-41.757,20.332l14.361,17.557l-15.208,13.304l15.208,16.886
					l-33.014,47.752l-2.37,108.312c-0.527,24.006,5,47.756,16.07,69.063l77.319,148.801c1.65,3.17,5.044,5.037,8.609,4.729
					c48.261-4.209,92.046-29.965,119.175-70.103L568.832,1014.651z"/>
			</g>
			<g>
				<g>
					<polygon fill="#3C3C3C" points="637.948,938.729 640.091,943.465 518.938,979.044 516.795,974.308 					"/>
					<path fill="#666666" d="M696.989,923.321L696.989,923.321c1.304,2.878-0.245,6.244-3.275,7.135l-56.683,16.646
						c-2.49,0.732-5.137-0.482-6.208-2.847l0,0c-1.303-2.882,0.245-6.248,3.275-7.139l56.682-16.646
						C693.271,919.743,695.918,920.959,696.989,923.321z"/>
				</g>
				<g>
					<path fill="#3C3C3C" d="M381.438,1011.613l-26.521,10.083c-1.551,0.591-2.29,2.034-1.703,3.333l0,0
						c0.588,1.299,2.307,2.023,3.967,1.672l28.322-6.03l2.971-0.631c1.003-1.123,1.123-3.234,0.147-5.396
						c-0.987-2.179-2.791-3.742-4.469-4.062L381.438,1011.613z"/>
					<g>
						<path fill="#BE4E5A" d="M589.249,932.6l-205.096,77.982c1.678,0.319,3.481,1.883,4.469,4.062
							c0.976,2.162,0.855,4.273-0.147,5.396l219.23-46.632c3.459-1.017,4.509-6.226,3.172-13.04l-135.102,34.035l133.688-39.261
							c-0.526-1.571-1.146-3.179-1.887-4.813c-1.322-2.922-2.857-5.616-4.487-7.986l-174.002,57.773l171.242-61.349
							C596.396,934.219,592.254,931.716,589.249,932.6z"/>
						<path fill="#A53A4A" d="M610.877,960.368c-0.329-1.659-0.805-3.415-1.414-5.226l-133.688,39.261L610.877,960.368z"/>
						<path fill="#A53A4A" d="M603.089,942.343c-0.896-1.301-1.824-2.491-2.76-3.575l-171.242,61.349L603.089,942.343z"/>
					</g>
				</g>
			</g>
			<g>
				<path fill="#EDB698" d="M558.758,970.297l-10.537-16.766H523.06l10.633,34.208c1.14,3.665,4.666,6.053,8.491,5.752l16.843-1.314
					c4.277-0.332,7.579-3.902,7.579-8.195v-12.233L558.758,970.297z"/>
				<path fill="#BA7B62" d="M462.079,756.351l56.282,89.763v107.417h33.524V848.277c0-10.05-2.41-19.952-7.031-28.874l-44.09-85.147
					c-5.653-10.917-19.078-15.195-30.002-9.571l0,0C459.152,730.663,455.143,745.29,462.079,756.351z"/>
			</g>
			<g>
				<g>
					<path fill="#8D5C4C" d="M413.392,989.086c-6.024-16.266-4.772-35.127,3.347-50.462c2.091-3.95,4.553-7.567,6.938-11.065
						c2.427-3.562,4.722-6.929,6.542-10.485c2.35-4.594,5.053-10.486,5.063-15.292c0.013-3.533,1.372-6.819,3.831-9.25
						c2.383-2.362,5.452-3.821,8.93-3.622c21.244,0.128,42.495-2.118,63.195-6.748l2.679,11.985
						c-21.604,4.829-43.795,7.208-65.961,7.043c-0.248,0.112-0.393,0.28-0.393,0.629c-0.021,7.367-3.255,14.675-6.416,20.851
						c-2.167,4.238-4.789,8.084-7.323,11.806c-2.295,3.371-4.461,6.552-6.237,9.898c-6.504,12.288-7.508,27.412-2.682,40.452
						L413.392,989.086z"/>
				</g>
				<rect x="465.929" y="883.856" fill="#BA7B62" width="6.141" height="20.885"/>
				
					<rect x="497.795" y="879.954" transform="matrix(0.979 -0.2036 0.2036 0.979 -170.9103 120.6153)" fill="#BA7B62" width="5.659" height="21.639"/>
			</g>
		</g>
	</g>
</g>
</svg>
