<?xml version="1.0" encoding="utf-8"?>
<!-- Generator: Adobe Illustrator 22.0.0, SVG Export Plug-In . SVG Version: 6.00 Build 0)  -->
<svg version="1.1" id="Capa_1" xmlns="http://www.w3.org/2000/svg" xmlns:xlink="http://www.w3.org/1999/xlink" x="0px" y="0px"
	 viewBox="0 0 750 1624" style="enable-background:new 0 0 750 1624;" xml:space="preserve">
<style type="text/css">
	.st0{fill:#6228cf;}
	.st1{fill:#4E21B1;}
	.st2{fill:#FF7000;}
	.st3{fill:#FEE5C6;}
	.st4{fill:#F49898;}
	.st5{fill:#22BF3F;}
	.st6{fill:#1AB2BB;}
	.st7{fill:#FDC50C;}
	.st8{fill:#F12B49;}
	.st9{fill:#E3F7FD;}
	.st10{fill:#FFFFFF;}
	.st11{fill:#094C6B;}
</style>
<rect x="0.1" y="0.1" class="st0" width="749.9" height="1623.7"/>
<g>
	<path class="st1" d="M446.2,1254.4c0,0-6.4,17.1-40.6,24.6c-34.2,7.5-39.6,7.5-65.2,12.8c-25.7,5.3-43.8,1.1-74.8,2.1
		c-31,1.1-135.8,0-164.6-5.3c-28.9-5.3-29.9-6.4-37.4-19.2c-7.5-12.8-9.6-37.4,21.4-46c31-8.6,67.4-5.3,89.8-6.4
		c22.5-1.1,68.4-5.3,96.2-16c27.8-10.7,48.1-32.9,142.2-33c94.1-0.1,177.5,5.2,214.9,11.6c37.4,6.4,44.9,4.3,54.5,16
		s-1.1,31-25.7,38.5c-24.6,7.5-75.9,17.1-102.6,17.1S467.6,1255.5,446.2,1254.4z"/>
	<g>
		<path class="st2" d="M454.8,931.4c0,0-21.4-2.7-33.5-22.8c-12.1-20.1-42.8-18.7-42.8-18.7s-69.6,0-97.7-72.3c0,0-12.1-30.8,0-65.6
			c12.1-34.8,5.4-41.5-8-64.3c-13.4-22.8-36.2-163.4,37.5-237c0,0,83-97.7,235.7-28.1c0,0,31.6,14.7,46.1,43c2.3,4.5,6.9,7.5,12,7.7
			c19.1,0.8,63.6,9.2,63,69.5c-0.1,6.2,3.9,11.6,9.8,13.5c16.3,5.1,46.8,19.5,52.6,56.4c8,50.9-4,88.4-25.4,107.1
			c0,0,40.2,56.2,2.7,132.6C669.1,928.8,512.4,942.2,454.8,931.4z"/>
		<path class="st3" d="M462.8,1114c0,0,0-21.2,1.7-33.4c1.7-12.3,15.1-37.3,15.1-37.3l-10.6-21.2l-51.8,8.9c0,0-7.2,22.3-10,41.8
			c-2.8,19.5-2.2,38.5-2.2,38.5S447.7,1124.6,462.8,1114z"/>
		<path class="st3" d="M503.5,1115.1c0,0-2.8-30.1,1.1-45.2c3.9-15.1,11.7-29,11.7-29l43.5,0.6l16.7,28.4c0,0-8.4,11.7-11.1,24
			c-2.8,12.3-1.1,24-1.1,24S518,1127.4,503.5,1115.1z"/>
		<path class="st4" d="M512.8,1048.3l-0.9,3.7l1.7-0.2c0,0,0.7,1.5,3.5,1.3c2.8-0.2,2.8-0.6,3.7-0.2c0.9,0.4,1.5,2.4,3.9,3
			s5.9,0.2,8.5,0.4c2.6,0.2,24,6.1,40.9,17.9l1.8-3.7l2.8-6.5l-27.8-17.5L512.8,1048.3z"/>
		<path class="st4" d="M415.6,1038.7l19.4-1.7c0,0,15.1,4.2,15.7,4.2c0.6,0,7.4-0.9,7.4-0.9l5.5,4.2l14.6,0.2l-1.5,3.3l-10.9-0.4
			c0,0,0,1.7-3.1,2.2c-3.1,0.6-5.2-0.9-5.2-0.9s0.6,2.2-3.1,2.4c-3.7,0.2-10.9-4.4-10.9-4.4s-12,0-17-0.7c-5-0.7-12.7-2.8-12.7-2.8
			L415.6,1038.7z"/>
		<path class="st5" d="M444.3,762.5l-14.3,4c0,0-2.6,32.6,11.3,62.5c13.9,29.8,17.1,54.6,21.9,63c4.8,8.4,1.6,23,1.6,23l-10.8,25.5
			l-9.9,23.3L430.2,988l-13.5,36l41.6,21.3c0,0,61.8-2.1,97,14.9c35.2,17.1,24.2,13.6,42.5-12.9c0,0,19.1-17.8,24.6-52l8.6-38.6
			c0,0,6.4-40.4,1.1-76.6s-50.1-146-50.1-146s-24.6-2-36.8-5.8C532.9,724.5,444.3,762.5,444.3,762.5z"/>
		<path class="st3" d="M589.9,558.8c-20.4-4.3-23.6,9.7-28.4,19.9c-4.8,10.2-17.2,44.5-39.7,37.6c-22.5-7-0.5-48.3,2.7-55.3
			c0,0-14.5,10.7-33.3,1.6c-18.8-9.1-10.7-42.9-10.7-42.9s-16.6,38.6-96.6,45.6c-53.1,4.8-71.9-22-71.9-22s-17.7,25.2-8.6,93.9
			c0,0,5.9,37,34.3,62.8c28.4,25.8,61.2,19.9,81.6,36.5c20.4,16.6,23.1,26.3,26.8,33.3l1.2,3.3c2,1.1,5.4,1.2,7.4,2.1
			c5.4,1.8,9.9,3.1,15.6,2.5c6.9-2.6,13.9-4.9,21.1-6.2c6.1-2.5,12.4-4.7,18.6-7c1.8-0.9,3.6-1.8,5.5-2.7
			c8.2-6.8,16.6-13.3,24.1-20.9l2.1-13.6c0,0-14-20.9-1.1-48.3c0,0,5.9-11.3,29.5-29.5c23.6-18.2,31.1-23.1,37-41.9
			C612.9,588.9,610.3,563.1,589.9,558.8z"/>
		<path class="st6" d="M505.8,1160.6c0,0-3.1,1.8-2.5,6.8c0.6,5,2.2,19,0.6,21.2c-1.7,2.2-8.9,8.4-12.8,12.3s-5,12.3,5,13.9
			s49.1,1.1,61.9-1.7c12.8-2.8,17.3-7.8,17.3-12.8c0-5-0.6-22.9-0.6-30.7c0-7.8,0.6-7.8-6.1-8.4
			C561.9,1160.8,505.8,1160.6,505.8,1160.6z"/>
		<path class="st6" d="M404.7,1157.4c0,0-2.7-0.1-2.3,4.6c0.4,4.7,2.1,17.1-0.4,20.9s-11.5,10.2-14.5,14.1s-3.8,10.7,5.1,12.8
			s41.4,0.4,58.5-0.4c17.1-0.9,19.6-2.1,21.3-11.1c1.7-9,1.3-28.2,1.3-32.4c0-4.3-0.4-5.1-6.4-6S404.7,1157.4,404.7,1157.4z"/>
		<path class="st7" d="M548.3,511.3c0,0-28-36.6-75.4-48.5c-47.4-11.8-101.2-1.1-130.3,14c0,0-3.2-12.9,16.2-25.8
			c19.4-12.9,62.5-26.9,131.4-6.5c0,0,38.8,12.9,51.7,38.8C554.7,509.2,548.3,511.3,548.3,511.3z"/>
		<path class="st2" d="M339.9,584.6c0,0,5.6-3.9,9.6-5.6c3.9-1.7,4.5-5.6-2.8-2.8C339.3,579,336.5,584,339.9,584.6z"/>
		<path class="st2" d="M431.1,576.7c0,0-2.3-1.7-7.3-2.3c-5.1-0.6-4.5-1.1-5.6-4.5c-1.1-3.4,3.4-1.7,7.9,0
			C430.5,571.7,436.2,575,431.1,576.7z"/>
		<path class="st6" d="M361.6,611.9c-0.6-3.4-2.9-8.4-6.9-8.3c-5.1,0.2-6.1,6.6-4.5,10.3c0.8,1.8,2,3.4,3.9,4
			c1.4,1.1,3.5,1.2,5.1,0.1C361.4,616.7,362,614.2,361.6,611.9z"/>
		<path class="st6" d="M433.3,603.5c-0.6-3.7-4.4-7.7-8.3-5.1c-3.1,2-3.6,6.7-2.9,10c0.6,3.4,4.7,6.9,8.1,4.5
			c0.2-0.1,0.3-0.3,0.5-0.4c0,0,0,0,0,0C433.1,610.3,433.8,606.5,433.3,603.5z"/>
		<path class="st4" d="M367.6,644.3c-0.3-2.1-0.8-4-1.7-5.8c-0.1-0.4-0.3-0.9-0.5-1.3c-2-5-6-7.4-10.6-7.8c-0.3-0.1-0.6-0.1-0.9-0.2
			c-7.2-1.2-13.9,2-17.9,8.1c-1.7,2.6-3.3,7.7-2.8,11.6c0,0.2,0,0.4,0,0.6c0.5,7.8,7,15,14,18c3.8,1.6,8.1,2.1,12,0.5
			c1.3-0.5,2.5-1.3,3.5-2.2c0.4-0.3,0.7-0.6,1-1.1c0.9-1.1,1.5-2.3,1.7-3.7C368,656,368.4,649.9,367.6,644.3z"/>
		<path class="st8" d="M413.5,638.7c-1.1-3.8-4.8-6.7-8.9-5.8c-1.9,0.4-3.3,1.6-4.6,3c-1,1.1-1.8,2.1-3.3,2.3
			c-1.5,0.3-2.4-0.3-3.7-0.9c-2-0.9-4.2-1.1-6.1,0.1c-3.6,2.1-3.5,6.7-2.3,10.2c1.3,3.8,3.8,7.4,7.4,9.2c1.7,0.8,3.7,1.5,5.6,1.7
			c0.8,0.4,1.8,0.6,3,0.2c2.2-0.6,4-1.8,5.4-3.3c2.2-1.5,4.2-3.1,5.6-5.4C413.7,646.9,414.5,642.5,413.5,638.7z"/>
		<path class="st4" d="M486.7,626c-2-3.1-5.1-5.4-8.2-7.3c-3.5-2.2-7.3-4-11.5-4.2c-8-0.4-13.9,6.2-17,13c-3.1,7-4.7,16.4-0.3,23.3
			c3.1,5,9.3,8.8,14.9,7c2.2,0.9,4.6,1.2,7.2,0.8c6.7-0.9,13.4-5.1,15.7-11.7c1-3,1.3-6.4,1.5-9.5
			C489.3,633.4,488.9,629.4,486.7,626z"/>
		<path class="st4" d="M565.6,618.1c0,0-1.2-11.2,2.9-22.1c4-10.9,11.8-15.5,15-17s2.6,1.4-0.3,3.5s-6.6,4.9-8.6,9.2
			c-2,4.3-3.2,7.5-3.2,7.5s4.6-4.9,12.9-5.5s7.8,2.6,3.5,3.7s-9.5,1.4-13.8,5.8s-4.9,8.6-4.3,12.9c0.6,4.3-0.6,4.9-2,5.2
			C567.6,621.3,565.6,621.3,565.6,618.1z"/>
		<path class="st7" d="M541.6,727c0,0-3.2,17.9-27.8,30.9c-24.6,13.1-28.7,13.1-41.5,14.7c-12.8,1.6-23.1,2.6-29.8-10.5l-2.6,1
			c0,0,3,14,20.8,13.7c0,0-25.4,5.3-30.5,7.6c0,0,0.2,11.1,2.9,21c0,0,70.7-20,136.4-21.6c0,0,1-1.3,0.3-3.5
			c-0.6-2.2-3.8-19.1-3.8-19.1l-59.3,7c0,0,35.7-15,38.3-39.9C545.1,728.3,543.8,726.4,541.6,727z"/>
		<path class="st7" d="M571.6,815.4c0,0-63.8,4.1-127,19.8c0,0,6.4,18.8,7,22.7c0,0,67.3-9.9,121.6-10.5
			C573.2,847.3,572.5,819.6,571.6,815.4z"/>
		<path class="st7" d="M463.1,892c0,0,47.9-7.3,107.8-8c0,0-2.6,27.8-3.5,29.4c-1,1.6-41.2-3.5-102.7,1.6
			C464.7,915,466.9,907.3,463.1,892z"/>
		<path class="st7" d="M453.8,940.5c0,0,65.1-1.9,106.6,5.1c0,0,59,8.6,70.5,11.2c0,0-2.2,23-8.6,38.6c0,0-66.4-31.9-178.4-31.6
			C443.9,963.8,451.9,941.8,453.8,940.5z"/>
		<path class="st7" d="M430.2,988c0,0,130.2,4.1,181.2,39.9c0,0-11.8,18.5-13.7,19.5c0,0-86.8-29-155.7-30
			C373.1,1016.4,430.2,988,430.2,988z"/>
		<path class="st7" d="M404.7,1157.4c0,0-0.6-37.6-1.3-40.8c-0.6-3.2-1.3-6.7,3.5-6.7s45.6,2.6,54.2,2.6c8.6,0,8,0.6,8.3,5.7
			s0.6,42.8,0.6,42.8S414.6,1160.3,404.7,1157.4z"/>
		<path class="st7" d="M505.8,1160.6c0,0-2.9-30.3-4.1-35.7c-1.3-5.4-1.9-10.8,6.1-10.5c8,0.3,29-1.3,42.1-1
			c13.1,0.3,14.7-1.6,16.6,3.8c1.9,5.4,3.8,27.4,4.1,32.9c0.3,5.4,0,11.5,0,11.5s-29.7,0.6-37.6,1c-8,0.3-16.3,0-19.8,0
			C509.7,1162.5,507.1,1162.5,505.8,1160.6z"/>
		<g>
			<path class="st7" d="M404.3,1189.4c2.4,1,4.9,1.4,7.5,1.3c2.8-0.1,5.7,0.5,8.5,0.7c2,0.1,2.1-3.1,0-3.2c-2.9-0.1-5.9,0.2-8.8-0.2
				c-2.4-0.3-5,0.1-7.2,1C404.1,1189,404.1,1189.3,404.3,1189.4L404.3,1189.4z"/>
		</g>
		<g>
			<path class="st7" d="M422.3,1180.5c-2.2-0.6-4.5-0.2-6.8-0.4c-2.2-0.1-4.6-0.9-6.7,0c-0.8,0.3-1.3,1.3-0.5,2
				c1.8,1.6,4.4,1.6,6.7,1.7c2.5,0.1,5.3,0.3,7.6-0.7C423.9,1182.7,423.4,1180.9,422.3,1180.5L422.3,1180.5z"/>
		</g>
		<g>
			<path class="st7" d="M416.4,1169.3c-1.6,0.8-2.4,1.3-3.6,2.7c-1.3,1.4-2.7,2.8-4.3,3.8c-2.7,1.6-6.1,1.4-8.9-0.1
				c0.2,0.4,0.4,0.8,0.7,1.1c0.3-4.1,4.1-6.5,7.7-7.5c2.5-0.7,5.5-1.5,7.6,0.5c0.8,0.8,1.5,1.9,2.2,2.8c1.9,2.3,4.1,4.2,6.7,5.9
				c2.2,1.4,5.4,3.5,8.1,2.2c4.8-2.2,3.4-8-0.1-10.7c-4.7-3.6-11.4-4.7-17-2.9c-2.4,0.8-1.4,4.2,1,3.8c2.8-0.5,5.4-0.7,8.2,0
				c2.2,0.5,6,1.6,7,3.9c0.9,2.1-1.1,2.3-2.5,1.7c-1.2-0.5-2.4-1.1-3.5-1.8c-2.4-1.4-4.7-3.2-6.6-5.2c-1.5-1.5-2.5-2.2-4.7-2.2
				c-2.5,0-4.8,0-7.2,0.8c-4.1,1.4-7.2,4.4-9.4,8c-0.2,0.4-0.3,0.9,0,1.3c2.4,3.6,6.7,3.9,10.6,2.6c2.1-0.7,3.9-1.9,5.5-3.4
				c0.9-0.9,1.9-1.9,2.6-2.9c0.9-1.2,1-2,1.3-3.4C417.8,1169.5,417.1,1169,416.4,1169.3L416.4,1169.3z"/>
		</g>
		<g>
			<path class="st7" d="M517.4,1172.4c-0.9,1.2-1,2.4-2.2,3.5c-1.5,1.2-3.4,2.2-5.1,2.9c-1.8,0.8-4.2,1.5-6.1,1
				c-3.2-0.8,0.6-3.3,2-4.1c2-1.1,4.1-1.8,6.4-1.7c2.6,0.2,4.2,1.5,6,3.1c2.9,2.5,6.1,4.5,9.8,5.6c2.6,0.7,6.8,1.9,8.9-0.6
				c2.1-2.4,0.6-5.9-1.1-8c-2.1-2.5-5.1-4.1-8.3-4.7c-4.2-0.7-7.3,0.6-10.8,2.7c-1.2,0.7-0.4,2.8,1,2.3c3.4-1.2,8-1.9,11.4-0.7
				c1.6,0.5,3,1.5,4.1,2.7c0.5,0.6,1.5,1.9,1.4,2.7c-0.2,1.3-1.9,1-2.9,0.9c-3.6-0.4-7.5-1.8-10.5-3.9c-2.9-2.1-4.8-4.5-8.6-5
				c-3-0.4-6.1,0.6-8.7,2.2c-2.2,1.3-5.4,3.5-5.6,6.3c-0.6,7.7,11.2,4.9,14.9,3c2.7-1.3,6.8-3.6,7.4-6.8c0.2-1.3,0.1-2.9-1.2-3.7
				C518.8,1171.8,517.9,1171.7,517.4,1172.4L517.4,1172.4z"/>
		</g>
		<g>
			<path class="st7" d="M511,1186.2c3.5,2.1,9.4,2.1,13.3,1.1c1-0.2,0.9-1.6,0-1.9c-3.8-1.3-9.6-1.9-13.3-0.2
				C510.6,1185.5,510.7,1186,511,1186.2L511,1186.2z"/>
		</g>
		<g>
			<path class="st7" d="M507.7,1195.1c3.7,0.9,8.4,2.8,12.1,1.2c0.8-0.3,0.8-1.4,0-1.7c-3.7-1.5-8.2-0.1-12-0.1
				C507.4,1194.4,507.3,1195,507.7,1195.1L507.7,1195.1z"/>
		</g>
		<g>
			<path class="st7" d="M517.4,1194.6c-1.9-0.5-3.7-1.4-5.6-1.8c-1.8-0.4-3.8-0.7-5.6-0.8c-2.8-0.1-2.7,4,0,4.3
				c3.9,0.5,7.3-0.4,11.2-0.8C517.8,1195.5,518,1194.8,517.4,1194.6L517.4,1194.6z"/>
		</g>
		<path class="st5" d="M468.7,1121.3c0,0-10.6,0.4-18.2,1.5c-7.6,1.1-26.5,0.8-35.2-0.8c-8.7-1.5-11.4-1.9-11.4-1.9l-0.4-4.5
			c0,0,11,2.7,22.3,3.4c11.4,0.8,19.7,0,26.9-0.8c7.2-0.8,14.4-0.4,16.3,0L468.7,1121.3z"/>
		<path class="st5" d="M469.4,1126.3v3c0,0-4.9,1.5-11.7,1.9c-6.8,0.4-29.5,0.8-37.5,0c-8-0.8-16.3-1.5-16.3-1.5l-0.4-5.3
			c0,0,11.4,1.5,19.7,2.3c8.3,0.8,24.2,0.4,33.3,0.4C465.6,1127,469.4,1126.3,469.4,1126.3z"/>
		<path class="st5" d="M502.8,1124.7c0,0,14.4,0.8,30.7,0.8c16.3,0,25.8-3.4,28.8-3c3,0.4,4.5-0.4,4.5-0.4l-0.8-3
			c0,0-6.8-0.4-17.8,1.1c-11,1.5-18.9,1.5-27.3,1.5c-8.3,0-19.3-1.9-19.3-1.9L502.8,1124.7z"/>
		<path class="st5" d="M502.8,1128.5c0,0,16.7,1.9,29.9,1.1c13.3-0.8,20.5-1.9,26.1-1.5c5.7,0.4,10.2-1.5,10.2-1.5l-0.8,4.2
			c0,0-2.3,2.3-11.4,2.3c-9.1,0-29.2,1.5-36.7,1.9s-17.4-1.1-17.4-1.1V1128.5z"/>
		<path class="st3" d="M538.8,1042.4c0,0-2.2,1.5-6.2,6.5c-4,4.9-5.2,5.8-8,5.2c-2.8-0.6-2.2-6.5,2.2-12.9c0,0-0.3-1.8-3.1,0.6
			c-2.8,2.5-4.6,5.8-5.8,7.4c-1.2,1.5-4,1.2-5.2,0c-1.2-1.2,0-6.2,4.9-12c0,0-4.3,0.9-7.7,4.3c-3.4,3.4-6.2,2.5-6.8,0
			c-0.6-2.5,4.3-9.8,8.9-14.5c0,0-4,0-7.4,1.8c-3.4,1.8-6.8,3.1-8.6,1.8s0.9-5.8,4.9-8.6c4-2.8,5.8-4.3,5.8-4.3s-1.8,1.2-3.7-0.6
			c-1.8-1.8-0.3-4.6,3.4-6.5c3.7-1.8,14.2-6.5,23.4-17.8c9.2-11.4,27.1-34.5,33.2-65.8c6.2-31.4,11.1-87.1,5.8-125.2
			c-5.2-38.1-14.8-61.2,8-68.3c22.8-7.1,39.4,15.7,45.5,38.1c6.2,22.5,11.1,70.5,7.1,108.3c-4,37.8-8,65.5-27.4,99.1
			c-19.4,33.5-37.5,49.5-48.9,56.6C553.3,1035.6,543.4,1041.8,538.8,1042.4z"/>
		<path class="st3" d="M444.1,1043.6c0,0-11.7-0.3-22.5-3.1c-10.8-2.8-20.3-8.6-33.2-40c-12.9-31.4-19.7-78.8-8-143.1
			c11.7-64.3,37.8-85.2,49.5-89.8c0,0-1.8,33,11.1,60.7c0,0-5.9,12.5-13.3,43.3c-7.4,30.8-4.3,90.5,4,117.8
			c8.3,27.4,13.5,24.6,21.2,25.2s10.8,1.5,14.8,7.4c4,5.8,4.6,8.9,2.5,9.5s-3.7-2.5-7.7-4.9c-4-2.5-0.3,0.9,1.5,4.6
			c1.8,3.7,2.8,8,1.2,9.2c-1.5,1.2-3.4,0.9-7.1-5.2c0,0,4.3,5.8,4.3,8.9c0,3.1-2.2,3.4-4,2.2c-1.8-1.2-4.9-4.6-4.9-4.6
			s4.3,5.2,1.8,7.1S450.5,1050.1,444.1,1043.6z"/>
		<path class="st8" d="M389.5,611.7c0,0,0.9,3.4,0.4,5.7c-0.5,2.3-1.3,4.9-2.8,5.8c-1.4,1-2.9,0.3-3-1.1c-0.1-1.4,0.4-2.3,1.4-4.2
			c1.1-1.9,1.8-3.5,2.1-5.2C387.9,611.1,388.9,610.3,389.5,611.7z"/>
		<path class="st4" d="M446.2,1036.3c-0.6-0.5-1.4-0.5-2,0c-0.2,0.2-0.4,0.4-0.6,0.6c-0.5,0.5-0.6,1.5,0,2c0.6,0.5,1.4,0.5,2,0
			c0.2-0.2,0.4-0.4,0.6-0.6C446.8,1037.7,446.8,1036.8,446.2,1036.3z"/>
		<path class="st4" d="M450.4,1028.9c-0.5-0.2-1.2-0.1-1.6,0.3c-0.1,0.1-0.1,0.1-0.2,0.2c0,0,0,0,0,0c-0.2,0.2-0.3,0.3-0.5,0.5
			c0,0.1-0.1,0.1-0.1,0.2c0,0.1-0.1,0.1-0.1,0.2c-0.1,0.1-0.3,0.7-0.2,0.3c0.1-0.3,0,0,0,0c0,0.1-0.1,0.1-0.1,0.2
			c-0.3,0.4-0.2,1.1,0.1,1.5c0.4,0.5,0.9,0.6,1.4,0.5c0.6-0.1,1.1-0.4,1.5-0.8c0.3-0.3,0.6-0.7,0.7-1.2c0-0.2,0.1-0.5,0-0.7
			C451.3,1029.6,451,1029.1,450.4,1028.9z"/>
		<path class="st4" d="M453.3,1023.1c-0.6,0.1-1,0.6-1.2,1.2c-0.1,0.2-0.1,0.4-0.2,0.6c0,0.1-0.1,0.3-0.2,0.4
			c-0.2,0.4-0.1,0.8,0.2,1c0.3,0.2,0.7,0.2,1-0.1c0.3-0.2,0.5-0.4,0.8-0.6c0.4-0.3,0.8-0.9,0.8-1.5
			C454.6,1023.4,454,1023,453.3,1023.1z"/>
		<path class="st4" d="M458.4,1016.9c-0.6-1.1-2.3-1.1-2.9,0c-0.3,0.6-0.4,1.1-0.5,1.7c0,0.3,0,0.6,0,0.9c-0.1,0.9,0.9,1.4,1.6,1.2
			c0.7-0.1,1.3-0.6,1.7-1.2C458.8,1018.7,458.8,1017.7,458.4,1016.9z"/>
		<path class="st4" d="M510,1013.6c-0.4-0.3-0.9-0.4-1.4-0.4c-0.1-0.1-0.3-0.1-0.4,0c-0.2,0-0.3,0.2-0.4,0.3
			c-0.4,0.4-0.6,0.8-0.5,1.3c0,0.3,0.1,0.6,0.3,0.9c0.5,0.8,1.6,1.1,2.4,0.6c0.4-0.2,0.7-0.7,0.7-1.2
			C510.7,1014.6,510.4,1013.9,510,1013.6z"/>
		<path class="st4" d="M515,1022.2c0,0.1,0.1,0.1,0.1,0.2c-0.1-0.2-0.1-0.4-0.3-0.5c-0.2-0.3-0.4-0.5-0.6-0.7
			c-0.2-0.2-0.5-0.4-0.8-0.5c0,0,0,0,0,0c-0.6-0.3-1.3-0.1-1.7,0.5c-0.4,0.6-0.4,1.3-0.3,2c0.2,1.1,1.4,2,2.5,1.6
			c0.6-0.2,1-0.7,1.2-1.2C515.3,1023.1,515.2,1022.7,515,1022.2z"/>
		<path class="st4" d="M523.9,1030.3c0-0.2-0.2-0.4-0.3-0.6c-0.1-0.2-0.2-0.5-0.4-0.7c-0.2-0.2-0.4-0.3-0.6-0.4
			c-0.7-0.4-1.6-0.4-2.3,0c-0.6,0.4-1.2,1.2-1.1,2c0.1,0.6,0.1,1.1,0.5,1.6c0.2,0.3,0.5,0.6,0.9,0.7c0.7,0.3,1.6,0.5,2.3,0
			c0.5-0.3,0.9-0.8,1.1-1.4C524,1031.2,524,1030.7,523.9,1030.3z"/>
		<path class="st4" d="M531.2,1037.3c0-0.4-0.2-0.6-0.4-0.9c0.1,0.1,0.1,0.1,0.2,0.2c-0.1-0.1-0.1-0.2-0.2-0.2
			c-0.2-0.3-0.5-0.5-0.9-0.6c-0.3-0.1-0.6-0.1-0.9,0c0,0,0,0,0,0c0.1,0,0.1,0,0.2,0c-0.1,0-0.2,0-0.2,0c-0.2,0-0.3-0.1-0.5-0.1
			c-0.2-0.1-0.4,0.1-0.4,0.3c-0.1,0.1-0.3,0.2-0.4,0.3c-0.2,0.3-0.3,0.6-0.2,0.9c0.1,0.3,0.2,0.6,0.3,0.9c0.3,0.7,1.1,1.1,1.8,1
			c0.3,0,0.5-0.1,0.8-0.2c0.3-0.2,0.5-0.4,0.6-0.7C531.2,1037.9,531.2,1037.6,531.2,1037.3z"/>
	</g>
	<g>
		<path class="st9" d="M205.9,1221c0,0-2.6,16.6-3.1,20.2c-0.5,3.6-3.1,6.7-8.8,8.3c-5.7,1.6-40.9-3.1-44.6-3.1
			c-3.6,0-2.1-5.7-1-8.8s5.2-24.3,5.2-24.3s-33.2-6.7-37.8-7.3c-4.7-0.5-5.7-1.6-8.3-3.6c-2.6-2.1-5.2-5.7-5.2-5.7l-1.6-7.8
			c0,0-1.6-27.5-2.6-32.1c-1-4.7-3.6-19.2-3.6-19.2l-2.6-16.1l-2.6-13c0,0,0.5-28-0.5-35.7c-1-7.8-0.5-12.4,4.1-14.5
			c4.7-2.1,14.5,0.5,30,0.5s124.3,13,145.6,15.5c21.2,2.6,36.3,3.1,36.3,3.1s11.4-1.6,13,16.1c1.6,17.6,12.4,61.6,13,80.8
			s3.1,30.6,3.6,36.3s2.6,6.2-1,7.8c-3.6,1.6-4.7,0.5-5.2,3.6c-0.5,3.1-2.6,3.6-7.3,4.7c-4.7,1-23.8,1.6-28.5,1.6
			C287.7,1228.2,205.9,1221,205.9,1221z"/>
		<path class="st10" d="M147.8,1201.5c0,0-32.5-4.7-36.1-5.8c-3.7-1-3.7-7.3-3.7-7.3s-6.8-47.6-6.8-56.5s-5.2-33.5-5.2-33.5
			s-1.6-13.6-2.1-19.9c-0.5-6.3-1.6-11.5,5.2-11c6.8,0.5,14.7,1.6,20.9,2.6c6.3,1,25.6,2.6,25.6,2.6s112,10.5,120.4,11.5
			s24.1,3.7,29.8,3.7c5.8,0,9.9-2.1,11,2.1c1,4.2,9.9,74.8,10.5,80.6c0.5,5.8,4.2,26.7,5.8,32.5c1.6,5.8,4.7,11,2.6,12.6
			s-1.6,3.1-6.3,2.6c-4.7-0.5-12.6,1.6-17.8,1.6c-5.2,0-31.4-3.1-42.4-5.2c-11-2.1-26.2-4.2-26.2-4.2l-30.9-3.1l-7.9,35.1l-45.5-3.1
			l8.9-37.7H147.8z"/>
		<path class="st9" d="M317.2,1207.5c-0.2-2-0.2-4.2-1-6c-0.4-1-0.6-1.5-0.7-2.7c-0.1-1,0-2.1-0.2-3.1c-0.4-2.1-0.2-4.1-0.3-6.2
			c-0.1-1.8-2.9-2.4-3.3-0.4c-0.3,1.6-0.3,3.2-0.4,4.8c-0.2,1.5-0.5,2.8-0.5,4.4c0,1.5-0.2,2.6-0.6,4c-0.5,1.6-0.1,3.6,0.2,5.2
			c0.1,0.7,0.1,1.7,0.4,2.4l0.1,0.3c-1.3-0.1-2.6-0.1-3.9-0.3c-3.5-0.3-7-0.7-10.5-1c-3.5-0.3-4,5-0.8,5.9c3.5,1,8.1,2.3,11.9,1.4
			c0.7,0.1,1.5,0.2,2.2,0.2c2.9,0.2,6.3-0.5,7.3-3.7C317.7,1211.1,317.4,1209.2,317.2,1207.5z"/>
		<path class="st9" d="M302.7,1102.1c-0.4-3.2-1.1-6.5-4.1-8.2c-2.8-1.6-6.7-1.4-9.9-1.5c-3.8-0.1-8-0.3-11.8,0.4
			c-2.6,0.5-2.4,4.4,0,5.1c2.7,0.7,5.5,0.7,8.3,0.9c2.9,0.3,6,0.3,8.9,0.2c1.1,0,1.5-0.2,1.8,0.8c0.4,1.2,0.2,2.9,0.3,4.1
			c0.2,2.5,0.1,5.5,1.6,7.6c0.8,1,2.2,1.5,3.2,0.4C303.4,1109.4,303.1,1105.3,302.7,1102.1z"/>
		<path class="st9" d="M113.7,1075.2c-2.6-1.2-5.9-1.6-8.7-1.8c-2.1-0.2-3.3,0.4-4.9,1.4c-2.4,1.4-2.9,3.4-2.7,6.1
			c0.2,2.9,0.9,6.8,3.3,8.8c1,0.8,2.3,0.5,2.8-0.7c0.7-1.9,0.4-4.1,0.4-6.1c0-1.8,0.2-3.9-0.3-5.6c0-0.1-0.3-0.9-0.6-1.4
			c0.5,0.4,1.1,0.6,1.8,0.3c0.8,0.1,1.6,0.2,2.3,0.4c2,0.3,4.1,0.6,6.1,0.4C114,1076.8,114.7,1075.6,113.7,1075.2z"/>
		<path class="st9" d="M127.4,1190.8c-2.3-2.7-6-2.4-9.1-3.3c-0.9-0.3-0.8-0.1-1.2-0.9c-0.4-0.7-0.4-1.8-0.7-2.5
			c-0.5-1.4-1.4-2.9-2.5-3.9c-0.5-0.5-1.6-0.5-1.9,0.2c-1.6,3.4-1.7,9.4,1.8,11.7c1.9,1.2,4.4,1.3,6.6,1.6c2.2,0.3,4.7,0.5,6.7-0.7
			C127.9,1192.5,128,1191.5,127.4,1190.8z"/>
		<path class="st9" d="M229.5,1174.2c-1.3-12.9-3.5-25.6-5.8-38.4c-0.3-1.8-1.5-2.6-2.8-2.8c-0.3-0.5-0.7-0.9-1.1-1.3
			c-2.3-2.1-5.7-2.2-8.6-2.5c-3.6-0.3-7.2-0.6-10.9-0.8c-7.2-0.4-14.5-0.7-21.7-0.9c-3-0.1-6.3-0.3-8.6,1.9c-2.2,2-2.9,5.3-3.9,8.1
			c-2.3,6.6-4.7,13.3-6.9,20c-2.5,7.6-4.3,15.4-5.9,23.3c-0.8,3.8-1.5,7.6-2,11.4c-0.3,1.9-0.6,3.9-0.7,5.8
			c-0.1,2.2,0.2,4.5,0.4,6.7c0.2,2.9,3.9,3.5,4.9,0.7c1-3.1,2-5.9,2.7-9.1c0.6-3.1,1.1-6.3,1.7-9.5c1.1-6,2.4-11.9,3.8-17.9
			c1.5-6.2,2.8-12.5,4.6-18.7c0.8-2.8,1.6-5.5,2.6-8.2c0.5-1.5,1.1-3,1.6-4.5c0.4-1.2,0.7-2.9,1.9-3.2c1.1-0.3,2.7,0.1,3.8,0.2
			c1.6,0.1,3.3,0.2,4.9,0.3c3.3,0.2,6.6,0.5,9.9,0.6c6.4,0.3,12.8,0.5,19.3,0.6c0.8,0,2.4-0.3,3,0.5c0.5,0.7,0,2.4-0.1,3.2
			c-0.6,3.2-1.4,6.4-2.1,9.5c-1.4,6.5-2.8,13.1-4.1,19.6c-2.9,14.5-5.3,29-7.2,43.7c-0.3,2.2,0.9,4.9,3.5,4.8
			c7.3-0.5,14.7-0.4,22.1-0.6c2.1-0.1,3.9-1.8,3.9-4C231.4,1199.9,230.8,1187,229.5,1174.2z"/>
		<path class="st11" d="M205.9,1221l13.7-80.2c0,0,2.1-0.5,3.1,1.6c1,2.1-11.5,79-11.5,79L205.9,1221z"/>
		<path class="st6" d="M362.1,1184.8c-2.6-0.2-5.2-0.5-7.9-0.8c-2.5-0.3-5.4-0.6-7.9,0.1c-2.6,0.7-2.1,3.9,0,4.8c1.9,0.8,4,1,6.2,1
			c0.5,0.2,1,0.4,1.5,0.7c2.3,1.2,4.4,2.1,6.9,2.8c2,0.6,4.4,1.5,6.4,0.9c1.8-0.6,3-2.3,3-4.2C370.2,1185.6,365.5,1185,362.1,1184.8
			z"/>
		<path class="st6" d="M368,1131.8c-1.9-1.4-4.2-1.2-6.4-1c-3.2,0.3-6.4,0.6-9.5,0.9c-2.4,0.2-5.8-0.1-7.7,1.6
			c-1.4-0.1-2.8-0.1-4.2,0.2c-2.4,0.6-2.3,3.5-0.6,4.8c2.2,1.6,5.3,1.8,7.9,2.1c3,0.3,6,0.1,9.1,0.2c2.8,0.1,5.6,0.1,8.4-0.1
			c2.1-0.2,4.2-1,4.9-3.2C370.5,1135.2,369.6,1133,368,1131.8z"/>
		<path class="st6" d="M354,1077c-2.6,0.7-5.1,2.4-7.5,3.7c-2.6,1.3-5.4,2.6-7.2,5c0,0,0,0,0,0.1c-2.3,0.6-10.4,2.6-8.6,5.4
			c2.5,3.8,10.8,1,14.2,0.2c2.9-0.7,5.7-1.4,8.6-2.2c2.5-0.7,5.3-1.2,6.9-3.5C363.8,1080.9,359.2,1075.6,354,1077z"/>
		<path class="st6" d="M305.6,1026.7c-2-4.2-7-4-9.6-0.6c-2.4,3.1-5.2,7.8-5.1,11.9c-1.5,2.2-2.7,4.5-4.1,6.8
			c-0.5,0.8,0.5,1.7,1.3,1.3c2.2-1.3,4.6-2.3,6.7-3.8c2.2-1.5,4-3.2,5.9-5C303.8,1034.5,307.7,1031.2,305.6,1026.7z"/>
		<path class="st6" d="M242.7,1003.3c-1.4-1.6-3.8-1.2-5.2,0c-4.6,3.9-3.2,9.9-3.5,15.2c-0.2,3.3-0.7,6.6-1.3,9.8
			c-0.6,3.2-1.7,6.8-1.1,9.9c0.3,1.6,2.7,2.3,3.8,1c1.8-2.2,2.3-5.2,2.9-7.9c0.3-1.3,0.5-2.6,0.7-3.9c0.2-0.7,0.5-1.3,0.8-2
			c1.3-2.7,2.2-5.5,3.1-8.4C244.3,1012.6,246.4,1007.4,242.7,1003.3z"/>
		<path class="st6" d="M187.3,1008.4c0-4.3,0.7-9.7-3.7-12.2c-1.1-0.6-2.7-0.8-3.9,0c-4.8,3.2-2.9,9.9-2.2,14.7
			c0.4,2.9,0.9,5.8,1.7,8.6c0.7,2.7,1.5,6.3,3.8,8.1c1.2,1,2.8,0.6,3.3-0.9c0.8-2,0.6-4.6,0.1-7.1
			C187.6,1016.1,187.4,1011.6,187.3,1008.4z"/>
		<path class="st6" d="M127.3,1036.7c-0.6-5.4-1.5-10.8-2.9-16.1c-0.7-2.7-1-6.1-2.5-8.5c-1.6-2.7-5.3-3.2-7.6-1.1
			c-4.3,4-1.2,10.5,0.6,15c1.1,2.8,2.2,5.5,3.7,8.1c0.7,1.3,1.5,2.7,2.4,3.9c0.9,1.2,1.9,1.8,3.1,2.7c1.4,0.9,3.4-0.3,3.3-1.9
			C127.5,1038.2,127.4,1037.4,127.3,1036.7z"/>
	</g>
</g>
</svg>
