<?xml version="1.0" encoding="utf-8"?>
<!-- Generator: Adobe Illustrator 22.0.0, SVG Export Plug-In . SVG Version: 6.00 Build 0)  -->
<svg version="1.1" id="Capa_1" xmlns="http://www.w3.org/2000/svg" xmlns:xlink="http://www.w3.org/1999/xlink" x="0px" y="0px"
	 viewBox="0 0 750 1624" style="enable-background:new 0 0 750 1624;" xml:space="preserve">
<style type="text/css">
	.st0{fill:#6228cf;}
	.st1{fill:#FF7C00;}
	.st2{fill:#FBE5CA;}
	.st3{fill:#FFFFFF;}
	.st4{fill:#1CB9C2;}
	.st5{fill:#5824B7;}
	.st6{fill:#F29F9F;}
	.st7{fill:#FAC907;}
	.st8{fill:#8B2979;}
	.st9{fill:#F23253;}
	.st10{fill:#E6F7FC;}
	.st11{fill:#055676;}
	.st12{fill:#F4A1A1;}
	.st13{fill:#51DCE4;}
</style>
<rect x="0.1" y="0.1" class="st0" width="749.9" height="1623.7"/>
<g style="transform: translateY(-120px)translateX(70px)">
<g>
	<g>
		<g>
			<path class="st1" d="M703.2,878.6c-2.7-20.1-15.8-36.3-33-43.5c11.3-9.6,17.6-24.8,15.5-40.7c-2.4-18.3-15.4-32.6-31.8-37.4
				c10-14.4,14.9-32.6,12.4-51.5c-5.3-39.7-41.2-67.5-80.2-62.1c-0.3,0-0.5,0.1-0.8,0.1c0.6-4.2,0.7-8.6,0.1-13.1
				c-3.3-24.8-25.7-42.1-50-38.8c-4,0.6-7.9,1.7-11.5,3.2c0-0.5-0.1-0.9-0.1-1.4c-4-30.1-31.3-51.3-60.9-47.2
				c-17.7,2.4-32.2,13.3-40.1,28c-15-20.6-40.2-32.4-66.9-28.8c-26,3.6-46.8,21-56.2,44c-10.7-4.2-22.6-5.7-34.8-4
				c-39,5.4-66.3,41.9-61,81.5c0.8,5.7,2.2,11.2,4.2,16.4c-1.4,0.1-2.8,0.2-4.2,0.4c-29.6,4.1-50.3,31.8-46.3,61.9
				c1.1,8.5,4.1,16.3,8.5,22.9c-25.7,10.5-42.2,37.8-38.3,67.1c2.5,18.7,12.8,34.3,27.1,44.1c-22,14.9-35,41.7-31.2,70.2
				c4,30.2,25.7,53.5,53.1,60.5c-16.8,8.3-27.2,26.9-24.6,46.7c3.3,24.8,25.7,42.1,50,38.8c3.2-0.4,6.3-1.2,9.3-2.3
				c-3.8,9.8-5.3,20.6-3.8,31.8c4.6,34.6,35.9,58.8,69.9,54.2c24.3-3.3,43.4-20.6,50.6-42.7c5.3,28.7,31.8,48.4,60.5,44.5
				c18.3-2.5,33.2-14.1,41-29.6c15,21.5,41,34.1,68.5,30.3c39.5-5.4,67.1-42.4,61.8-82.6c-0.7-5.5-2.1-10.8-3.9-15.8
				c9.3,4.6,20,6.6,31,5.1c29.6-4.1,50.3-31.8,46.3-61.9c-0.6-4.2-1.6-8.3-3-12.1c5.1,1.2,10.5,1.5,15.9,0.7
				c24.3-3.3,41.4-26.1,38-50.9c-1.5-11-6.7-20.6-14.2-27.5C692.2,927.9,706.6,904.1,703.2,878.6z"/>
		</g>
	</g>
</g>
<g>
	<g>
		<g>
			<path class="st2" d="M369.3,1020.7l-64.7,149c-2.8,6.5-3.7,13.7-2.7,20.7c7.8,50.3,40.3,261,40.3,274.1c0,0-1.7,5.2-9.6,7.9
				s-59.4,7.9-66.4,6.1c-7-1.7,4.4-7.9,26.2-15.7s28.8-8.7,24.5-21.8c-3.7-11-51.1-195.4-66.2-254c-3-11.5-2.3-23.7,1.9-34.8
				l62.5-164.6L369.3,1020.7z"/>
		</g>
	</g>
</g>
<g>
	<g>
		<g>
			<path class="st3" d="M288.7,1334.2c13.9,53.8,26.4,101.2,28.2,106.6c4.4,13.1-2.6,14-24.5,21.8c-21.8,7.9-33.2,14-26.2,15.7
				c7,1.7,58.5-3.5,66.4-6.1c7.9-2.6,9.6-7.9,9.6-7.9c0-6.9-9.1-69-18.8-133.4C311.9,1333.6,300.4,1335,288.7,1334.2z"/>
		</g>
	</g>
</g>
<g>
	<g>
		<g>
			<path class="st2" d="M459.8,1024.2L425.7,1183c-1.5,6.9-1,14.1,1.4,20.8c16,43.6,69.9,231.3,80.7,272.1c1.7,6.4-1.9,13.1-8.3,15
				c-0.1,0-0.2,0-0.2,0.1c-8,2.2-59.7,4.6-66.6,2.5c-6.9-2.1-0.2-7.6,22-14.3c22.2-6.7,29.3-7.2,25.6-20.5
				c-3.1-11.2-77.8-193.7-104.1-248.2c-5.2-10.7-6.9-22.8-4.9-34.5l29-173.7L459.8,1024.2z"/>
		</g>
	</g>
</g>
<g>
	<g>
		<g>
			<path class="st4" d="M441.8,814.6c0,0,9.4-36.9,10.3-54.3c0.9-17.5-12.2-43.7-42.4-50.2c-30.1-6.6-77.6,0.9-101.5,15.5
				c-23.9,14.6-33.5,42.6-3.8,74c29.7,31.4,81.2,51.5,81.2,51.5L441.8,814.6z"/>
		</g>
	</g>
</g>
<g>
	<g>
		<g>
			<path class="st5" d="M445.2,1450.6c-56.1,0-106.5,5.1-141.7,13.3c-7.1,1.7-14.4,2.4-21.6,2.2c-9.9-0.3-20.1-0.5-30.5-0.5
				c-106.1,0-192.1,18.3-192.1,40.9c0,22.6,86,40.9,192.1,40.9c57.4,0,108.9-5.4,144.1-13.9c5.5-1.3,11.1-1.9,16.7-1.7
				c10.7,0.4,21.7,0.6,33,0.6c106.1,0,192.1-18.3,192.1-40.9C637.4,1468.9,551.3,1450.6,445.2,1450.6z"/>
		</g>
	</g>
</g>
<g>
	<g>
		<g>
			<path class="st2" d="M350.4,654.5c-0.3-0.4-0.5-0.9-0.8-1.3c-2.1-3.1-4-6.3-5.7-9.6c-3.5-5.9-6.8-11.9-9.2-18.5
				c-2.3-6.3,1.8-12.3,7.3-14.9c4.8-7.6,6.6-15.8,15.8-20.9c3.4-1.9,7.1-2.1,10.5-0.9c1.8-0.5,3.7-0.8,5.6-0.7
				c-6.9-12.2-19.4-23.8-37.3-28.5c-29.8-7.9-93.8,10.5-103.4,44.7c-9.6,34.2,8.3,40.2,8.3,40.2s16.7,29.7,20.2,36.7
				c3.5,7,13.6,17.6,26.8,17.2c11.4-0.4,24.8-4.1,31.9,11.9c5.2,11.8,11.9,24.6,11.9,24.6s27.4,12.8,43.2-21.4c0,0-21.3-47-23.9-54
				C351,657.7,350.6,656.1,350.4,654.5z"/>
		</g>
	</g>
</g>
<g>
	<g>
		<g>
			<path class="st1" d="M241.8,645.4c0,0-26.8,0-32.9-29.2s3.7-62.1,60.9-79.2c57.3-17.1,111,21.1,111,75.9c0,0-2.5-22.3-19.6-21.1
				c-17.1,1.2-15.8,18.3-17.1,34.1c-1.2,15.8-35.9,22.4-24.9-20.3c0,0-8.9,17.7-23.1,13.5c-9.6-2.9-15.3-29.8-4.4-42
				C291.8,577.2,221.5,591.4,241.8,645.4z"/>
		</g>
	</g>
</g>
<g>
	<g>
		<g>
			<g>
				<path class="st6" d="M256.9,673.8c-0.1-0.2-0.2-0.5-0.3-0.7c-0.2-0.4-0.4-0.9-0.6-1.3c0.9-1.7,2.6-3,5.4-3c0.2,0,0.4,0,0.6,0
					c0.7-0.1,1.4,0,2.1,0.2c3.2,0.8,6.2,3.5,7.1,6.8c0.9,3.2-0.5,6.7-3.5,8.1c-0.6,0.3-1.2,0.5-1.8,0.6c-0.2,0.1-0.5,0.1-0.7,0.1
					c0,0-0.8,0.1-2,0C260.9,681.1,258.8,677.5,256.9,673.8z"/>
			</g>
		</g>
	</g>
</g>
<g>
	<g>
		<g>
			<g>
				<path class="st6" d="M310.6,655.5c0.1,0.2,0.1,0.4,0.2,0.6c0.2,0.6,0.4,1.3,0.4,2.1c0.1,3.3-1.7,7-4.5,8.7
					c-2.8,1.7-6.6,1.4-8.8-1.1c-0.4-0.5-0.8-1-1.1-1.6c-0.1-0.2-0.2-0.4-0.3-0.6c0,0-1-2.1-0.7-5.1c0.3-2.9,2.3-5.2,4.2-6.4
					C301.9,650.9,308.7,649.2,310.6,655.5z"/>
			</g>
		</g>
	</g>
</g>
<g>
	<g>
		<g>
			<g>
				<g>
					<path class="st6" d="M279.3,664.3c-0.1,0-0.2,0.1-0.3,0c-1.6-0.1-3.5-0.8-3.6-0.9c-0.2-0.1-0.4-0.3-0.4-0.5
						c-0.1-0.2-0.1-0.4,0.1-0.6c1.2-2.1-0.1-5.9-0.8-7.3c-0.2-0.4,0-0.8,0.4-1c0.4-0.2,0.8,0,1,0.4c0.1,0.2,2.2,4.7,1.1,7.9
						c0.6,0.2,1.6,0.5,2.4,0.5c0.4,0,0.7,0.4,0.7,0.8C279.8,663.9,279.6,664.2,279.3,664.3z"/>
				</g>
			</g>
		</g>
	</g>
</g>
<g>
	<g>
		<g>
			<g>
				<path class="st3" d="M289.7,664.3L277,671c0,0,3,5.9,9.3,5.2C292.6,675.6,289.7,664.3,289.7,664.3z"/>
			</g>
		</g>
	</g>
</g>
<g>
	<g>
		<g>
			<path class="st1" d="M248,652.5c-0.1,0-0.3,0-0.4-0.1c-0.5-0.2-0.8-0.8-0.5-1.4c0-0.1,3.2-7,11.3-5.6c0.6,0.1,0.9,0.6,0.8,1.2
				c-0.1,0.6-0.6,0.9-1.2,0.8c-6.6-1.2-9.1,4.4-9.1,4.4C248.8,652.2,248.4,652.5,248,652.5z"/>
		</g>
	</g>
</g>
<g>
	<g>
		<g>
			<path class="st1" d="M277.2,636.8c-0.1,0-0.2,0-0.4-0.1c-0.5-0.2-0.8-0.8-0.6-1.3c0.1-0.3,2.6-6.6,11.4-6.6c0.1,0,0.2,0,0.3,0
				c0.6,0,1,0.5,1,1c0,0.6-0.6,1-1,1c-0.1,0-0.1,0-0.2,0c-7.4,0-9.4,5-9.5,5.3C278,636.6,277.6,636.8,277.2,636.8z"/>
		</g>
	</g>
</g>
<g>
	<g>
		<g>
			<path class="st7" d="M352.2,594.8c0,0-1.4-48.4-40-60.5c0,0-11.1-2.8-18.8-1.4c0,0,44.2,12.2,56,64L352.2,594.8z"/>
		</g>
	</g>
</g>
<g>
	<g>
		<g>
			<path class="st2" d="M286.7,1072.7c-0.2,3.5,1.8,6.9,5,8.4c5.5,2.7,13.9,7.1,19.1,11c8.2,6.2,7.3,19.1,5.6,25.8
				c-1.7,6.7-4.1-2.8-3.8-7.1c0,0,0.3,12.4-1.8,16c-2.1,3.6-3.3-6.4-3.3-6.4s0.1,7.4-3.2,9.7c-3.3,2.2-2-6.9-2-6.9s-1.8,8.5-3.6,7.2
				c-1.8-1.4-0.7-7.5-0.8-14.3s-4.8-10.9-12-14.5s-16.4-4.3-17.5-14.9c-1.1-10.6,2.3-14.7,1.5-29.6s-5.9-108-9.2-138.6
				c-3.4-30.5,2.9-134.6,17.7-152.1c14.9-17.5,34.3-4.3,26.6,25.4s-12.5,166.1-12.5,166.1L286.7,1072.7z"/>
		</g>
	</g>
</g>
<g>
	<g>
		<g>
			<path class="st4" d="M296.4,734.1c0,0-16.3,4.5-24.7,31.2s-8.4,48-8.4,48l37.1,16.3l4.5-27.2L296.4,734.1z"/>
		</g>
	</g>
</g>
<g>
	<g>
		<g>
			<path class="st8" d="M386.9,1061l72.5-6.2c0,0,11.4-39.3,15.5-67.3c4.1-28,12.4-77.6-30-127.3l-1.8-2.6c-4.8-6.9-6.6-15.5-5-23.7
				l3.7-19.2c0,0-14.5,2.1-24.8-15.5c-10.4-17.6-14.7-59.4-7.5-90.4l-18.5-1.8c0,0-5.1,42.6-2,67.4l-72.5,8.3
				c0,0-14.5-23.8-8.3-56.9l-11.4,6.2c0,0-8.3,43.5,10.4,76.6c0,0,7.2,18.6,23.8,29l36.3,19.1c2.8,1.5,3.8,4.9,2.2,7.6
				c-5.7,9.8-19,32.9-32.3,57.2c-17.6,32.1-42.4,113.9-42.4,113.9l62.1,20.7l36.2-83.2c0.9-2.1,4-1.2,3.8,1L386.9,1061z"/>
		</g>
	</g>
</g>
<g>
	<g>
		<g>
			<path class="st7" d="M390,1064.1l66.6-6.2c2-0.2,3.6-1.6,4.1-3.5l3.7-14.1c0.8-3.2-1.8-6.2-5.1-5.8l-68.3,7.9
				c-2.1,0.2-3.7,1.8-4.1,3.9l-2,12.3C384.5,1061.7,387,1064.4,390,1064.1z"/>
		</g>
	</g>
</g>
<g>
	<g>
		<g>
			<path class="st7" d="M352.7,1059.7l-56.6-18.2c-2.6-0.8-4-3.7-3.1-6.2l3.3-9c0.9-2.5,3.5-3.8,6-3l57.7,18.6
				c2.8,0.9,4.2,4.1,2.8,6.8l-4.3,8.7C357.4,1059.4,354.9,1060.4,352.7,1059.7z"/>
		</g>
	</g>
</g>
<g>
	<g>
		<g>
			<path class="st7" d="M324.4,800l66.3-8.2c0,0,0.2,21.4-18.8,27C344.1,827,331.8,805.7,324.4,800z"/>
		</g>
	</g>
</g>
<g>
	<g>
		<g>
			<path class="st2" d="M440.8,731.5c-35.4,5.4-24,92.5-22.9,130.5c1.2,38-3.8,205.7-9.7,216.3c-3,5.4-8.7,6.2-13.9,6.5
				c-1.5-0.1-3-0.1-4.6,0.3c-2.8,0.3-5.1,0.8-6.3,2.5c-12,6.3-10.2,13.4-12.4,24.4c-2.5,11.8,3.8,3.5,3.8,3.5
				c-3.7,9.1,1.2,20.6,2,15.3c0.9-5.3,2.6-15.8,7.4-18.3c0.1-0.1,0.3-0.2,0.5-0.2l13.7-1.7c20.5-4.6,26-5.7,30.6-19.1
				c4.6-13.4,28.8-276.3,30.5-318.2C461.2,731.3,440.8,731.5,440.8,731.5z"/>
		</g>
	</g>
</g>
<g>
	<g>
		<g>
			<path class="st4" d="M424.9,716.5c0,0,36,12.5,36,45.7c0,0,0.7,19.4,0,27.7l-45.7,18.7l-2.1-29.8
				C413.1,778.8,404.1,724.8,424.9,716.5z"/>
		</g>
	</g>
</g>
<g>
	<g>
		<g>
			<path class="st9" d="M325.1,1342c-4.6,3.1-11.3,3.8-16.6,4.3c-5.6,0.5-11.2,0.3-16.8-0.6c0.5,1.9,1,3.8,1.5,5.7
				c5.5,0.7,11.1,0.8,16.6,0.2c5.2-0.5,11.3-1.3,16.2-3.8C325.7,1345.9,325.4,1344,325.1,1342z"/>
		</g>
	</g>
</g>
<g>
	<g>
		<g>
			<path class="st3" d="M507.8,1475.9c-5.5-20.9-22.4-80.4-39.6-139.3c-9.9,6-21.2,9.4-32.8,10.4c23,55.3,41.1,107.1,44.9,111.7
				c10.9,13,4,13.4-25.6,20.5c-22.6,5.4-28.9,12.2-22,14.3c6.9,2.1,58.6-0.3,66.6-2.5c0.1,0,0.2,0,0.2-0.1
				C505.8,1489,509.4,1482.3,507.8,1475.9z"/>
		</g>
	</g>
</g>
<g>
	<g>
		<g>
			<path class="st9" d="M456,1354.3c-5.3,1.6-10.8,2.6-16.4,3c0.8,1.9,1.6,3.9,2.4,5.8c5.6-0.6,11.2-1.6,16.6-3.4
				c4.7-1.5,10.1-3.3,14.5-6.2c-0.6-2-1.2-4.1-1.8-6.1C467.1,1350.9,460.9,1352.8,456,1354.3z"/>
		</g>
	</g>
</g>
<g>
	<g>
		<g>
			<path class="st9" d="M460.1,1366.8c-5,1.5-10.2,2.5-15.4,2.9c0.8,1.9,1.6,3.8,2.4,5.7c5.3-0.6,10.5-1.6,15.6-3.2
				c4.5-1.4,9.8-3.2,14.1-5.9c-0.6-2-1.2-4-1.8-6.1C470.8,1363.5,464.9,1365.4,460.1,1366.8z"/>
		</g>
	</g>
</g>
<g>
	<g>
		<g>
			<path class="st9" d="M296.6,1378.7l22.4-1.2c1.1-0.1,2.1,0.7,2.3,1.8l1.5,7c0.3,1.6,2.1,2.4,3.6,1.6l4.5-2.5
				c1.4-0.8,3.1,0.1,3.3,1.6c2,14,9.8,69.6,10.4,74.6c0.6,5.7-1.3,12.1-1.3,12.1s-48.5,11.5-83.6,5.7c0,0-2.6-6.4,8.3-10.8
				c8.8-3.6,34.5-11.5,43.8-14.3c1.9-0.6,3-2.5,2.5-4.5L296.6,1378.7z"/>
		</g>
	</g>
</g>
<g>
	<g>
		<g>
			<path class="st3" d="M259.3,1476.5c0,0,30.9,5.2,85.1-6.9l-0.6,4.5c0,0-51,14.3-84.8,6L259.3,1476.5z"/>
		</g>
	</g>
</g>
<g>
	<g>
		<g>
			<path class="st9" d="M449.6,1384.7l22.4-1.2c1.1-0.1,2.1,0.7,2.3,1.8l1.5,7c0.3,1.6,2.1,2.4,3.6,1.6l4.5-2.5
				c1.4-0.8,3.1,0.1,3.3,1.6c2,14,24.9,79.9,25.4,84.9c0.6,5.7-1.3,12.1-1.3,12.1s-48.5,11.5-83.6,5.7c0,0-2.6-6.4,8.3-10.8
				c8.6-3.6,33.4-11.1,43.2-14.1c2.2-0.7,3.3-3,2.5-5.2L449.6,1384.7z"/>
		</g>
	</g>
</g>
<g>
	<g>
		<g>
			<path class="st3" d="M427.2,1492.7c0,0,30.9,5.2,85.1-6.9l-0.6,4.5c0,0-51,14.3-84.8,6L427.2,1492.7z"/>
		</g>
	</g>
</g>
<g>
	<g>
		<g>
			<path class="st9" d="M327,1354.9c-4.5,2.8-10.9,3.4-16,3.9c-5.4,0.5-10.7,0.3-16-0.4c0.5,1.9,1,3.8,1.5,5.7
				c5.3,0.6,10.6,0.6,15.9,0.1c5-0.5,10.8-1.2,15.6-3.5C327.6,1358.7,327.3,1356.8,327,1354.9z"/>
		</g>
	</g>
</g>
<g>
	<g>
		<g>
			<path class="st6" d="M263.4,949.3c0,0,5.8-15-3.1-32.8L263.4,949.3z"/>
		</g>
	</g>
</g>
<g>
	<g>
		<g>
			<path class="st6" d="M445.9,943.1l3.6-40.6C449.5,902.5,428.5,925,445.9,943.1z"/>
		</g>
	</g>
</g>
<g>
	<g>
		<g>
			<g>
				<path class="st3" d="M135.5,1503.4l151.7,2.5c11.6,0.2,19.9-11,16.4-22l-30.4-95.7c-2.2-6.9-8.6-11.7-15.8-11.8l-156.1-2.6
					c-11.9-0.2-20.2,11.6-16.2,22.7l34.9,95.8C122.3,1498.8,128.5,1503.3,135.5,1503.4z"/>
			</g>
		</g>
	</g>
	<g>
		<g>
			<g>
				<path class="st10" d="M145,1498.7c0,0-18.1,0.3-21.5-10l-31.6-92.8c0,0-4-15.7,14.1-16l151.8,4.4c0,0,9.6,0.2,12.5,11.7
					l26.9,85.5c0,0,3.9,16.3-10.5,17.9l-103.1-1.7l18-68.4l-29.7,8.5L145,1498.7z"/>
			</g>
		</g>
	</g>
	<g>
		<g>
			<g>
				<polygon class="st11" points="183.5,1503.6 197.4,1503.8 206.7,1431.5 198.5,1434.5 				"/>
			</g>
		</g>
	</g>
	<g>
		<g>
			<g>
				<path class="st10" d="M202.8,1426.1l-31.3-0.5c-1.8,0-3.3,1.1-3.9,2.7l-30,84.7c-0.9,2.6,1,5.4,3.8,5.5l34.6,0.6
					c1.8,0,3.4-1.1,4-2.9l26.7-84.8C207.5,1428.9,205.6,1426.2,202.8,1426.1z"/>
			</g>
		</g>
	</g>
	<g>
		<g>
			<g>
				<path class="st3" d="M202.8,1426.1l-28.5,88.1l-36.8-0.6l29.7-83.3c0,0-0.5-4.8,7.3-4.7C182.4,1425.8,203.7,1425.3,202.8,1426.1
					z"/>
			</g>
		</g>
	</g>
	<g>
		<g>
			<g>
				<path class="st11" d="M137.2,1498.2C137.2,1498.2,137.2,1498.2,137.2,1498.2c-8.9-0.8-11.9-9.4-12-9.8c-0.1-0.4,0.1-0.8,0.5-1
					c0.4-0.1,0.8,0.1,1,0.5c0.1,0.3,2.8,8,10.6,8.7c0.4,0,0.7,0.4,0.7,0.8C137.9,1497.9,137.6,1498.2,137.2,1498.2z"/>
			</g>
		</g>
	</g>
	<g>
		<g>
			<g>
				<path class="st11" d="M94.9,1395.6c-0.3,0-0.7-0.2-0.7-0.6c-0.1-0.2-1.3-5.6,1.5-9.2c1.6-2.1,4.3-3.1,7.9-3
					c0.4,0,0.8,0.4,0.8,0.8c0,0.4-0.4,0.8-0.8,0.8c-3.1-0.1-5.3,0.8-6.6,2.4c-2.4,3-1.3,7.9-1.2,7.9c0.1,0.4-0.2,0.8-0.6,0.9
					C95,1395.6,95,1395.6,94.9,1395.6z"/>
			</g>
		</g>
	</g>
	<g>
		<g>
			<g>
				<path class="st11" d="M267.9,1396.1c-0.3,0-0.6-0.2-0.7-0.5c-3.2-10.1-12.4-8.2-12.8-8.1c-0.4,0.1-0.8-0.2-0.9-0.6
					c-0.1-0.4,0.2-0.8,0.6-0.9c0.1,0,11-2.3,14.6,9.2c0.1,0.4-0.1,0.8-0.5,1C268.1,1396.1,268,1396.1,267.9,1396.1z"/>
			</g>
		</g>
	</g>
	<g>
		<g>
			<g>
				<path class="st11" d="M284.4,1498.2c-0.5,0-0.7,0-0.8,0c-0.4,0-0.7-0.4-0.7-0.8c0-0.4,0.4-0.7,0.8-0.7c0.1,0,5.6,0.5,8.7-2.9
					c2-2.3,2.5-5.8,1.6-10.4c-0.1-0.4,0.2-0.8,0.6-0.9c0.4-0.1,0.8,0.2,0.9,0.6c1.1,5.2,0.5,9.1-1.9,11.8
					C290.7,1498,286.2,1498.3,284.4,1498.2z"/>
			</g>
		</g>
	</g>
	<g>
		<g>
			<g>
				<polygon class="st3" points="223.2,1400 145.5,1398.7 142.1,1387.1 219.8,1388.5 				"/>
			</g>
		</g>
	</g>
	<g>
		<g>
			<g>
				<polygon class="st3" points="228.4,1415.1 150.7,1413.8 147.2,1402.3 225,1403.6 				"/>
			</g>
		</g>
	</g>
</g>
<g>
	<g>
		<g>
			<path class="st1" d="M291.8,577.2c0,0-7.1,56-50.8,71.8s-64.7-33.9-27.8-72.2S301.9,562.5,291.8,577.2z"/>
		</g>
	</g>
</g>
<g>
	<g>
		<g>
			<path class="st12" d="M381.2,1117.1c-0.1,0-0.2,0-0.3-0.1c-0.2-0.2-0.2-0.5-0.1-0.7c3.4-4.1,5.8-4.5,14.6-5.7l1-0.1
				c0.6-0.1,1.3-0.2,2-0.3c10.3-1.4,27.4-3.7,30.6-21l3.8-28.9c0-0.3,0.3-0.5,0.6-0.4c0.3,0,0.5,0.3,0.4,0.6l-3.8,28.9
				c-3.3,18.1-21.6,20.5-31.5,21.8c-0.7,0.1-1.4,0.2-2,0.3l-1,0.1c-8.7,1.2-10.8,1.5-14,5.4C381.5,1117,381.3,1117.1,381.2,1117.1z"
				/>
		</g>
	</g>
</g>
<g>
	<g>
		<g>
			<path class="st12" d="M374.5,1117.2c-0.1,0-0.1,0-0.2,0c-0.3-0.1-0.4-0.4-0.3-0.7c0.1-0.2,2.2-6,6.7-10.2c0.2-0.2,0.5-0.2,0.7,0
				c0.2,0.2,0.2,0.5,0,0.7c-4.3,4-6.4,9.7-6.4,9.8C374.9,1117.1,374.7,1117.2,374.5,1117.2z"/>
		</g>
	</g>
</g>
<g>
	<g>
		<g>
			<path class="st12" d="M371.1,1112.5c0,0-0.1,0-0.1,0c-0.3-0.1-0.4-0.4-0.4-0.6c0.1-0.4,2.9-10,14-14.6c0.3-0.1,0.6,0,0.7,0.3
				c0.1,0.3,0,0.6-0.3,0.7c-10.6,4.3-13.4,13.8-13.4,13.9C371.6,1112.4,371.4,1112.5,371.1,1112.5z"/>
		</g>
	</g>
</g>
<g>
	<g>
		<g>
			<path class="st12" d="M373.1,1101.1c-0.1,0-0.2,0-0.3-0.1c-0.2-0.1-0.3-0.5-0.2-0.7c0.2-0.4,5.1-8.8,16.9-10.9
				c0.3-0.1,0.5,0.1,0.6,0.4c0.1,0.3-0.1,0.5-0.4,0.6c-11.3,2-16.1,10.3-16.2,10.4C373.5,1101,373.3,1101.1,373.1,1101.1z"/>
		</g>
	</g>
</g>
<g>
	<g>
		<g>
			<path class="st12" d="M302.4,1123.6c0,0-0.1,0-0.1,0c-0.3-0.1-0.4-0.4-0.4-0.6c0-0.1,2.2-7.7-0.2-14.3c-0.1-0.3,0-0.6,0.3-0.7
				c0.3-0.1,0.6,0,0.7,0.3c2.4,7,0.3,14.6,0.2,14.9C302.9,1123.5,302.6,1123.6,302.4,1123.6z"/>
		</g>
	</g>
</g>
<g>
	<g>
		<g>
			<path class="st12" d="M307.6,1120.9c0,0-0.1,0-0.1,0c-0.3-0.1-0.5-0.3-0.4-0.6c0-0.1,2.2-11.1-1.1-17.1c-0.1-0.2,0-0.6,0.2-0.7
				c0.2-0.1,0.6-0.1,0.7,0.2c3.5,6.3,1.3,17.3,1.2,17.8C308,1120.7,307.8,1120.9,307.6,1120.9z"/>
		</g>
	</g>
</g>
<g>
	<g>
		<g>
			<path class="st12" d="M312.6,1113.8C312.5,1113.8,312.5,1113.8,312.6,1113.8c-0.4-0.1-0.6-0.3-0.5-0.6c0-0.1,1.6-9.8-1.6-14
				c-0.2-0.2-0.1-0.6,0.1-0.7c0.2-0.2,0.5-0.1,0.7,0.1c3.5,4.6,1.9,14.4,1.8,14.9C313,1113.6,312.8,1113.8,312.6,1113.8z"/>
		</g>
	</g>
</g>
<g>
	<g>
		<g>
			<path class="st12" d="M304.2,1130.3c-0.7,0-1.3-0.4-1.7-0.7c-0.4-0.4-0.6-1.5-0.7-2.6c-0.9,2.2-1.9,3.3-3,3.1
				c-1.1-0.2-1.7-1.6-1.7-2.5c0-0.5,0.1-1.1,0.1-1.9c0.2-1.5,0.4-3.9,0.4-8.2c0-5.6-3-10.6-8-13.3c-4.4-2.4-15.7-7.2-15.8-7.2
				c-0.3-0.1-0.4-0.4-0.3-0.7c0.1-0.3,0.4-0.4,0.7-0.3c0.1,0,11.4,4.9,15.9,7.2c5.3,2.9,8.5,8.2,8.5,14.2c0,4.4-0.2,6.8-0.4,8.3
				c-0.1,0.7-0.1,1.3-0.1,1.8c0,0.6,0.4,1.5,0.8,1.5c0.2,0,1.3,0,2.8-5.1c0.1-0.2,0.3-0.4,0.6-0.4c0.3,0,0.4,0.3,0.4,0.5
				c-0.1,2,0.1,4.4,0.5,4.8c0.3,0.3,0.8,0.5,1.2,0.4c0.5-0.1,1-0.7,1.3-1.7c0.8-2.6,1.3-6.6,1.3-6.6c0-0.3,0.3-0.5,0.5-0.4
				c0.3,0,0.5,0.2,0.5,0.5c0,2.6,0.5,5.1,1.1,5.2c0.1,0,0.2,0,0.4-0.1c1.1-0.8,1.9-4.8,2.6-11.9c0-0.3,0.3-0.5,0.5-0.5
				c0.3,0,0.5,0.2,0.5,0.5c0,1.2,0.2,4.5,0.4,5.3c0.1,0.3,0.5,0.8,0.9,0.8c0,0,0,0,0,0c0.6,0,1.1-0.9,1.4-2.4
				c2.2-9.9,1.3-17.6-2.6-22.3c-0.1-0.1-2.4-3.5-9.4-7.1c-5.5-2.9-12.7-6.8-15.5-8.3c-1.2-0.7-2-2-2-3.4l0.3-16.1
				c0-0.3,0.2-0.5,0.5-0.5c0,0,0,0,0,0c0.3,0,0.5,0.2,0.5,0.5l-0.3,16.1c0,1,0.5,2,1.4,2.5c2.8,1.6,10,5.5,15.5,8.3
				c7.3,3.8,9.6,7.2,9.7,7.4c4.1,5,5,13,2.7,23.2c-0.6,2.6-1.6,3.2-2.4,3.2c0,0,0,0,0,0c-0.9,0-1.7-0.8-1.9-1.6c0,0,0,0,0-0.1
				c-0.8,5.2-1.6,6.6-2.4,7.2c-0.4,0.3-0.8,0.4-1.2,0.3c-0.8-0.1-1.3-1.1-1.6-2.3c-0.2,1-0.4,2-0.7,2.9c-0.5,1.7-1.4,2.3-2,2.4
				C304.6,1130.3,304.4,1130.3,304.2,1130.3z"/>
		</g>
	</g>
</g>
<g>
	<g>
		<g>
			<path class="st12" d="M383.6,1088.2c-0.1,0-0.2,0-0.3-0.1c-0.2-0.2-0.3-0.5-0.1-0.7c0.1-0.1,1.8-2.5,8.6-3.5
				c4.1-0.6,9.3-1.5,13-2.2c1.8-0.3,3.1-1.8,3.3-3.6l1.6-16.3c0-0.3,0.3-0.5,0.6-0.5c0.3,0,0.5,0.3,0.5,0.6l-1.6,16.3
				c-0.2,2.3-1.9,4.1-4.1,4.5c-3.7,0.7-9,1.6-13.1,2.2c-6.2,0.9-7.9,3-7.9,3.1C383.9,1088.1,383.7,1088.2,383.6,1088.2z"/>
		</g>
	</g>
</g>
<g>
	<g>
		<g>
			<path class="st13" d="M369.9,696.3l8.5,18c0,0-6.6,20.3-27.9,23.7c0,0-4.7-12.3,0.5-22.7C356.1,704.8,369.9,696.3,369.9,696.3z"
				/>
		</g>
	</g>
</g>
<g>
	<g>
		<g>
			<path class="st13" d="M320.2,713.3c0,0,22.7,1.4,30.3,24.6c0,0-13.2,1.4-20.3-3.8L320.2,713.3z"/>
		</g>
	</g>
</g>
<g>
	<g>
		<g>
			<polygon class="st13" points="414.6,814.6 463.7,794.5 464.1,784.8 413.8,805.7 			"/>
		</g>
	</g>
</g>
<g>
	<g>
		<g>
			<polygon class="st13" points="301.2,832.7 261.4,815 261.8,806.5 302.4,825.8 			"/>
		</g>
	</g>
</g>
<g>
	<g>
		<g>
			
				<ellipse transform="matrix(0.9016 -0.4325 0.4325 0.9016 -259.8766 177.2538)" class="st4" cx="259.8" cy="660" rx="2.7" ry="3.9"/>
		</g>
	</g>
</g>
<g>
	<g>
		<g>
			
				<ellipse transform="matrix(0.972 -0.2348 0.2348 0.972 -143.7106 85.9979)" class="st4" cx="289.2" cy="646.4" rx="2.7" ry="3.9"/>
		</g>
	</g>
</g>
<path class="st1" d="M368.5,697.1l-32.4-65.4l18.3-2.1C354.4,629.6,379.5,690.8,368.5,697.1z"/>
<path class="st2" d="M325.5,637.7c0,0,5.3,1.7,8.3-3.3c3-5,2.3-14.3,8.6-17.9s15.9,3.3,13.3,14.9s-10.3,14.9-8.3,22.9s-4,11-4,11
	S322.5,649,325.5,637.7z"/>
<g>
	<g>
		<g>
			<g>
				<path class="st6" d="M349,627.3c-0.2,0.1-3.7,1.8-5.5,5.1c-0.2-3.3,0.5-7.2,3.2-10.7c0.2-0.3,0.2-0.7-0.1-1
					c-0.3-0.2-0.7-0.2-1,0.1c-6.9,9-1.5,20.2-1.4,20.3c0.2,0.3,0.6,0.5,0.9,0.3c0,0,0,0,0,0c0.3-0.2,0.5-0.6,0.3-0.9
					c0,0-1-2.1-1.6-5.2c0-0.1,0.1-0.1,0.1-0.2c0.8-4.2,5.6-6.5,5.7-6.6c0.3-0.2,0.5-0.6,0.3-0.9C349.7,627.3,349.3,627.1,349,627.3z
					"/>
			</g>
		</g>
	</g>
</g>
</g>
</svg>
