<?xml version="1.0" encoding="utf-8"?>
<!-- Generator: Adobe Illustrator 16.0.3, SVG Export Plug-In . SVG Version: 6.00 Build 0)  -->
<!DOCTYPE svg PUBLIC "-//W3C//DTD SVG 1.1//EN" "http://www.w3.org/Graphics/SVG/1.1/DTD/svg11.dtd">
<svg version="1.1" id="Capa_1" xmlns="http://www.w3.org/2000/svg" xmlns:xlink="http://www.w3.org/1999/xlink" x="0px" y="0px"
	 width="750px" height="1624px" viewBox="0 0 750 1624" enable-background="new 0 0 750 1624" xml:space="preserve">
<g>
	<rect x="1" y="2" fill="#6228CF" width="750" height="1624"/>
	<g>
		<path fill="#7F51D6" d="M82.368,1049.939c42.712-42.703,85.425-85.407,128.137-128.11c-0.479-0.479-0.959-0.96-1.439-1.439
			c-42.743,42.737-85.486,85.479-128.229,128.21C81.348,1049.047,81.858,1049.493,82.368,1049.939z"/>
		<path fill="#7D4ED5" d="M391.834,557.02c-41.155,41.182-82.31,82.354-123.464,123.53c0.596,0.604,1.192,1.198,1.788,1.798
			c41.146-41.15,82.303-82.311,123.455-123.465C393.02,558.262,392.427,557.641,391.834,557.02z"/>
		<path fill="#5723B5" d="M689.976,718.318c-24.049,24.05-48.098,48.1-72.146,72.146c0.396,0.399,0.797,0.798,1.195,1.197
			c24.047-24.051,48.094-48.104,72.142-72.153C690.769,719.113,690.372,718.716,689.976,718.318z"/>
		<path fill="#5623B5" d="M244.379,1129.032c21.042-21.042,42.085-42.084,63.128-63.126c-0.417-0.418-0.833-0.836-1.25-1.254
			c-21.042,21.043-42.083,42.085-63.125,63.127C243.547,1128.197,243.963,1128.614,244.379,1129.032z"/>
		<path fill="#8457D7" d="M553.355,333.729c-19.015,19.041-38.021,38.082-57.03,57.123c0.396,0.404,0.799,0.81,1.199,1.214
			c19.061-19.014,38.122-38.028,57.183-57.042C554.257,334.592,553.807,334.16,553.355,333.729z"/>
		<path fill="#7F50D5" d="M95.961,775.763c10.103-10.249,20.205-20.498,30.308-30.747c-0.374-0.377-0.747-0.753-1.12-1.13
			c-10.167,10.194-20.334,20.393-30.501,30.582C95.086,774.899,95.523,775.331,95.961,775.763z"/>
		<path fill="#8051D6" d="M327.269,430.105c9.417-9.437,18.833-18.863,28.249-28.3c-0.478-0.478-0.95-0.952-1.433-1.434
			c-9.417,9.431-18.835,18.86-28.253,28.291C326.311,429.146,326.79,429.626,327.269,430.105z"/>
		<path fill="#8052D6" d="M643.695,911.514c9.382-9.149,18.765-18.31,28.146-27.464c-0.544-0.557-1.088-1.112-1.633-1.67
			c-9.248,9.28-18.496,18.563-27.743,27.84C642.875,910.651,643.285,911.083,643.695,911.514z"/>
		<path fill="#8457D7" d="M700.378,1162.841c-10.508,10.513-21.015,21.025-31.521,31.538c0.33,0.336,0.659,0.673,0.99,1.009
			c10.534-10.54,21.068-21.081,31.604-31.622C701.095,1163.457,700.736,1163.149,700.378,1162.841z"/>
		<path fill="#8355D7" d="M307.633,918.123c10.186-10.169,20.362-20.337,30.543-30.506c-0.328-0.332-0.656-0.664-0.979-0.996
			c-10.198,10.207-20.396,20.415-30.6,30.622C306.943,917.536,307.288,917.829,307.633,918.123z"/>
		<path fill="#8457D7" d="M709.723,570.015c-10.244,10.212-20.483,20.429-30.729,30.64c0.479,0.482,0.964,0.975,1.445,1.461
			c10.135-10.322,20.269-20.646,30.397-30.971C710.467,570.767,710.095,570.391,709.723,570.015z"/>
		<path fill="#5723B6" d="M708.043,985.398c-8.063,8.033-16.126,16.07-24.189,24.108c0.387,0.384,0.768,0.771,1.146,1.151
			c8.057-8.045,16.113-16.089,24.169-24.134C708.792,986.152,708.418,985.775,708.043,985.398z"/>
	</g>
</g>
<g id="Capa_2" display="none">
</g>
<g>
	<path fill="#5924B9" d="M636.899,1248.139c0,9.411-91.533,17.041-204.438,17.041c-112.909,0-204.439-7.63-204.439-17.041
		c0-9.409,91.53-17.039,204.439-17.039C545.366,1231.1,636.899,1238.729,636.899,1248.139z"/>
	<g>
		<g>
			<polygon fill="#0096AA" points="322.994,859.197 392.197,815.224 400.959,847.34 336.806,890.324 			"/>
			<polygon fill="#D38C6C" points="325.371,864.553 298.936,855.246 298.936,867.975 281.562,874.514 294.928,908.115 
				334.433,884.976 			"/>
		</g>
		<g>
			<polygon fill="#323232" points="339.51,1208.462 295.424,1198.108 302.671,1176.416 346.754,1186.769 			"/>
			<path fill="#BE4E5A" d="M300.831,1199.378l-3.792,7.201c-3.549,6.742-9.297,11.716-16.059,13.892l-22.03,7.077
				c-5.388,1.735-9.923,5.797-12.582,11.276l0,0l80.488,11.858l2.451-44.619L300.831,1199.378z"/>
			<g>
				<path fill="#191919" d="M383.139,1050.904l-46.779-22.729l-9.331,47.146c13.314,8.839,28.097,14.953,43.377,17.942
					L383.139,1050.904z"/>
				<path fill="#3C3C3C" d="M327.029,1075.32l-20.201,102.07l35.77,8.401l27.809-92.529
					C355.125,1090.273,340.343,1084.159,327.029,1075.32z"/>
			</g>
		</g>
		<g>
			<g>
				<path fill="#191919" d="M519.317,1051.729l-53.464-7.907l8.032,26.722c1.756,5.833,4.607,11.19,8.369,15.708l3.445,4.135
					c18.04-1.424,35.954-4.779,53.425-9.993L519.317,1051.729z"/>
				<path fill="#3C3C3C" d="M589.412,1153.181l-50.287-72.787c-17.471,5.214-35.385,8.569-53.425,9.993l71.634,86.029
					L589.412,1153.181z"/>
			</g>
			<polygon fill="#323232" points="566.164,1192.997 602.994,1166.32 591.79,1151.46 554.959,1178.135 			"/>
			<path fill="#BE4E5A" d="M570.479,1189.871l3.656,5.877c4.808,7.731,4.352,18.076-1.121,25.25l0,0
				c-2.475,3.241-5.784,5.567-9.486,6.661l-3.601,1.066c-5.344,1.579-9.644,5.972-11.506,11.742l0,0h45.742l25.84-45.122
				l-25.167-23.119L570.479,1189.871z"/>
		</g>
		<g>
			<path fill="#A13E4B" d="M431.051,626.374c-8.705-1.893-16.476-8.482-20.403-17.299c-3.931-8.819-3.931-19.665-0.004-28.482
				c5.444,5.553,12.99,7.928,20.388,7.67c7.393-0.26,14.68-2.123,22.07-2.458c7.392-0.337,15.276,1.091,20.856,6.476
				c6.196,5.972,8.356,16.539,5.087,24.889c4.389,0.628,8.592,4.997,10.33,9.506c1.74,4.507,1.681,9.684,0.598,14.435
				c-1.081,4.756-3.123,9.169-5.289,13.443c-2.259,4.466-4.699,8.886-7.968,12.504c-3.266,3.616-7.462,6.405-12.052,6.951
				c-6.894,0.826-13.622-3.555-18.024-9.494c-4.41-5.936-6.92-13.284-9.358-20.48C435.364,638.356,432.97,632.052,431.051,626.374z"
				/>
			<path fill="#EDB698" d="M417.223,616.602c-2.229,13.406-6.854,29.278-13.712,40.589c2.676,1.497,6.256,2.661,9.254,2.693
				c-0.519,10.06,4.155,20.95,11.922,26.181c7.767,5.229,18.138,5.273,25.943,0.118c7.806-5.157,12.705-15.295,12.256-25.363
				c3.653-0.024,7.296-1.122,9.39-4.44c2.096-3.314,2.533-7.879,0.977-11.544c-1.558-3.662-5.106-6.218-8.756-6.139
				c-3.723,0.077-7.145,2.757-9.086,6.282c-1.94,3.525-2.562,7.78-2.49,11.908c-3.264-5.903-6.285-12.476-7.471-19.273
				c-1.107-0.617-2.26-1.172-3.411-1.726c-2.082-1.009-3.441-3.303-3.404-5.827c0.018-1.525,0.048-3.066,0.079-4.6
				c0.049-3.245-2.131-5.944-5.033-6.372C428.197,618.276,422.405,616.724,417.223,616.602z"/>
		</g>
		<g>
			<g>
				<path fill="#FFA358" d="M428.676,773.108c1.001-19.794-1.516-40.589-3.569-59.894c-9.152,5.565-16.049,15.303-19.141,26.334
					C409.979,753.056,418.12,765.03,428.676,773.108z"/>
				<path fill="#FFC167" d="M405.966,739.549c-0.907,3.233-1.524,6.564-1.73,9.949c-0.536,8.952,1.355,17.96,0.45,26.876
					c-1.506,14.753-10.339,27.123-18.719,38.703c-8.38,11.579-17.007,24.229-17.963,39.039c11.179,0.114,21.779,4.891,29.493,13.859
					c12.886-25.073,25.338-52.084,29.805-80.517c0.735-4.69,1.133-9.499,1.375-14.349
					C418.12,765.03,409.979,753.056,405.966,739.549z"/>
			</g>
			<path fill="#FFC167" d="M482.027,664.158c-23.08,4.479-44.607,17.824-60.609,36.887c-1.987,2.373-2.478,5.843-1.119,8.708
				c2.541,5.384,5.087,10.77,7.63,16.153c18.041-14.733,40.531-24.37,62.741-27.62c0.262-8.54-0.166-17.504-0.267-26.266
				C490.353,667.11,486.388,663.31,482.027,664.158z"/>
		</g>
		<g>
			<path fill="#40AABE" d="M494.369,828.403l-30.775-83.834l41.909,13.957c-0.068-3.338-0.125-6.677-0.146-10.018
				c-0.067-12.262-0.181-24.823-4.041-36.314c-3.857-11.495-12.292-21.896-23.206-23.885c-10.739-1.959-21.2,4.364-30.284,11.03
				c-7.869,5.78-15.579,12.091-21.518,20.231c-5.942,8.136-10.025,18.341-9.683,28.804c0.427,13.084,7.582,25.922,4.546,38.573
				c-2.33,9.695-10.022,16.414-15.329,24.546c-8.121,12.443-7.515,25.616-11.463,39.433c-4.735,16.558-11.023,32.518-17.844,48.142
				c-8.77,20.101-18.454,39.706-28.999,58.73c-13.373,24.117-28.129,47.296-40.708,71.937
				c18.421,21.654,44.888,35.498,71.383,40.277c26.495,4.781,53.549,3.116,80.348,1.435c29.17-1.829,58.34-3.659,87.512-5.488
				c-14.685-32.904-20.609-74.961-24.238-113.372l-14.396-8.899L494.369,828.403z"/>
			<path fill="#008196" d="M505.503,758.526l-41.909-13.957l30.775,83.834l13.066,115.284l14.396,8.899
				c-0.688-7.284-1.305-14.451-1.871-21.384C515.266,873.774,506.711,816.179,505.503,758.526z"/>
		</g>
		<g>
			<path fill="#0096AA" d="M463.594,744.569l41.169,72.136l2.673,113.146l32.97-3.95V814.236l-39.837-92.351
				c-5.305-12.3-18.917-17.016-29.591-10.251l0,0C460.501,718.273,457.137,733.267,463.594,744.569z"/>
			<polygon fill="#EDB698" points="514.971,928.95 511.003,955.052 517.238,955.052 522.583,970.861 547.09,957.521 536.489,926.37 
							"/>
		</g>
		<path fill="#008196" d="M474.695,968.65c2.279,5.105,7.374,8.698,8.067,14.348c1.249,10.168-12.415,16.554-11.875,26.8
			c0.587,11.058,16.69,14.453,17.669,25.481c0.449,5.024-2.769,9.76-6.779,12.156c-4.012,2.392-8.687,2.926-13.23,3.331
			c-26.716,2.379-53.647,1.833-80.272-1.626c19.396-29.668,36.205-61.407,50.126-94.64c3.207-7.656,6.502-15.729,12.587-20.796
			c6.084-5.066,15.927-5.689,20.531,1.029C477.859,943.98,470.049,958.239,474.695,968.65z"/>
	</g>
</g>
</svg>
