<?xml version="1.0" encoding="utf-8"?>
<!-- Generator: Adobe Illustrator 25.1.0, SVG Export Plug-In . SVG Version: 6.00 Build 0)  -->
<svg version="1.1" id="Capa_1" xmlns="http://www.w3.org/2000/svg" xmlns:xlink="http://www.w3.org/1999/xlink" x="0px" y="0px"
	 viewBox="0 0 32.47 32.47" style="enable-background:new 0 0 32.47 32.47;" xml:space="preserve">
<style type="text/css">

</style>
<g>
	<path class="st0" d="M18.01,32.47h-3.55c-1.3,0-2.35-1.05-2.35-2.35v-2.3l-1.1-0.43l-1.67,1.58c-0.89,0.89-2.44,0.89-3.32,0
		L3.5,26.46c-0.44-0.44-0.69-1.03-0.69-1.66c0-0.63,0.25-1.22,0.69-1.66l1.62-1.62l-0.48-1.09l-2.3-0.06c-1.3,0-2.35-1.05-2.35-2.35
		v-3.55c0-1.3,1.06-2.35,2.35-2.35h2.3l0.43-1.1L3.5,9.33C3.06,8.9,2.81,8.3,2.81,7.67c0-0.63,0.25-1.22,0.69-1.66L6.01,3.5
		c0.88-0.89,2.44-0.89,3.32,0l1.62,1.62l1.08-0.48l0.07-2.3c0-1.3,1.06-2.35,2.35-2.35h3.55c1.3,0,2.35,1.05,2.35,2.35v2.3l1.1,0.43
		l1.67-1.58c0.45-0.44,1.04-0.69,1.66-0.69l0,0c0.63,0,1.22,0.24,1.66,0.68l2.51,2.52c0.44,0.44,0.69,1.03,0.69,1.66
		c0,0.63-0.25,1.22-0.69,1.66l-1.62,1.62l0.48,1.08l2.3,0.07c1.3,0,2.35,1.05,2.35,2.35v3.55c0,1.3-1.05,2.35-2.35,2.35h-2.3
		l-0.43,1.1l1.58,1.67c0.44,0.44,0.69,1.03,0.69,1.66c0,0.63-0.25,1.22-0.69,1.66l-2.5,2.51c-0.9,0.89-2.44,0.89-3.32,0l-1.63-1.63
		l-1.08,0.48l-0.06,2.3C20.36,31.41,19.31,32.47,18.01,32.47L18.01,32.47z M14.87,29.71h2.73v-1.88c0-1.12,0.8-2.23,1.86-2.59
		l0.95-0.4c0.26-0.14,0.67-0.23,1.09-0.23c0.75,0,1.47,0.28,1.96,0.78l1.33,1.33l1.93-1.93l-1.33-1.33
		c-0.79-0.79-1.01-2.14-0.51-3.15l0.39-0.95c0.32-0.97,1.43-1.77,2.55-1.77h1.88v-2.73h-1.88c-1.12,0-2.23-0.8-2.59-1.87l-0.39-0.94
		c-0.46-0.91-0.24-2.26,0.55-3.05l1.34-1.34L24.8,5.74l-1.33,1.33c-0.78,0.78-2.16,1-3.15,0.51L19.37,7.2
		C18.4,6.88,17.6,5.77,17.6,4.65V2.76h-2.73v1.88c0,1.12-0.8,2.23-1.86,2.59l-0.94,0.39c-0.26,0.14-0.67,0.23-1.1,0.23
		C10.22,7.86,9.5,7.57,9,7.08L7.67,5.75L5.75,7.67l1.33,1.33c0.79,0.8,1.01,2.15,0.51,3.15L7.2,13.1c-0.32,0.98-1.44,1.78-2.56,1.78
		H2.76v2.73h1.89c1.12,0,2.23,0.8,2.59,1.86l0.39,0.95c0.46,0.91,0.24,2.26-0.55,3.05L5.75,24.8l1.93,1.93L9,25.39
		c0.77-0.77,2.16-1.01,3.15-0.51l0.95,0.39c0.99,0.33,1.77,1.42,1.77,2.55V29.71L14.87,29.71z M16.23,22.3
		c-3.34,0-6.06-2.72-6.06-6.06c0-3.34,2.72-6.06,6.06-6.06c3.34,0,6.06,2.72,6.06,6.06C22.3,19.58,19.58,22.3,16.23,22.3L16.23,22.3
		z M16.23,12.93c-1.82,0-3.3,1.48-3.3,3.3c0,1.82,1.48,3.3,3.3,3.3c1.82,0,3.3-1.48,3.3-3.3C19.53,14.41,18.06,12.93,16.23,12.93
		L16.23,12.93z"/>
</g>
</svg>
