<?xml version="1.0" encoding="utf-8"?>
<!-- Generator: Adobe Illustrator 25.1.0, SVG Export Plug-In . SVG Version: 6.00 Build 0)  -->
<svg version="1.1" id="Capa_1" xmlns="http://www.w3.org/2000/svg" xmlns:xlink="http://www.w3.org/1999/xlink" x="0px" y="0px"
	 viewBox="0 0 265.1 292.12" style="enable-background:new 0 0 265.1 292.12;" xml:space="preserve">
<style type="text/css">
	.st0{fill-rule:evenodd;clip-rule:evenodd;fill:#151A21;}
	.st1{fill-rule:evenodd;clip-rule:evenodd;fill:#FFA906;}
	.st2{fill-rule:evenodd;clip-rule:evenodd;fill:#D4D8DA;}
	.st3{fill-rule:evenodd;clip-rule:evenodd;fill:#FF8308;}
</style>
<g>
	<path class="st0" d="M265.1,229.88l-0.13-27.13h-21.41l-16.58-22.76l12.54-7.23l-33.42-19.22L193.18,161l-37.72-8.81v-13.04h-47.12
		l0.13,12.96l-38.9,9.35l-15.14-8.67L21.15,172l15.4,8.89l-15.27,21.78L0,202.75l0.13,27.2h21.41l15.14,21.41l-13.18,7.61
		l33.41,19.22l12.79-7.39l38.63,9.57v11.75l47.25-0.08v-11.45l38.37-8.81l14.49,8.36l33.28-19.22l-14.23-8.21l16.45-22.83H265.1z
		 M175.87,215.64c0,6.39-4.2,12.78-12.66,17.67c-8.46,4.88-19.59,7.34-30.66,7.34c-11.07,0-22.15-2.44-30.61-7.33
		c-8.46-4.89-12.71-11.29-12.71-17.68c0-6.4,4.25-12.81,12.71-17.69c8.46-4.88,19.54-7.32,30.61-7.32c11.07,0,22.2,2.42,30.66,7.32
		v0C171.67,202.83,175.87,209.24,175.87,215.64z"/>
	<path class="st1" d="M264.97,63.6h-21.41l-4.04-5.55V33.61L206.1,14.39l-12.92,7.46l-37.72-8.81V0h-47.12l0.13,12.96l-38.9,9.35
		l-15.14-8.67L21.15,32.86v30.67L0,63.6l0.13,27.2h0v20.99l-0.13,0l0.13,26.85V139h0h21.41l1.96,2.77v26.25l33.41,19.21l12.79-7.38
		l38.63,9.56v11.76l47.25-0.08v-11.45l38.37-8.81l14.49,8.36l33.28-19.21v-27.97l2.22-3.08h21.15v-48.2L264.97,63.6z M180.94,104.38
		c-13.35,7.71-30.92,11.58-48.39,11.58c-17.47,0-34.96-3.85-48.3-11.56c-2.1-1.22-4.02-2.5-5.79-3.82c1.77-1.32,3.69-2.6,5.79-3.82
		c13.35-7.71,30.83-11.55,48.3-11.55c8.54,0,17.11,0.92,25.19,2.76c0.74,0.17,1.48,0.35,2.21,0.53c0.31,0.08,0.63,0.15,0.94,0.23
		c0.72,0.19,1.43,0.39,2.15,0.59c0.32,0.09,0.63,0.18,0.95,0.27c0.7,0.21,1.39,0.43,2.08,0.65c0.31,0.1,0.63,0.2,0.95,0.3
		c0.68,0.23,1.35,0.47,2.02,0.71c0.31,0.11,0.63,0.22,0.94,0.34c0.66,0.25,1.32,0.52,1.97,0.78c0.3,0.12,0.61,0.24,0.91,0.37
		c0.66,0.28,1.3,0.57,1.94,0.86c0.28,0.13,0.57,0.25,0.85,0.38c0.68,0.32,1.35,0.66,2.01,0.99c0.23,0.11,0.46,0.22,0.68,0.34
		c0.88,0.46,1.75,0.93,2.6,1.43c0.74,0.43,1.45,0.86,2.14,1.3c0.18,0.12,0.36,0.23,0.54,0.35c0.67,0.44,1.33,0.88,1.96,1.32
		c0.05,0.03,0.09,0.07,0.14,0.1c0.34,0.24,0.66,0.49,0.99,0.74C184.95,101.89,183.03,103.17,180.94,104.38z"/>
	<polygon class="st2" points="23.5,119.82 23.5,168.01 36.68,160.4 36.68,112.21 	"/>
	<polygon class="st3" points="21.54,90.81 21.54,139 36.68,160.4 36.68,112.21 	"/>
	<rect x="0.13" y="90.81" class="st3" width="21.41" height="48.19"/>
	<polygon class="st3" points="21.15,32.86 21.15,81.05 36.55,89.94 36.55,41.75 	"/>
	<polygon class="st3" points="23.5,119.82 56.91,139.04 56.91,187.22 23.5,168.01 	"/>
	<polygon class="st3" points="56.91,139.04 69.7,131.65 69.7,179.84 56.91,187.22 	"/>
	<polygon class="st3" points="69.7,131.65 108.34,141.23 108.34,189.41 69.7,179.84 	"/>
	<polygon class="st3" points="108.34,152.98 155.59,152.91 155.59,201.09 108.34,201.17 	"/>
	<polygon class="st3" points="155.59,141.45 155.59,189.64 193.96,180.83 193.96,132.63 	"/>
	<polygon class="st3" points="193.96,132.63 193.96,180.83 208.45,189.19 208.45,141 	"/>
	<polygon class="st3" points="243.95,90.73 243.95,138.93 227.5,161.76 227.5,113.57 	"/>
	<polygon class="st3" points="241.74,121.78 241.74,169.97 208.45,189.19 208.45,141 	"/>
	<rect x="243.95" y="90.73" class="st3" width="21.15" height="48.2"/>
	<polygon class="st3" points="239.52,33.61 239.52,81.8 226.98,89.03 226.98,40.85 	"/>
	<path class="st1" d="M243.95,90.74h21.15l-0.13-27.13h-21.41l-16.58-22.76l12.54-7.23L206.1,14.39l-12.92,7.46l-37.72-8.81V0
		h-47.12l0.13,12.96l-38.9,9.35l-15.14-8.67L21.15,32.86l15.4,8.89L21.28,63.53L0,63.6l0.13,27.2h21.41l15.14,21.41l-13.18,7.61
		l33.41,19.22l12.79-7.39l38.63,9.57v11.75l47.25-0.08v-11.45l38.37-8.81l14.49,8.36l33.28-19.22l-14.23-8.21L243.95,90.74
		L243.95,90.74z M180.94,48.57c13.35,7.72,19.97,17.83,19.97,27.93c0,10.08-6.63,20.17-19.97,27.88
		c-13.35,7.71-30.92,11.58-48.39,11.58c-17.47,0-34.96-3.85-48.3-11.56C70.9,96.68,64.19,86.58,64.19,76.5
		c0-10.09,6.71-20.22,20.06-27.92c13.35-7.71,30.83-11.55,48.3-11.55C150.02,37.02,167.59,40.85,180.94,48.57L180.94,48.57z"/>
	<path class="st3" d="M78.45,100.58c1.77-1.32,3.69-2.6,5.79-3.82c13.35-7.71,30.83-11.55,48.3-11.55
		c17.47,0,35.04,3.84,48.39,11.55c2.1,1.21,4.01,2.49,5.77,3.81c9.47-7.08,14.2-15.58,14.2-24.08c0-10.09-6.63-20.21-19.97-27.93v0
		c-13.35-7.72-30.92-11.55-48.39-11.55c-17.47,0-34.96,3.84-48.3,11.55C70.9,56.28,64.19,66.4,64.19,76.5
		C64.19,84.99,68.97,93.49,78.45,100.58z"/>
	<path class="st3" d="M180.94,48.57L180.94,48.57c-6.89-3.98-14.9-6.92-23.44-8.84v48.18h0c8.54,1.92,16.55,4.86,23.44,8.84
		c2.1,1.21,4.02,2.49,5.78,3.81c9.47-7.08,14.19-15.58,14.19-24.07C200.91,66.4,194.28,56.29,180.94,48.57z"/>
</g>
</svg>
