<?xml version="1.0" encoding="utf-8"?>
<!-- Generator: Adobe Illustrator 25.1.0, SVG Export Plug-In . SVG Version: 6.00 Build 0)  -->
<svg version="1.1" id="Capa_1" xmlns="http://www.w3.org/2000/svg" xmlns:xlink="http://www.w3.org/1999/xlink" x="0px" y="0px"
	 viewBox="0 0 32.28 32.47" style="enable-background:new 0 0 32.28 32.47;" xml:space="preserve">
<style type="text/css">
</style>
<path class="st0" d="M32.28,1.54C32.28,0.69,31.6,0,30.75,0H18.98c-1.05,0-2.01,0.4-2.76,1.03C15.47,0.4,14.51,0,13.46,0H1.69
	C1.45,0,1.23,0.06,1.03,0.16C0.44,0.37,0,0.92,0,1.59v28.34c0,0.85,0.69,1.54,1.54,1.54c0.03,0,0.05-0.01,0.07-0.02
	c0.03,0,0.05,0.02,0.07,0.02h7.24h0.62h5.22c0.22,0.58,0.77,0.99,1.43,0.99c0.66,0,1.21-0.41,1.43-0.99h13.11
	c0.85,0,1.54-0.69,1.54-1.54V1.59c0-0.01-0.01-0.02-0.01-0.03C32.28,1.56,32.28,1.55,32.28,1.54z M18.98,3.08h10.23V28.4H17.75V4.42
	c0-0.04,0.02-0.07,0.02-0.11c0-0.03-0.01-0.05-0.01-0.07C17.8,3.59,18.32,3.08,18.98,3.08z M8.93,28.4H3.08V3.08h10.38
	c0.64,0,1.15,0.49,1.21,1.12v24.2H9.56H8.93z"/>
</svg>
