<?xml version="1.0" encoding="utf-8"?>
<!-- Generator: Adobe Illustrator 25.1.0, SVG Export Plug-In . SVG Version: 6.00 Build 0)  -->
<svg version="1.1" id="Capa_1" xmlns="http://www.w3.org/2000/svg" xmlns:xlink="http://www.w3.org/1999/xlink" x="0px" y="0px"
	 viewBox="0 0 344.67 291.59" style="enable-background:new 0 0 344.67 291.59;" xml:space="preserve">
<style type="text/css">
	.st0{fill:#151A21;}
	.st1{fill:#FFFFFF;}
	.st2{fill:#FFA906;}
	.st3{fill:#EEE5D7;}
	.st4{fill:#F9F5F2;}
</style>
<g>
	<polygon class="st0" points="0,169.01 131.92,92.85 344.23,215.43 212.31,291.59 	"/>
	<path class="st1" d="M344.67,128.23L344.67,128.23l-14.55-8.4L325.16,104l-73.46-42.41c-5.13-2.96-9.71-3.73-12.76-1.99
		c-0.01-0.01-4.7,2.7-4.7,2.7c-0.15-0.57-0.33-1.13-0.52-1.69c-0.06-0.17-0.12-0.33-0.18-0.5c-0.14-0.4-0.29-0.8-0.45-1.19
		c-0.07-0.18-0.15-0.35-0.22-0.53c-0.17-0.39-0.35-0.78-0.54-1.17c-0.07-0.15-0.15-0.3-0.22-0.45c-0.22-0.44-0.46-0.88-0.7-1.31
		c-0.05-0.09-0.09-0.17-0.14-0.26c-3.04-5.28-7.63-9.82-12.77-12.79L145.04,0L35.73,63.11l-4.31,8.81l-11.56,6.67v0l0,0v3.27
		l80.41,46.43v-0.02l6.1,3.48c0.77,0.45,1.25,1.27,1.25,2.16c0,3.12,2.67,7.22,5.01,8.58l24.82,14.35c2.34,1.35,5.61,0.46,5.61-2.66
		c0.26-1.1,0.83-0.72,1.78-0.16v0.02l80.41,46.43l119.42-68.94L344.67,128.23L344.67,128.23z"/>
	<path class="st2" d="M308.42,107.31L308.42,107.31l-80.41-46.43l0,0L139.27,9.65L19.86,78.59l88.74,51.23
		c0.77,0.45,1.25,1.27,1.25,2.16c0,3.12,1.9,6.75,4.24,8.1l23.37,13.49c0.29,0.17,0.58,0.29,0.85,0.38c0.28,0.08,0.54,0.13,0.8,0.13
		c1.52,0.02,2.59-1.37,2.59-3.71c0.04-0.17,0.13-0.28,0.25-0.37c0.04-0.03,0.08-0.05,0.13-0.07c0.15-0.06,0.33-0.08,0.54-0.06
		c0.03,0,0.05,0.01,0.08,0.01c0.2,0.03,0.42,0.08,0.64,0.16c0.03,0.01,0.06,0.02,0.1,0.03c0.23,0.09,0.47,0.19,0.69,0.3
		c0.05,0.02,0.09,0.04,0.14,0.07c0.21,0.11,0.42,0.22,0.59,0.31l80.41,46.43l119.42-68.94L308.42,107.31z"/>
	<path class="st1" d="M325.16,104l-73.46-42.41c-5.13-2.96-9.71-3.73-12.76-1.99c-0.01-0.01-4.7,2.7-4.7,2.7
		c-2.2-8.22-8.41-15.65-15.75-19.89L145.04,0L35.73,63.11l65.35,37.73l24.71,30.84l10.03-5.79l80.03,41.22l92.7-53.52l16.61,9.59
		V104z"/>
	<polygon class="st2" points="344.67,131.51 225.25,200.45 225.25,197.18 344.67,128.23 	"/>
	<g>
		<polygon class="st3" points="325.16,104 215.86,167.11 223.17,190.51 332.48,127.4 		"/>
	</g>
	<g>
		<path class="st3" d="M129.64,122.71c-0.01-0.01,104.61-60.41,104.61-60.41c-1.3-4.87-4.01-9.45-7.53-13.26l-109.31,63.11
			c5,5.42,8.39,12.41,8.39,19.54C125.79,127.02,127.24,124.08,129.64,122.71z"/>
	</g>
	<path class="st4" d="M215.86,167.11l-73.46-42.41c-9.17-5.3-16.61-3.6-16.61,6.99c0-10.59-7.43-20.87-16.61-26.16L35.73,63.11
		l-7.32,14.95l80.77,46.63c4.9,2.83,9.3,7.83,12.34,13.48l4.27,2.46l4.27,2.46c3.04-2.15,7.44-2.07,12.34,0.76l80.78,46.64
		L215.86,167.11z"/>
	<polygon class="st2" points="144.84,154.03 225.25,200.45 225.25,197.18 144.84,150.75 	"/>
	<polygon class="st2" points="19.85,81.86 100.27,128.29 100.27,125.02 19.85,78.59 	"/>
	<g>
		<path class="st2" d="M141.69,150.37c0,3.12-1.9,4.56-4.24,3.21l-23.37-13.49c-2.34-1.35-4.24-4.98-4.24-8.1
			c0-0.89-0.48-1.72-1.25-2.16l-8.32-4.8v3.25l6.1,3.48c0.77,0.45,1.25,1.27,1.25,2.16c0,3.12,2.67,7.22,5.01,8.58l24.82,14.35
			c2.34,1.35,5.61,0.46,5.61-2.66c0.26-1.1,0.83-0.72,1.78-0.16v-3.25C143.88,150.2,141.94,149.27,141.69,150.37z"/>
	</g>
	<path class="st1" d="M19.85,78.59"/>
</g>
</svg>
