<?xml version="1.0" encoding="utf-8"?>
<!-- Generator: Adobe Illustrator 25.1.0, SVG Export Plug-In . SVG Version: 6.00 Build 0)  -->
<svg version="1.1" id="Capa_1" xmlns="http://www.w3.org/2000/svg" xmlns:xlink="http://www.w3.org/1999/xlink" x="0px" y="0px"
	 viewBox="0 0 38.02 32.47" style="enable-background:new 0 0 38.02 32.47;" xml:space="preserve">
<style type="text/css">

</style>
<g>
	<path class="st0" d="M8.97,32.47c-0.25,0-0.51-0.06-0.74-0.17c-0.59-0.29-0.96-0.88-0.96-1.54v-4.7H3.42
		C1.53,26.06,0,24.53,0,22.64V3.42C0,1.53,1.53,0,3.42,0H34.6c1.88,0,3.42,1.53,3.42,3.42v19.22c0,1.88-1.53,3.42-3.42,3.42H17.68
		l-7.64,6.04C9.73,32.34,9.35,32.47,8.97,32.47L8.97,32.47z M3.42,3.42v19.22h5.56c0.94,0,1.71,0.76,1.71,1.71v2.88l5.34-4.22
		c0.3-0.24,0.68-0.37,1.06-0.37H34.6V3.42H3.42L3.42,3.42z"/>
</g>
</svg>
