<?xml version="1.0" encoding="utf-8"?>
<!-- Generator: Adobe Illustrator 25.1.0, SVG Export Plug-In . SVG Version: 6.00 Build 0)  -->
<svg version="1.1" id="Capa_1" xmlns="http://www.w3.org/2000/svg" xmlns:xlink="http://www.w3.org/1999/xlink" x="0px" y="0px"
	 viewBox="0 0 198.89 317.02" style="enable-background:new 0 0 198.89 317.02;" xml:space="preserve">
<style type="text/css">
	.st0{fill:#151A21;}
	.st1{fill:#FFA906;}
	.st2{fill:#FF8308;}
</style>
<g>
	<polygon class="st0" points="190.94,301.38 35.05,211.38 7.95,227.02 163.84,317.02 	"/>
	<path class="st1" d="M198.89,120.45c0.04-15.21-10.75-33.93-24.09-41.63l-11.67-6.86l0.02-0.01l-1.93-1.11l-1.28-0.75l-0.07-0.03
		L43.95,3.27C37.3-0.57,31.23-0.91,26.84,1.64C20.18,5.51,13.51,9.38,6.85,13.26c1.23-0.72,2.6-1.2,4.07-1.44
		C4.52,13.12,0.28,19.1,0.25,28.58L0,116.77c-0.04,15.21,10.77,33.94,24.01,41.58l93.82,54.17l28.77,49.94l19.99-11.62l0.04-13.67
		c2.54-0.16,4.8-1,6.67-2.44l18.42-10.71c0,0,6.99-3.24,7.04-15.39l0.12-42.02l0,0v-0.93l0.01-4.78l-0.01,0.01L198.89,120.45z"/>
	<g>
		<g>
			<polygon class="st2" points="146.69,229.18 166.68,217.57 166.59,250.84 146.6,262.46 			"/>
		</g>
	</g>
	<path class="st2" d="M198.88,160.92l0.01-40.47c0.04-15.21-10.75-33.93-24.09-41.63l-11.67-6.86l0.02-0.01l-1.93-1.11l-1.28-0.75
		l-0.07-0.03L43.95,3.27C37.3-0.57,31.23-0.91,26.84,1.64C20.18,5.51,13.51,9.38,6.85,13.26c4.39-2.55,10.45-2.21,17.11,1.64
		l55.81,32.15l-0.04,0l59.22,34.26l0.04,0l15.81,9.13c13.34,7.7,24.14,26.42,24.1,41.63l-0.02,44.69l-0.13,43.5
		c0,0,0.54,10.7-7.03,15.39l19.99-11.62c0,0,6.99-3.24,7.04-15.39l0.12-42.02l0,0v-0.93l0.01-4.78L198.88,160.92z"/>
	<g>
		<path class="st1" d="M155.26,90.36c13.34,7.7,24.14,26.42,24.1,41.63l-0.25,88.19c-0.04,15.21-10.91,21.42-24.25,13.72l-8.16-4.71
			l-0.1,33.28l-28.77-49.94l-93.82-54.17C10.77,150.71-0.04,131.98,0,116.77l0.25-88.19C0.3,13.38,11.18,7.18,24.41,14.82
			L155.26,90.36z"/>
	</g>
</g>
</svg>
