<?xml version="1.0" encoding="utf-8"?>
<!-- Generator: Adobe Illustrator 25.1.0, SVG Export Plug-In . SVG Version: 6.00 Build 0)  -->
<svg version="1.1" id="Capa_1" xmlns="http://www.w3.org/2000/svg" xmlns:xlink="http://www.w3.org/1999/xlink" x="0px" y="0px"
	 viewBox="0 0 26.42 32.47" style="enable-background:new 0 0 26.42 32.47;" xml:space="preserve">
<style type="text/css">

</style>
<path class="st0" d="M24.98,0H1.44C0.64,0,0,0.64,0,1.44v29.59c0,0.8,0.64,1.44,1.44,1.44h14.89c0.38,0,0.75-0.15,1.02-0.42L26,23.4
	c0.27-0.27,0.42-0.64,0.42-1.02V1.44C26.42,0.64,25.78,0,24.98,0z M2.88,2.88h20.66V20.5h-8.2c-0.49,0-0.89,0.4-0.89,0.89v8.2H2.88
	V2.88z M17.05,28.27V23.1h5.17L17.05,28.27z"/>
</svg>
