<?xml version="1.0" encoding="utf-8"?>
<!-- Generator: Adobe Illustrator 25.1.0, SVG Export Plug-In . SVG Version: 6.00 Build 0)  -->
<svg version="1.1" id="Capa_1" xmlns="http://www.w3.org/2000/svg" xmlns:xlink="http://www.w3.org/1999/xlink" x="0px" y="0px"
	 viewBox="0 0 187.02 344.07" style="enable-background:new 0 0 187.02 344.07;" xml:space="preserve">
<style type="text/css">
	.st0{fill-rule:evenodd;clip-rule:evenodd;fill:#151A21;}
	.st1{fill-rule:evenodd;clip-rule:evenodd;fill:#F9F5F2;}
	.st2{fill-rule:evenodd;clip-rule:evenodd;fill:#FFA906;}
	.st3{fill-rule:evenodd;clip-rule:evenodd;fill:#FF8308;}
	.st4{fill-rule:evenodd;clip-rule:evenodd;fill:#EEE5D7;}
	.st5{fill-rule:evenodd;clip-rule:evenodd;fill:#FFFFFF;}
</style>
<g>
	<polygon class="st0" points="58.91,344.07 187.02,270.11 128.11,236.11 0,310.07 	"/>
	<polygon class="st1" points="164.14,44.57 159.03,47.51 159.03,41.62 156.79,40.33 151.68,43.28 151.68,37.38 149.44,36.1 
		144.67,38.84 144.67,32.21 142.44,30.91 137.33,33.86 137.33,27.97 135.09,26.67 129.99,29.62 129.99,1.29 127.75,0 20.65,61.71 
		20.65,244.06 22.89,245.35 28,242.4 28,270.74 30.24,272.03 35.34,269.09 35.34,274.97 37.59,276.27 42.35,273.52 42.35,280.16 
		44.58,281.44 49.7,278.5 49.7,284.39 51.93,285.69 57.04,282.75 57.04,288.63 59.28,289.93 166.36,228.22 166.36,45.86 	"/>
	<polygon class="st2" points="129.99,1.29 22.89,62.99 22.89,245.35 129.99,183.64 	"/>
	<polygon class="st3" points="22.89,245.35 20.65,244.06 20.65,61.71 22.89,62.99 	"/>
	<polygon class="st4" points="135.09,26.67 28,88.38 28,270.74 135.09,209.03 	"/>
	<polygon class="st1" points="137.34,27.97 30.24,89.68 30.24,272.03 137.34,210.32 	"/>
	<polygon class="st4" points="30.24,272.03 28,270.74 28,88.38 30.24,89.68 	"/>
	<polygon class="st4" points="142.44,30.91 35.34,92.63 35.34,274.97 142.44,213.26 	"/>
	<polygon class="st1" points="144.67,32.21 37.59,93.91 37.59,276.27 144.67,214.56 	"/>
	<polygon class="st4" points="37.59,276.27 35.34,274.97 35.34,92.63 37.59,93.91 	"/>
	<polygon class="st3" points="20.65,61.71 22.89,62.99 129.99,1.29 127.75,0 	"/>
	<polygon class="st5" points="28,88.38 30.24,89.68 137.34,27.97 135.09,26.67 	"/>
	<polygon class="st5" points="35.34,92.63 37.59,93.91 144.67,32.21 142.44,30.91 	"/>
	<polygon class="st4" points="149.44,36.1 42.35,97.8 42.35,280.16 149.44,218.44 	"/>
	<polygon class="st1" points="151.68,37.38 44.58,99.09 44.58,281.44 151.68,219.73 	"/>
	<polygon class="st4" points="44.58,281.44 42.35,280.16 42.35,97.8 44.58,99.09 	"/>
	<polygon class="st4" points="156.79,40.33 49.7,102.04 49.7,284.39 156.79,222.69 	"/>
	<polygon class="st1" points="159.03,41.62 51.93,103.33 51.93,285.69 159.03,223.98 	"/>
	<polygon class="st4" points="51.93,285.69 49.7,284.39 49.7,102.04 51.93,103.33 	"/>
	<polygon class="st4" points="164.14,44.57 57.04,106.29 57.04,288.63 164.13,226.92 	"/>
	<polygon class="st5" points="166.36,45.86 59.28,107.57 59.28,289.93 166.36,228.22 	"/>
	<polygon class="st4" points="59.28,289.93 57.04,288.63 57.04,106.29 59.28,107.57 	"/>
	<polygon class="st5" points="42.35,97.8 44.58,99.09 151.68,37.38 149.44,36.1 	"/>
	<polygon class="st5" points="49.7,102.04 51.93,103.33 159.03,41.62 156.79,40.33 	"/>
	<polygon class="st1" points="57.04,106.29 59.28,107.57 166.36,45.86 164.14,44.57 	"/>
</g>
</svg>
