<?xml version="1.0" encoding="utf-8"?>
<!-- Generator: Adobe Illustrator 25.1.0, SVG Export Plug-In . SVG Version: 6.00 Build 0)  -->
<svg version="1.1" id="Capa_1" xmlns="http://www.w3.org/2000/svg" xmlns:xlink="http://www.w3.org/1999/xlink" x="0px" y="0px"
	 viewBox="0 0 26.42 22.67" style="enable-background:new 0 0 26.42 22.67;" xml:space="preserve">
<style type="text/css">
	.st0{fill:#ffa906;}
</style>
<g>
	<g>
		<g>
			<path class="st0" d="M26.42,10.06c0,0.34-0.1,0.67-0.31,0.97c-0.53,0.74-1.56,0.9-2.3,0.36l-10.6-7.71l-10.6,7.71
				c-0.73,0.53-1.76,0.37-2.3-0.36c-0.53-0.73-0.37-1.76,0.36-2.3l11.57-8.41c0.58-0.42,1.36-0.42,1.93,0l11.57,8.41
				C26.19,9.05,26.42,9.55,26.42,10.06L26.42,10.06z"/>
		</g>
	</g>
	<g>
		<g>
			<path class="st0" d="M26.42,21.02c0,0.34-0.1,0.67-0.31,0.97c-0.53,0.74-1.56,0.9-2.3,0.36l-10.6-7.71l-10.6,7.71
				c-0.73,0.53-1.76,0.37-2.3-0.36c-0.53-0.73-0.37-1.76,0.36-2.3l11.57-8.41c0.58-0.42,1.36-0.42,1.93,0l11.57,8.41
				C26.19,20.01,26.42,20.52,26.42,21.02L26.42,21.02z"/>
		</g>
	</g>
</g>
</svg>
