<?xml version="1.0" encoding="utf-8"?>
<!-- Generator: Adobe Illustrator 25.1.0, SVG Export Plug-In . SVG Version: 6.00 Build 0)  -->
<svg version="1.1" id="Capa_1" xmlns="http://www.w3.org/2000/svg" xmlns:xlink="http://www.w3.org/1999/xlink" x="0px" y="0px"
	 viewBox="0 0 76.66 83" style="enable-background:new 0 0 76.66 83;" xml:space="preserve">
<style type="text/css">
	.st0{fill:#FFFFFF;}
</style>
<g>
	<g>
		<path class="st0" d="M76.66,24.99c0-4.12-2.48-6.79-5.83-7.78c-0.02-0.01-0.03-0.04,0-0.05c2.33-1.05,5.07-3.12,5.07-7.12
			C75.9,4.04,70.66,0,63.56,0H42v34.98h22.27C72.73,34.98,76.66,30.28,76.66,24.99z"/>
		<path class="st0" d="M14.79,46.38c-7.75,0-13.37,4.53-13.37,10.81c0,5.83,3.82,8.4,7.84,10c0,0,0,0,0,0L0,76.45
			C2.18,79.89,6.28,83,14.19,83c8.24,0,13.97-4.86,13.97-11.35c0-6.15-4.33-8.68-8.63-10.26c0,0,0,0,0,0l8.63-8.63
			C25.54,49,20.84,46.38,14.79,46.38z"/>
		<polygon class="st0" points="22.91,0 10.64,0 7.34,0 1.64,0 1.64,34.98 8.7,34.98 26.52,34.98 26.52,34.98 28.36,34.98 
			28.36,17.22 22.91,17.22 		"/>
		<polygon class="st0" points="65.42,48.7 48.57,48.7 48.57,56.92 40.34,56.92 40.34,73.77 48.57,73.77 48.57,82 65.42,82 
			65.42,73.77 73.65,73.77 73.65,56.92 65.42,56.92 		"/>
	</g>
</g>
</svg>
