<?xml version="1.0" encoding="utf-8"?>
<!-- Generator: Adobe Illustrator 25.1.0, SVG Export Plug-In . SVG Version: 6.00 Build 0)  -->
<svg version="1.1" id="Capa_1" xmlns="http://www.w3.org/2000/svg" xmlns:xlink="http://www.w3.org/1999/xlink" x="0px" y="0px"
	 viewBox="0 0 192.92 33.14" style="enable-background:new 0 0 192.92 33.14;" xml:space="preserve">
<style type="text/css">
	.st0{fill:#FFA906;}
</style>
<g>
	<g>
		<g>
			<path class="st0" d="M28.71,9.36c0-1.54-0.93-2.54-2.18-2.91c-0.01,0-0.01-0.01,0-0.02c0.87-0.39,1.9-1.17,1.9-2.67
				c0-2.25-1.96-3.76-4.62-3.76h-8.08v13.1h8.34C27.24,13.1,28.71,11.34,28.71,9.36z"/>
			<path class="st0" d="M5.54,17.37c-2.9,0-5.01,1.7-5.01,4.05c0,2.18,1.43,3.15,2.94,3.74c0,0,0,0,0,0L0,28.63
				c0.82,1.29,2.35,2.45,5.31,2.45c3.09,0,5.23-1.82,5.23-4.25c0-2.3-1.62-3.25-3.23-3.84c0,0,0,0,0,0l3.23-3.23
				C9.56,18.35,7.81,17.37,5.54,17.37z"/>
			<polygon class="st0" points="8.58,0 3.99,0 2.75,0 0.61,0 0.61,13.1 3.26,13.1 9.93,13.1 9.93,13.1 10.62,13.1 10.62,6.45 
				8.58,6.45 			"/>
			<polygon class="st0" points="24.5,18.24 18.19,18.24 18.19,21.32 15.11,21.32 15.11,27.63 18.19,27.63 18.19,30.71 24.5,30.71 
				24.5,27.63 27.58,27.63 27.58,21.32 24.5,21.32 			"/>
		</g>
		<g>
			<path class="st0" d="M57.03,0.78h1.42v8.78h5.24v1.34h-6.67V0.78z"/>
			<path class="st0" d="M64.41,7.11c0-2.19,1.6-3.96,3.75-3.96c2.11,0,3.73,1.69,3.73,3.82c0,0.19-0.02,0.39-0.05,0.51h-6
				c0.16,1.36,1.15,2.37,2.59,2.37c0.85,0,1.61-0.33,2.12-0.84l0.74,0.96c-0.61,0.66-1.69,1.12-2.91,1.12
				C66.07,11.1,64.41,9.31,64.41,7.11z M65.86,6.55h4.58c-0.22-1.41-1.09-2.2-2.28-2.2C66.94,4.35,66.07,5.28,65.86,6.55z"/>
			<path class="st0" d="M79.65,9.72c-0.58,0.84-1.5,1.37-2.65,1.37c-2.06,0-3.67-1.69-3.67-3.98c0-2.24,1.55-3.96,3.67-3.96
				c1.15,0,2.07,0.51,2.65,1.33V3.34h1.41v7.57h-1.41V9.72z M79.65,7.11c0-1.48-1.03-2.65-2.45-2.65c-1.42,0-2.46,1.17-2.46,2.65
				c0,1.47,1.04,2.67,2.46,2.67C78.62,9.78,79.65,8.58,79.65,7.11z"/>
			<path class="st0" d="M85.18,10.91h-1.41V3.34h1.41v0.95c0.41-0.69,1.06-1.14,1.9-1.14c0.47,0,0.88,0.11,1.15,0.33l-0.58,1.31
				c-0.25-0.17-0.62-0.3-0.98-0.3c-0.91,0-1.48,0.79-1.48,2.05V10.91z"/>
			<path class="st0" d="M91.32,10.91h-1.41V3.34h1.41v0.93c0.48-0.71,1.28-1.12,2.28-1.12c1.79,0,2.94,1.21,2.94,3.13v4.63h-1.41
				V6.5c0-1.25-0.73-2.04-1.91-2.04c-1.19,0-1.9,0.79-1.9,2.04V10.91z"/>
			<path class="st0" d="M98.93,1.16c0-0.47,0.39-0.87,0.87-0.87c0.48,0,0.87,0.39,0.87,0.87s-0.39,0.87-0.87,0.87
				C99.32,2.03,98.93,1.63,98.93,1.16z M100.51,10.91H99.1V3.34h1.41V10.91z"/>
			<path class="st0" d="M104.61,10.91h-1.41V3.34h1.41v0.93c0.47-0.71,1.28-1.12,2.28-1.12c1.78,0,2.94,1.21,2.94,3.13v4.63h-1.41
				V6.5c0-1.25-0.73-2.04-1.91-2.04c-1.19,0-1.9,0.79-1.9,2.04V10.91z"/>
			<path class="st0" d="M115.59,12.91c1.59,0,2.51-0.85,2.51-2.46v-0.9c-0.59,0.82-1.5,1.34-2.66,1.34c-2.02,0-3.6-1.64-3.6-3.87
				c0-2.19,1.58-3.84,3.6-3.84c1.15,0,2.07,0.49,2.66,1.28V3.34h1.39v7.03c0,2.79-1.77,3.82-3.82,3.82c-1.39,0-2.49-0.35-3.22-0.96
				l0.71-1.11C113.66,12.5,114.5,12.91,115.59,12.91z M118.1,7c0-1.41-1.01-2.54-2.42-2.54c-1.41,0-2.43,1.14-2.43,2.54
				c0,1.42,1.02,2.58,2.43,2.58C117.09,9.58,118.1,8.43,118.1,7z"/>
			<path class="st0" d="M125.89,0.8h4.01c1.77,0,3.15,1.15,3.15,2.72c0,1.2-0.87,1.9-1.55,2.16c1.01,0.3,1.88,1.11,1.88,2.43
				c0,1.5-1.23,2.8-3.22,2.8h-4.26V0.8z M127.31,2.06v3.08h2.45c1.03,0,1.8-0.66,1.8-1.53s-0.77-1.55-1.8-1.55H127.31z M127.31,6.34
				v3.28h2.67c1.09,0,1.91-0.71,1.91-1.64c0-0.93-0.82-1.64-1.9-1.64H127.31z"/>
			<path class="st0" d="M135.28,1.16c0-0.47,0.4-0.87,0.87-0.87s0.87,0.39,0.87,0.87s-0.39,0.87-0.87,0.87S135.28,1.63,135.28,1.16z
				 M136.86,10.91h-1.41V3.34h1.41V10.91z"/>
			<path class="st0" d="M142.96,4.46c-1.5,0-2.54,1.17-2.54,2.65c0,1.47,1.04,2.67,2.53,2.67c0.82,0,1.53-0.27,2.04-0.77l0.73,1.03
				c-0.6,0.65-1.66,1.06-2.81,1.06c-2.21,0-3.89-1.79-3.89-3.98c0-2.19,1.69-3.96,3.9-3.96c1.22,0,2.21,0.41,2.84,1.06l-0.81,1
				C144.44,4.73,143.78,4.46,142.96,4.46z"/>
			<path class="st0" d="M148.74,7.52c0,1.33,0.77,2.21,1.94,2.21c1.2,0,1.98-0.88,1.98-2.21V3.34h1.41v4.3
				c0,2.05-1.34,3.41-3.38,3.41c-2.02,0-3.35-1.36-3.35-3.41v-4.3h1.41V7.52z"/>
			<path class="st0" d="M156.65,0.04h1.41v10.87h-1.41V0.04z"/>
			<path class="st0" d="M159.9,3.34h1.26V1.46h1.39v1.88h2.15v1.25h-2.13v4c0,0.81,0.36,1.2,1.04,1.2c0.38,0,0.76-0.14,0.98-0.39
				l0.65,1.06c-0.35,0.35-0.98,0.65-1.82,0.65c-1.42,0-2.28-0.84-2.28-2.46V4.59h-1.25V3.34z"/>
			<path class="st0" d="M168.2,7.52c0,1.33,0.77,2.21,1.94,2.21c1.2,0,1.97-0.88,1.97-2.21V3.34h1.41v4.3
				c0,2.05-1.34,3.41-3.38,3.41c-2.02,0-3.35-1.36-3.35-3.41v-4.3h1.41V7.52z"/>
			<path class="st0" d="M177.52,10.91h-1.41V3.34h1.41v0.95c0.41-0.69,1.06-1.14,1.9-1.14c0.47,0,0.88,0.11,1.15,0.33l-0.58,1.31
				c-0.25-0.17-0.62-0.3-0.98-0.3c-0.91,0-1.48,0.79-1.48,2.05V10.91z"/>
			<path class="st0" d="M187.39,9.72c-0.58,0.84-1.5,1.37-2.65,1.37c-2.06,0-3.67-1.69-3.67-3.98c0-2.24,1.55-3.96,3.67-3.96
				c1.15,0,2.07,0.51,2.65,1.33V3.34h1.41v7.57h-1.41V9.72z M187.39,7.11c0-1.48-1.03-2.65-2.45-2.65c-1.42,0-2.46,1.17-2.46,2.65
				c0,1.47,1.04,2.67,2.46,2.67C186.36,9.78,187.39,8.58,187.39,7.11z"/>
			<path class="st0" d="M191.51,0.04h1.41v10.87h-1.41V0.04z"/>
			<path class="st0" d="M62.63,22.08c-0.46-0.65-1.42-1.2-2.51-1.2c-1.22,0-1.97,0.54-1.97,1.36c0,2.23,5.65,1.21,5.65,4.82
				c0,1.79-1.45,2.99-3.71,2.99c-1.9,0-3.13-0.74-3.82-1.72l1.03-0.96c0.68,0.89,1.66,1.34,2.81,1.34c1.39,0,2.18-0.6,2.18-1.55
				c0-2.47-5.66-1.37-5.66-4.87c0-1.63,1.44-2.75,3.54-2.75c1.58,0,2.86,0.7,3.47,1.56L62.63,22.08z"/>
			<path class="st0" d="M68.79,28.2l2.15-5.91h1.42l-3.27,8.8c-0.49,1.37-1.28,2.05-2.45,2.05c-0.66,0-1.34-0.27-1.82-0.7l0.66-1.09
				c0.33,0.32,0.76,0.47,1.18,0.47c0.56,0,0.92-0.32,1.25-1.23l0.24-0.65l-3.43-7.66h1.53L68.79,28.2z"/>
			<path class="st0" d="M79.08,27.78c0,1.28-1.06,2.26-2.95,2.26c-1.39,0-2.43-0.49-3.03-1.23l0.82-0.92
				c0.52,0.63,1.31,1.01,2.31,1.01c0.95,0,1.47-0.44,1.47-1.09c0-1.72-4.28-0.93-4.28-3.62c0-1.11,0.96-2.1,2.73-2.1
				c1.3,0,2.29,0.42,2.81,1.17l-0.84,0.84c-0.5-0.63-1.12-0.87-1.94-0.87c-0.85,0-1.39,0.41-1.39,0.96
				C74.79,25.83,79.08,24.99,79.08,27.78z"/>
			<path class="st0" d="M80.26,22.29h1.26v-1.88h1.39v1.88h2.15v1.25h-2.13v4c0,0.81,0.36,1.2,1.04,1.2c0.38,0,0.76-0.14,0.98-0.39
				l0.65,1.06c-0.35,0.35-0.98,0.65-1.82,0.65c-1.42,0-2.28-0.84-2.28-2.47v-4.04h-1.25V22.29z"/>
			<path class="st0" d="M86.33,26.06c0-2.2,1.59-3.96,3.74-3.96c2.12,0,3.73,1.69,3.73,3.82c0,0.19-0.02,0.39-0.05,0.51h-6
				c0.16,1.36,1.15,2.37,2.59,2.37c0.85,0,1.61-0.33,2.11-0.84l0.74,0.96c-0.62,0.66-1.69,1.12-2.91,1.12
				C87.99,30.04,86.33,28.26,86.33,26.06z M87.78,25.5h4.58c-0.22-1.41-1.09-2.2-2.28-2.2C88.85,23.3,87.99,24.23,87.78,25.5z"/>
			<path class="st0" d="M97.21,29.85H95.8v-7.57h1.41v0.95c0.46-0.69,1.22-1.14,2.18-1.14c1.19,0,2.07,0.57,2.53,1.53
				c0.41-0.88,1.25-1.53,2.47-1.53c1.75,0,2.89,1.18,2.89,3.13v4.63h-1.41v-4.41c0-1.25-0.68-2.04-1.8-2.04
				c-1.14,0-1.83,0.79-1.83,2.04v4.41h-1.39v-4.41c0-1.25-0.7-2.04-1.82-2.04c-1.14,0-1.82,0.79-1.82,2.04V29.85z"/>
		</g>
	</g>
</g>
</svg>
