<?xml version="1.0" encoding="utf-8"?>
<!-- Generator: Adobe Illustrator 25.1.0, SVG Export Plug-In . SVG Version: 6.00 Build 0)  -->
<svg version="1.1" id="Capa_1" xmlns="http://www.w3.org/2000/svg" xmlns:xlink="http://www.w3.org/1999/xlink" x="0px" y="0px"
	 viewBox="0 0 43.98 43.98" style="enable-background:new 0 0 43.98 43.98;" xml:space="preserve">
<style type="text/css">
	.st0{fill:#8128CF;}
	.st1{fill:#FFFFFF;}
	.st2{fill:#FF437D;}
	.st3{fill:#00B6BA;}
	.st4{fill:#FFC100;}
</style>
<rect class="st0" width="21.99" height="21.99"/>
<path class="st1" d="M6.18,4.23h3.48v10.26h6.14v3.27H6.18V4.23z"/>
<rect x="21.99" class="st2" width="21.99" height="21.99"/>
<path class="st1" d="M27.69,4.23h5.53c2.74,0,4.77,1.56,4.77,3.88c0,1.56-1.08,2.36-1.98,2.76c1.31,0.38,2.28,1.41,2.28,3.02
	c0,2.05-1.52,3.86-4.79,3.86h-5.8V4.23z M31.17,7.29v2.26h1.73c0.89,0,1.46-0.44,1.46-1.14c0-0.68-0.57-1.12-1.46-1.12L31.17,7.29
	L31.17,7.29z M31.17,12.38v2.32h2c0.89,0,1.46-0.46,1.46-1.18c0-0.7-0.57-1.14-1.46-1.14H31.17z"/>
<rect y="21.99" class="st3" width="21.99" height="21.99"/>
<path class="st1" d="M14.08,30.74c-0.59-0.84-1.65-1.56-2.95-1.56c-0.87,0-1.29,0.34-1.29,0.82c0,1.75,6.61,0.95,6.61,5.68
	c0,2.51-2.22,4.39-5.4,4.39c-3.06,0-4.64-1.2-5.49-2.53l2.47-2.32c0.78,1.08,1.84,1.58,3.08,1.58c1.06,0,1.6-0.34,1.6-0.97
	c0-1.84-6.61-0.97-6.61-5.74c0-2.43,2.17-4.18,5.17-4.18c2.34,0,4.16,1.01,5.17,2.47L14.08,30.74z"/>
<rect x="21.99" y="21.99" class="st4" width="21.99" height="21.99"/>
<path class="st1" d="M37.99,30.96H36.1c-0.88-0.15-1.06-0.97-1.09-1.26v-1.72c0-1.12-0.91-2.03-2.03-2.03
	c-1.12,0-2.03,0.91-2.03,2.03v1.99c-0.16,0.7-0.76,0.92-1.1,0.99h-1.87c-1.12,0-2.03,0.91-2.03,2.03c0,1.12,0.91,2.03,2.03,2.03h1.9
	c0.73,0.11,0.99,0.68,1.07,1.04v1.93c0,1.12,0.91,2.03,2.03,2.03c1.12,0,2.03-0.91,2.03-2.03v-1.68c0.03-0.97,0.78-1.23,1.16-1.3
	h1.82c1.12,0,2.03-0.91,2.03-2.03C40.02,31.87,39.11,30.96,37.99,30.96z"/>
</svg>
