<?xml version="1.0" encoding="utf-8"?>
<!-- Generator: Adobe Illustrator 25.1.0, SVG Export Plug-In . SVG Version: 6.00 Build 0)  -->
<svg version="1.1" id="Capa_3" xmlns="http://www.w3.org/2000/svg" xmlns:xlink="http://www.w3.org/1999/xlink" x="0px" y="0px"
	 viewBox="0 0 76.51 14.04" style="enable-background:new 0 0 76.51 14.04;" xml:space="preserve">
<style type="text/css">
	.st3{fill:#676F7A;}
</style>
<g>
	<path class="st3" d="M0,0h1.94v10.93H0V0z"/>
	<path class="st3" d="M12.12,7.12c0,2.3-1.54,4.04-3.65,4.04c-1,0-1.78-0.37-2.32-0.99v0.76H4.21V0h1.94v4.15
		C6.7,3.5,7.48,3.1,8.47,3.1C10.48,3.1,12.12,4.75,12.12,7.12z M6.15,7.13c0,1.22,0.86,2.19,2.02,2.19c1.18,0,2.02-0.97,2.02-2.19
		c0-1.22-0.84-2.21-2.02-2.21C7.01,4.92,6.15,5.91,6.15,7.13z"/>
	<path class="st3" d="M19.49,8.77c0,1.29-1.1,2.38-3.16,2.38c-1.45,0-2.54-0.52-3.19-1.29l1.08-1.24c0.59,0.65,1.32,0.97,2.22,0.97
		c0.75,0,1.13-0.32,1.13-0.79c0-1.37-4.08-0.7-4.08-3.43c0-1.16,0.99-2.27,2.92-2.27c1.37,0,2.45,0.46,3.02,1.25l-1.1,1.14
		c-0.51-0.6-1.14-0.84-1.87-0.84c-0.67,0-1.06,0.3-1.06,0.71C15.39,6.7,19.49,5.92,19.49,8.77z"/>
	<path class="st3" d="M23.15,3.32v0.83C23.7,3.5,24.48,3.1,25.47,3.1c2.02,0,3.65,1.65,3.65,4.02c0,2.3-1.54,4.04-3.65,4.04
		c-1,0-1.78-0.37-2.32-0.99v3.88h-1.94V3.32H23.15z M23.15,7.13c0,1.22,0.86,2.19,2.02,2.19c1.17,0,2.02-0.97,2.02-2.19
		c0-1.22-0.84-2.21-2.02-2.21C24,4.92,23.15,5.91,23.15,7.13z"/>
	<path class="st3" d="M30.9,0h1.94v10.93H30.9V0z"/>
	<path class="st3" d="M36.94,7.43c0,1.11,0.65,1.86,1.62,1.86c0.97,0,1.62-0.75,1.62-1.86V3.32h1.94v4.26
		c0,2.13-1.41,3.54-3.56,3.54c-2.14,0-3.56-1.41-3.56-3.54V3.32h1.94V7.43z"/>
	<path class="st3" d="M49.88,8.77c0,1.29-1.1,2.38-3.16,2.38c-1.45,0-2.54-0.52-3.19-1.29l1.08-1.24c0.59,0.65,1.32,0.97,2.22,0.97
		c0.75,0,1.13-0.32,1.13-0.79c0-1.37-4.08-0.7-4.08-3.43c0-1.16,0.98-2.27,2.92-2.27c1.37,0,2.45,0.46,3.02,1.25l-1.1,1.14
		c-0.51-0.6-1.14-0.84-1.87-0.84c-0.67,0-1.06,0.3-1.06,0.71C45.79,6.7,49.88,5.92,49.88,8.77z"/>
	<path class="st3" d="M51.01,9.86c0-0.7,0.56-1.27,1.25-1.27s1.27,0.57,1.27,1.27c0,0.7-0.57,1.25-1.27,1.25S51.01,10.56,51.01,9.86
		z"/>
	<path class="st3" d="M57.17,10.93h-1.94V3.32h1.94v0.81c0.46-0.63,1.19-1.03,2.1-1.03c1.11,0,1.97,0.51,2.43,1.4
		c0.44-0.75,1.22-1.4,2.43-1.4c1.76,0,2.92,1.19,2.92,3.22v4.61h-1.94V6.61c0-1.03-0.59-1.68-1.49-1.68c-0.94,0-1.51,0.65-1.51,1.68
		v4.32h-1.94V6.61c0-1.03-0.59-1.68-1.49-1.68c-0.94,0-1.51,0.65-1.51,1.68V10.93z"/>
	<path class="st3" d="M72.33,8.55l-1.79,2.38h-2.16l2.89-3.84l-2.78-3.76h2.4l1.65,2.24l1.68-2.24h2.18l-2.78,3.7l2.89,3.91h-2.41
		L72.33,8.55z"/>
</g>
</svg>
