<?xml version="1.0" encoding="utf-8"?>
<!-- Generator: Adobe Illustrator 25.1.0, SVG Export Plug-In . SVG Version: 6.00 Build 0)  -->
<svg version="1.1" id="Capa_1" xmlns="http://www.w3.org/2000/svg" xmlns:xlink="http://www.w3.org/1999/xlink" x="0px" y="0px"
	 viewBox="0 0 33.71 32.47" style="enable-background:new 0 0 33.71 32.47;" xml:space="preserve">
<style type="text/css">
	.st0{fill:#FFFFFF;}
</style>
<g>
	<path class="st0" d="M26.91,32.47c-0.94,0-1.98-0.4-2.61-1.01l-1.49-1.42c-3.79-3.63-7.58-7.27-11.37-10.91
		c-2.99,0.56-6.12-0.34-8.35-2.41C0.24,14.08-0.75,10,0.58,6.34C0.75,5.9,1.12,5.57,1.58,5.46c0.45-0.11,0.94,0.02,1.29,0.34
		L7.28,9.9l2.47-2.66l-4.42-4.1C4.98,2.82,4.82,2.35,4.9,1.88c0.07-0.47,0.38-0.86,0.81-1.06c3.48-1.56,7.74-0.86,10.54,1.74
		c2.26,2.11,3.36,5.1,3.02,8.15c3.25,2.92,6.5,5.84,9.74,8.77l3.5,3.15c0.67,0.6,1.32,1.9,1.18,3.11c-0.38,3.25-2.99,6.05-6.2,6.67
		C27.31,32.45,27.11,32.47,26.91,32.47L26.91,32.47z M11.87,16.18c0.36,0,0.71,0.14,0.97,0.39c3.97,3.81,7.95,7.62,11.92,11.43
		l1.49,1.43c0.09,0.07,0.41,0.22,0.66,0.22l0.04,0c2.01-0.39,3.71-2.21,3.95-4.24c0.02-0.16-0.14-0.56-0.27-0.69l-3.5-3.15
		c-3.43-3.09-6.87-6.18-10.31-9.27c-0.37-0.33-0.54-0.83-0.44-1.32c0.47-2.35-0.3-4.73-2.04-6.35c-1.41-1.31-3.31-1.96-5.21-1.81
		l2.85,2.65C12.94,6.37,13,7.89,12.1,8.86l-3.03,3.27c-0.86,0.93-2.46,0.99-3.4,0.12L2.82,9.6c-0.01,1.89,0.75,3.73,2.19,5.06
		c1.72,1.6,4.21,2.19,6.48,1.57C11.62,16.2,11.74,16.18,11.87,16.18L11.87,16.18z"/>
</g>
</svg>
