<?xml version="1.0" encoding="utf-8"?>
<!-- Generator: Adobe Illustrator 25.1.0, SVG Export Plug-In . SVG Version: 6.00 Build 0)  -->
<svg version="1.1" id="Capa_1" xmlns="http://www.w3.org/2000/svg" xmlns:xlink="http://www.w3.org/1999/xlink" x="0px" y="0px"
	 viewBox="0 0 191.14 318.14" style="enable-background:new 0 0 191.14 318.14;" xml:space="preserve">
<style type="text/css">
	.st0{fill:#151A21;}
	.st1{fill:#FFA906;}
	.st2{fill:#FF8308;}
</style>
<g>
	<path class="st0" d="M159.79,214.05c-0.2,0.11-0.42,0.18-0.61,0.29l-27.71,14.91l2.3,1.33c-0.1,0.06-0.19,0.13-0.3,0.19
		l-75.36,40.55l-2.33-1.34L0,299.99l31.44,18.15l44.46-23.92l-2.78-1.61l75.41-40.58c0.09-0.05,0.2-0.09,0.29-0.14l2.76,1.6
		l38.93-20.95c0.22-0.13,0.42-0.27,0.63-0.4L159.79,214.05z"/>
	<path class="st1" d="M182.09,17.93l-11.73-6.82l-17.73,30.72l0,0l-7.72-4.4l17.79-30.61c0.01,0,0.01,0,0.02-0.01l-0.01-0.01l0,0
		c0,0,0,0,0,0L150.98,0c-2.25,0.63-4.55,1.62-6.86,2.96c-4.07,2.35-8.13,5.74-11.87,9.99c-2.63,2.99-5.09,6.4-7.26,10.18
		c-1.21,2.09-2.27,4.2-3.2,6.3c-4.85,10.99-5.93,21.88-3.25,29.46l-74.71,129.4c-2.8,0.54-5.73,1.69-8.65,3.37
		c-4.07,2.35-8.14,5.75-11.87,10c-2.63,3-5.1,6.43-7.29,10.21c-1.2,2.08-2.26,4.18-3.19,6.27c-4.49,10.16-5.74,20.23-3.78,27.69
		l11.73,6.82c0,0,0,0,0,0.01l17.56-30.63l7.71,4.4l-17.62,30.53l11.73,6.82c2.25-0.63,4.55-1.63,6.85-2.96
		c6.94-4.01,13.86-11.03,19.14-20.17c7.66-13.26,9.73-27.28,6.25-36.3l74.33-128.75c2.98-0.49,6.1-1.68,9.22-3.48
		c6.95-4.01,13.88-11.06,19.17-20.21C182.15,39.72,184.45,26.93,182.09,17.93z"/>
	<g>
		<g>
			<polygon class="st2" points="57.84,233.14 46.11,226.32 28.43,256.94 40.16,263.76 			"/>
		</g>
	</g>
	<g>
		<g>
			<polygon class="st2" points="182.09,17.93 170.36,11.11 152.63,41.83 164.41,48.55 			"/>
		</g>
	</g>
	<path class="st2" d="M12.84,218.14c0.93-2.09,1.99-4.19,3.19-6.27c2.19-3.79,4.65-7.21,7.29-10.21c3.73-4.25,7.8-7.65,11.87-10
		c2.92-1.69,5.85-2.83,8.65-3.37l74.71-129.4c-2.68-7.59-1.6-18.47,3.25-29.46c0.93-2.1,2-4.21,3.2-6.3
		c2.18-3.77,4.64-7.19,7.26-10.18c3.73-4.25,7.8-7.64,11.87-9.99c2.31-1.33,4.61-2.33,6.86-2.96l11.73,6.82
		c-2.25,0.63-4.55,1.62-6.86,2.96c-4.07,2.35-8.13,5.74-11.87,9.99c-2.63,2.99-5.09,6.4-7.26,10.18c-1.21,2.09-2.27,4.2-3.2,6.3
		c-4.85,10.99-5.93,21.87-3.25,29.46L55.57,195.1c-2.8,0.54-5.73,1.69-8.65,3.37c-4.07,2.35-8.14,5.75-11.87,10
		c-2.64,3-5.1,6.43-7.29,10.21c-1.2,2.08-2.26,4.18-3.19,6.27c-4.49,10.16-5.74,20.23-3.78,27.69l-11.73-6.82
		C7.1,238.37,8.35,228.3,12.84,218.14z"/>
	<g>
		<path class="st1" d="M155.73,9.77c-6.93,4-13.86,11.03-19.13,20.17c-7.5,13-9.65,26.72-6.45,35.76L55.45,195.1
			c-2.8,0.54-5.73,1.69-8.65,3.37c-6.94,4.01-13.88,11.06-19.16,20.21c-7.03,12.18-9.2,24.97-6.85,33.97l17.56-30.63l19.5,11.12
			l-17.68,30.63c2.25-0.63,4.55-1.63,6.85-2.96c6.94-4.01,13.86-11.03,19.14-20.17c7.66-13.26,9.73-27.28,6.25-36.3l74.33-128.75
			c2.98-0.49,6.1-1.68,9.22-3.48c6.95-4.01,13.88-11.06,19.16-20.21c7.03-12.17,9.33-24.96,6.97-33.96l-17.68,30.62l-19.5-11.11
			L162.7,6.81C160.45,7.44,158.04,8.44,155.73,9.77z"/>
	</g>
</g>
</svg>
