<?xml version="1.0" encoding="utf-8"?>
<!-- Generator: Adobe Illustrator 25.1.0, SVG Export Plug-In . SVG Version: 6.00 Build 0)  -->
<svg version="1.1" id="Capa_1" xmlns="http://www.w3.org/2000/svg" xmlns:xlink="http://www.w3.org/1999/xlink" x="0px" y="0px"
	 viewBox="0 0 34.78 32.47" style="enable-background:new 0 0 34.78 32.47;" xml:space="preserve">
<style type="text/css">
	.st0{fill:#FFFFFF;}
</style>
<path class="st0" d="M33.24,4.2H17.01V3.08c0-1.7-1.38-3.08-3.08-3.08H3.13c-1.7,0-3.08,1.38-3.08,3.08v8.21
	C0.03,11.36,0,11.43,0,11.5s0.03,0.14,0.04,0.21v19.22c0,0.85,0.69,1.54,1.54,1.54h31.66c0.85,0,1.54-0.69,1.54-1.54V5.74
	C34.78,4.89,34.1,4.2,33.24,4.2z M13.92,3.08v2.66c0,0.85,0.69,1.54,1.54,1.54H31.7v2.68H3.13V3.08H13.92z M3.13,29.38V13.04H31.7
	v16.34H3.13z"/>
</svg>
