<?xml version="1.0" encoding="utf-8"?>
<!-- Generator: Adobe Illustrator 25.1.0, SVG Export Plug-In . SVG Version: 6.00 Build 0)  -->
<svg version="1.1" id="Capa_1" xmlns="http://www.w3.org/2000/svg" xmlns:xlink="http://www.w3.org/1999/xlink" x="0px" y="0px"
	 viewBox="0 0 210.25 318.03" style="enable-background:new 0 0 210.25 318.03;" xml:space="preserve">
<style type="text/css">
	.st0{fill-rule:evenodd;clip-rule:evenodd;fill:#151A21;}
	.st1{fill-rule:evenodd;clip-rule:evenodd;fill:#FFA906;}
	.st2{fill-rule:evenodd;clip-rule:evenodd;fill:#FF8308;}
	.st3{fill-rule:evenodd;clip-rule:evenodd;fill:#EEE5D7;}
	.st4{fill-rule:evenodd;clip-rule:evenodd;fill:#F9F5F2;}
</style>
<g>
	<polygon class="st0" points="210.25,218.98 171.57,196.65 0,295.7 38.69,318.03 	"/>
	<polygon class="st1" points="205.06,14.43 195.32,20.06 195.32,16.27 193.86,15.42 190.5,17.35 190.5,13.48 189.03,12.64 
		185.68,14.57 185.68,10.7 184.2,9.85 184.2,2.39 180.07,0 85,54.89 74.04,42.57 69.91,40.18 1.05,79.93 1.06,246.46 5.19,248.85 
		26.05,260.9 30.19,263.28 209.2,159.92 209.2,16.83 	"/>
	<polygon class="st1" points="180.07,0 180.07,127.21 1.06,230.56 1.05,79.93 69.91,40.18 83.68,55.66 	"/>
	<polygon class="st2" points="184.2,2.39 184.2,145.5 5.19,248.85 5.19,82.32 74.04,42.57 87.81,58.05 	"/>
	<polygon class="st3" points="184.2,9.85 15.69,107.14 15.69,226.89 184.2,129.59 	"/>
	<polygon class="st3" points="185.68,10.7 17.15,107.99 17.15,227.74 185.68,130.44 	"/>
	<polygon class="st3" points="17.15,227.74 15.69,226.89 15.69,107.14 17.15,107.99 	"/>
	<polygon class="st3" points="189.03,12.64 20.51,109.93 20.51,229.68 189.03,132.39 	"/>
	<polygon class="st3" points="190.5,13.48 21.98,110.78 21.98,230.53 190.5,133.24 	"/>
	<polygon class="st2" points="5.19,243.58 60.28,211.78 89.12,228.43 34.33,260.41 	"/>
	<polygon class="st3" points="21.98,230.53 20.51,229.68 20.51,109.93 21.98,110.78 	"/>
	<polygon class="st3" points="193.86,15.42 25.33,112.72 25.33,232.46 193.85,135.16 	"/>
	<polygon class="st3" points="195.32,16.27 26.81,113.56 26.81,233.31 195.32,136.01 	"/>
	<polygon class="st3" points="26.81,233.31 25.33,232.46 25.33,112.72 26.81,113.56 	"/>
	<polygon class="st1" points="26.05,260.9 30.19,263.28 30.19,258.01 30.19,120.17 26.05,117.79 26.05,255.62 5.19,243.58 
		5.19,82.32 1.05,79.93 1.06,246.46 5.19,248.85 	"/>
	<polygon class="st1" points="209.2,16.83 209.2,159.92 30.19,263.28 30.19,120.17 	"/>
	<polygon class="st1" points="1.05,79.93 5.19,82.32 74.04,42.57 69.91,40.18 	"/>
	<polygon class="st1" points="180.07,0 184.2,2.39 87.81,58.05 85.75,54.47 	"/>
	<polygon class="st4" points="15.69,107.14 17.15,107.99 185.68,10.7 184.2,9.85 	"/>
	<polygon class="st4" points="20.51,109.93 21.98,110.78 190.5,13.48 189.03,12.64 	"/>
	<polygon class="st4" points="25.33,112.72 26.81,113.56 195.32,16.27 193.86,15.42 	"/>
	<polygon class="st1" points="205.06,14.43 209.2,16.83 30.19,120.17 26.05,117.79 	"/>
</g>
</svg>
