<?xml version="1.0" encoding="utf-8"?>
<!-- Generator: Adobe Illustrator 25.1.0, SVG Export Plug-In . SVG Version: 6.00 Build 0)  -->
<svg version="1.1" id="Capa_1" xmlns="http://www.w3.org/2000/svg" xmlns:xlink="http://www.w3.org/1999/xlink" x="0px" y="0px"
	 viewBox="0 0 31.93 32.47" style="enable-background:new 0 0 31.93 32.47;" xml:space="preserve">
<style type="text/css">
	.st0{fill:#FFFFFF;}
</style>
<path class="st0" d="M31.52,30.08l-7.06-7.06c2.11-2.44,3.4-5.62,3.4-9.09C27.86,6.25,21.61,0,13.93,0C6.25,0,0,6.25,0,13.94
	c0,7.68,6.25,13.93,13.93,13.93c3.2,0,6.14-1.1,8.5-2.92l7.11,7.11c0.27,0.27,0.63,0.41,0.99,0.41c0.36,0,0.72-0.14,0.99-0.41
	C32.06,31.51,32.06,30.63,31.52,30.08z M2.8,13.94c0-6.14,5-11.14,11.14-11.14c6.14,0,11.13,5,11.14,11.14
	c0,6.14-5,11.13-11.14,11.13C7.79,25.07,2.8,20.07,2.8,13.94z"/>
</svg>
